<svg id="Layer_1" data-name="Layer 1" xmlns="http://www.w3.org/2000/svg" viewBox="0 0 792 612"><defs><style>.cls-1{fill:#2d3a5c;}.cls-2{fill:#ec0044;}.cls-3{fill:#fff;}</style></defs><title>Zest_Tea_Main_Logo</title><polygon class="cls-1" points="505.02 258.9 505.02 258.9 505.02 275.44 505.02 275.44 505.02 279.96 521.31 279.96 521.31 275.44 529.43 275.44 529.43 321.35 525.53 321.35 525.53 337.75 553.23 337.75 553.23 321.35 549.12 321.35 549.12 275.44 557.43 275.44 557.43 279.96 573.71 279.96 573.71 258.78 505.02 258.78 505.02 258.9"/><polygon class="cls-1" points="147.41 306.32 171.94 306.32 171.94 289.78 147.41 289.78 147.41 275.44 178.13 275.44 178.13 258.9 127.72 258.9 127.72 258.99 119.61 258.99 119.61 275.4 127.72 275.4 127.72 289.73 117.29 297.92 127.72 306.1 127.72 321.35 119.61 321.35 119.61 337.75 147.3 337.75 147.3 337.75 179.7 337.75 179.7 321.21 147.41 321.21 147.41 306.32"/><polygon class="cls-1" points="280.09 279.96 296.37 279.96 296.37 275.44 304.58 275.44 304.58 321.35 300.6 321.35 300.6 337.75 328.29 337.75 328.29 321.35 324.27 321.35 324.27 275.44 332.49 275.44 332.49 279.96 348.77 279.96 348.77 258.78 280.09 258.78 280.09 279.96"/><polygon class="cls-1" points="75.66 321.54 53.86 321.54 53.86 321.32 91.22 270.81 91.22 258.9 46.79 258.9 46.79 258.78 30.5 258.78 30.5 258.9 30.46 258.9 30.46 275.44 30.5 275.44 30.5 281.15 46.79 281.15 46.79 275.12 66.24 275.12 66.24 275.33 29 325.62 29 337.75 75.66 337.75 75.66 337.75 91.95 337.75 91.95 315.39 75.66 315.39 75.66 321.54"/><path class="cls-1" d="M757,313.75l-6.28-8H738.41L722.16,258.9h-32.8v16.16h6.5l-16.05,46.28h-4.44v16.41h19l4.84-16.54h25.09l5,16.54H749.5l-5.71-16.48h6.93Zm-53.18-8,4.62-15.33c1.46-5,3.26-13.57,3.26-13.57h0.22s1.81,8.6,3.27,13.57l4.5,15.33H703.82Z"/><path class="cls-1" d="M237.73,290.21c-7.29-2.53-13.91-4.84-13.91-10.22,0-4.06,4-5.38,8.63-5.38,5.05,0,9.31,1.65,9.31,4.72V280h17.95v-7.34c0-10-13.57-15.05-27.26-15.05-14.24,0-28.82,5.49-28.82,23,0,14.39,10.21,19.56,21.08,23.63,8.41,3.29,17.27,5.16,17.27,11.21,0,4.18-4.49,6.37-10.77,6.37s-11.55-2.31-11.55-6.37v-0.29H201.73v4.58c0,12.63,14.58,19.12,29.49,19.12,15.25,0,31-6.7,31-24.61C262.17,299.33,249.95,294.38,237.73,290.21Z"/><polygon class="cls-1" points="623.64 306.32 648.17 306.32 648.17 289.78 623.64 289.78 623.64 275.44 654.36 275.44 654.36 258.9 603.95 258.9 603.95 258.99 595.83 258.99 595.83 275.4 603.95 275.4 603.95 289.73 593.52 297.92 603.95 306.1 603.95 321.35 595.83 321.35 595.83 337.75 623.53 337.75 623.53 337.75 655.93 337.75 655.93 321.21 623.64 321.21 623.64 306.32"/><path class="cls-2" d="M462.21,284.54c5-32-8.66-44-24.69-57.83,0,0-2.17-2.16-3-1.9l1,1.62c5.75,10.06,7.42,15.7,4.88,23.37-1-11.82-11.41-23.07-25.54-36.59a3.92,3.92,0,0,0-2.09-.59l0.76,1.16c10.82,17.51,3.44,21.89-10.19,35.62-18.59,18.73-14.76,35.14-14.76,35.14-3.61-5.36-5-11-3.64-18.51a3,3,0,0,0,.13-0.64,0.66,0.66,0,0,0-.73.4c-5.1,11.16-8.29,21.52-4.19,29.49a50.73,50.73,0,0,0,5.11,7.88,78.6,78.6,0,0,0-3.74,23.12c0,13.17,6.58,25,21.61,35.17a117,117,0,0,0,22.73,11.84l0.38,0.12,0.38-.12a111.86,111.86,0,0,0,22.73-11.54c15-10,22.06-22,22.06-35.48a78.39,78.39,0,0,0-3.64-22.79c1.62-1.7,3.94-6.24,5-8.21,4.11-8,.92-18.31-4.18-29.46a1.2,1.2,0,0,0-.73-0.6,3.37,3.37,0,0,1,.12.81C467.87,279.39,462.21,284.54,462.21,284.54Z"/><ellipse class="cls-3" cx="411.18" cy="327.46" rx="3.64" ry="3.66"/><ellipse class="cls-3" cx="441.06" cy="327.46" rx="3.64" ry="3.66"/><path class="cls-1" d="M447.86,270.9A172,172,0,0,0,429,246.6l-2.6-2.68-2.6,2.68A171.78,171.78,0,0,0,405,270.9c-12.58,19.52-19,37.8-19,54.34,0,24.91,27.19,38.3,36.31,42.09v4.55s3.33,1.36,3.48,1.41l0.39,0.13h0l0.38-.12s2.59-1,3.47-1.33v-4.41a82.94,82.94,0,0,0,16.82-9c13-9.18,19.94-20.69,19.94-33.28C466.83,308.7,460.44,290.42,447.86,270.9Zm-21.4,90.19c-6-2.37-33.15-14.33-33.15-35.85,0-26.67,19.22-53.77,29.46-66.32v17.4L408.15,288.5a91.56,91.56,0,0,0-6.81,15.33l21.43-17.93V294l-24.62,20.67a35,35,0,0,0-.88,10.16l29.16-24.32,29.43,24.32a41.47,41.47,0,0,0-1.11-10.23L430.06,294v-8.13l21.26,17.63a90.16,90.16,0,0,0-6.51-14.85l-14.75-12.33V258.9c10.24,12.54,29.49,39.66,29.49,66.35C459.55,347.33,432.44,358.82,426.46,361.09Z"/></svg>