<?xml version="1.0" encoding="UTF-8"?>
<svg width="867px" height="277px" viewBox="0 0 867 277" version="1.1" xmlns="http://www.w3.org/2000/svg" xmlns:xlink="http://www.w3.org/1999/xlink">
    <!-- Generator: Sketch 46.2 (44496) - http://www.bohemiancoding.com/sketch -->
    <title>Artboard 6</title>
    <desc>Created with Sketch.</desc>
    <defs>
        <polygon id="path-1" points="0 0.390756773 0 70.1359325 115.031195 70.1359325 115.031195 0.390756773 1.35525272e-20 0.390756773"></polygon>
        <polygon id="path-3" points="115.294 70.6344325 115.294 0.889256773 0.263511842 0.889256773 0.263511842 70.6344325 115.294 70.6344325"></polygon>
    </defs>
    <g id="Mobile" stroke="none" stroke-width="1" fill="none" fill-rule="evenodd">
        <g id="Artboard-6">
            <g id="Page-1">
                <g id="Group-10" transform="translate(0.000000, 56.000000)">
                    <g id="Group-3">
                        <mask id="mask-2" fill="white">
                            <use xlink:href="#path-1"></use>
                        </mask>
                        <g id="Clip-2"></g>
                        <path d="M55.1829,70.132 C54.6499,70.105 54.1229,69.936 53.6629,69.627 L1.3289,34.508 C0.4519,33.919 -0.0511,32.912 0.0039,31.857 C0.0609,30.801 0.6689,29.853 1.6049,29.361 L56.0859,0.735 C57.0309,0.239 58.1679,0.281 59.0739,0.848 L113.6219,34.997 C114.5339,35.567 115.0709,36.582 115.0289,37.657 C114.9859,38.731 114.3709,39.702 113.4179,40.199 L56.7229,69.795 C56.2409,70.047 55.7079,70.159 55.1829,70.132 L55.1829,70.132 Z M8.8519,32.331 L55.5279,63.652 L105.9989,37.303 L57.3509,6.848 L8.8519,32.331 Z" id="Fill-1" fill="#FEFEFE" mask="url(#mask-2)"></path>
                    </g>
                    <path d="M216.9485,151.0748 C216.4515,151.0748 215.9475,150.9518 215.4815,150.6908 L160.0925,119.5998 C158.6465,118.7898 158.1335,116.9618 158.9445,115.5158 C159.7565,114.0708 161.5855,113.5578 163.0295,114.3688 L218.4195,145.4588 C219.8645,146.2688 220.3785,148.0978 219.5675,149.5438 C219.0155,150.5228 217.9975,151.0748 216.9485,151.0748" id="Fill-4" fill="#FAD305"></path>
                    <path d="M203.3685,159.2946 C202.8715,159.2946 202.3675,159.1706 201.9025,158.9096 L146.5135,127.8196 C145.0675,127.0096 144.5545,125.1806 145.3645,123.7346 C146.1765,122.2906 148.0055,121.7766 149.4485,122.5876 L204.8405,153.6786 C206.2845,154.4886 206.7995,156.3176 205.9875,157.7636 C205.4365,158.7426 204.4185,159.2946 203.3685,159.2946" id="Fill-6" fill="#FAD305"></path>
                    <path d="M230.5276,142.8561 C230.0306,142.8561 229.5266,142.7321 229.0616,142.4721 L173.6726,111.3811 C172.2266,110.5701 171.7136,108.7431 172.5236,107.2971 C173.3356,105.8521 175.1656,105.3391 176.6086,106.1491 L231.9996,137.2391 C233.4436,138.0501 233.9586,139.8791 233.1466,141.3241 C232.5956,142.3041 231.5766,142.8561 230.5276,142.8561" id="Fill-8" fill="#FAD305"></path>
                </g>
                <polygon id="Fill-11" fill="#242256" points="162.722 17.7399 162.265 48.3249 188.804 63.6699 189.256 33.4319"></polygon>
                <g id="Group-62" transform="translate(213.000000, 0.000000)">
                    <path d="M30.6976,111.1862 C31.1946,111.1862 31.6986,111.0622 32.1636,110.8022 L87.5526,79.7112 C88.9986,78.9002 89.5116,77.0722 88.7016,75.6272 C87.8906,74.1822 86.0606,73.6692 84.6166,74.4792 L29.2266,105.5692 C27.7816,106.3802 27.2676,108.2092 28.0786,109.6542 C28.6296,110.6342 29.6486,111.1862 30.6976,111.1862" id="Fill-12" fill="#FAD305"></path>
                    <path d="M57.8499,127.941 C57.3159,127.941 56.7819,127.799 56.3069,127.513 L2.2619,95.087 C1.3559,94.543 0.8019,93.563 0.8059,92.506 C0.8089,91.449 1.3689,90.471 2.2789,89.933 L55.2419,58.587 C56.1599,58.044 57.2979,58.028 58.2309,58.549 L114.4369,89.894 C115.3759,90.418 115.9629,91.405 115.9749,92.48 C115.9889,93.555 115.4229,94.555 114.4959,95.1 L59.3709,127.527 C58.9019,127.803 58.3759,127.941 57.8499,127.941 L57.8499,127.941 Z M9.6659,92.532 L57.8659,121.452 L106.9399,92.584 L56.8139,64.629 L9.6659,92.532 Z" id="Fill-14" fill="#242256"></path>
                    <path d="M13.7864,33.5465 C12.7514,33.5465 11.7434,33.0095 11.1874,32.0495 C10.3564,30.6155 10.8464,28.7805 12.2794,27.9505 L12.7534,27.6755 C14.1874,26.8465 16.0234,27.3345 16.8524,28.7685 C17.6834,30.2015 17.1944,32.0375 15.7604,32.8675 L15.2874,33.1415 C14.8134,33.4155 14.2964,33.5465 13.7864,33.5465 M27.5144,25.5905 C26.4794,25.5905 25.4714,25.0535 24.9154,24.0935 C24.0844,22.6595 24.5744,20.8245 26.0074,19.9945 L26.4814,19.7205 C27.9164,18.8905 29.7514,19.3785 30.5804,20.8125 C31.4114,22.2465 30.9224,24.0815 29.4884,24.9115 L29.0154,25.1855 C28.5414,25.4595 28.0244,25.5905 27.5144,25.5905 M41.2414,17.6345 C40.2064,17.6345 39.1994,17.0975 38.6434,16.1375 C37.8124,14.7035 38.3014,12.8685 39.7354,12.0375 L40.2084,11.7635 C41.6434,10.9335 43.4784,11.4225 44.3074,12.8555 C45.1384,14.2895 44.6494,16.1245 43.2154,16.9545 L42.7424,17.2295 C42.2684,17.5035 41.7524,17.6345 41.2414,17.6345" id="Fill-16" fill="#FAD305"></path>
                    <path d="M13.7864,65.6461 C12.7514,65.6461 11.7434,65.1091 11.1874,64.1491 C10.3564,62.7151 10.8464,60.8801 12.2794,60.0501 L12.7534,59.7761 C14.1874,58.9461 16.0234,59.4341 16.8524,60.8681 C17.6834,62.3021 17.1944,64.1371 15.7604,64.9671 L15.2874,65.2411 C14.8134,65.5151 14.2964,65.6461 13.7864,65.6461 M27.5144,57.6901 C26.4794,57.6901 25.4714,57.1531 24.9154,56.1931 C24.0844,54.7591 24.5744,52.9241 26.0074,52.0941 L26.4814,51.8201 C27.9164,50.9891 29.7514,51.4781 30.5804,52.9121 C31.4114,54.3461 30.9224,56.1811 29.4884,57.0111 L29.0154,57.2851 C28.5414,57.5591 28.0244,57.6901 27.5144,57.6901 M41.2424,49.7341 C40.2074,49.7341 39.1994,49.1981 38.6434,48.2371 C37.8124,46.8031 38.3024,44.9681 39.7354,44.1381 L40.2094,43.8641 C41.6444,43.0331 43.4784,43.5221 44.3074,44.9561 C45.1394,46.3901 44.6504,48.2251 43.2164,49.0551 L42.7424,49.3291 C42.2694,49.6041 41.7524,49.7341 41.2424,49.7341" id="Fill-18" fill="#FAD305"></path>
                    <path d="M13.7864,49.5909 C12.7514,49.5909 11.7434,49.0539 11.1874,48.0939 C10.3564,46.6599 10.8464,44.8249 12.2794,43.9949 L12.7534,43.7199 C14.1874,42.8899 16.0234,43.3789 16.8524,44.8129 C17.6834,46.2459 17.1944,48.0809 15.7604,48.9119 L15.2874,49.1859 C14.8134,49.4599 14.2964,49.5909 13.7864,49.5909 M27.5144,41.6349 C26.4794,41.6349 25.4714,41.0979 24.9154,40.1379 C24.0844,38.7039 24.5744,36.8689 26.0074,36.0389 L26.4814,35.7649 C27.9164,34.9339 29.7514,35.4229 30.5804,36.8569 C31.4114,38.2899 30.9224,40.1259 29.4884,40.9559 L29.0154,41.2299 C28.5414,41.5039 28.0244,41.6349 27.5144,41.6349 M41.2414,33.6789 C40.2064,33.6789 39.1994,33.1419 38.6434,32.1819 C37.8124,30.7479 38.3014,28.9129 39.7354,28.0819 L40.2084,27.8079 C41.6434,26.9779 43.4784,27.4669 44.3074,28.8999 C45.1384,30.3339 44.6494,32.1689 43.2154,32.9989 L42.7424,33.2739 C42.2684,33.5479 41.7524,33.6789 41.2414,33.6789" id="Fill-20" fill="#FAD305"></path>
                    <path d="M406.3763,53.6696 C405.8793,53.6696 405.3753,53.5456 404.9103,53.2846 L349.5203,22.1946 C348.0753,21.3836 347.5613,19.5556 348.3723,18.1106 C349.1833,16.6656 351.0133,16.1526 352.4573,16.9626 L407.8473,48.0526 C409.2923,48.8636 409.8063,50.6926 408.9953,52.1376 C408.4433,53.1176 407.4253,53.6696 406.3763,53.6696" id="Fill-22" fill="#FEFEFE"></path>
                    <path d="M392.7972,61.8888 C392.3002,61.8888 391.7952,61.7648 391.3302,61.5038 L335.9412,30.4138 C334.4952,29.6028 333.9822,27.7738 334.7922,26.3298 C335.6042,24.8848 337.4332,24.3708 338.8762,25.1818 L394.2682,56.2718 C395.7122,57.0828 396.2272,58.9118 395.4152,60.3568 C394.8642,61.3368 393.8462,61.8888 392.7972,61.8888" id="Fill-24" fill="#242256"></path>
                    <path d="M419.9554,45.4508 C419.4594,45.4508 418.9544,45.3268 418.4894,45.0658 L363.1004,13.9758 C361.6544,13.1648 361.1414,11.3358 361.9514,9.8918 C362.7634,8.4468 364.5924,7.9338 366.0364,8.7438 L421.4274,39.8338 C422.8714,40.6448 423.3864,42.4738 422.5744,43.9188 C422.0234,44.8988 421.0054,45.4508 419.9554,45.4508" id="Fill-26" fill="#242256"></path>
                    <path d="M378.1439,70.4244 C377.6099,70.4244 377.0759,70.2824 376.6009,69.9964 L322.5559,37.5704 C321.6499,37.0264 321.0969,36.0464 321.0999,34.9894 C321.1029,33.9324 321.6619,32.9544 322.5719,32.4164 L375.5349,1.0704 C376.4529,0.5274 377.5909,0.5114 378.5239,1.0324 L434.7309,32.3774 C435.6689,32.9014 436.2559,33.8884 436.2689,34.9634 C436.2819,36.0384 435.7159,37.0394 434.7899,37.5834 L379.6649,70.0104 C379.1949,70.2864 378.6689,70.4244 378.1439,70.4244 L378.1439,70.4244 Z M329.9589,35.0154 L378.1589,63.9354 L427.2339,35.0674 L377.1079,7.1124 L329.9589,35.0154 Z" id="Fill-28" fill="#FAD305"></path>
                    <path d="M392.2054,78.7345 C391.1704,78.7345 390.1624,78.1975 389.6054,77.2375 C388.7744,75.8035 389.2654,73.9685 390.6984,73.1385 L391.1724,72.8645 C392.6054,72.0345 394.4414,72.5235 395.2704,73.9565 C396.1014,75.3905 395.6124,77.2255 394.1794,78.0555 L393.7064,78.3295 C393.2314,78.6035 392.7154,78.7345 392.2054,78.7345 M405.9334,70.7785 C404.8974,70.7785 403.8904,70.2415 403.3344,69.2815 C402.5034,67.8475 402.9924,66.0125 404.4264,65.1825 L404.8994,64.9085 C406.3354,64.0785 408.1704,64.5665 408.9994,66.0005 C409.8304,67.4345 409.3414,69.2695 407.9064,70.0995 L407.4344,70.3735 C406.9604,70.6485 406.4424,70.7785 405.9334,70.7785 M419.6594,62.8225 C418.6254,62.8225 417.6174,62.2855 417.0614,61.3255 C416.2304,59.8915 416.7204,58.0565 418.1534,57.2255 L418.6274,56.9515 C420.0614,56.1225 421.8964,56.6105 422.7264,58.0435 C423.5574,59.4775 423.0674,61.3125 421.6344,62.1435 L421.1614,62.4175 C420.6864,62.6915 420.1714,62.8225 419.6594,62.8225" id="Fill-30" fill="#242256"></path>
                    <path d="M392.2054,110.8336 C391.1704,110.8336 390.1624,110.2966 389.6054,109.3366 C388.7744,107.9026 389.2654,106.0676 390.6984,105.2376 L391.1724,104.9636 C392.6054,104.1336 394.4414,104.6226 395.2704,106.0556 C396.1014,107.4896 395.6124,109.3246 394.1794,110.1546 L393.7064,110.4286 C393.2314,110.7036 392.7154,110.8336 392.2054,110.8336 M405.9334,102.8776 C404.8974,102.8776 403.8904,102.3416 403.3344,101.3806 C402.5034,99.9466 402.9924,98.1116 404.4264,97.2816 L404.8994,97.0076 C406.3354,96.1776 408.1704,96.6656 408.9994,98.0996 C409.8304,99.5336 409.3414,101.3686 407.9064,102.1986 L407.4344,102.4726 C406.9604,102.7476 406.4424,102.8776 405.9334,102.8776 M419.6614,94.9216 C418.6254,94.9216 417.6174,94.3856 417.0614,93.4246 C416.2304,91.9916 416.7214,90.1556 418.1534,89.3256 L418.6284,89.0516 C420.0624,88.2216 421.8964,88.7096 422.7264,90.1436 C423.5584,91.5776 423.0684,93.4126 421.6354,94.2426 L421.1614,94.5166 C420.6874,94.7916 420.1714,94.9216 419.6614,94.9216" id="Fill-32" fill="#242256"></path>
                    <path d="M392.2054,94.7784 C391.1704,94.7784 390.1624,94.2414 389.6054,93.2814 C388.7744,91.8474 389.2654,90.0124 390.6984,89.1824 L391.1724,88.9084 C392.6054,88.0774 394.4414,88.5664 395.2704,90.0004 C396.1014,91.4344 395.6124,93.2694 394.1794,94.0994 L393.7064,94.3734 C393.2314,94.6474 392.7154,94.7784 392.2054,94.7784 M405.9334,86.8224 C404.8974,86.8224 403.8904,86.2854 403.3344,85.3254 C402.5034,83.8914 402.9924,82.0564 404.4264,81.2264 L404.8994,80.9524 C406.3354,80.1214 408.1704,80.6104 408.9994,82.0444 C409.8304,83.4784 409.3414,85.3134 407.9064,86.1434 L407.4344,86.4174 C406.9604,86.6914 406.4424,86.8224 405.9334,86.8224 M419.6594,78.8664 C418.6254,78.8664 417.6174,78.3294 417.0614,77.3694 C416.2304,75.9354 416.7204,74.1004 418.1534,73.2694 L418.6274,72.9954 C420.0614,72.1654 421.8964,72.6544 422.7264,74.0874 C423.5574,75.5214 423.0674,77.3564 421.6344,78.1874 L421.1614,78.4614 C420.6864,78.7354 420.1714,78.8664 419.6594,78.8664" id="Fill-34" fill="#242256"></path>
                    <path d="M351.2513,219.7701 C350.7543,219.7701 350.2493,219.6461 349.7843,219.3861 L294.3953,188.2951 C292.9493,187.4851 292.4363,185.6571 293.2463,184.2111 C294.0593,182.7661 295.8883,182.2531 297.3313,183.0631 L352.7223,214.1541 C354.1663,214.9641 354.6813,216.7931 353.8693,218.2391 C353.3183,219.2181 352.3003,219.7701 351.2513,219.7701" id="Fill-36" fill="#FAD305"></path>
                    <path d="M337.6712,227.9899 C337.1742,227.9899 336.6702,227.8659 336.2052,227.6059 L280.8162,196.5149 C279.3702,195.7039 278.8572,193.8749 279.6672,192.4309 C280.4792,190.9859 282.3072,190.4719 283.7512,191.2829 L339.1422,222.3729 C340.5872,223.1839 341.1022,225.0129 340.2902,226.4579 C339.7392,227.4379 338.7202,227.9899 337.6712,227.9899" id="Fill-38" fill="#242256"></path>
                    <path d="M364.8304,211.5514 C364.3334,211.5514 363.8294,211.4274 363.3644,211.1674 L307.9754,180.0764 C306.5294,179.2654 306.0164,177.4374 306.8264,175.9924 C307.6374,174.5474 309.4674,174.0344 310.9114,174.8444 L366.3014,205.9344 C367.7464,206.7454 368.2604,208.5744 367.4494,210.0194 C366.8984,210.9994 365.8794,211.5514 364.8304,211.5514" id="Fill-40" fill="#242256"></path>
                    <path d="M299.2776,119.3888 C298.7806,119.3888 298.2766,119.2648 297.8116,119.0048 L242.4216,87.9138 C240.9766,87.1028 240.4626,85.2748 241.2736,83.8298 C242.0856,82.3848 243.9146,81.8718 245.3586,82.6818 L300.7486,113.7718 C302.1936,114.5828 302.7076,116.4118 301.8966,117.8568 C301.3456,118.8368 300.3266,119.3888 299.2776,119.3888" id="Fill-42" fill="#242256"></path>
                    <path d="M285.6985,127.6085 C285.2015,127.6085 284.6975,127.4845 284.2325,127.2245 L228.8425,96.1335 C227.3975,95.3225 226.8835,93.4935 227.6945,92.0495 C228.5055,90.6045 230.3345,90.0905 231.7785,90.9015 L287.1695,121.9915 C288.6145,122.8025 289.1285,124.6315 288.3175,126.0765 C287.7655,127.0565 286.7475,127.6085 285.6985,127.6085" id="Fill-44" fill="#FAD305"></path>
                    <path d="M312.8577,111.17 C312.3607,111.17 311.8567,111.046 311.3907,110.786 L256.0017,79.695 C254.5557,78.884 254.0427,77.055 254.8527,75.611 C255.6647,74.166 257.4947,73.653 258.9387,74.463 L314.3287,105.553 C315.7737,106.364 316.2877,108.193 315.4757,109.638 C314.9247,110.618 313.9067,111.17 312.8577,111.17" id="Fill-46" fill="#FAD305"></path>
                    <path d="M285.1068,144.4537 C284.0718,144.4537 283.0638,143.9167 282.5068,142.9567 C281.6758,141.5227 282.1668,139.6877 283.6008,138.8577 L284.0738,138.5827 C285.5068,137.7537 287.3428,138.2417 288.1718,139.6757 C289.0028,141.1097 288.5148,142.9447 287.0808,143.7747 L286.6078,144.0487 C286.1328,144.3227 285.6168,144.4537 285.1068,144.4537 M298.8348,136.4977 C297.7988,136.4977 296.7918,135.9607 296.2358,135.0007 C295.4058,133.5667 295.8948,131.7317 297.3278,130.9017 L297.8008,130.6277 C299.2368,129.7977 301.0718,130.2857 301.9008,131.7197 C302.7318,133.1537 302.2428,134.9887 300.8088,135.8187 L300.3358,136.0927 C299.8618,136.3667 299.3438,136.4977 298.8348,136.4977 M312.5618,128.5417 C311.5268,128.5417 310.5198,128.0047 309.9628,127.0447 C309.1318,125.6107 309.6218,123.7757 311.0548,122.9447 L311.5288,122.6707 C312.9628,121.8407 314.7978,122.3297 315.6278,123.7627 C316.4588,125.1967 315.9688,127.0317 314.5358,127.8627 L314.0628,128.1367 C313.5878,128.4107 313.0728,128.5417 312.5618,128.5417" id="Fill-48" fill="#FAD305"></path>
                    <path d="M285.1068,176.5533 C284.0718,176.5533 283.0638,176.0163 282.5068,175.0563 C281.6758,173.6223 282.1668,171.7863 283.6008,170.9573 L284.0738,170.6833 C285.5068,169.8533 287.3428,170.3423 288.1718,171.7753 C289.0028,173.2093 288.5148,175.0443 287.0808,175.8743 L286.6078,176.1483 C286.1328,176.4223 285.6168,176.5533 285.1068,176.5533 M298.8348,168.5973 C297.7988,168.5973 296.7918,168.0603 296.2358,167.1003 C295.4058,165.6663 295.8948,163.8313 297.3278,163.0013 L297.8008,162.7273 C299.2368,161.8963 301.0718,162.3853 301.9008,163.8193 C302.7318,165.2533 302.2428,167.0883 300.8088,167.9183 L300.3358,168.1923 C299.8618,168.4673 299.3438,168.5973 298.8348,168.5973 M312.5628,160.6413 C311.5278,160.6413 310.5198,160.1053 309.9628,159.1443 C309.1318,157.7103 309.6228,155.8753 311.0548,155.0453 L311.5298,154.7713 C312.9638,153.9403 314.7978,154.4293 315.6278,155.8633 C316.4598,157.2973 315.9698,159.1323 314.5368,159.9623 L314.0628,160.2363 C313.5888,160.5113 313.0728,160.6413 312.5628,160.6413" id="Fill-50" fill="#FAD305"></path>
                    <path d="M285.1068,160.4977 C284.0718,160.4977 283.0638,159.9607 282.5068,159.0007 C281.6758,157.5667 282.1668,155.7317 283.6008,154.9017 L284.0738,154.6277 C285.5068,153.7967 287.3428,154.2857 288.1718,155.7207 C289.0028,157.1537 288.5148,158.9887 287.0808,159.8187 L286.6078,160.0937 C286.1328,160.3667 285.6168,160.4977 285.1068,160.4977 M298.8348,152.5417 C297.7988,152.5417 296.7918,152.0047 296.2358,151.0447 C295.4058,149.6107 295.8948,147.7757 297.3278,146.9457 L297.8008,146.6717 C299.2368,145.8407 301.0718,146.3297 301.9008,147.7637 C302.7318,149.1977 302.2428,151.0327 300.8088,151.8627 L300.3358,152.1377 C299.8618,152.4107 299.3438,152.5417 298.8348,152.5417 M312.5618,144.5857 C311.5268,144.5857 310.5198,144.0487 309.9628,143.0887 C309.1318,141.6547 309.6218,139.8197 311.0548,138.9897 L311.5288,138.7147 C312.9628,137.8847 314.7978,138.3737 315.6278,139.8067 C316.4588,141.2407 315.9688,143.0757 314.5358,143.9067 L314.0628,144.1807 C313.5878,144.4547 313.0728,144.5857 312.5618,144.5857" id="Fill-52" fill="#FAD305"></path>
                    <path d="M535.261,259.3815 C534.764,259.3815 534.259,259.2575 533.794,258.9975 L478.405,227.9065 C476.959,227.0955 476.446,225.2685 477.256,223.8225 C478.069,222.3775 479.898,221.8645 481.341,222.6745 L536.732,253.7655 C538.176,254.5755 538.691,256.4045 537.879,257.8505 C537.328,258.8295 536.31,259.3815 535.261,259.3815" id="Fill-54" fill="#242256"></path>
                    <path d="M521.681,267.6012 C521.184,267.6012 520.68,267.4772 520.215,267.2172 L464.826,236.1262 C463.38,235.3152 462.867,233.4872 463.677,232.0422 C464.489,230.5972 466.318,230.0832 467.761,230.8942 L523.153,261.9842 C524.597,262.7952 525.112,264.6242 524.3,266.0692 C523.749,267.0492 522.73,267.6012 521.681,267.6012" id="Fill-56" fill="#FEFEFE"></path>
                    <path d="M548.8401,251.1627 C548.3431,251.1627 547.8391,251.0387 547.3741,250.7777 L491.9851,219.6877 C490.5391,218.8767 490.0261,217.0487 490.8361,215.6037 C491.6471,214.1587 493.4761,213.6457 494.9211,214.4557 L550.3111,245.5457 C551.7561,246.3567 552.2701,248.1857 551.4591,249.6317 C550.9081,250.6107 549.8891,251.1627 548.8401,251.1627" id="Fill-58" fill="#FEFEFE"></path>
                    <path d="M507.0286,276.1363 C506.4946,276.1363 505.9606,275.9943 505.4856,275.7083 L451.4396,243.2823 C450.5346,242.7393 449.9806,241.7583 449.9846,240.7013 C449.9876,239.6453 450.5466,238.6673 451.4566,238.1283 L504.4196,206.7823 C505.3376,206.2403 506.4756,206.2233 507.4096,206.7443 L563.6156,238.0893 C564.5536,238.6143 565.1406,239.6013 565.1536,240.6753 C565.1666,241.7503 564.6006,242.7513 563.6746,243.2953 L508.5496,275.7223 C508.0796,275.9983 507.5536,276.1363 507.0286,276.1363 L507.0286,276.1363 Z M458.8436,240.7283 L507.0436,269.6483 L556.1186,240.7803 L505.9926,212.8243 L458.8436,240.7283 Z" id="Fill-60" fill="#FAD305"></path>
                </g>
                <polygon id="Fill-63" fill="#242256" points="644.2249 138.6525 643.7679 169.2375 670.3069 184.5825 670.7589 154.3445"></polygon>
                <polygon id="Fill-64" fill="#FEFEFE" points="431.1722 133.4498 431.6292 164.0348 405.0902 179.3798 404.6382 149.1418"></polygon>
                <polygon id="Fill-65" fill="#242256" points="271.848 225.2994 271.391 255.8844 297.93 271.2294 298.381 240.9914"></polygon>
                <g id="Group-77" transform="translate(267.000000, 56.000000)">
                    <path d="M57.848,171.9899 C57.314,171.9899 56.78,171.8479 56.305,171.5619 L2.26,139.1359 C1.354,138.5929 0.801,137.6119 0.804,136.5549 C0.807,135.4979 1.367,134.5209 2.276,133.9819 L55.24,102.6359 C56.158,102.0939 57.296,102.0769 58.229,102.5979 L114.435,133.9429 C115.374,134.4679 115.961,135.4539 115.973,136.5289 C115.986,137.6039 115.421,138.6049 114.494,139.1489 L59.369,171.5759 C58.9,171.8519 58.374,171.9899 57.848,171.9899 L57.848,171.9899 Z M9.664,136.5809 L57.864,165.5009 L106.938,136.6339 L56.812,108.6779 L9.664,136.5809 Z" id="Fill-66" fill="#FAD305"></path>
                    <path d="M71.9095,180.3004 C70.8745,180.3004 69.8675,179.7634 69.3105,178.8034 C68.4805,177.3684 68.9695,175.5334 70.4035,174.7034 L70.8765,174.4304 C72.3105,173.6004 74.1465,174.0894 74.9755,175.5224 C75.8065,176.9554 75.3175,178.7904 73.8835,179.6204 L73.4105,179.8954 C72.9365,180.1684 72.4195,180.3004 71.9095,180.3004 M85.6385,172.3444 C84.6025,172.3444 83.5945,171.8084 83.0385,170.8474 C82.2085,169.4124 82.6975,167.5774 84.1315,166.7474 L84.6045,166.4744 C86.0395,165.6444 87.8745,166.1324 88.7035,167.5664 C89.5345,168.9994 89.0455,170.8344 87.6115,171.6644 L87.1385,171.9394 C86.6645,172.2144 86.1475,172.3444 85.6385,172.3444 M99.3645,164.3884 C98.3295,164.3884 97.3225,163.8514 96.7665,162.8914 C95.9355,161.4564 96.4245,159.6214 97.8585,158.7904 L98.3315,158.5174 C99.7665,157.6874 101.6015,158.1764 102.4315,159.6094 C103.2615,161.0424 102.7725,162.8774 101.3385,163.7084 L100.8655,163.9834 C100.3925,164.2574 99.8755,164.3884 99.3645,164.3884" id="Fill-68" fill="#242256"></path>
                    <path d="M71.9095,212.399 C70.8745,212.399 69.8675,211.862 69.3105,210.902 C68.4805,209.468 68.9695,207.633 70.4035,206.803 L70.8765,206.529 C72.3105,205.7 74.1465,206.188 74.9755,207.622 C75.8065,209.055 75.3175,210.89 73.8835,211.72 L73.4105,211.995 C72.9365,212.268 72.4195,212.399 71.9095,212.399 M85.6385,204.443 C84.6025,204.443 83.5945,203.908 83.0385,202.947 C82.2085,201.512 82.6975,199.677 84.1315,198.847 L84.6045,198.574 C86.0395,197.744 87.8745,198.231 88.7035,199.666 C89.5345,201.099 89.0455,202.934 87.6115,203.764 L87.1385,204.039 C86.6645,204.313 86.1475,204.443 85.6385,204.443 M99.3655,196.487 C98.3305,196.487 97.3225,195.952 96.7665,194.991 C95.9355,193.556 96.4255,191.721 97.8585,190.891 L98.3325,190.618 C99.7675,189.787 101.6015,190.275 102.4315,191.71 C103.2635,193.143 102.7735,194.978 101.3395,195.808 L100.8665,196.083 C100.3925,196.357 99.8755,196.487 99.3655,196.487" id="Fill-70" fill="#242256"></path>
                    <path d="M71.9095,196.3443 C70.8745,196.3443 69.8675,195.8073 69.3105,194.8473 C68.4805,193.4123 68.9695,191.5773 70.4035,190.7483 L70.8765,190.4743 C72.3105,189.6433 74.1465,190.1323 74.9755,191.5663 C75.8065,192.9993 75.3175,194.8353 73.8835,195.6653 L73.4105,195.9393 C72.9365,196.2133 72.4195,196.3443 71.9095,196.3443 M85.6385,188.3883 C84.6025,188.3883 83.5945,187.8513 83.0385,186.8913 C82.2085,185.4573 82.6975,183.6223 84.1315,182.7923 L84.6045,182.5183 C86.0395,181.6873 87.8745,182.1763 88.7035,183.6103 C89.5345,185.0443 89.0455,186.8793 87.6115,187.7093 L87.1385,187.9833 C86.6645,188.2573 86.1475,188.3883 85.6385,188.3883 M99.3645,180.4323 C98.3295,180.4323 97.3225,179.8953 96.7665,178.9353 C95.9355,177.5013 96.4245,175.6663 97.8585,174.8353 L98.3315,174.5613 C99.7665,173.7313 101.6015,174.2203 102.4315,175.6533 C103.2615,177.0873 102.7725,178.9223 101.3385,179.7533 L100.8655,180.0273 C100.3925,180.3013 99.8755,180.4323 99.3645,180.4323" id="Fill-72" fill="#242256"></path>
                    <g id="Group-76" transform="translate(484.000000, 0.000000)">
                        <mask id="mask-4" fill="white">
                            <use xlink:href="#path-3"></use>
                        </mask>
                        <g id="Clip-75"></g>
                        <path d="M55.4466,70.6305 C54.9136,70.6035 54.3866,70.4345 53.9266,70.1255 L1.5926,35.0065 C0.7156,34.4175 0.2126,33.4105 0.2676,32.3555 C0.3246,31.2995 0.9326,30.3515 1.8696,29.8595 L56.3496,1.2335 C57.2946,0.7375 58.4316,0.7795 59.3376,1.3465 L113.8856,35.4955 C114.7976,36.0655 115.3346,37.0805 115.2926,38.1555 C115.2496,39.2295 114.6346,40.2005 113.6816,40.6975 L56.9866,70.2935 C56.5046,70.5455 55.9716,70.6575 55.4466,70.6305 L55.4466,70.6305 Z M9.1156,32.8295 L55.7916,64.1505 L106.2626,37.8015 L57.6146,7.3465 L9.1156,32.8295 Z" id="Fill-74" fill="#FEFEFE" mask="url(#mask-4)"></path>
                    </g>
                </g>
            </g>
        </g>
    </g>
</svg>