<?xml version="1.0" encoding="utf-8"?>
<!-- Generator: Adobe Illustrator 19.2.0, SVG Export Plug-In . SVG Version: 6.00 Build 0)  -->
<svg version="1.1" id="Layer_1" xmlns="http://www.w3.org/2000/svg" xmlns:xlink="http://www.w3.org/1999/xlink" x="0px" y="0px"
	 viewBox="0 0 271 271" style="enable-background:new 0 0 271 271;" xml:space="preserve">
<style type="text/css">
	.st0{fill:#FFD400;}
</style>
<g>
	<polygon class="st0" points="168.2,150.3 157.6,110.4 152.4,110.4 141.8,150.3 131.5,110.4 125.1,110.4 138.4,160.6 144.2,160.6 
		154.9,121.5 165.5,160.6 171.4,160.6 184.7,110.4 178.5,110.4 	"/>
	<g>
		<path class="st0" d="M104.2,154.9H92.4v-17.3v-5.4v-16.1h10.2c6.7,0,10.4,2.5,10.4,8s-3.7,8.2-10.4,8.2h-4.3v5.4h6
			c6.8,0,10.4,3.3,10.4,8.7C114.6,151.5,111,154.9,104.2,154.9 M111.8,134.6c3.9-1.2,7.4-4.9,7.4-10.9c0-8.7-6.2-13.3-16.6-13.3
			H86.1v50.2h18.1c10.3,0,16.7-5,16.7-14.1C120.9,140.8,117.2,136,111.8,134.6"/>
		<path class="st0" d="M74.2,80.9c-3.6,0-6.6-3-6.6-6.6s3-6.6,6.6-6.6s6.6,3,6.6,6.6S77.8,80.9,74.2,80.9 M52,101.8
			c-4.3,10.7-6.5,22-6.5,33.7c0,49.6,40.4,90,90,90s90-40.4,90-90s-40.4-90-90-90c-19.5,0-38.6,6.5-54.2,18.2
			c-2-1.4-4.5-2.2-7.1-2.2c-7.1,0-12.8,5.8-12.8,12.8c0,7.1,5.8,12.8,12.8,12.8c7.1,0,12.8-5.8,12.8-12.8c0-2.2-0.6-4.2-1.5-6
			c14.5-10.9,31.7-16.7,50-16.7c46.2,0,83.8,37.6,83.8,83.8s-37.6,83.8-83.8,83.8s-83.8-37.6-83.8-83.8c0-10.8,2-21.4,6.1-31.4
			L52,101.8z"/>
		<path class="st0" d="M256.8,69.4c0,3.6-3,6.6-6.6,6.6s-6.6-3-6.6-6.6s3-6.6,6.6-6.6S256.8,65.8,256.8,69.4 M6.2,135.5
			c0-71.3,58-129.3,129.3-129.3c41.9,0,81.1,20.3,105.4,54.4c-2.2,2.3-3.5,5.4-3.5,8.8c0,7.1,5.8,12.8,12.8,12.8
			c7.1,0,12.8-5.8,12.8-12.8c0-7.1-5.8-12.8-12.8-12.8c-1.4,0-2.8,0.3-4.1,0.7C220.7,21.4,179.5,0,135.5,0C60.8,0,0,60.8,0,135.5
			c0,11.9,1.5,23.6,4.6,35l6-1.6C7.7,158,6.2,146.8,6.2,135.5"/>
		<path class="st0" d="M14.2,201.8c0-3.6,3-6.6,6.6-6.6s6.6,3,6.6,6.6s-3,6.6-6.6,6.6C17.2,208.4,14.2,205.4,14.2,201.8
			 M266.4,100.3l-6,1.6c2.9,10.9,4.4,22.2,4.4,33.6c0,71.3-58,129.3-129.3,129.3c-41.9,0-81-20.3-105.3-54.3
			c2.1-2.3,3.4-5.3,3.4-8.6c0-7.1-5.8-12.8-12.8-12.8c-7.1,0-12.8,5.8-12.8,12.8c0,7.1,5.8,12.8,12.8,12.8c1.5,0,2.9-0.3,4.2-0.8
			C50.4,249.7,91.5,271,135.5,271c74.7,0,135.5-60.8,135.5-135.5C271,123.5,269.5,111.7,266.4,100.3"/>
	</g>
</g>
</svg>
