<?xml version="1.0" encoding="UTF-8"?>
<svg width="32px" height="32px" viewBox="0 0 32 32" version="1.1" xmlns="http://www.w3.org/2000/svg" xmlns:xlink="http://www.w3.org/1999/xlink">
    <!-- Generator: Sketch 46.2 (44496) - http://www.bohemiancoding.com/sketch -->
    <title>Artboard 2 Copy</title>
    <desc>Created with Sketch.</desc>
    <defs></defs>
    <g id="Mobile" stroke="none" stroke-width="1" fill="none" fill-rule="evenodd">
        <g id="Artboard-2-Copy" fill-rule="nonzero" fill="#EF403D">
            <g id="location_services-copy-8" transform="translate(5.000000, 0.000000)">
                <g id="Group" transform="translate(11.003133, 16.471800) scale(-1, 1) rotate(-180.000000) translate(-11.003133, -16.471800) translate(0.003133, 0.971800)">
                    <path d="M9.54660818,30.6338712 C8.66489112,30.5295316 7.35798214,30.1848661 6.56431145,29.8402005 C3.7505875,28.6297979 1.35328216,26.0003133 0.463731788,23.1461695 C-0.129406235,21.2382892 -0.153532822,18.6485978 0.407645308,16.6445245 C0.768290772,15.3457622 1.11326962,14.7444775 4.73664421,9.14867617 C6.69277769,6.13441955 8.80902397,2.85539715 9.45041517,1.86150713 C10.0918064,0.867303776 10.6370045,0.0416731944 10.6529845,0.0175466082 C10.7012377,-0.0385398715 10.5408115,-0.279179069 15.695441,7.31286229 C18.3170923,11.1690428 20.5536582,14.5520915 20.7460442,14.9290302 C21.1308162,15.706721 21.4193953,16.5404982 21.6117813,17.414382 C21.7881874,18.2161993 21.8602538,20.4847251 21.7399342,21.3586088 C21.2749491,24.605358 19.3188156,27.5155883 16.4330252,29.2310826 C14.4609118,30.4095253 11.9755601,30.914617 9.54660818,30.6338712 Z M12.0078333,24.5812314 C13.090083,24.3568855 13.8596271,23.9320069 14.6934044,23.0822497 C17.4751684,20.2522325 16.1845527,15.4823751 12.3123923,14.3199123 C11.5428482,14.0874197 10.0918064,14.1193796 9.25802914,14.3919787 C7.7107943,14.9049037 6.46811844,16.1394329 5.90694031,17.7349209 C5.6904277,18.3443522 5.66630111,18.5204449 5.66630111,19.3783487 C5.65815447,20.1638728 5.6904277,20.4524518 5.8505405,20.9415635 C6.6686511,23.5951747 9.28998903,25.1424095 12.0078333,24.5812314 Z" id="Shape"></path>
                </g>
            </g>
        </g>
    </g>
</svg>