<?xml version="1.0" encoding="UTF-8"?>
<svg width="24px" height="24px" viewBox="0 0 24 24" version="1.1" xmlns="http://www.w3.org/2000/svg" xmlns:xlink="http://www.w3.org/1999/xlink">
    <!-- Generator: Sketch 46.2 (44496) - http://www.bohemiancoding.com/sketch -->
    <title>Artboard 4</title>
    <desc>Created with Sketch.</desc>
    <defs></defs>
    <g id="Mobile" stroke="none" stroke-width="1" fill="none" fill-rule="evenodd">
        <g id="Artboard-4" fill-rule="nonzero" fill="#F9F9F9">
            <g id="instagram-blue-copy">
                <path d="M12.0296296,14.3407407 C13.3333333,14.3407407 14.4,13.2740741 14.3851852,11.9555556 C14.3703704,10.637037 13.3185185,9.58518519 12,9.6 C10.6962963,9.6 9.64444444,10.6518519 9.64444444,11.9555556 C9.64444444,13.2740741 10.7111111,14.3407407 12.0296296,14.3407407 Z" id="Shape"></path>
                <path d="M16.9333333,9.05185185 C17.0962963,9.05185185 17.2296296,8.91851852 17.2296296,8.75555556 L17.2296296,7.05185185 L17.2296296,7.05185185 C17.2296296,6.88888889 17.0962963,6.75555556 16.9333333,6.75555556 L16.9185185,6.75555556 L15.2296296,6.77037037 C15.0666667,6.77037037 14.9333333,6.9037037 14.9333333,7.06666667 L14.9333333,8.75555556 C14.9333333,8.91851852 15.0666667,9.05185185 15.2296296,9.05185185 L16.9333333,9.05185185 Z" id="Shape"></path>
                <path d="M12.0296296,0.0740740741 C5.45185185,0.0740740741 0.133333333,5.39259259 0.133333333,11.9703704 C0.133333333,18.5481481 5.45185185,23.8666667 12.0296296,23.8666667 C18.6074074,23.8666667 23.9259259,18.5481481 23.9259259,11.9703704 L23.9259259,11.9703704 C23.9111111,5.40740741 18.5925926,0.0740740741 12.0296296,0.0740740741 Z M18.7851852,10.5777778 L18.7851852,16.1185185 C18.7851852,17.5555556 17.6148148,18.7259259 16.1777778,18.7259259 L7.86666667,18.7259259 C6.42962963,18.7259259 5.25925926,17.5555556 5.25925926,16.1185185 L5.25925926,7.82222222 C5.25925926,6.38518519 6.42962963,5.21481481 7.86666667,5.2 L16.162963,5.2 C17.6,5.2 18.7703704,6.37037037 18.7703704,7.80740741 L18.7851852,10.5777778 Z" id="Shape"></path>
                <path d="M15.7185185,11.9703704 C15.7333333,14.0148148 14.0888889,15.6888889 12.0444444,15.7037037 C10,15.7185185 8.32592593,14.0740741 8.31111111,12.0296296 C8.31111111,11.5407407 8.4,11.037037 8.59259259,10.5925926 L6.57777778,10.5925926 L6.57777778,16.1333333 C6.57777778,16.8444444 7.15555556,17.4222222 7.88148148,17.4222222 L16.1777778,17.4222222 C16.8888889,17.4222222 17.4666667,16.8444444 17.4814815,16.1333333 L17.4814815,10.5777778 L15.4666667,10.5777778 C15.6296296,11.0222222 15.7185185,11.4814815 15.7185185,11.9703704 Z" id="Shape"></path>
            </g>
        </g>
    </g>
</svg>