<?xml version="1.0" encoding="UTF-8"?>
<svg width="24px" height="24px" viewBox="0 0 24 24" version="1.1" xmlns="http://www.w3.org/2000/svg" xmlns:xlink="http://www.w3.org/1999/xlink">
    <!-- Generator: Sketch 46.2 (44496) - http://www.bohemiancoding.com/sketch -->
    <title>Artboard 5</title>
    <desc>Created with Sketch.</desc>
    <defs></defs>
    <g id="Mobile" stroke="none" stroke-width="1" fill="none" fill-rule="evenodd">
        <g id="Artboard-5" fill-rule="nonzero" fill="#F9F9F9">
            <g id="twitter-copy">
                <path d="M12,0 C5.36488169,0 0,5.36488169 0,12 C0,18.6351183 5.36488169,24 12,24 C18.6351183,24 24,18.6351183 24,12 C23.985056,5.37982565 18.6201743,0 12,0 Z M17.3499377,9.25031133 C17.3499377,9.36986301 17.3648817,9.48941469 17.3648817,9.60896638 C17.3648817,13.2552927 14.5853051,17.4694894 9.50435866,17.4694894 C8.00996264,17.4694894 6.53051059,17.0361146 5.27521793,16.2291407 C6.73972603,16.4084682 8.20423412,15.9900374 9.36986301,15.0933998 C8.18929016,15.0784558 7.15815691,14.3013699 6.78455791,13.1805729 C7.20298879,13.2552927 7.62141968,13.2403487 8.0249066,13.135741 C6.73972603,12.8816936 5.8132005,11.7459527 5.8132005,10.4308842 C5.8132005,10.4159402 5.8132005,10.4009963 5.8132005,10.4009963 C6.20174346,10.6102117 6.62017435,10.7297634 7.06849315,10.7447073 C5.85803238,9.9377335 5.48443337,8.3237858 6.21668742,7.05354919 C7.62141968,8.77210461 9.68368618,9.83312578 11.9103362,9.9377335 C11.5666252,8.45828144 12.4931507,6.96388543 13.9726027,6.62017435 C14.9290162,6.39601494 15.9302615,6.69489415 16.6176837,7.41220423 C17.2303861,7.29265255 17.8281445,7.06849315 18.366127,6.73972603 C18.1569116,7.38231631 17.7235367,7.92029888 17.1556663,8.26400996 C17.7085928,8.20423412 18.2316314,8.05479452 18.739726,7.83063512 C18.3511831,8.38356164 17.8879203,8.86176837 17.3499377,9.25031133 L17.3499377,9.25031133 Z" id="Shape"></path>
            </g>
        </g>
    </g>
</svg>