<?xml version="1.0" encoding="UTF-8"?>
<svg width="797px" height="385px" viewBox="0 0 797 385" version="1.1" xmlns="http://www.w3.org/2000/svg" xmlns:xlink="http://www.w3.org/1999/xlink">
    <!-- Generator: Sketch 46.2 (44496) - http://www.bohemiancoding.com/sketch -->
    <title>Artboard Copy 2</title>
    <desc>Created with Sketch.</desc>
    <defs>
        <polygon id="path-1" points="82 0 82 49 0 49 0 1.12641665e-13 82 1.12641665e-13"></polygon>
    </defs>
    <g id="Desktop" stroke="none" stroke-width="1" fill="none" fill-rule="evenodd">
        <g id="Artboard-Copy-2">
            <g id="Group-4" transform="translate(0.000000, 3.000000)">
                <g id="Page-1">
                    <g id="Group-46" transform="translate(0.000000, 0.258328)">
                        <polygon id="Stroke-1" stroke="#FEFEFE" stroke-width="5" points="87.9636068 0.152089922 772.988867 0.152089922 793.555445 379.218872 45.2484059 379.218872 57.2197365 193.418582"></polygon>
                        <polyline id="Stroke-3" stroke="#FEFEFE" stroke-width="5" points="338 2.21118131 384.943097 206.274038 394.468015 380.125442"></polyline>
                        <path d="M618.363266,1.09690015 L393,344.063706" id="Stroke-5" stroke="#FEFEFE" stroke-width="5"></path>
                        <path d="M353,2.21118131 L608.415244,377.464867" id="Stroke-7" stroke="#FEFEFE" stroke-width="5"></path>
                        <path d="M275.200496,132.967622 C274.540261,132.967622 273.870727,132.80277 273.253003,132.457111 L199.670691,91.1229519 C197.751094,90.044762 197.068276,87.614514 198.145641,85.6934481 C199.223006,83.7723822 201.654052,83.0903705 203.57232,84.167231 L277.154632,125.50006 C279.074228,126.57825 279.757047,129.009828 278.679681,130.930894 C277.947711,132.233762 276.59403,132.967622 275.200496,132.967622" id="Fill-9" fill="#FCD400"></path>
                        <path d="M257.161073,143.895097 C256.500838,143.895097 255.831304,143.730245 255.213579,143.384586 L181.629939,102.050427 C179.711671,100.972237 179.028853,98.5419888 180.106218,96.6209229 C181.183583,94.699857 183.613301,94.0165159 185.531568,95.0947058 L259.115209,136.427535 C261.034805,137.505725 261.717623,139.937303 260.640258,141.858369 C259.908288,143.161237 258.554607,143.895097 257.161073,143.895097" id="Fill-11" fill="#FCD400"></path>
                        <path d="M293.240185,122.040945 C292.57995,122.040945 291.910416,121.876093 291.292691,121.530434 L217.710379,80.1962748 C215.790783,79.1180849 215.107965,76.6865074 216.18533,74.7667709 C217.262695,72.845705 219.693741,72.1636934 221.612009,73.2405539 L295.194321,114.573383 C297.113917,115.651573 297.796735,118.083151 296.71937,120.004217 C295.9874,121.307085 294.633719,122.040945 293.240185,122.040945" id="Fill-13" fill="#FCD400"></path>
                        <path d="M268.101444,189.214039 C266.726508,189.214039 265.38744,188.50012 264.648827,187.223841 C263.544893,185.317399 264.195829,182.877845 266.099484,181.774395 L266.729165,181.410124 C268.634148,180.306674 271.073165,180.95545 272.174442,182.861891 C273.278376,184.767004 272.628768,187.207888 270.723785,188.311337 L270.095433,188.675609 C269.465752,189.03988 268.778948,189.214039 268.101444,189.214039 M286.338273,178.636876 C284.963337,178.636876 283.624269,177.922957 282.885657,176.646678 C281.781723,174.740236 282.432658,172.300682 284.336313,171.197233 L284.965994,170.832961 C286.872306,169.729512 289.309994,170.378287 290.411271,172.284729 C291.515205,174.191171 290.865598,176.630725 288.960614,177.734174 L288.332262,178.098446 C287.702581,178.462717 287.015778,178.636876 286.338273,178.636876 M304.573774,168.059713 C303.198838,168.059713 301.861099,167.345795 301.122486,166.069516 C300.018552,164.163074 300.668159,161.723519 302.573143,160.61874 L303.201495,160.254469 C305.107807,159.151019 307.545495,159.801124 308.646772,161.706236 C309.750706,163.612678 309.101099,166.052233 307.196115,167.157012 L306.567763,167.521283 C305.938082,167.885554 305.252607,168.059713 304.573774,168.059713" id="Fill-15" fill="#FFFFFF"></path>
                        <path d="M268.101444,231.888822 C266.726508,231.888822 265.38744,231.174904 264.648827,229.898625 C263.544893,227.992183 264.195829,225.552629 266.099484,224.449179 L266.729165,224.084908 C268.634148,222.981458 271.073165,223.631563 272.174442,225.536675 C273.278376,227.443117 272.628768,229.882671 270.723785,230.986121 L270.095433,231.350392 C269.465752,231.714664 268.778948,231.888822 268.101444,231.888822 M286.338273,221.31166 C284.963337,221.31166 283.624269,220.597741 282.885657,219.321462 C281.781723,217.41502 282.432658,214.975466 284.336313,213.872016 L284.965994,213.507745 C286.872306,212.402966 289.309994,213.053071 290.411271,214.959512 C291.515205,216.865954 290.865598,219.305509 288.960614,220.408958 L288.332262,220.773229 C287.702581,221.13883 287.015778,221.31166 286.338273,221.31166 M304.575102,210.734497 C303.198838,210.734497 301.861099,210.021908 301.122486,208.744299 C300.018552,206.837857 300.669488,204.398303 302.573143,203.294853 L303.202823,202.930582 C305.109135,201.827133 307.545495,202.475908 308.648101,204.38235 C309.752034,206.288791 309.102427,208.728346 307.197444,209.831795 L306.567763,210.196067 C305.939411,210.561667 305.252607,210.734497 304.575102,210.734497" id="Fill-17" fill="#FFFFFF"></path>
                        <path d="M268.101444,210.543986 C266.726508,210.543986 265.38744,209.830067 264.648827,208.553788 C263.544893,206.647346 264.195829,204.207792 266.099484,203.104342 L266.729165,202.740071 C268.634148,201.635292 271.073165,202.285397 272.174442,204.191838 C273.278376,206.09828 272.628768,208.537834 270.723785,209.641284 L270.095433,210.005555 C269.465752,210.369827 268.778948,210.543986 268.101444,210.543986 M286.338273,199.966823 C284.963337,199.966823 283.624269,199.252904 282.885657,197.976625 C281.781723,196.070183 282.432658,193.630629 284.336313,192.527179 L284.965994,192.162908 C286.872306,191.058129 289.309994,191.708234 290.411271,193.614676 C291.515205,195.521117 290.865598,197.960672 288.960614,199.064121 L288.332262,199.428393 C287.702581,199.793993 287.015778,199.966823 286.338273,199.966823 M304.573774,189.38966 C303.198838,189.38966 301.861099,188.675741 301.122486,187.399462 C300.018552,185.493021 300.668159,183.053466 302.573143,181.948687 L303.201495,181.584416 C305.107807,180.480966 307.545495,181.131071 308.646772,183.036183 C309.750706,184.942625 309.101099,187.382179 307.196115,188.486959 L306.567763,188.85123 C305.938082,189.215501 305.252607,189.38966 304.573774,189.38966" id="Fill-19" fill="#FFFFFF"></path>
                        <path d="M95.6053292,275.985684 C94.9450943,275.985684 94.2755604,275.820832 93.6578356,275.475173 L20.0755237,234.141014 C18.1559273,233.062824 17.473109,230.632576 18.5504741,228.71151 C19.6278393,226.790444 22.0588851,226.108433 23.977153,227.185293 L97.559465,268.518122 C99.4790613,269.596312 100.16188,272.02789 99.0845145,273.948956 C98.3525439,275.251824 96.9988631,275.985684 95.6053292,275.985684" id="Fill-21" fill="#FFFFFF"></path>
                        <path d="M77.5659061,286.913159 C76.9056712,286.913159 76.2361372,286.748307 75.6184125,286.402648 L2.03477211,245.068489 C0.11650422,243.990299 -0.566314128,241.558721 0.511051009,239.638985 C1.58841615,237.717919 4.01813358,237.034578 5.93640147,238.112768 L79.5200418,279.445597 C81.4396382,280.523787 82.1224565,282.955365 81.0450914,284.876431 C80.3131207,286.179299 78.95944,286.913159 77.5659061,286.913159" id="Fill-23" fill="#FFFFFF"></path>
                        <path d="M113.645151,265.058874 C112.984916,265.058874 112.315382,264.894022 111.697657,264.548363 L38.1153453,223.214204 C36.195749,222.136014 35.5129306,219.705766 36.5902958,217.7847 C37.6676609,215.863634 40.0987068,215.181622 42.0169747,216.258483 L115.599287,257.591312 C117.518883,258.669502 118.201701,261.10108 117.124336,263.022146 C116.392366,264.325014 115.038685,265.058874 113.645151,265.058874" id="Fill-25" fill="#FFFFFF"></path>
                        <path d="M188.100647,311.985928 C186.725711,311.985928 185.386643,311.272009 184.64803,309.99573 C183.544096,308.089288 184.195032,305.649734 186.100015,304.546284 L186.728368,304.182013 C188.633351,303.078563 191.072368,303.728668 192.173645,305.63378 C193.277579,307.540222 192.627971,309.979776 190.722988,311.083226 L190.094636,311.447497 C189.464955,311.811769 188.778151,311.985928 188.100647,311.985928 M206.337476,301.408765 C204.96254,301.408765 203.623472,300.694846 202.884859,299.418567 C201.780926,297.512125 202.431861,295.072571 204.335516,293.969121 L204.965197,293.60485 C206.871509,292.5014 209.309197,293.150176 210.410474,295.056617 C211.514408,296.963059 210.864801,299.402614 208.959817,300.506063 L208.331465,300.870334 C207.701784,301.235935 207.014981,301.408765 206.337476,301.408765 M224.572977,290.831602 C223.198041,290.831602 221.860302,290.117683 221.121689,288.841404 C220.017755,286.934962 220.667362,284.495408 222.572346,283.390629 L223.200698,283.026358 C225.10701,281.924238 227.544698,282.573013 228.647303,284.478125 C229.749909,286.384567 229.100302,288.824121 227.195318,289.9289 L226.566966,290.293172 C225.937285,290.657443 225.25181,290.831602 224.572977,290.831602" id="Fill-27" fill="#242157"></path>
                        <path d="M188.100647,354.660844 C186.725711,354.660844 185.386643,353.946926 184.64803,352.670647 C183.544096,350.764205 184.195032,348.32465 186.100015,347.221201 L186.728368,346.8556 C188.633351,345.75348 191.072368,346.402255 192.173645,348.308697 C193.277579,350.213809 192.627971,352.654693 190.722988,353.758143 L190.094636,354.122414 C189.464955,354.486685 188.778151,354.660844 188.100647,354.660844 M206.337476,344.083681 C204.96254,344.083681 203.623472,343.369763 202.884859,342.093484 C201.780926,340.187042 202.431861,337.747488 204.335516,336.644038 L204.965197,336.279767 C206.871509,335.174988 209.309197,335.825092 210.410474,337.731534 C211.514408,339.637976 210.864801,342.07753 208.959817,343.18098 L208.331465,343.545251 C207.701784,343.909522 207.014981,344.083681 206.337476,344.083681 M224.574305,333.506519 C223.19937,333.506519 221.860302,332.793929 221.121689,331.516321 C220.017755,329.609879 220.668691,327.170325 222.572346,326.066875 L223.202026,325.702604 C225.108338,324.597825 227.544698,325.247929 228.647303,327.154371 C229.751237,329.060813 229.10163,331.500367 227.196647,332.603817 L226.566966,332.968088 C225.938614,333.333689 225.25181,333.506519 224.574305,333.506519" id="Fill-29" fill="#242157"></path>
                        <path d="M188.100647,333.316007 C186.725711,333.316007 185.386643,332.602089 184.64803,331.32581 C183.544096,329.419368 184.195032,326.979814 186.100015,325.876364 L186.728368,325.510763 C188.633351,324.407314 191.072368,325.057418 192.173645,326.96386 C193.277579,328.868972 192.627971,331.309856 190.722988,332.413306 L190.094636,332.777577 C189.464955,333.141848 188.778151,333.316007 188.100647,333.316007 M206.337476,322.738845 C204.96254,322.738845 203.623472,322.024926 202.884859,320.748647 C201.780926,318.842205 202.431861,316.402651 204.335516,315.299201 L204.965197,314.93493 C206.871509,313.830151 209.309197,314.480255 210.410474,316.386697 C211.514408,318.293139 210.864801,320.732693 208.959817,321.836143 L208.331465,322.200414 C207.701784,322.564686 207.014981,322.738845 206.337476,322.738845 M224.572977,312.161682 C223.198041,312.161682 221.860302,311.447763 221.121689,310.171484 C220.017755,308.265042 220.667362,305.825488 222.572346,304.720709 L223.200698,304.356438 C225.10701,303.252988 227.544698,303.903093 228.647303,305.808205 C229.749909,307.714647 229.100302,310.154201 227.195318,311.25898 L226.566966,311.623252 C225.937285,311.987523 225.25181,312.161682 224.572977,312.161682" id="Fill-31" fill="#242157"></path>
                        <path d="M464.990193,81.4964242 C463.615257,81.4964242 462.27619,80.7825056 461.537577,79.5062265 C460.433643,77.5997847 461.084579,75.1602304 462.989562,74.0567808 L463.617914,73.6925095 C465.522898,72.5890599 467.961914,73.2391645 469.063191,75.1442769 C470.167125,77.0507188 469.517518,79.4902731 467.612535,80.5937227 L466.984182,80.957994 C466.354502,81.3222653 465.667698,81.4964242 464.990193,81.4964242 M483.227023,70.9192614 C481.852087,70.9192614 480.513019,70.2066723 479.774406,68.9290638 C478.670472,67.0226219 479.321408,64.5830676 481.225063,63.479618 L481.854744,63.1153467 C483.761056,62.0118971 486.198744,62.6606723 487.300021,64.5671141 C488.403955,66.473556 487.754347,68.9131103 485.849364,70.0165599 L485.219683,70.3808312 C484.591331,70.746432 483.904527,70.9192614 483.227023,70.9192614 M501.462524,60.3420986 C500.087588,60.3420986 498.749848,59.62818 498.011235,58.351901 C496.907302,56.4454591 497.556909,54.0059048 499.461892,52.9024552 L500.090245,52.5368544 C501.996557,51.4347343 504.434245,52.0835095 505.535522,53.9886219 C506.639456,55.8950638 505.989848,58.334618 504.084865,59.4393971 L503.456513,59.8036684 C502.826832,60.1679397 502.141357,60.3420986 501.462524,60.3420986" id="Fill-33" fill="#FCD400"></path>
                        <path d="M464.990193,123.495977 C463.615257,123.495977 462.27619,122.782058 461.537577,121.505779 C460.433643,119.599337 461.084579,117.159783 462.989562,116.056333 L463.617914,115.692062 C465.522898,114.588613 467.961914,115.237388 469.063191,117.14383 C470.167125,119.048942 469.517518,121.489826 467.612535,122.593275 L466.984182,122.957547 C466.354502,123.321818 465.667698,123.495977 464.990193,123.495977 M483.227023,112.918814 C481.852087,112.918814 480.513019,112.204895 479.774406,110.928616 C478.670472,109.022175 479.321408,106.58262 481.225063,105.479171 L481.854744,105.114899 C483.761056,104.01012 486.198744,104.660225 487.300021,106.566667 C488.403955,108.473109 487.754347,110.912663 485.849364,112.016113 L485.219683,112.380384 C484.591331,112.744655 483.904527,112.918814 483.227023,112.918814 M501.463852,102.341651 C500.087588,102.341651 498.749848,101.629062 498.011235,100.351454 C496.907302,98.4450117 497.558237,96.0054575 499.461892,94.9020079 L500.091573,94.5377365 C501.997885,93.4342869 504.434245,94.0830621 505.53685,95.989504 C506.640784,97.8959458 505.991177,100.3355 504.086193,101.43895 L503.456513,101.803221 C502.82816,102.168822 502.141357,102.341651 501.463852,102.341651" id="Fill-35" fill="#FCD400"></path>
                        <path d="M464.990193,102.497015 C463.615257,102.497015 462.27619,101.783096 461.537577,100.506817 C460.433643,98.6003755 461.084579,96.1608212 462.989562,95.0573716 L463.617914,94.6931003 C465.522898,93.5883212 467.961914,94.2384259 469.063191,96.1448678 C470.167125,98.0513096 469.517518,100.490864 467.612535,101.594313 L466.984182,101.958585 C466.354502,102.322856 465.667698,102.497015 464.990193,102.497015 M483.227023,91.9198523 C481.852087,91.9198523 480.513019,91.2059337 479.774406,89.9296546 C478.670472,88.0232127 479.321408,85.5836585 481.225063,84.4802088 L481.854744,84.1159375 C483.761056,83.0111585 486.198744,83.6612631 487.300021,85.567705 C488.403955,87.4741468 487.754347,89.9137011 485.849364,91.0171507 L485.219683,91.381422 C484.591331,91.7470228 483.904527,91.9198523 483.227023,91.9198523 M501.462524,81.3426895 C500.087588,81.3426895 498.749848,80.6287709 498.011235,79.3524918 C496.907302,77.4460499 497.556909,75.0064957 499.461892,73.9017166 L500.090245,73.5374453 C501.996557,72.4339957 504.434245,73.0841003 505.535522,74.9892127 C506.639456,76.8956546 505.989848,79.3352088 504.084865,80.4399879 L503.456513,80.8042592 C502.826832,81.1685305 502.141357,81.3426895 501.462524,81.3426895" id="Fill-37" fill="#FCD400"></path>
                        <path d="M740.565557,198.310895 C739.905323,198.310895 739.235789,198.146042 738.618064,197.800383 L665.035752,156.466224 C663.116156,155.388034 662.433337,152.957786 663.510702,151.03672 C664.588068,149.115654 667.019113,148.433643 668.937381,149.510503 L742.519693,190.843333 C744.43929,191.921522 745.122108,194.3531 744.044743,196.274166 C743.312772,197.577034 741.959091,198.310895 740.565557,198.310895" id="Fill-39" fill="#F9F9F9"></path>
                        <path d="M722.565602,209.311485 C721.904038,209.311485 721.235833,209.146632 720.618108,208.800973 L647.034468,167.466814 C645.1162,166.388624 644.433381,163.958376 645.510747,162.03731 C646.588112,160.116245 649.017829,159.432903 650.936097,160.511093 L724.519737,201.843923 C726.439334,202.922113 727.122152,205.35369 726.044787,207.274756 C725.312816,208.577624 723.959136,209.311485 722.565602,209.311485" id="Fill-41" fill="#F9F9F9"></path>
                        <g id="Group-45" transform="translate(682.000000, 140.000000)">
                            <mask id="mask-2" fill="white">
                                <use xlink:href="#path-1"></use>
                            </mask>
                            <g id="Clip-44"></g>
                            <path d="M76.0302543,48.492707 L2.04684875,7.41915109 C0.11678879,6.34775893 -0.569751569,3.93151198 0.513486234,2.02387907 C1.59672404,0.114925085 4.03968574,-0.562786606 5.9697457,0.507284485 L79.9531513,41.5795194 C81.8832112,42.6509115 82.5697516,45.0671585 81.4865138,46.9761125 C80.7505532,48.2707664 79.3894936,49 77.9883636,49 C77.3245298,49 76.6513463,48.8361866 76.0302543,48.492707 Z" id="Fill-43" fill="#F9F9F9" mask="url(#mask-2)"></path>
                        </g>
                    </g>
                    <polygon id="Fill-47" fill="#242157" points="565.607097 188 565 228.661453 600.255479 249.061977 600.855934 208.861845"></polygon>
                    <g id="Group-60" transform="translate(608.000000, 51.000000)">
                        <path d="M4.16412495,251.04015 C2.78918917,251.04015 1.45012128,250.326231 0.711508441,249.049952 C-0.392425504,247.14351 0.258510275,244.703956 2.16216532,243.600507 L2.79184606,243.236235 C4.69682954,242.132786 7.13451761,242.781561 8.23712312,244.688003 C9.34105706,246.593115 8.69144973,249.033999 6.78646624,250.137448 L6.1567855,250.50172 C5.52843321,250.865991 4.84162954,251.04015 4.16412495,251.04015 M22.4009543,240.462987 C21.0260185,240.462987 19.6869506,239.749069 18.9483378,238.47279 C17.8444039,236.566348 18.4953396,234.126793 20.3989947,233.023344 L21.0286754,232.659072 C22.9349873,231.555623 25.3726754,232.204398 26.4739525,234.11084 C27.5778864,236.017282 26.9282791,238.456836 25.0232956,239.560286 L24.3936149,239.924557 C23.7652626,240.288828 23.0784589,240.462987 22.4009543,240.462987 M40.6364552,229.885824 C39.2615194,229.885824 37.92378,229.171906 37.1851672,227.895627 C36.0812332,225.989185 36.7308406,223.549631 38.635824,222.444852 L39.2641763,222.08058 C41.1704883,220.97846 43.6081763,221.627235 44.7094534,223.532348 C45.8133873,225.43879 45.16378,227.878344 43.2587965,228.983123 L42.6304442,229.347394 C42.0007635,229.711666 41.3152883,229.885824 40.6364552,229.885824" id="Fill-48" fill="#FCD400"></path>
                        <path d="M4.16412495,293.714934 C2.78918917,293.714934 1.45012128,293.001015 0.711508441,291.724736 C-0.392425504,289.818294 0.258510275,287.37874 2.16216532,286.27529 L2.79184606,285.911019 C4.69682954,284.807569 7.13451761,285.456345 8.23712312,287.362786 C9.34105706,289.269228 8.69144973,291.708783 6.78646624,292.812232 L6.1567855,293.176503 C5.52843321,293.540775 4.84162954,293.714934 4.16412495,293.714934 M22.4009543,283.137771 C21.0260185,283.137771 19.6869506,282.423852 18.9483378,281.147573 C17.8444039,279.241131 18.4953396,276.801577 20.3989947,275.698128 L21.0286754,275.333856 C22.9349873,274.229077 25.3726754,274.879182 26.4739525,276.785624 C27.5778864,278.692066 26.9282791,281.13162 25.0232956,282.235069 L24.3936149,282.599341 C23.7652626,282.963612 23.0784589,283.137771 22.4009543,283.137771 M40.6377837,272.560608 C39.2615194,272.560608 37.92378,271.848019 37.1851672,270.57041 C36.0812332,268.663969 36.732169,266.224414 38.635824,265.120965 L39.2655048,264.756693 C41.1718167,263.651914 43.6081763,264.302019 44.7107818,266.208461 C45.8147158,268.114903 45.1651084,270.554457 43.260125,271.657907 L42.6304442,272.022178 C42.0020919,272.387779 41.3152883,272.560608 40.6377837,272.560608" id="Fill-50" fill="#FCD400"></path>
                        <path d="M4.16412495,272.370097 C2.78918917,272.370097 1.45012128,271.656178 0.711508441,270.379899 C-0.392425504,268.473457 0.258510275,266.033903 2.16216532,264.930453 L2.79184606,264.566182 C4.69682954,263.461403 7.13451761,264.111508 8.23712312,266.01795 C9.34105706,267.924391 8.69144973,270.363946 6.78646624,271.467395 L6.1567855,271.831667 C5.52843321,272.195938 4.84162954,272.370097 4.16412495,272.370097 M22.4009543,261.792934 C21.0260185,261.792934 19.6869506,261.079016 18.9483378,259.802736 C17.8444039,257.896295 18.4953396,255.45674 20.3989947,254.353291 L21.0286754,253.989019 C22.9349873,252.88424 25.3726754,253.534345 26.4739525,255.440787 C27.5778864,257.347229 26.9282791,259.786783 25.0232956,260.890233 L24.3936149,261.254504 C23.7652626,261.618775 23.0784589,261.792934 22.4009543,261.792934 M40.6364552,251.215771 C39.2615194,251.215771 37.92378,250.501853 37.1851672,249.225574 C36.0812332,247.319132 36.7308406,244.879578 38.635824,243.774798 L39.2641763,243.410527 C41.1704883,242.307078 43.6081763,242.957182 44.7094534,244.862295 C45.8133873,246.768736 45.16378,249.208291 43.2587965,250.31307 L42.6304442,250.677341 C42.0007635,251.041612 41.3152883,251.215771 40.6364552,251.215771" id="Fill-52" fill="#FCD400"></path>
                        <path d="M4.16332789,30.2666922 C2.78839211,30.2666922 1.44932422,29.5527736 0.710711376,28.2764946 C-0.393222569,26.3700527 0.257713211,23.9304984 2.1626967,22.8270488 L2.79104899,22.4627775 C4.69603248,21.3593279 7.13504899,22.0094326 8.23632606,23.914545 C9.34026,25.8209868 8.69065266,28.2605411 6.78566917,29.3639907 L6.15731688,29.728262 C5.52763615,30.0925333 4.84083248,30.2666922 4.16332789,30.2666922 M22.4001572,19.6895295 C21.0252215,19.6895295 19.6861536,18.9769403 18.9475407,17.6993318 C17.8436068,15.7928899 18.4945426,13.3533357 20.3981976,12.249886 L21.0278783,11.8856147 C22.9341903,10.7821651 25.3718783,11.4309403 26.4731554,13.3373822 C27.5770894,15.243824 26.927482,17.6833783 25.0224985,18.7868279 L24.3928178,19.1510992 C23.7644655,19.5167 23.0776618,19.6895295 22.4001572,19.6895295 M40.6356582,9.11236667 C39.2607224,9.11236667 37.9229829,8.39844806 37.1843701,7.12216899 C36.0804361,5.21572713 36.7300435,2.77617287 38.635027,1.67272326 L39.2633793,1.30712248 C41.1696912,0.205002326 43.6073793,0.853777519 44.7086563,2.75888992 C45.8125903,4.66533178 45.1629829,7.10488605 43.2579994,8.20966512 L42.6296472,8.57393643 C41.9999664,8.93820775 41.3144912,9.11236667 40.6356582,9.11236667" id="Fill-54" fill="#242157"></path>
                        <path d="M4.16332789,72.9416089 C2.78839211,72.9416089 1.44932422,72.2276903 0.710711376,70.9514112 C-0.393222569,69.0449694 0.257713211,66.6054151 2.1626967,65.5019655 L2.79104899,65.1376942 C4.69603248,64.0342446 7.13504899,64.6830198 8.23632606,66.5894616 C9.34026,68.494574 8.69065266,70.9354578 6.78566917,72.0389074 L6.15731688,72.4031787 C5.52763615,72.76745 4.84083248,72.9416089 4.16332789,72.9416089 M22.4001572,62.3644461 C21.0252215,62.3644461 19.6861536,61.6505275 18.9475407,60.3742484 C17.8436068,58.4678066 18.4945426,56.0282523 20.3981976,54.9248027 L21.0278783,54.5605314 C22.9341903,53.4557523 25.3718783,54.105857 26.4731554,56.0122988 C27.5770894,57.9187407 26.927482,60.358295 25.0224985,61.4617446 L24.3928178,61.8260159 C23.7644655,62.1902872 23.0776618,62.3644461 22.4001572,62.3644461 M40.6369866,51.7872833 C39.2607224,51.7872833 37.9229829,51.0746942 37.1843701,49.7970857 C36.0804361,47.8906438 36.7313719,45.4510895 38.635027,44.3476399 L39.2647077,43.9833686 C41.1710196,42.879919 43.6073793,43.5286942 44.7099848,45.435136 C45.8139187,47.3415779 45.1643114,49.7811322 43.2593279,50.8845818 L42.6296472,51.2488531 C42.0012949,51.6144539 41.3144912,51.7872833 40.6369866,51.7872833" id="Fill-56" fill="#242157"></path>
                        <path d="M4.16332789,51.5967721 C2.78839211,51.5967721 1.44932422,50.8828535 0.710711376,49.6065744 C-0.393222569,47.7001326 0.257713211,45.2605783 2.1626967,44.1571287 L2.79104899,43.7928574 C4.69603248,42.6880783 7.13504899,43.3381829 8.23632606,45.2446248 C9.34026,47.1510667 8.69065266,49.5906209 6.78566917,50.6940705 L6.15731688,51.0583419 C5.52763615,51.4226132 4.84083248,51.5967721 4.16332789,51.5967721 M22.4001572,41.0196093 C21.0252215,41.0196093 19.6861536,40.3056907 18.9475407,39.0294116 C17.8436068,37.1229698 18.4945426,34.6834155 20.3981976,33.5799659 L21.0278783,33.2156946 C22.9341903,32.1109155 25.3718783,32.7610202 26.4731554,34.667462 C27.5770894,36.5739039 26.927482,39.0134581 25.0224985,40.1169078 L24.3928178,40.4811791 C23.7644655,40.8467798 23.0776618,41.0196093 22.4001572,41.0196093 M40.6356582,30.4424465 C39.2607224,30.4424465 37.9229829,29.7285279 37.1843701,28.4522488 C36.0804361,26.545807 36.7300435,24.1062527 38.635027,23.0014736 L39.2633793,22.6372023 C41.1696912,21.5337527 43.6073793,22.1838574 44.7086563,24.0889698 C45.8125903,25.9954116 45.1629829,28.4349659 43.2579994,29.539745 L42.6296472,29.9040163 C41.9999664,30.2682876 41.3144912,30.4424465 40.6356582,30.4424465" id="Fill-58" fill="#242157"></path>
                    </g>
                </g>
            </g>
        </g>
    </g>
</svg>