<?xml version="1.0" encoding="UTF-8"?>
<svg width="1014px" height="376px" viewBox="0 0 1014 376" version="1.1" xmlns="http://www.w3.org/2000/svg" xmlns:xlink="http://www.w3.org/1999/xlink">
    <!-- Generator: Sketch 46.2 (44496) - http://www.bohemiancoding.com/sketch -->
    <title>Artboard Copy</title>
    <desc>Created with Sketch.</desc>
    <defs></defs>
    <g id="Desktop" stroke="none" stroke-width="1" fill="none" fill-rule="evenodd">
        <g id="Artboard-Copy">
            <g id="Group-5" transform="translate(297.000000, 177.617566) scale(-1, 1) translate(-297.000000, -177.617566) translate(257.000000, 154.117566)" stroke-width="4.3715847" stroke-linecap="round" stroke-linejoin="round">
                <path d="M20.258929,11.9058863 L60.0670164,34.8277542" id="Stroke-7" stroke="#FFD400"></path>
                <polygon id="Stroke-1" stroke="#EF413D" points="40.0804809 0.321157075 0.436765027 23.2719778 40.0804809 46.2227986 79.9419016 23.4904401"></polygon>
            </g>
            <g id="Page-1-Copy-2" transform="translate(106.000000, 183.000000)" stroke-linecap="round" stroke-width="4.3715847" stroke="#F9F9F9" stroke-linejoin="round">
                <g id="Group-5" transform="translate(0.000000, 0.117566)">
                    <polygon id="Stroke-1" points="40.0804809 0.321157075 0.436765027 23.2719778 40.0804809 46.2227986 79.9419016 23.4904401"></polygon>
                </g>
            </g>
            <g id="Page-1-Copy-4" transform="translate(848.000000, 151.000000)" stroke-linecap="round" stroke-width="4.3715847" stroke="#FFD400" stroke-linejoin="round">
                <g id="Group-5" transform="translate(0.000000, 0.117566)">
                    <polygon id="Stroke-1" points="40.0804809 0.321157075 0.436765027 23.2719778 40.0804809 46.2227986 79.9419016 23.4904401"></polygon>
                </g>
            </g>
            <g id="Page-1-Copy-7" transform="translate(931.000000, 16.000000)" stroke-linecap="round" stroke-width="4.3715847" stroke="#F9F9F9" stroke-linejoin="round">
                <g id="Group-5" transform="translate(0.000000, 0.117566)">
                    <polygon id="Stroke-1" points="40.0804809 0.321157075 0.436765027 23.2719778 40.0804809 46.2227986 79.9419016 23.4904401"></polygon>
                </g>
            </g>
            <g id="Page-1-Copy-3" transform="translate(2.000000, 226.000000)">
                <path d="M10.258929,6.02345236 L50.0670164,28.9453203" id="Stroke-7" stroke="#FFD400" stroke-width="4.3715847" stroke-linecap="round" stroke-linejoin="round"></path>
                <path d="M19.8939454,0.363437264 L59.8607213,23.3682156" id="Stroke-8" stroke="#F9F9F9" stroke-width="4.3715847" stroke-linecap="round" stroke-linejoin="round"></path>
                <path d="M0.501420765,11.6217453 L40.2946448,34.5045708" id="Stroke-10" stroke="#F9F9F9" stroke-width="4.3715847" stroke-linecap="round" stroke-linejoin="round"></path>
                <g id="Group-29" transform="translate(37.650273, 32.282660)" fill="#FFD400">
                    <path d="M14.7517814,8.2154533 C14.7517814,9.50341557 13.7113443,10.5474722 12.427847,10.5474722 C11.1443497,10.5474722 10.1034754,9.50341557 10.1034754,8.2154533 C10.1034754,6.92705236 11.1443497,5.88343443 12.427847,5.88343443 C13.7113443,5.88343443 14.7517814,6.92705236 14.7517814,8.2154533" id="Fill-11"></path>
                    <path d="M24.5336393,2.54302358 C24.5336393,3.83098585 23.4932022,4.87504245 22.2097049,4.87504245 C20.9262077,4.87504245 19.8853333,3.83098585 19.8853333,2.54302358 C19.8853333,1.25506132 20.9262077,0.211004717 22.2097049,0.211004717 C23.4932022,0.211004717 24.5336393,1.25506132 24.5336393,2.54302358" id="Fill-13"></path>
                    <path d="M4.99812022,13.8527009 C4.99812022,15.1406632 3.9572459,16.1847198 2.67418579,16.1847198 C1.39025137,16.1847198 0.349814208,15.1406632 0.349814208,13.8527009 C0.349814208,12.5643 1.39025137,11.5206821 2.67418579,11.5206821 C3.9572459,11.5206821 4.99812022,12.5643 4.99812022,13.8527009" id="Fill-15"></path>
                    <path d="M14.7517814,19.7856184 C14.7517814,21.0735807 13.7113443,22.1176373 12.427847,22.1176373 C11.1443497,22.1176373 10.1034754,21.0735807 10.1034754,19.7856184 C10.1034754,18.4972175 11.1443497,17.4535995 12.427847,17.4535995 C13.7113443,17.4535995 14.7517814,18.4972175 14.7517814,19.7856184" id="Fill-17"></path>
                    <path d="M24.5336393,14.1131887 C24.5336393,15.4011509 23.4932022,16.4452075 22.2097049,16.4452075 C20.9262077,16.4452075 19.8853333,15.4011509 19.8853333,14.1131887 C19.8853333,12.8252264 20.9262077,11.7811698 22.2097049,11.7811698 C23.4932022,11.7811698 24.5336393,12.8252264 24.5336393,14.1131887" id="Fill-19"></path>
                    <path d="M4.99812022,25.422866 C4.99812022,26.7108283 3.9572459,27.7548849 2.67418579,27.7548849 C1.39025137,27.7548849 0.349814208,26.7108283 0.349814208,25.422866 C0.349814208,24.1344651 1.39025137,23.0908472 2.67418579,23.0908472 C3.9572459,23.0908472 4.99812022,24.1344651 4.99812022,25.422866" id="Fill-21"></path>
                    <path d="M14.7517814,31.3557835 C14.7517814,32.6437458 13.7113443,33.6878024 12.427847,33.6878024 C11.1443497,33.6878024 10.1034754,32.6437458 10.1034754,31.3557835 C10.1034754,30.0673825 11.1443497,29.0237646 12.427847,29.0237646 C13.7113443,29.0237646 14.7517814,30.0673825 14.7517814,31.3557835" id="Fill-23"></path>
                    <path d="M24.5336393,25.6833538 C24.5336393,26.971316 23.4932022,28.0153726 22.2097049,28.0153726 C20.9262077,28.0153726 19.8853333,26.971316 19.8853333,25.6833538 C19.8853333,24.3953915 20.9262077,23.3513349 22.2097049,23.3513349 C23.4932022,23.3513349 24.5336393,24.3953915 24.5336393,25.6833538" id="Fill-25"></path>
                    <path d="M4.99812022,36.993075 C4.99812022,38.2810373 3.9572459,39.3250939 2.67418579,39.3250939 C1.39025137,39.3250939 0.349814208,38.2810373 0.349814208,36.993075 C0.349814208,35.7046741 1.39025137,34.6610561 2.67418579,34.6610561 C3.9572459,34.6610561 4.99812022,35.7046741 4.99812022,36.993075" id="Fill-27"></path>
                </g>
            </g>
            <g id="Page-1-Copy-5" transform="translate(190.000000, 250.000000)" stroke="#FFD400" stroke-width="4.3715847" stroke-linecap="round" stroke-linejoin="round">
                <path d="M10.258929,6.02345236 L50.0670164,28.9453203" id="Stroke-7"></path>
                <path d="M19.8939454,0.363437264 L59.8607213,23.3682156" id="Stroke-8"></path>
                <path d="M0.501420765,11.6217453 L40.2946448,34.5045708" id="Stroke-10"></path>
            </g>
            <g id="Page-1-Copy-8" transform="translate(742.000000, 249.500000) scale(-1, 1) translate(-742.000000, -249.500000) translate(712.000000, 232.000000)" stroke-width="4.3715847" stroke-linecap="round" stroke-linejoin="round">
                <path d="M10.258929,6.02345236 L50.0670164,28.9453203" id="Stroke-7" stroke="#F9F9F9"></path>
                <path d="M19.8939454,0.363437264 L59.8607213,23.3682156" id="Stroke-8" stroke="#FFD400"></path>
                <path d="M0.501420765,11.6217453 L40.2946448,34.5045708" id="Stroke-10" stroke="#FFD400"></path>
            </g>
            <g id="Page-1-Copy-11" transform="translate(901.000000, 274.000000)" stroke-width="4.3715847" stroke-linecap="round" stroke-linejoin="round">
                <path d="M10.258929,6.02345236 L50.0670164,28.9453203" id="Stroke-7" stroke="#FFD400"></path>
                <path d="M19.8939454,0.363437264 L59.8607213,23.3682156" id="Stroke-8" stroke="#EF413D"></path>
                <path d="M0.501420765,11.6217453 L40.2946448,34.5045708" id="Stroke-10" stroke="#EF413D"></path>
            </g>
            <g id="Page-1-Copy-10" transform="translate(812.000000, 23.500000) scale(-1, 1) translate(-812.000000, -23.500000) translate(782.000000, 6.000000)" stroke-width="4.3715847" stroke-linecap="round" stroke-linejoin="round">
                <path d="M10.258929,6.02345236 L50.0670164,28.9453203" id="Stroke-7" stroke="#EF413D"></path>
                <path d="M19.8939454,0.363437264 L59.8607213,23.3682156" id="Stroke-8" stroke="#FFD400"></path>
                <path d="M0.501420765,11.6217453 L40.2946448,34.5045708" id="Stroke-10" stroke="#FFD400"></path>
            </g>
            <g id="Group-5" transform="translate(418.000000, 244.117566)"></g>
            <path d="M438.258929,256.023452 L478.067016,278.94532" id="Stroke-7" stroke="#FFD400" stroke-width="4.3715847" stroke-linecap="round" stroke-linejoin="round"></path>
            <path d="M447.893945,250.363437 L487.860721,273.368216" id="Stroke-8" stroke="#EF413D" stroke-width="4.3715847" stroke-linecap="round" stroke-linejoin="round"></path>
            <path d="M428.501421,261.621745 L468.294645,284.504571" id="Stroke-10" stroke="#EF413D" stroke-width="4.3715847" stroke-linecap="round" stroke-linejoin="round"></path>
            <polygon id="Stroke-1" stroke="#F9F9F9" stroke-width="4.3715847" stroke-linecap="round" stroke-linejoin="round" points="458.080481 244.438723 418.436765 267.389544 458.080481 290.340365 497.941902 267.608006"></polygon>
            <g id="Group-5" transform="translate(646.000000, 318.117566)"></g>
            <path d="M666.258929,330.023452 L706.067016,352.94532" id="Stroke-7" stroke="#FFD400" stroke-width="4.3715847" stroke-linecap="round" stroke-linejoin="round"></path>
            <path d="M675.893945,324.363437 L715.860721,347.368216" id="Stroke-8" stroke="#EF413D" stroke-width="4.3715847" stroke-linecap="round" stroke-linejoin="round"></path>
            <path d="M656.501421,335.621745 L696.294645,358.504571" id="Stroke-10" stroke="#EF413D" stroke-width="4.3715847" stroke-linecap="round" stroke-linejoin="round"></path>
            <g id="Group-4" transform="translate(668.000000, 147.000000)">
                <path d="M10.258929,6.02345236 L50.0670164,28.9453203" id="Stroke-7" stroke="#EF413D" stroke-width="4.3715847" stroke-linecap="round" stroke-linejoin="round"></path>
                <path d="M19.8939454,0.363437264 L59.8607213,23.3682156" id="Stroke-8" stroke="#FFD400" stroke-width="4.3715847" stroke-linecap="round" stroke-linejoin="round"></path>
                <path d="M0.501420765,11.6217453 L40.2946448,34.5045708" id="Stroke-10" stroke="#FFD400" stroke-width="4.3715847" stroke-linecap="round" stroke-linejoin="round"></path>
                <g id="Group-29" transform="translate(38.000000, 32.000000)" fill="#FFD400">
                    <path d="M14.7517814,8.2154533 C14.7517814,9.50341557 13.7113443,10.5474722 12.427847,10.5474722 C11.1443497,10.5474722 10.1034754,9.50341557 10.1034754,8.2154533 C10.1034754,6.92705236 11.1443497,5.88343443 12.427847,5.88343443 C13.7113443,5.88343443 14.7517814,6.92705236 14.7517814,8.2154533" id="Fill-11"></path>
                    <path d="M24.5336393,2.54302358 C24.5336393,3.83098585 23.4932022,4.87504245 22.2097049,4.87504245 C20.9262077,4.87504245 19.8853333,3.83098585 19.8853333,2.54302358 C19.8853333,1.25506132 20.9262077,0.211004717 22.2097049,0.211004717 C23.4932022,0.211004717 24.5336393,1.25506132 24.5336393,2.54302358" id="Fill-13"></path>
                    <path d="M4.99812022,13.8527009 C4.99812022,15.1406632 3.9572459,16.1847198 2.67418579,16.1847198 C1.39025137,16.1847198 0.349814208,15.1406632 0.349814208,13.8527009 C0.349814208,12.5643 1.39025137,11.5206821 2.67418579,11.5206821 C3.9572459,11.5206821 4.99812022,12.5643 4.99812022,13.8527009" id="Fill-15"></path>
                    <path d="M14.7517814,19.7856184 C14.7517814,21.0735807 13.7113443,22.1176373 12.427847,22.1176373 C11.1443497,22.1176373 10.1034754,21.0735807 10.1034754,19.7856184 C10.1034754,18.4972175 11.1443497,17.4535995 12.427847,17.4535995 C13.7113443,17.4535995 14.7517814,18.4972175 14.7517814,19.7856184" id="Fill-17"></path>
                    <path d="M24.5336393,14.1131887 C24.5336393,15.4011509 23.4932022,16.4452075 22.2097049,16.4452075 C20.9262077,16.4452075 19.8853333,15.4011509 19.8853333,14.1131887 C19.8853333,12.8252264 20.9262077,11.7811698 22.2097049,11.7811698 C23.4932022,11.7811698 24.5336393,12.8252264 24.5336393,14.1131887" id="Fill-19"></path>
                    <path d="M4.99812022,25.422866 C4.99812022,26.7108283 3.9572459,27.7548849 2.67418579,27.7548849 C1.39025137,27.7548849 0.349814208,26.7108283 0.349814208,25.422866 C0.349814208,24.1344651 1.39025137,23.0908472 2.67418579,23.0908472 C3.9572459,23.0908472 4.99812022,24.1344651 4.99812022,25.422866" id="Fill-21"></path>
                    <path d="M14.7517814,31.3557835 C14.7517814,32.6437458 13.7113443,33.6878024 12.427847,33.6878024 C11.1443497,33.6878024 10.1034754,32.6437458 10.1034754,31.3557835 C10.1034754,30.0673825 11.1443497,29.0237646 12.427847,29.0237646 C13.7113443,29.0237646 14.7517814,30.0673825 14.7517814,31.3557835" id="Fill-23"></path>
                    <path d="M24.5336393,25.6833538 C24.5336393,26.971316 23.4932022,28.0153726 22.2097049,28.0153726 C20.9262077,28.0153726 19.8853333,26.971316 19.8853333,25.6833538 C19.8853333,24.3953915 20.9262077,23.3513349 22.2097049,23.3513349 C23.4932022,23.3513349 24.5336393,24.3953915 24.5336393,25.6833538" id="Fill-25"></path>
                    <path d="M4.99812022,36.993075 C4.99812022,38.2810373 3.9572459,39.3250939 2.67418579,39.3250939 C1.39025137,39.3250939 0.349814208,38.2810373 0.349814208,36.993075 C0.349814208,35.7046741 1.39025137,34.6610561 2.67418579,34.6610561 C3.9572459,34.6610561 4.99812022,35.7046741 4.99812022,36.993075" id="Fill-27"></path>
                </g>
            </g>
            <g id="Group-29-Copy-2" transform="translate(787.500000, 58.000000) scale(-1, 1) translate(-787.500000, -58.000000) translate(775.000000, 38.000000)" fill="#EF403D">
                <path d="M14.7517814,8.2154533 C14.7517814,9.50341557 13.7113443,10.5474722 12.427847,10.5474722 C11.1443497,10.5474722 10.1034754,9.50341557 10.1034754,8.2154533 C10.1034754,6.92705236 11.1443497,5.88343443 12.427847,5.88343443 C13.7113443,5.88343443 14.7517814,6.92705236 14.7517814,8.2154533" id="Fill-11"></path>
                <path d="M24.5336393,2.54302358 C24.5336393,3.83098585 23.4932022,4.87504245 22.2097049,4.87504245 C20.9262077,4.87504245 19.8853333,3.83098585 19.8853333,2.54302358 C19.8853333,1.25506132 20.9262077,0.211004717 22.2097049,0.211004717 C23.4932022,0.211004717 24.5336393,1.25506132 24.5336393,2.54302358" id="Fill-13"></path>
                <path d="M4.99812022,13.8527009 C4.99812022,15.1406632 3.9572459,16.1847198 2.67418579,16.1847198 C1.39025137,16.1847198 0.349814208,15.1406632 0.349814208,13.8527009 C0.349814208,12.5643 1.39025137,11.5206821 2.67418579,11.5206821 C3.9572459,11.5206821 4.99812022,12.5643 4.99812022,13.8527009" id="Fill-15"></path>
                <path d="M14.7517814,19.7856184 C14.7517814,21.0735807 13.7113443,22.1176373 12.427847,22.1176373 C11.1443497,22.1176373 10.1034754,21.0735807 10.1034754,19.7856184 C10.1034754,18.4972175 11.1443497,17.4535995 12.427847,17.4535995 C13.7113443,17.4535995 14.7517814,18.4972175 14.7517814,19.7856184" id="Fill-17"></path>
                <path d="M24.5336393,14.1131887 C24.5336393,15.4011509 23.4932022,16.4452075 22.2097049,16.4452075 C20.9262077,16.4452075 19.8853333,15.4011509 19.8853333,14.1131887 C19.8853333,12.8252264 20.9262077,11.7811698 22.2097049,11.7811698 C23.4932022,11.7811698 24.5336393,12.8252264 24.5336393,14.1131887" id="Fill-19"></path>
                <path d="M4.99812022,25.422866 C4.99812022,26.7108283 3.9572459,27.7548849 2.67418579,27.7548849 C1.39025137,27.7548849 0.349814208,26.7108283 0.349814208,25.422866 C0.349814208,24.1344651 1.39025137,23.0908472 2.67418579,23.0908472 C3.9572459,23.0908472 4.99812022,24.1344651 4.99812022,25.422866" id="Fill-21"></path>
                <path d="M14.7517814,31.3557835 C14.7517814,32.6437458 13.7113443,33.6878024 12.427847,33.6878024 C11.1443497,33.6878024 10.1034754,32.6437458 10.1034754,31.3557835 C10.1034754,30.0673825 11.1443497,29.0237646 12.427847,29.0237646 C13.7113443,29.0237646 14.7517814,30.0673825 14.7517814,31.3557835" id="Fill-23"></path>
                <path d="M24.5336393,25.6833538 C24.5336393,26.971316 23.4932022,28.0153726 22.2097049,28.0153726 C20.9262077,28.0153726 19.8853333,26.971316 19.8853333,25.6833538 C19.8853333,24.3953915 20.9262077,23.3513349 22.2097049,23.3513349 C23.4932022,23.3513349 24.5336393,24.3953915 24.5336393,25.6833538" id="Fill-25"></path>
                <path d="M4.99812022,36.993075 C4.99812022,38.2810373 3.9572459,39.3250939 2.67418579,39.3250939 C1.39025137,39.3250939 0.349814208,38.2810373 0.349814208,36.993075 C0.349814208,35.7046741 1.39025137,34.6610561 2.67418579,34.6610561 C3.9572459,34.6610561 4.99812022,35.7046741 4.99812022,36.993075" id="Fill-27"></path>
            </g>
            <polygon id="Fill-6" fill="#EF413D" points="460 336 460 362.059302 483.01377 375.572816 482.970055 349.344623"></polygon>
            <polygon id="Fill-6-Copy-3" fill="#F9F9F9" transform="translate(904.506885, 250.786408) scale(-1, 1) translate(-904.506885, -250.786408) " points="893 231 893 257.059302 916.01377 270.572816 915.970055 244.344623"></polygon>
            <polygon id="Fill-6-Copy-2" fill="#FFD400" points="890 75 890 101.059302 913.01377 114.572816 912.970055 88.3446226"></polygon>
            <path d="M620.258929,262.023452 L660.067016,284.94532" id="Stroke-7" stroke="#EF413D" stroke-width="4.3715847" stroke-linecap="round" stroke-linejoin="round"></path>
            <path d="M629.893945,256.363437 L669.860721,279.368216" id="Stroke-8" stroke="#F9F9F9" stroke-width="4.3715847" stroke-linecap="round" stroke-linejoin="round"></path>
            <path d="M610.501421,267.621745 L650.294645,290.504571" id="Stroke-10" stroke="#F9F9F9" stroke-width="4.3715847" stroke-linecap="round" stroke-linejoin="round"></path>
            <polygon id="Stroke-1" stroke="#FFD400" stroke-width="4.3715847" stroke-linecap="round" stroke-linejoin="round" points="639.389101 250 599 273.382344 639.389101 296.764689 680 273.604914"></polygon>
            <path d="M662.402055,296.498114 C662.402055,297.786076 661.361617,298.830133 660.07812,298.830133 C658.794623,298.830133 657.753749,297.786076 657.753749,296.498114 C657.753749,295.209713 658.794623,294.166095 660.07812,294.166095 C661.361617,294.166095 662.402055,295.209713 662.402055,296.498114" id="Fill-11" fill="#EF413D"></path>
            <path d="M672.183913,290.825684 C672.183913,292.113646 671.143475,293.157703 669.859978,293.157703 C668.576481,293.157703 667.535607,292.113646 667.535607,290.825684 C667.535607,289.537722 668.576481,288.493665 669.859978,288.493665 C671.143475,288.493665 672.183913,289.537722 672.183913,290.825684" id="Fill-13" fill="#EF413D"></path>
            <path d="M652.648393,302.135361 C652.648393,303.423324 651.607519,304.46738 650.324459,304.46738 C649.040525,304.46738 648.000087,303.423324 648.000087,302.135361 C648.000087,300.84696 649.040525,299.803342 650.324459,299.803342 C651.607519,299.803342 652.648393,300.84696 652.648393,302.135361" id="Fill-15" fill="#EF413D"></path>
            <path d="M662.402055,308.068279 C662.402055,309.356241 661.361617,310.400298 660.07812,310.400298 C658.794623,310.400298 657.753749,309.356241 657.753749,308.068279 C657.753749,306.779878 658.794623,305.73626 660.07812,305.73626 C661.361617,305.73626 662.402055,306.779878 662.402055,308.068279" id="Fill-17" fill="#EF413D"></path>
            <path d="M672.183913,302.395849 C672.183913,303.683811 671.143475,304.727868 669.859978,304.727868 C668.576481,304.727868 667.535607,303.683811 667.535607,302.395849 C667.535607,301.107887 668.576481,300.06383 669.859978,300.06383 C671.143475,300.06383 672.183913,301.107887 672.183913,302.395849" id="Fill-19" fill="#EF413D"></path>
            <path d="M652.648393,313.705526 C652.648393,314.993489 651.607519,316.037545 650.324459,316.037545 C649.040525,316.037545 648.000087,314.993489 648.000087,313.705526 C648.000087,312.417125 649.040525,311.373508 650.324459,311.373508 C651.607519,311.373508 652.648393,312.417125 652.648393,313.705526" id="Fill-21" fill="#EF413D"></path>
            <path d="M662.402055,319.638444 C662.402055,320.926406 661.361617,321.970463 660.07812,321.970463 C658.794623,321.970463 657.753749,320.926406 657.753749,319.638444 C657.753749,318.350043 658.794623,317.306425 660.07812,317.306425 C661.361617,317.306425 662.402055,318.350043 662.402055,319.638444" id="Fill-23" fill="#EF413D"></path>
            <path d="M672.183913,313.966014 C672.183913,315.253976 671.143475,316.298033 669.859978,316.298033 C668.576481,316.298033 667.535607,315.253976 667.535607,313.966014 C667.535607,312.678052 668.576481,311.633995 669.859978,311.633995 C671.143475,311.633995 672.183913,312.678052 672.183913,313.966014" id="Fill-25" fill="#EF413D"></path>
            <path d="M652.648393,325.275735 C652.648393,326.563698 651.607519,327.607754 650.324459,327.607754 C649.040525,327.607754 648.000087,326.563698 648.000087,325.275735 C648.000087,323.987334 649.040525,322.943717 650.324459,322.943717 C651.607519,322.943717 652.648393,323.987334 652.648393,325.275735" id="Fill-27" fill="#EF413D"></path>
            <g id="Group-5-Copy-2" transform="translate(174.000000, 41.000000)" stroke-linecap="round" stroke-width="4.3715847" stroke="#FFD400" stroke-linejoin="round">
                <polygon id="Stroke-1" points="40.0804809 0.321157075 0.436765027 23.2719778 40.0804809 46.2227986 79.9419016 23.4904401"></polygon>
            </g>
            <polygon id="Stroke-1" stroke="#EF413D" stroke-width="4.3715847" stroke-linecap="round" stroke-linejoin="round" points="800.080481 324.321157 760.436765 347.271978 800.080481 370.222799 839.941902 347.49044"></polygon>
            <polygon id="Fill-6" fill="#EF413D" points="640.467279 12.0265816 640.467279 38.0858835 663.481049 51.5993976 663.437333 25.3712042"></polygon>
            <g id="Group-8" transform="translate(534.000000, 68.500000) scale(-1, 1) translate(-534.000000, -68.500000) translate(504.000000, 51.000000)" stroke-width="4.3715847" stroke-linecap="round" stroke-linejoin="round">
                <path d="M10.258929,6.02345236 L50.0670164,28.9453203" id="Stroke-7" stroke="#F9F9F9"></path>
                <path d="M19.8939454,0.363437264 L59.8607213,23.3682156" id="Stroke-8" stroke="#FFD400"></path>
                <path d="M0.501420765,11.6217453 L40.2946448,34.5045708" id="Stroke-10" stroke="#FFD400"></path>
            </g>
            <path d="M556.402055,91.4981137 C556.402055,92.7860759 555.361617,93.8301325 554.07812,93.8301325 C552.794623,93.8301325 551.753749,92.7860759 551.753749,91.4981137 C551.753749,90.2097127 552.794623,89.1660948 554.07812,89.1660948 C555.361617,89.1660948 556.402055,90.2097127 556.402055,91.4981137" id="Fill-11" fill="#EF413D"></path>
            <path d="M566.183913,85.825684 C566.183913,87.1136462 565.143475,88.1577028 563.859978,88.1577028 C562.576481,88.1577028 561.535607,87.1136462 561.535607,85.825684 C561.535607,84.5377217 562.576481,83.4936651 563.859978,83.4936651 C565.143475,83.4936651 566.183913,84.5377217 566.183913,85.825684" id="Fill-13" fill="#EF413D"></path>
            <path d="M546.648393,97.1353613 C546.648393,98.4233236 545.607519,99.4673802 544.324459,99.4673802 C543.040525,99.4673802 542.000087,98.4233236 542.000087,97.1353613 C542.000087,95.8469604 543.040525,94.8033425 544.324459,94.8033425 C545.607519,94.8033425 546.648393,95.8469604 546.648393,97.1353613" id="Fill-15" fill="#EF413D"></path>
            <path d="M556.402055,103.068279 C556.402055,104.356241 555.361617,105.400298 554.07812,105.400298 C552.794623,105.400298 551.753749,104.356241 551.753749,103.068279 C551.753749,101.779878 552.794623,100.73626 554.07812,100.73626 C555.361617,100.73626 556.402055,101.779878 556.402055,103.068279" id="Fill-17" fill="#EF413D"></path>
            <path d="M566.183913,97.3958491 C566.183913,98.6838113 565.143475,99.7278679 563.859978,99.7278679 C562.576481,99.7278679 561.535607,98.6838113 561.535607,97.3958491 C561.535607,96.1078868 562.576481,95.0638302 563.859978,95.0638302 C565.143475,95.0638302 566.183913,96.1078868 566.183913,97.3958491" id="Fill-19" fill="#EF413D"></path>
            <path d="M546.648393,108.705526 C546.648393,109.993489 545.607519,111.037545 544.324459,111.037545 C543.040525,111.037545 542.000087,109.993489 542.000087,108.705526 C542.000087,107.417125 543.040525,106.373508 544.324459,106.373508 C545.607519,106.373508 546.648393,107.417125 546.648393,108.705526" id="Fill-21" fill="#EF413D"></path>
            <path d="M556.402055,114.638444 C556.402055,115.926406 555.361617,116.970463 554.07812,116.970463 C552.794623,116.970463 551.753749,115.926406 551.753749,114.638444 C551.753749,113.350043 552.794623,112.306425 554.07812,112.306425 C555.361617,112.306425 556.402055,113.350043 556.402055,114.638444" id="Fill-23" fill="#EF413D"></path>
            <path d="M566.183913,108.966014 C566.183913,110.253976 565.143475,111.298033 563.859978,111.298033 C562.576481,111.298033 561.535607,110.253976 561.535607,108.966014 C561.535607,107.678052 562.576481,106.633995 563.859978,106.633995 C565.143475,106.633995 566.183913,107.678052 566.183913,108.966014" id="Fill-25" fill="#EF413D"></path>
            <path d="M546.648393,120.275735 C546.648393,121.563698 545.607519,122.607754 544.324459,122.607754 C543.040525,122.607754 542.000087,121.563698 542.000087,120.275735 C542.000087,118.987334 543.040525,117.943717 544.324459,117.943717 C545.607519,117.943717 546.648393,118.987334 546.648393,120.275735" id="Fill-27" fill="#EF413D"></path>
            <polygon id="Fill-6" fill="#F9F9F9" transform="translate(628.506885, 133.786408) scale(-1, 1) translate(-628.506885, -133.786408) " points="617 114 617 140.059302 640.01377 153.572816 639.970055 127.344623"></polygon>
            <path d="M741.932984,109.023452 L781.741071,131.94532" id="Stroke-7" stroke="#FFD400" stroke-width="4.3715847" stroke-linecap="round" stroke-linejoin="round" transform="translate(761.837027, 120.484386) scale(-1, 1) translate(-761.837027, -120.484386) "></path>
            <g id="Group-5" transform="translate(365.000000, 9.117566)"></g>
            <polygon id="Fill-6" fill="#EF413D" points="434 45 434 71.0593019 457.01377 84.572816 456.970055 58.3446226"></polygon>
            <polygon id="Stroke-1" stroke="#EF413D" stroke-width="4.3715847" stroke-linecap="round" stroke-linejoin="round" transform="translate(761.810667, 120.389544) scale(-1, 1) translate(-761.810667, -120.389544) " points="761.701814 97.4387231 722.058098 120.389544 761.701814 143.340365 801.563235 120.608006"></polygon>
            <polygon id="Fill-6-Copy" fill="#FFD400" points="417 131 417 157.059302 440.01377 170.572816 439.970055 144.344623"></polygon>
            <g id="Group-10" transform="translate(434.000000, 2.000000)" stroke-width="4.3715847" stroke-linecap="round" stroke-linejoin="round">
                <path d="M29.8939454,6.36343726 L69.8607213,29.3682156" id="Stroke-8" stroke="#F9F9F9"></path>
                <polygon id="Stroke-1" stroke="#FFD400" points="40.0804809 0.438723113 0.436765027 23.3895439 40.0804809 46.3403646 79.9419016 23.6080061"></polygon>
            </g>
            <polygon id="Fill-6" fill="#EF413D" transform="translate(557.025836, 209.812990) scale(-1, 1) translate(-557.025836, -209.812990) " points="545.518951 190.026582 545.518951 216.085883 568.532721 229.599398 568.489005 203.371204"></polygon>
            <g id="Group-29" transform="translate(513.500000, 205.000000) scale(-1, 1) translate(-513.500000, -205.000000) translate(501.000000, 185.000000)" fill="#FFD400">
                <path d="M14.7517814,8.2154533 C14.7517814,9.50341557 13.7113443,10.5474722 12.427847,10.5474722 C11.1443497,10.5474722 10.1034754,9.50341557 10.1034754,8.2154533 C10.1034754,6.92705236 11.1443497,5.88343443 12.427847,5.88343443 C13.7113443,5.88343443 14.7517814,6.92705236 14.7517814,8.2154533" id="Fill-11"></path>
                <path d="M24.5336393,2.54302358 C24.5336393,3.83098585 23.4932022,4.87504245 22.2097049,4.87504245 C20.9262077,4.87504245 19.8853333,3.83098585 19.8853333,2.54302358 C19.8853333,1.25506132 20.9262077,0.211004717 22.2097049,0.211004717 C23.4932022,0.211004717 24.5336393,1.25506132 24.5336393,2.54302358" id="Fill-13"></path>
                <path d="M4.99812022,13.8527009 C4.99812022,15.1406632 3.9572459,16.1847198 2.67418579,16.1847198 C1.39025137,16.1847198 0.349814208,15.1406632 0.349814208,13.8527009 C0.349814208,12.5643 1.39025137,11.5206821 2.67418579,11.5206821 C3.9572459,11.5206821 4.99812022,12.5643 4.99812022,13.8527009" id="Fill-15"></path>
                <path d="M14.7517814,19.7856184 C14.7517814,21.0735807 13.7113443,22.1176373 12.427847,22.1176373 C11.1443497,22.1176373 10.1034754,21.0735807 10.1034754,19.7856184 C10.1034754,18.4972175 11.1443497,17.4535995 12.427847,17.4535995 C13.7113443,17.4535995 14.7517814,18.4972175 14.7517814,19.7856184" id="Fill-17"></path>
                <path d="M24.5336393,14.1131887 C24.5336393,15.4011509 23.4932022,16.4452075 22.2097049,16.4452075 C20.9262077,16.4452075 19.8853333,15.4011509 19.8853333,14.1131887 C19.8853333,12.8252264 20.9262077,11.7811698 22.2097049,11.7811698 C23.4932022,11.7811698 24.5336393,12.8252264 24.5336393,14.1131887" id="Fill-19"></path>
                <path d="M4.99812022,25.422866 C4.99812022,26.7108283 3.9572459,27.7548849 2.67418579,27.7548849 C1.39025137,27.7548849 0.349814208,26.7108283 0.349814208,25.422866 C0.349814208,24.1344651 1.39025137,23.0908472 2.67418579,23.0908472 C3.9572459,23.0908472 4.99812022,24.1344651 4.99812022,25.422866" id="Fill-21"></path>
                <path d="M14.7517814,31.3557835 C14.7517814,32.6437458 13.7113443,33.6878024 12.427847,33.6878024 C11.1443497,33.6878024 10.1034754,32.6437458 10.1034754,31.3557835 C10.1034754,30.0673825 11.1443497,29.0237646 12.427847,29.0237646 C13.7113443,29.0237646 14.7517814,30.0673825 14.7517814,31.3557835" id="Fill-23"></path>
                <path d="M24.5336393,25.6833538 C24.5336393,26.971316 23.4932022,28.0153726 22.2097049,28.0153726 C20.9262077,28.0153726 19.8853333,26.971316 19.8853333,25.6833538 C19.8853333,24.3953915 20.9262077,23.3513349 22.2097049,23.3513349 C23.4932022,23.3513349 24.5336393,24.3953915 24.5336393,25.6833538" id="Fill-25"></path>
                <path d="M4.99812022,36.993075 C4.99812022,38.2810373 3.9572459,39.3250939 2.67418579,39.3250939 C1.39025137,39.3250939 0.349814208,38.2810373 0.349814208,36.993075 C0.349814208,35.7046741 1.39025137,34.6610561 2.67418579,34.6610561 C3.9572459,34.6610561 4.99812022,35.7046741 4.99812022,36.993075" id="Fill-27"></path>
            </g>
            <g id="Group-29-Copy" transform="translate(420.000000, 210.000000)" fill="#F9F9F9">
                <path d="M14.7517814,8.2154533 C14.7517814,9.50341557 13.7113443,10.5474722 12.427847,10.5474722 C11.1443497,10.5474722 10.1034754,9.50341557 10.1034754,8.2154533 C10.1034754,6.92705236 11.1443497,5.88343443 12.427847,5.88343443 C13.7113443,5.88343443 14.7517814,6.92705236 14.7517814,8.2154533" id="Fill-11"></path>
                <path d="M24.5336393,2.54302358 C24.5336393,3.83098585 23.4932022,4.87504245 22.2097049,4.87504245 C20.9262077,4.87504245 19.8853333,3.83098585 19.8853333,2.54302358 C19.8853333,1.25506132 20.9262077,0.211004717 22.2097049,0.211004717 C23.4932022,0.211004717 24.5336393,1.25506132 24.5336393,2.54302358" id="Fill-13"></path>
                <path d="M4.99812022,13.8527009 C4.99812022,15.1406632 3.9572459,16.1847198 2.67418579,16.1847198 C1.39025137,16.1847198 0.349814208,15.1406632 0.349814208,13.8527009 C0.349814208,12.5643 1.39025137,11.5206821 2.67418579,11.5206821 C3.9572459,11.5206821 4.99812022,12.5643 4.99812022,13.8527009" id="Fill-15"></path>
                <path d="M14.7517814,19.7856184 C14.7517814,21.0735807 13.7113443,22.1176373 12.427847,22.1176373 C11.1443497,22.1176373 10.1034754,21.0735807 10.1034754,19.7856184 C10.1034754,18.4972175 11.1443497,17.4535995 12.427847,17.4535995 C13.7113443,17.4535995 14.7517814,18.4972175 14.7517814,19.7856184" id="Fill-17"></path>
                <path d="M24.5336393,14.1131887 C24.5336393,15.4011509 23.4932022,16.4452075 22.2097049,16.4452075 C20.9262077,16.4452075 19.8853333,15.4011509 19.8853333,14.1131887 C19.8853333,12.8252264 20.9262077,11.7811698 22.2097049,11.7811698 C23.4932022,11.7811698 24.5336393,12.8252264 24.5336393,14.1131887" id="Fill-19"></path>
                <path d="M4.99812022,25.422866 C4.99812022,26.7108283 3.9572459,27.7548849 2.67418579,27.7548849 C1.39025137,27.7548849 0.349814208,26.7108283 0.349814208,25.422866 C0.349814208,24.1344651 1.39025137,23.0908472 2.67418579,23.0908472 C3.9572459,23.0908472 4.99812022,24.1344651 4.99812022,25.422866" id="Fill-21"></path>
                <path d="M14.7517814,31.3557835 C14.7517814,32.6437458 13.7113443,33.6878024 12.427847,33.6878024 C11.1443497,33.6878024 10.1034754,32.6437458 10.1034754,31.3557835 C10.1034754,30.0673825 11.1443497,29.0237646 12.427847,29.0237646 C13.7113443,29.0237646 14.7517814,30.0673825 14.7517814,31.3557835" id="Fill-23"></path>
                <path d="M24.5336393,25.6833538 C24.5336393,26.971316 23.4932022,28.0153726 22.2097049,28.0153726 C20.9262077,28.0153726 19.8853333,26.971316 19.8853333,25.6833538 C19.8853333,24.3953915 20.9262077,23.3513349 22.2097049,23.3513349 C23.4932022,23.3513349 24.5336393,24.3953915 24.5336393,25.6833538" id="Fill-25"></path>
                <path d="M4.99812022,36.993075 C4.99812022,38.2810373 3.9572459,39.3250939 2.67418579,39.3250939 C1.39025137,39.3250939 0.349814208,38.2810373 0.349814208,36.993075 C0.349814208,35.7046741 1.39025137,34.6610561 2.67418579,34.6610561 C3.9572459,34.6610561 4.99812022,35.7046741 4.99812022,36.993075" id="Fill-27"></path>
            </g>
            <g id="Group-29-Copy-3" transform="translate(822.500000, 304.000000) scale(-1, 1) translate(-822.500000, -304.000000) translate(810.000000, 284.000000)" fill="#F9F9F9">
                <path d="M14.7517814,8.2154533 C14.7517814,9.50341557 13.7113443,10.5474722 12.427847,10.5474722 C11.1443497,10.5474722 10.1034754,9.50341557 10.1034754,8.2154533 C10.1034754,6.92705236 11.1443497,5.88343443 12.427847,5.88343443 C13.7113443,5.88343443 14.7517814,6.92705236 14.7517814,8.2154533" id="Fill-11"></path>
                <path d="M24.5336393,2.54302358 C24.5336393,3.83098585 23.4932022,4.87504245 22.2097049,4.87504245 C20.9262077,4.87504245 19.8853333,3.83098585 19.8853333,2.54302358 C19.8853333,1.25506132 20.9262077,0.211004717 22.2097049,0.211004717 C23.4932022,0.211004717 24.5336393,1.25506132 24.5336393,2.54302358" id="Fill-13"></path>
                <path d="M4.99812022,13.8527009 C4.99812022,15.1406632 3.9572459,16.1847198 2.67418579,16.1847198 C1.39025137,16.1847198 0.349814208,15.1406632 0.349814208,13.8527009 C0.349814208,12.5643 1.39025137,11.5206821 2.67418579,11.5206821 C3.9572459,11.5206821 4.99812022,12.5643 4.99812022,13.8527009" id="Fill-15"></path>
                <path d="M14.7517814,19.7856184 C14.7517814,21.0735807 13.7113443,22.1176373 12.427847,22.1176373 C11.1443497,22.1176373 10.1034754,21.0735807 10.1034754,19.7856184 C10.1034754,18.4972175 11.1443497,17.4535995 12.427847,17.4535995 C13.7113443,17.4535995 14.7517814,18.4972175 14.7517814,19.7856184" id="Fill-17"></path>
                <path d="M24.5336393,14.1131887 C24.5336393,15.4011509 23.4932022,16.4452075 22.2097049,16.4452075 C20.9262077,16.4452075 19.8853333,15.4011509 19.8853333,14.1131887 C19.8853333,12.8252264 20.9262077,11.7811698 22.2097049,11.7811698 C23.4932022,11.7811698 24.5336393,12.8252264 24.5336393,14.1131887" id="Fill-19"></path>
                <path d="M4.99812022,25.422866 C4.99812022,26.7108283 3.9572459,27.7548849 2.67418579,27.7548849 C1.39025137,27.7548849 0.349814208,26.7108283 0.349814208,25.422866 C0.349814208,24.1344651 1.39025137,23.0908472 2.67418579,23.0908472 C3.9572459,23.0908472 4.99812022,24.1344651 4.99812022,25.422866" id="Fill-21"></path>
                <path d="M14.7517814,31.3557835 C14.7517814,32.6437458 13.7113443,33.6878024 12.427847,33.6878024 C11.1443497,33.6878024 10.1034754,32.6437458 10.1034754,31.3557835 C10.1034754,30.0673825 11.1443497,29.0237646 12.427847,29.0237646 C13.7113443,29.0237646 14.7517814,30.0673825 14.7517814,31.3557835" id="Fill-23"></path>
                <path d="M24.5336393,25.6833538 C24.5336393,26.971316 23.4932022,28.0153726 22.2097049,28.0153726 C20.9262077,28.0153726 19.8853333,26.971316 19.8853333,25.6833538 C19.8853333,24.3953915 20.9262077,23.3513349 22.2097049,23.3513349 C23.4932022,23.3513349 24.5336393,24.3953915 24.5336393,25.6833538" id="Fill-25"></path>
                <path d="M4.99812022,36.993075 C4.99812022,38.2810373 3.9572459,39.3250939 2.67418579,39.3250939 C1.39025137,39.3250939 0.349814208,38.2810373 0.349814208,36.993075 C0.349814208,35.7046741 1.39025137,34.6610561 2.67418579,34.6610561 C3.9572459,34.6610561 4.99812022,35.7046741 4.99812022,36.993075" id="Fill-27"></path>
            </g>
            <polygon id="Fill-6" fill="#FFD400" transform="translate(172.025836, 353.812990) scale(-1, 1) translate(-172.025836, -353.812990) " points="160.518951 334.026582 160.518951 360.085883 183.532721 373.599398 183.489005 347.371204"></polygon>
            <path d="M126.246251,337.498114 C126.246251,338.786076 125.205814,339.830133 123.922317,339.830133 C122.63882,339.830133 121.597945,338.786076 121.597945,337.498114 C121.597945,336.209713 122.63882,335.166095 123.922317,335.166095 C125.205814,335.166095 126.246251,336.209713 126.246251,337.498114" id="Fill-11" fill="#EF403D" transform="translate(123.922098, 337.498114) scale(-1, 1) translate(-123.922098, -337.498114) "></path>
            <path d="M116.464393,331.825684 C116.464393,333.113646 115.423956,334.157703 114.140459,334.157703 C112.856962,334.157703 111.816087,333.113646 111.816087,331.825684 C111.816087,330.537722 112.856962,329.493665 114.140459,329.493665 C115.423956,329.493665 116.464393,330.537722 116.464393,331.825684" id="Fill-13" fill="#EF403D" transform="translate(114.140240, 331.825684) scale(-1, 1) translate(-114.140240, -331.825684) "></path>
            <path d="M135.999913,343.135361 C135.999913,344.423324 134.959038,345.46738 133.675978,345.46738 C132.392044,345.46738 131.351607,344.423324 131.351607,343.135361 C131.351607,341.84696 132.392044,340.803342 133.675978,340.803342 C134.959038,340.803342 135.999913,341.84696 135.999913,343.135361" id="Fill-15" fill="#EF403D" transform="translate(133.675760, 343.135361) scale(-1, 1) translate(-133.675760, -343.135361) "></path>
            <path d="M126.246251,349.068279 C126.246251,350.356241 125.205814,351.400298 123.922317,351.400298 C122.63882,351.400298 121.597945,350.356241 121.597945,349.068279 C121.597945,347.779878 122.63882,346.73626 123.922317,346.73626 C125.205814,346.73626 126.246251,347.779878 126.246251,349.068279" id="Fill-17" fill="#EF403D" transform="translate(123.922098, 349.068279) scale(-1, 1) translate(-123.922098, -349.068279) "></path>
            <path d="M116.464393,343.395849 C116.464393,344.683811 115.423956,345.727868 114.140459,345.727868 C112.856962,345.727868 111.816087,344.683811 111.816087,343.395849 C111.816087,342.107887 112.856962,341.06383 114.140459,341.06383 C115.423956,341.06383 116.464393,342.107887 116.464393,343.395849" id="Fill-19" fill="#EF403D" transform="translate(114.140240, 343.395849) scale(-1, 1) translate(-114.140240, -343.395849) "></path>
            <path d="M135.999913,354.705526 C135.999913,355.993489 134.959038,357.037545 133.675978,357.037545 C132.392044,357.037545 131.351607,355.993489 131.351607,354.705526 C131.351607,353.417125 132.392044,352.373508 133.675978,352.373508 C134.959038,352.373508 135.999913,353.417125 135.999913,354.705526" id="Fill-21" fill="#EF403D" transform="translate(133.675760, 354.705526) scale(-1, 1) translate(-133.675760, -354.705526) "></path>
            <path d="M126.246251,360.638444 C126.246251,361.926406 125.205814,362.970463 123.922317,362.970463 C122.63882,362.970463 121.597945,361.926406 121.597945,360.638444 C121.597945,359.350043 122.63882,358.306425 123.922317,358.306425 C125.205814,358.306425 126.246251,359.350043 126.246251,360.638444" id="Fill-23" fill="#EF403D" transform="translate(123.922098, 360.638444) scale(-1, 1) translate(-123.922098, -360.638444) "></path>
            <path d="M116.464393,354.966014 C116.464393,356.253976 115.423956,357.298033 114.140459,357.298033 C112.856962,357.298033 111.816087,356.253976 111.816087,354.966014 C111.816087,353.678052 112.856962,352.633995 114.140459,352.633995 C115.423956,352.633995 116.464393,353.678052 116.464393,354.966014" id="Fill-25" fill="#EF403D" transform="translate(114.140240, 354.966014) scale(-1, 1) translate(-114.140240, -354.966014) "></path>
            <path d="M135.999913,366.275735 C135.999913,367.563698 134.959038,368.607754 133.675978,368.607754 C132.392044,368.607754 131.351607,367.563698 131.351607,366.275735 C131.351607,364.987334 132.392044,363.943717 133.675978,363.943717 C134.959038,363.943717 135.999913,364.987334 135.999913,366.275735" id="Fill-27" fill="#EF403D" transform="translate(133.675760, 366.275735) scale(-1, 1) translate(-133.675760, -366.275735) "></path>
            <g id="Group-5" transform="translate(275.000000, 245.117566)" stroke-linecap="round" stroke-width="4.3715847" stroke="#FFD400" stroke-linejoin="round">
                <polygon id="Stroke-1" points="40.0804809 0.321157075 0.436765027 23.2719778 40.0804809 46.2227986 79.9419016 23.4904401"></polygon>
            </g>
            <polygon id="Fill-6" fill="#F9F9F9" points="275.467279 288.026582 275.467279 314.085883 298.481049 327.599398 298.437333 301.371204"></polygon>
            <path d="M337.402055,291.498114 C337.402055,292.786076 336.361617,293.830133 335.07812,293.830133 C333.794623,293.830133 332.753749,292.786076 332.753749,291.498114 C332.753749,290.209713 333.794623,289.166095 335.07812,289.166095 C336.361617,289.166095 337.402055,290.209713 337.402055,291.498114" id="Fill-11" fill="#EF413D"></path>
            <path d="M347.183913,285.825684 C347.183913,287.113646 346.143475,288.157703 344.859978,288.157703 C343.576481,288.157703 342.535607,287.113646 342.535607,285.825684 C342.535607,284.537722 343.576481,283.493665 344.859978,283.493665 C346.143475,283.493665 347.183913,284.537722 347.183913,285.825684" id="Fill-13" fill="#EF413D"></path>
            <path d="M327.648393,297.135361 C327.648393,298.423324 326.607519,299.46738 325.324459,299.46738 C324.040525,299.46738 323.000087,298.423324 323.000087,297.135361 C323.000087,295.84696 324.040525,294.803342 325.324459,294.803342 C326.607519,294.803342 327.648393,295.84696 327.648393,297.135361" id="Fill-15" fill="#EF413D"></path>
            <path d="M337.402055,303.068279 C337.402055,304.356241 336.361617,305.400298 335.07812,305.400298 C333.794623,305.400298 332.753749,304.356241 332.753749,303.068279 C332.753749,301.779878 333.794623,300.73626 335.07812,300.73626 C336.361617,300.73626 337.402055,301.779878 337.402055,303.068279" id="Fill-17" fill="#EF413D"></path>
            <path d="M347.183913,297.395849 C347.183913,298.683811 346.143475,299.727868 344.859978,299.727868 C343.576481,299.727868 342.535607,298.683811 342.535607,297.395849 C342.535607,296.107887 343.576481,295.06383 344.859978,295.06383 C346.143475,295.06383 347.183913,296.107887 347.183913,297.395849" id="Fill-19" fill="#EF413D"></path>
            <path d="M327.648393,308.705526 C327.648393,309.993489 326.607519,311.037545 325.324459,311.037545 C324.040525,311.037545 323.000087,309.993489 323.000087,308.705526 C323.000087,307.417125 324.040525,306.373508 325.324459,306.373508 C326.607519,306.373508 327.648393,307.417125 327.648393,308.705526" id="Fill-21" fill="#EF413D"></path>
            <path d="M337.402055,314.638444 C337.402055,315.926406 336.361617,316.970463 335.07812,316.970463 C333.794623,316.970463 332.753749,315.926406 332.753749,314.638444 C332.753749,313.350043 333.794623,312.306425 335.07812,312.306425 C336.361617,312.306425 337.402055,313.350043 337.402055,314.638444" id="Fill-23" fill="#EF413D"></path>
            <path d="M347.183913,308.966014 C347.183913,310.253976 346.143475,311.298033 344.859978,311.298033 C343.576481,311.298033 342.535607,310.253976 342.535607,308.966014 C342.535607,307.678052 343.576481,306.633995 344.859978,306.633995 C346.143475,306.633995 347.183913,307.678052 347.183913,308.966014" id="Fill-25" fill="#EF413D"></path>
            <path d="M327.648393,320.275735 C327.648393,321.563698 326.607519,322.607754 325.324459,322.607754 C324.040525,322.607754 323.000087,321.563698 323.000087,320.275735 C323.000087,318.987334 324.040525,317.943717 325.324459,317.943717 C326.607519,317.943717 327.648393,318.987334 327.648393,320.275735" id="Fill-27" fill="#EF413D"></path>
            <g id="Page-1-Copy" transform="translate(215.000000, 113.000000)">
                <polygon id="Fill-6" fill="#EF413D" points="0.467278689 5.0265816 0.467278689 31.0858835 23.4810492 44.5993976 23.4373333 18.3712042"></polygon>
                <g id="Group-29" transform="translate(47.650273, 0.282660)" fill="#FFD400">
                    <path d="M14.7517814,8.2154533 C14.7517814,9.50341557 13.7113443,10.5474722 12.427847,10.5474722 C11.1443497,10.5474722 10.1034754,9.50341557 10.1034754,8.2154533 C10.1034754,6.92705236 11.1443497,5.88343443 12.427847,5.88343443 C13.7113443,5.88343443 14.7517814,6.92705236 14.7517814,8.2154533" id="Fill-11"></path>
                    <path d="M24.5336393,2.54302358 C24.5336393,3.83098585 23.4932022,4.87504245 22.2097049,4.87504245 C20.9262077,4.87504245 19.8853333,3.83098585 19.8853333,2.54302358 C19.8853333,1.25506132 20.9262077,0.211004717 22.2097049,0.211004717 C23.4932022,0.211004717 24.5336393,1.25506132 24.5336393,2.54302358" id="Fill-13"></path>
                    <path d="M4.99812022,13.8527009 C4.99812022,15.1406632 3.9572459,16.1847198 2.67418579,16.1847198 C1.39025137,16.1847198 0.349814208,15.1406632 0.349814208,13.8527009 C0.349814208,12.5643 1.39025137,11.5206821 2.67418579,11.5206821 C3.9572459,11.5206821 4.99812022,12.5643 4.99812022,13.8527009" id="Fill-15"></path>
                    <path d="M14.7517814,19.7856184 C14.7517814,21.0735807 13.7113443,22.1176373 12.427847,22.1176373 C11.1443497,22.1176373 10.1034754,21.0735807 10.1034754,19.7856184 C10.1034754,18.4972175 11.1443497,17.4535995 12.427847,17.4535995 C13.7113443,17.4535995 14.7517814,18.4972175 14.7517814,19.7856184" id="Fill-17"></path>
                    <path d="M24.5336393,14.1131887 C24.5336393,15.4011509 23.4932022,16.4452075 22.2097049,16.4452075 C20.9262077,16.4452075 19.8853333,15.4011509 19.8853333,14.1131887 C19.8853333,12.8252264 20.9262077,11.7811698 22.2097049,11.7811698 C23.4932022,11.7811698 24.5336393,12.8252264 24.5336393,14.1131887" id="Fill-19"></path>
                    <path d="M4.99812022,25.422866 C4.99812022,26.7108283 3.9572459,27.7548849 2.67418579,27.7548849 C1.39025137,27.7548849 0.349814208,26.7108283 0.349814208,25.422866 C0.349814208,24.1344651 1.39025137,23.0908472 2.67418579,23.0908472 C3.9572459,23.0908472 4.99812022,24.1344651 4.99812022,25.422866" id="Fill-21"></path>
                    <path d="M14.7517814,31.3557835 C14.7517814,32.6437458 13.7113443,33.6878024 12.427847,33.6878024 C11.1443497,33.6878024 10.1034754,32.6437458 10.1034754,31.3557835 C10.1034754,30.0673825 11.1443497,29.0237646 12.427847,29.0237646 C13.7113443,29.0237646 14.7517814,30.0673825 14.7517814,31.3557835" id="Fill-23"></path>
                    <path d="M24.5336393,25.6833538 C24.5336393,26.971316 23.4932022,28.0153726 22.2097049,28.0153726 C20.9262077,28.0153726 19.8853333,26.971316 19.8853333,25.6833538 C19.8853333,24.3953915 20.9262077,23.3513349 22.2097049,23.3513349 C23.4932022,23.3513349 24.5336393,24.3953915 24.5336393,25.6833538" id="Fill-25"></path>
                    <path d="M4.99812022,36.993075 C4.99812022,38.2810373 3.9572459,39.3250939 2.67418579,39.3250939 C1.39025137,39.3250939 0.349814208,38.2810373 0.349814208,36.993075 C0.349814208,35.7046741 1.39025137,34.6610561 2.67418579,34.6610561 C3.9572459,34.6610561 4.99812022,35.7046741 4.99812022,36.993075" id="Fill-27"></path>
                </g>
            </g>
        </g>
    </g>
</svg>