<?xml version="1.0" encoding="UTF-8"?>
<svg width="1014px" height="376px" viewBox="0 0 1014 376" version="1.1" xmlns="http://www.w3.org/2000/svg" xmlns:xlink="http://www.w3.org/1999/xlink">
    <!-- Generator: Sketch 46.2 (44496) - http://www.bohemiancoding.com/sketch -->
    <title>Artboard Copy</title>
    <desc>Created with Sketch.</desc>
    <defs></defs>
    <g id="Desktop" stroke="none" stroke-width="1" fill="none" fill-rule="evenodd">
        <g id="Artboard-Copy">
            <g id="Group-6" transform="translate(2.000000, 2.000000)">
                <g id="Page-1" transform="translate(295.000000, 176.000000) scale(-1, 1) translate(-295.000000, -176.000000) translate(255.000000, 152.000000)" stroke-linecap="round" stroke-width="4.3715847" stroke-linejoin="round">
                    <g id="Group-5" transform="translate(0.000000, 0.117566)">
                        <path d="M20.258929,11.9058863 L60.0670164,34.8277542" id="Stroke-7" stroke="#FFD400"></path>
                        <polygon id="Stroke-1" stroke="#242057" points="40.0804809 0.321157075 0.436765027 23.2719778 40.0804809 46.2227986 79.9419016 23.4904401"></polygon>
                    </g>
                </g>
                <g id="Page-1-Copy-2" transform="translate(104.000000, 181.000000)" stroke-linecap="round" stroke-width="4.3715847" stroke="#F9F9F9" stroke-linejoin="round">
                    <g id="Group-5" transform="translate(0.000000, 0.117566)">
                        <polygon id="Stroke-1" points="40.0804809 0.321157075 0.436765027 23.2719778 40.0804809 46.2227986 79.9419016 23.4904401"></polygon>
                    </g>
                </g>
                <g id="Page-1-Copy-4" transform="translate(846.000000, 149.000000)" stroke-linecap="round" stroke-width="4.3715847" stroke="#FFD400" stroke-linejoin="round">
                    <g id="Group-5" transform="translate(0.000000, 0.117566)">
                        <polygon id="Stroke-1" points="40.0804809 0.321157075 0.436765027 23.2719778 40.0804809 46.2227986 79.9419016 23.4904401"></polygon>
                    </g>
                </g>
                <g id="Page-1-Copy-7" transform="translate(929.000000, 14.000000)" stroke-linecap="round" stroke-width="4.3715847" stroke="#F9F9F9" stroke-linejoin="round">
                    <g id="Group-5" transform="translate(0.000000, 0.117566)">
                        <polygon id="Stroke-1" points="40.0804809 0.321157075 0.436765027 23.2719778 40.0804809 46.2227986 79.9419016 23.4904401"></polygon>
                    </g>
                </g>
                <g id="Page-1-Copy-3" transform="translate(0.000000, 224.000000)">
                    <path d="M10.258929,6.02345236 L50.0670164,28.9453203" id="Stroke-7" stroke="#FFD400" stroke-width="4.3715847" stroke-linecap="round" stroke-linejoin="round"></path>
                    <path d="M19.8939454,0.363437264 L59.8607213,23.3682156" id="Stroke-8" stroke="#F9F9F9" stroke-width="4.3715847" stroke-linecap="round" stroke-linejoin="round"></path>
                    <path d="M0.501420765,11.6217453 L40.2946448,34.5045708" id="Stroke-10" stroke="#F9F9F9" stroke-width="4.3715847" stroke-linecap="round" stroke-linejoin="round"></path>
                    <g id="Group-29" transform="translate(37.650273, 32.282660)" fill="#FFD400">
                        <path d="M14.7517814,8.2154533 C14.7517814,9.50341557 13.7113443,10.5474722 12.427847,10.5474722 C11.1443497,10.5474722 10.1034754,9.50341557 10.1034754,8.2154533 C10.1034754,6.92705236 11.1443497,5.88343443 12.427847,5.88343443 C13.7113443,5.88343443 14.7517814,6.92705236 14.7517814,8.2154533" id="Fill-11"></path>
                        <path d="M24.5336393,2.54302358 C24.5336393,3.83098585 23.4932022,4.87504245 22.2097049,4.87504245 C20.9262077,4.87504245 19.8853333,3.83098585 19.8853333,2.54302358 C19.8853333,1.25506132 20.9262077,0.211004717 22.2097049,0.211004717 C23.4932022,0.211004717 24.5336393,1.25506132 24.5336393,2.54302358" id="Fill-13"></path>
                        <path d="M4.99812022,13.8527009 C4.99812022,15.1406632 3.9572459,16.1847198 2.67418579,16.1847198 C1.39025137,16.1847198 0.349814208,15.1406632 0.349814208,13.8527009 C0.349814208,12.5643 1.39025137,11.5206821 2.67418579,11.5206821 C3.9572459,11.5206821 4.99812022,12.5643 4.99812022,13.8527009" id="Fill-15"></path>
                        <path d="M14.7517814,19.7856184 C14.7517814,21.0735807 13.7113443,22.1176373 12.427847,22.1176373 C11.1443497,22.1176373 10.1034754,21.0735807 10.1034754,19.7856184 C10.1034754,18.4972175 11.1443497,17.4535995 12.427847,17.4535995 C13.7113443,17.4535995 14.7517814,18.4972175 14.7517814,19.7856184" id="Fill-17"></path>
                        <path d="M24.5336393,14.1131887 C24.5336393,15.4011509 23.4932022,16.4452075 22.2097049,16.4452075 C20.9262077,16.4452075 19.8853333,15.4011509 19.8853333,14.1131887 C19.8853333,12.8252264 20.9262077,11.7811698 22.2097049,11.7811698 C23.4932022,11.7811698 24.5336393,12.8252264 24.5336393,14.1131887" id="Fill-19"></path>
                        <path d="M4.99812022,25.422866 C4.99812022,26.7108283 3.9572459,27.7548849 2.67418579,27.7548849 C1.39025137,27.7548849 0.349814208,26.7108283 0.349814208,25.422866 C0.349814208,24.1344651 1.39025137,23.0908472 2.67418579,23.0908472 C3.9572459,23.0908472 4.99812022,24.1344651 4.99812022,25.422866" id="Fill-21"></path>
                        <path d="M14.7517814,31.3557835 C14.7517814,32.6437458 13.7113443,33.6878024 12.427847,33.6878024 C11.1443497,33.6878024 10.1034754,32.6437458 10.1034754,31.3557835 C10.1034754,30.0673825 11.1443497,29.0237646 12.427847,29.0237646 C13.7113443,29.0237646 14.7517814,30.0673825 14.7517814,31.3557835" id="Fill-23"></path>
                        <path d="M24.5336393,25.6833538 C24.5336393,26.971316 23.4932022,28.0153726 22.2097049,28.0153726 C20.9262077,28.0153726 19.8853333,26.971316 19.8853333,25.6833538 C19.8853333,24.3953915 20.9262077,23.3513349 22.2097049,23.3513349 C23.4932022,23.3513349 24.5336393,24.3953915 24.5336393,25.6833538" id="Fill-25"></path>
                        <path d="M4.99812022,36.993075 C4.99812022,38.2810373 3.9572459,39.3250939 2.67418579,39.3250939 C1.39025137,39.3250939 0.349814208,38.2810373 0.349814208,36.993075 C0.349814208,35.7046741 1.39025137,34.6610561 2.67418579,34.6610561 C3.9572459,34.6610561 4.99812022,35.7046741 4.99812022,36.993075" id="Fill-27"></path>
                    </g>
                </g>
                <g id="Page-1-Copy-5" transform="translate(188.000000, 248.000000)" stroke="#FFD400" stroke-width="4.3715847" stroke-linecap="round" stroke-linejoin="round">
                    <path d="M10.258929,6.02345236 L50.0670164,28.9453203" id="Stroke-7"></path>
                    <path d="M19.8939454,0.363437264 L59.8607213,23.3682156" id="Stroke-8"></path>
                    <path d="M0.501420765,11.6217453 L40.2946448,34.5045708" id="Stroke-10"></path>
                </g>
                <g id="Page-1-Copy-8" transform="translate(740.000000, 247.500000) scale(-1, 1) translate(-740.000000, -247.500000) translate(710.000000, 230.000000)" stroke-width="4.3715847" stroke-linecap="round" stroke-linejoin="round">
                    <path d="M10.258929,6.02345236 L50.0670164,28.9453203" id="Stroke-7" stroke="#F9F9F9"></path>
                    <path d="M19.8939454,0.363437264 L59.8607213,23.3682156" id="Stroke-8" stroke="#FFD400"></path>
                    <path d="M0.501420765,11.6217453 L40.2946448,34.5045708" id="Stroke-10" stroke="#FFD400"></path>
                </g>
                <g id="Page-1-Copy-11" transform="translate(899.000000, 272.000000)" stroke-width="4.3715847" stroke-linecap="round" stroke-linejoin="round">
                    <path d="M10.258929,6.02345236 L50.0670164,28.9453203" id="Stroke-7" stroke="#FFD400"></path>
                    <path d="M19.8939454,0.363437264 L59.8607213,23.3682156" id="Stroke-8" stroke="#242157"></path>
                    <path d="M0.501420765,11.6217453 L40.2946448,34.5045708" id="Stroke-10" stroke="#242157"></path>
                </g>
                <g id="Page-1-Copy-10" transform="translate(810.000000, 21.500000) scale(-1, 1) translate(-810.000000, -21.500000) translate(780.000000, 4.000000)" stroke-width="4.3715847" stroke-linecap="round" stroke-linejoin="round">
                    <path d="M10.258929,6.02345236 L50.0670164,28.9453203" id="Stroke-7" stroke="#242157"></path>
                    <path d="M19.8939454,0.363437264 L59.8607213,23.3682156" id="Stroke-8" stroke="#FFD400"></path>
                    <path d="M0.501420765,11.6217453 L40.2946448,34.5045708" id="Stroke-10" stroke="#FFD400"></path>
                </g>
                <g id="Page-1-Copy-6" transform="translate(416.000000, 242.000000)">
                    <g id="Group-5" transform="translate(0.000000, 0.117566)"></g>
                    <path d="M20.258929,12.0234524 L60.0670164,34.9453203" id="Stroke-7" stroke="#FFD400" stroke-width="4.3715847" stroke-linecap="round" stroke-linejoin="round"></path>
                    <path d="M29.8939454,6.36343726 L69.8607213,29.3682156" id="Stroke-8" stroke="#242157" stroke-width="4.3715847" stroke-linecap="round" stroke-linejoin="round"></path>
                    <path d="M10.5014208,17.6217453 L50.2946448,40.5045708" id="Stroke-10" stroke="#242157" stroke-width="4.3715847" stroke-linecap="round" stroke-linejoin="round"></path>
                    <polygon id="Stroke-1" stroke="#F9F9F9" stroke-width="4.3715847" stroke-linecap="round" stroke-linejoin="round" points="40.0804809 0.438723113 0.436765027 23.3895439 40.0804809 46.3403646 79.9419016 23.6080061"></polygon>
                </g>
                <g id="Page-1-Copy-9" transform="translate(644.000000, 316.000000)">
                    <g id="Group-5" transform="translate(0.000000, 0.117566)"></g>
                    <path d="M20.258929,12.0234524 L60.0670164,34.9453203" id="Stroke-7" stroke="#FFD400" stroke-width="4.3715847" stroke-linecap="round" stroke-linejoin="round"></path>
                    <path d="M29.8939454,6.36343726 L69.8607213,29.3682156" id="Stroke-8" stroke="#242157" stroke-width="4.3715847" stroke-linecap="round" stroke-linejoin="round"></path>
                    <path d="M10.5014208,17.6217453 L50.2946448,40.5045708" id="Stroke-10" stroke="#242157" stroke-width="4.3715847" stroke-linecap="round" stroke-linejoin="round"></path>
                </g>
                <g id="Group-4" transform="translate(666.000000, 145.000000)">
                    <path d="M10.258929,6.02345236 L50.0670164,28.9453203" id="Stroke-7" stroke="#242057" stroke-width="4.3715847" stroke-linecap="round" stroke-linejoin="round"></path>
                    <path d="M19.8939454,0.363437264 L59.8607213,23.3682156" id="Stroke-8" stroke="#FFD400" stroke-width="4.3715847" stroke-linecap="round" stroke-linejoin="round"></path>
                    <path d="M0.501420765,11.6217453 L40.2946448,34.5045708" id="Stroke-10" stroke="#FFD400" stroke-width="4.3715847" stroke-linecap="round" stroke-linejoin="round"></path>
                    <g id="Group-29" transform="translate(38.000000, 32.000000)" fill="#FFD400">
                        <path d="M14.7517814,8.2154533 C14.7517814,9.50341557 13.7113443,10.5474722 12.427847,10.5474722 C11.1443497,10.5474722 10.1034754,9.50341557 10.1034754,8.2154533 C10.1034754,6.92705236 11.1443497,5.88343443 12.427847,5.88343443 C13.7113443,5.88343443 14.7517814,6.92705236 14.7517814,8.2154533" id="Fill-11"></path>
                        <path d="M24.5336393,2.54302358 C24.5336393,3.83098585 23.4932022,4.87504245 22.2097049,4.87504245 C20.9262077,4.87504245 19.8853333,3.83098585 19.8853333,2.54302358 C19.8853333,1.25506132 20.9262077,0.211004717 22.2097049,0.211004717 C23.4932022,0.211004717 24.5336393,1.25506132 24.5336393,2.54302358" id="Fill-13"></path>
                        <path d="M4.99812022,13.8527009 C4.99812022,15.1406632 3.9572459,16.1847198 2.67418579,16.1847198 C1.39025137,16.1847198 0.349814208,15.1406632 0.349814208,13.8527009 C0.349814208,12.5643 1.39025137,11.5206821 2.67418579,11.5206821 C3.9572459,11.5206821 4.99812022,12.5643 4.99812022,13.8527009" id="Fill-15"></path>
                        <path d="M14.7517814,19.7856184 C14.7517814,21.0735807 13.7113443,22.1176373 12.427847,22.1176373 C11.1443497,22.1176373 10.1034754,21.0735807 10.1034754,19.7856184 C10.1034754,18.4972175 11.1443497,17.4535995 12.427847,17.4535995 C13.7113443,17.4535995 14.7517814,18.4972175 14.7517814,19.7856184" id="Fill-17"></path>
                        <path d="M24.5336393,14.1131887 C24.5336393,15.4011509 23.4932022,16.4452075 22.2097049,16.4452075 C20.9262077,16.4452075 19.8853333,15.4011509 19.8853333,14.1131887 C19.8853333,12.8252264 20.9262077,11.7811698 22.2097049,11.7811698 C23.4932022,11.7811698 24.5336393,12.8252264 24.5336393,14.1131887" id="Fill-19"></path>
                        <path d="M4.99812022,25.422866 C4.99812022,26.7108283 3.9572459,27.7548849 2.67418579,27.7548849 C1.39025137,27.7548849 0.349814208,26.7108283 0.349814208,25.422866 C0.349814208,24.1344651 1.39025137,23.0908472 2.67418579,23.0908472 C3.9572459,23.0908472 4.99812022,24.1344651 4.99812022,25.422866" id="Fill-21"></path>
                        <path d="M14.7517814,31.3557835 C14.7517814,32.6437458 13.7113443,33.6878024 12.427847,33.6878024 C11.1443497,33.6878024 10.1034754,32.6437458 10.1034754,31.3557835 C10.1034754,30.0673825 11.1443497,29.0237646 12.427847,29.0237646 C13.7113443,29.0237646 14.7517814,30.0673825 14.7517814,31.3557835" id="Fill-23"></path>
                        <path d="M24.5336393,25.6833538 C24.5336393,26.971316 23.4932022,28.0153726 22.2097049,28.0153726 C20.9262077,28.0153726 19.8853333,26.971316 19.8853333,25.6833538 C19.8853333,24.3953915 20.9262077,23.3513349 22.2097049,23.3513349 C23.4932022,23.3513349 24.5336393,24.3953915 24.5336393,25.6833538" id="Fill-25"></path>
                        <path d="M4.99812022,36.993075 C4.99812022,38.2810373 3.9572459,39.3250939 2.67418579,39.3250939 C1.39025137,39.3250939 0.349814208,38.2810373 0.349814208,36.993075 C0.349814208,35.7046741 1.39025137,34.6610561 2.67418579,34.6610561 C3.9572459,34.6610561 4.99812022,35.7046741 4.99812022,36.993075" id="Fill-27"></path>
                    </g>
                </g>
                <g id="Group-29-Copy-2" transform="translate(785.500000, 56.000000) scale(-1, 1) translate(-785.500000, -56.000000) translate(773.000000, 36.000000)" fill="#242157">
                    <path d="M14.7517814,8.2154533 C14.7517814,9.50341557 13.7113443,10.5474722 12.427847,10.5474722 C11.1443497,10.5474722 10.1034754,9.50341557 10.1034754,8.2154533 C10.1034754,6.92705236 11.1443497,5.88343443 12.427847,5.88343443 C13.7113443,5.88343443 14.7517814,6.92705236 14.7517814,8.2154533" id="Fill-11"></path>
                    <path d="M24.5336393,2.54302358 C24.5336393,3.83098585 23.4932022,4.87504245 22.2097049,4.87504245 C20.9262077,4.87504245 19.8853333,3.83098585 19.8853333,2.54302358 C19.8853333,1.25506132 20.9262077,0.211004717 22.2097049,0.211004717 C23.4932022,0.211004717 24.5336393,1.25506132 24.5336393,2.54302358" id="Fill-13"></path>
                    <path d="M4.99812022,13.8527009 C4.99812022,15.1406632 3.9572459,16.1847198 2.67418579,16.1847198 C1.39025137,16.1847198 0.349814208,15.1406632 0.349814208,13.8527009 C0.349814208,12.5643 1.39025137,11.5206821 2.67418579,11.5206821 C3.9572459,11.5206821 4.99812022,12.5643 4.99812022,13.8527009" id="Fill-15"></path>
                    <path d="M14.7517814,19.7856184 C14.7517814,21.0735807 13.7113443,22.1176373 12.427847,22.1176373 C11.1443497,22.1176373 10.1034754,21.0735807 10.1034754,19.7856184 C10.1034754,18.4972175 11.1443497,17.4535995 12.427847,17.4535995 C13.7113443,17.4535995 14.7517814,18.4972175 14.7517814,19.7856184" id="Fill-17"></path>
                    <path d="M24.5336393,14.1131887 C24.5336393,15.4011509 23.4932022,16.4452075 22.2097049,16.4452075 C20.9262077,16.4452075 19.8853333,15.4011509 19.8853333,14.1131887 C19.8853333,12.8252264 20.9262077,11.7811698 22.2097049,11.7811698 C23.4932022,11.7811698 24.5336393,12.8252264 24.5336393,14.1131887" id="Fill-19"></path>
                    <path d="M4.99812022,25.422866 C4.99812022,26.7108283 3.9572459,27.7548849 2.67418579,27.7548849 C1.39025137,27.7548849 0.349814208,26.7108283 0.349814208,25.422866 C0.349814208,24.1344651 1.39025137,23.0908472 2.67418579,23.0908472 C3.9572459,23.0908472 4.99812022,24.1344651 4.99812022,25.422866" id="Fill-21"></path>
                    <path d="M14.7517814,31.3557835 C14.7517814,32.6437458 13.7113443,33.6878024 12.427847,33.6878024 C11.1443497,33.6878024 10.1034754,32.6437458 10.1034754,31.3557835 C10.1034754,30.0673825 11.1443497,29.0237646 12.427847,29.0237646 C13.7113443,29.0237646 14.7517814,30.0673825 14.7517814,31.3557835" id="Fill-23"></path>
                    <path d="M24.5336393,25.6833538 C24.5336393,26.971316 23.4932022,28.0153726 22.2097049,28.0153726 C20.9262077,28.0153726 19.8853333,26.971316 19.8853333,25.6833538 C19.8853333,24.3953915 20.9262077,23.3513349 22.2097049,23.3513349 C23.4932022,23.3513349 24.5336393,24.3953915 24.5336393,25.6833538" id="Fill-25"></path>
                    <path d="M4.99812022,36.993075 C4.99812022,38.2810373 3.9572459,39.3250939 2.67418579,39.3250939 C1.39025137,39.3250939 0.349814208,38.2810373 0.349814208,36.993075 C0.349814208,35.7046741 1.39025137,34.6610561 2.67418579,34.6610561 C3.9572459,34.6610561 4.99812022,35.7046741 4.99812022,36.993075" id="Fill-27"></path>
                </g>
                <polygon id="Fill-6" fill="#242157" points="458 334 458 360.059302 481.01377 373.572816 480.970055 347.344623"></polygon>
                <polygon id="Fill-6-Copy-3" fill="#F9F9F9" transform="translate(902.506885, 248.786408) scale(-1, 1) translate(-902.506885, -248.786408) " points="891 229 891 255.059302 914.01377 268.572816 913.970055 242.344623"></polygon>
                <polygon id="Fill-6-Copy-2" fill="#FFD400" points="888 73 888 99.0593019 911.01377 112.572816 910.970055 86.3446226"></polygon>
                <path d="M618.258929,260.023452 L658.067016,282.94532" id="Stroke-7" stroke="#242057" stroke-width="4.3715847" stroke-linecap="round" stroke-linejoin="round"></path>
                <path d="M627.893945,254.363437 L667.860721,277.368216" id="Stroke-8" stroke="#F9F9F9" stroke-width="4.3715847" stroke-linecap="round" stroke-linejoin="round"></path>
                <path d="M608.501421,265.621745 L648.294645,288.504571" id="Stroke-10" stroke="#F9F9F9" stroke-width="4.3715847" stroke-linecap="round" stroke-linejoin="round"></path>
                <polygon id="Stroke-1" stroke="#FFD400" stroke-width="4.3715847" stroke-linecap="round" stroke-linejoin="round" points="637.389101 248 597 271.382344 637.389101 294.764689 678 271.604914"></polygon>
                <g id="Group-29" transform="translate(645.650273, 286.282660)" fill="#242057">
                    <path d="M14.7517814,8.2154533 C14.7517814,9.50341557 13.7113443,10.5474722 12.427847,10.5474722 C11.1443497,10.5474722 10.1034754,9.50341557 10.1034754,8.2154533 C10.1034754,6.92705236 11.1443497,5.88343443 12.427847,5.88343443 C13.7113443,5.88343443 14.7517814,6.92705236 14.7517814,8.2154533" id="Fill-11"></path>
                    <path d="M24.5336393,2.54302358 C24.5336393,3.83098585 23.4932022,4.87504245 22.2097049,4.87504245 C20.9262077,4.87504245 19.8853333,3.83098585 19.8853333,2.54302358 C19.8853333,1.25506132 20.9262077,0.211004717 22.2097049,0.211004717 C23.4932022,0.211004717 24.5336393,1.25506132 24.5336393,2.54302358" id="Fill-13"></path>
                    <path d="M4.99812022,13.8527009 C4.99812022,15.1406632 3.9572459,16.1847198 2.67418579,16.1847198 C1.39025137,16.1847198 0.349814208,15.1406632 0.349814208,13.8527009 C0.349814208,12.5643 1.39025137,11.5206821 2.67418579,11.5206821 C3.9572459,11.5206821 4.99812022,12.5643 4.99812022,13.8527009" id="Fill-15"></path>
                    <path d="M14.7517814,19.7856184 C14.7517814,21.0735807 13.7113443,22.1176373 12.427847,22.1176373 C11.1443497,22.1176373 10.1034754,21.0735807 10.1034754,19.7856184 C10.1034754,18.4972175 11.1443497,17.4535995 12.427847,17.4535995 C13.7113443,17.4535995 14.7517814,18.4972175 14.7517814,19.7856184" id="Fill-17"></path>
                    <path d="M24.5336393,14.1131887 C24.5336393,15.4011509 23.4932022,16.4452075 22.2097049,16.4452075 C20.9262077,16.4452075 19.8853333,15.4011509 19.8853333,14.1131887 C19.8853333,12.8252264 20.9262077,11.7811698 22.2097049,11.7811698 C23.4932022,11.7811698 24.5336393,12.8252264 24.5336393,14.1131887" id="Fill-19"></path>
                    <path d="M4.99812022,25.422866 C4.99812022,26.7108283 3.9572459,27.7548849 2.67418579,27.7548849 C1.39025137,27.7548849 0.349814208,26.7108283 0.349814208,25.422866 C0.349814208,24.1344651 1.39025137,23.0908472 2.67418579,23.0908472 C3.9572459,23.0908472 4.99812022,24.1344651 4.99812022,25.422866" id="Fill-21"></path>
                    <path d="M14.7517814,31.3557835 C14.7517814,32.6437458 13.7113443,33.6878024 12.427847,33.6878024 C11.1443497,33.6878024 10.1034754,32.6437458 10.1034754,31.3557835 C10.1034754,30.0673825 11.1443497,29.0237646 12.427847,29.0237646 C13.7113443,29.0237646 14.7517814,30.0673825 14.7517814,31.3557835" id="Fill-23"></path>
                    <path d="M24.5336393,25.6833538 C24.5336393,26.971316 23.4932022,28.0153726 22.2097049,28.0153726 C20.9262077,28.0153726 19.8853333,26.971316 19.8853333,25.6833538 C19.8853333,24.3953915 20.9262077,23.3513349 22.2097049,23.3513349 C23.4932022,23.3513349 24.5336393,24.3953915 24.5336393,25.6833538" id="Fill-25"></path>
                    <path d="M4.99812022,36.993075 C4.99812022,38.2810373 3.9572459,39.3250939 2.67418579,39.3250939 C1.39025137,39.3250939 0.349814208,38.2810373 0.349814208,36.993075 C0.349814208,35.7046741 1.39025137,34.6610561 2.67418579,34.6610561 C3.9572459,34.6610561 4.99812022,35.7046741 4.99812022,36.993075" id="Fill-27"></path>
                </g>
                <g id="Group-5-Copy-2" transform="translate(172.000000, 39.000000)" stroke-linecap="round" stroke-width="4.3715847" stroke="#FFD400" stroke-linejoin="round">
                    <polygon id="Stroke-1" points="40.0804809 0.321157075 0.436765027 23.2719778 40.0804809 46.2227986 79.9419016 23.4904401"></polygon>
                </g>
                <g id="Group-5-Copy-3" transform="translate(758.000000, 322.000000)" stroke-linecap="round" stroke-width="4.3715847" stroke="#242157" stroke-linejoin="round">
                    <polygon id="Stroke-1" points="40.0804809 0.321157075 0.436765027 23.2719778 40.0804809 46.2227986 79.9419016 23.4904401"></polygon>
                </g>
                <polygon id="Fill-6" fill="#242057" points="638.467279 10.0265816 638.467279 36.0858835 661.481049 49.5993976 661.437333 23.3712042"></polygon>
                <g id="Group-8" transform="translate(532.000000, 66.500000) scale(-1, 1) translate(-532.000000, -66.500000) translate(502.000000, 49.000000)" stroke-width="4.3715847" stroke-linecap="round" stroke-linejoin="round">
                    <path d="M10.258929,6.02345236 L50.0670164,28.9453203" id="Stroke-7" stroke="#F9F9F9"></path>
                    <path d="M19.8939454,0.363437264 L59.8607213,23.3682156" id="Stroke-8" stroke="#FFD400"></path>
                    <path d="M0.501420765,11.6217453 L40.2946448,34.5045708" id="Stroke-10" stroke="#FFD400"></path>
                </g>
                <g id="Group-29" transform="translate(539.650273, 81.282660)" fill="#242057">
                    <path d="M14.7517814,8.2154533 C14.7517814,9.50341557 13.7113443,10.5474722 12.427847,10.5474722 C11.1443497,10.5474722 10.1034754,9.50341557 10.1034754,8.2154533 C10.1034754,6.92705236 11.1443497,5.88343443 12.427847,5.88343443 C13.7113443,5.88343443 14.7517814,6.92705236 14.7517814,8.2154533" id="Fill-11"></path>
                    <path d="M24.5336393,2.54302358 C24.5336393,3.83098585 23.4932022,4.87504245 22.2097049,4.87504245 C20.9262077,4.87504245 19.8853333,3.83098585 19.8853333,2.54302358 C19.8853333,1.25506132 20.9262077,0.211004717 22.2097049,0.211004717 C23.4932022,0.211004717 24.5336393,1.25506132 24.5336393,2.54302358" id="Fill-13"></path>
                    <path d="M4.99812022,13.8527009 C4.99812022,15.1406632 3.9572459,16.1847198 2.67418579,16.1847198 C1.39025137,16.1847198 0.349814208,15.1406632 0.349814208,13.8527009 C0.349814208,12.5643 1.39025137,11.5206821 2.67418579,11.5206821 C3.9572459,11.5206821 4.99812022,12.5643 4.99812022,13.8527009" id="Fill-15"></path>
                    <path d="M14.7517814,19.7856184 C14.7517814,21.0735807 13.7113443,22.1176373 12.427847,22.1176373 C11.1443497,22.1176373 10.1034754,21.0735807 10.1034754,19.7856184 C10.1034754,18.4972175 11.1443497,17.4535995 12.427847,17.4535995 C13.7113443,17.4535995 14.7517814,18.4972175 14.7517814,19.7856184" id="Fill-17"></path>
                    <path d="M24.5336393,14.1131887 C24.5336393,15.4011509 23.4932022,16.4452075 22.2097049,16.4452075 C20.9262077,16.4452075 19.8853333,15.4011509 19.8853333,14.1131887 C19.8853333,12.8252264 20.9262077,11.7811698 22.2097049,11.7811698 C23.4932022,11.7811698 24.5336393,12.8252264 24.5336393,14.1131887" id="Fill-19"></path>
                    <path d="M4.99812022,25.422866 C4.99812022,26.7108283 3.9572459,27.7548849 2.67418579,27.7548849 C1.39025137,27.7548849 0.349814208,26.7108283 0.349814208,25.422866 C0.349814208,24.1344651 1.39025137,23.0908472 2.67418579,23.0908472 C3.9572459,23.0908472 4.99812022,24.1344651 4.99812022,25.422866" id="Fill-21"></path>
                    <path d="M14.7517814,31.3557835 C14.7517814,32.6437458 13.7113443,33.6878024 12.427847,33.6878024 C11.1443497,33.6878024 10.1034754,32.6437458 10.1034754,31.3557835 C10.1034754,30.0673825 11.1443497,29.0237646 12.427847,29.0237646 C13.7113443,29.0237646 14.7517814,30.0673825 14.7517814,31.3557835" id="Fill-23"></path>
                    <path d="M24.5336393,25.6833538 C24.5336393,26.971316 23.4932022,28.0153726 22.2097049,28.0153726 C20.9262077,28.0153726 19.8853333,26.971316 19.8853333,25.6833538 C19.8853333,24.3953915 20.9262077,23.3513349 22.2097049,23.3513349 C23.4932022,23.3513349 24.5336393,24.3953915 24.5336393,25.6833538" id="Fill-25"></path>
                    <path d="M4.99812022,36.993075 C4.99812022,38.2810373 3.9572459,39.3250939 2.67418579,39.3250939 C1.39025137,39.3250939 0.349814208,38.2810373 0.349814208,36.993075 C0.349814208,35.7046741 1.39025137,34.6610561 2.67418579,34.6610561 C3.9572459,34.6610561 4.99812022,35.7046741 4.99812022,36.993075" id="Fill-27"></path>
                </g>
                <polygon id="Fill-6" fill="#F9F9F9" transform="translate(626.506885, 131.786408) scale(-1, 1) translate(-626.506885, -131.786408) " points="615 112 615 138.059302 638.01377 151.572816 637.970055 125.344623"></polygon>
                <path d="M739.932984,107.023452 L779.741071,129.94532" id="Stroke-7" stroke="#FFD400" stroke-width="4.3715847" stroke-linecap="round" stroke-linejoin="round" transform="translate(759.837027, 118.484386) scale(-1, 1) translate(-759.837027, -118.484386) "></path>
                <g id="Group-5" transform="translate(363.000000, 7.117566)"></g>
                <polygon id="Fill-6" fill="#242157" points="432 43 432 69.0593019 455.01377 82.572816 454.970055 56.3446226"></polygon>
                <polygon id="Stroke-1" stroke="#242057" stroke-width="4.3715847" stroke-linecap="round" stroke-linejoin="round" transform="translate(759.810667, 118.389544) scale(-1, 1) translate(-759.810667, -118.389544) " points="759.701814 95.4387231 720.058098 118.389544 759.701814 141.340365 799.563235 118.608006"></polygon>
                <polygon id="Fill-6-Copy" fill="#FFD400" points="415 129 415 155.059302 438.01377 168.572816 437.970055 142.344623"></polygon>
                <g id="Group-10" transform="translate(432.000000, 0.000000)" stroke-width="4.3715847" stroke-linecap="round" stroke-linejoin="round">
                    <path d="M29.8939454,6.36343726 L69.8607213,29.3682156" id="Stroke-8" stroke="#F9F9F9"></path>
                    <polygon id="Stroke-1" stroke="#FFD400" points="40.0804809 0.438723113 0.436765027 23.3895439 40.0804809 46.3403646 79.9419016 23.6080061"></polygon>
                </g>
                <polygon id="Fill-6" fill="#242157" transform="translate(555.025836, 207.812990) scale(-1, 1) translate(-555.025836, -207.812990) " points="543.518951 188.026582 543.518951 214.085883 566.532721 227.599398 566.489005 201.371204"></polygon>
                <g id="Group-29" transform="translate(511.500000, 203.000000) scale(-1, 1) translate(-511.500000, -203.000000) translate(499.000000, 183.000000)" fill="#FFD400">
                    <path d="M14.7517814,8.2154533 C14.7517814,9.50341557 13.7113443,10.5474722 12.427847,10.5474722 C11.1443497,10.5474722 10.1034754,9.50341557 10.1034754,8.2154533 C10.1034754,6.92705236 11.1443497,5.88343443 12.427847,5.88343443 C13.7113443,5.88343443 14.7517814,6.92705236 14.7517814,8.2154533" id="Fill-11"></path>
                    <path d="M24.5336393,2.54302358 C24.5336393,3.83098585 23.4932022,4.87504245 22.2097049,4.87504245 C20.9262077,4.87504245 19.8853333,3.83098585 19.8853333,2.54302358 C19.8853333,1.25506132 20.9262077,0.211004717 22.2097049,0.211004717 C23.4932022,0.211004717 24.5336393,1.25506132 24.5336393,2.54302358" id="Fill-13"></path>
                    <path d="M4.99812022,13.8527009 C4.99812022,15.1406632 3.9572459,16.1847198 2.67418579,16.1847198 C1.39025137,16.1847198 0.349814208,15.1406632 0.349814208,13.8527009 C0.349814208,12.5643 1.39025137,11.5206821 2.67418579,11.5206821 C3.9572459,11.5206821 4.99812022,12.5643 4.99812022,13.8527009" id="Fill-15"></path>
                    <path d="M14.7517814,19.7856184 C14.7517814,21.0735807 13.7113443,22.1176373 12.427847,22.1176373 C11.1443497,22.1176373 10.1034754,21.0735807 10.1034754,19.7856184 C10.1034754,18.4972175 11.1443497,17.4535995 12.427847,17.4535995 C13.7113443,17.4535995 14.7517814,18.4972175 14.7517814,19.7856184" id="Fill-17"></path>
                    <path d="M24.5336393,14.1131887 C24.5336393,15.4011509 23.4932022,16.4452075 22.2097049,16.4452075 C20.9262077,16.4452075 19.8853333,15.4011509 19.8853333,14.1131887 C19.8853333,12.8252264 20.9262077,11.7811698 22.2097049,11.7811698 C23.4932022,11.7811698 24.5336393,12.8252264 24.5336393,14.1131887" id="Fill-19"></path>
                    <path d="M4.99812022,25.422866 C4.99812022,26.7108283 3.9572459,27.7548849 2.67418579,27.7548849 C1.39025137,27.7548849 0.349814208,26.7108283 0.349814208,25.422866 C0.349814208,24.1344651 1.39025137,23.0908472 2.67418579,23.0908472 C3.9572459,23.0908472 4.99812022,24.1344651 4.99812022,25.422866" id="Fill-21"></path>
                    <path d="M14.7517814,31.3557835 C14.7517814,32.6437458 13.7113443,33.6878024 12.427847,33.6878024 C11.1443497,33.6878024 10.1034754,32.6437458 10.1034754,31.3557835 C10.1034754,30.0673825 11.1443497,29.0237646 12.427847,29.0237646 C13.7113443,29.0237646 14.7517814,30.0673825 14.7517814,31.3557835" id="Fill-23"></path>
                    <path d="M24.5336393,25.6833538 C24.5336393,26.971316 23.4932022,28.0153726 22.2097049,28.0153726 C20.9262077,28.0153726 19.8853333,26.971316 19.8853333,25.6833538 C19.8853333,24.3953915 20.9262077,23.3513349 22.2097049,23.3513349 C23.4932022,23.3513349 24.5336393,24.3953915 24.5336393,25.6833538" id="Fill-25"></path>
                    <path d="M4.99812022,36.993075 C4.99812022,38.2810373 3.9572459,39.3250939 2.67418579,39.3250939 C1.39025137,39.3250939 0.349814208,38.2810373 0.349814208,36.993075 C0.349814208,35.7046741 1.39025137,34.6610561 2.67418579,34.6610561 C3.9572459,34.6610561 4.99812022,35.7046741 4.99812022,36.993075" id="Fill-27"></path>
                </g>
                <g id="Group-29-Copy" transform="translate(418.000000, 208.000000)" fill="#F9F9F9">
                    <path d="M14.7517814,8.2154533 C14.7517814,9.50341557 13.7113443,10.5474722 12.427847,10.5474722 C11.1443497,10.5474722 10.1034754,9.50341557 10.1034754,8.2154533 C10.1034754,6.92705236 11.1443497,5.88343443 12.427847,5.88343443 C13.7113443,5.88343443 14.7517814,6.92705236 14.7517814,8.2154533" id="Fill-11"></path>
                    <path d="M24.5336393,2.54302358 C24.5336393,3.83098585 23.4932022,4.87504245 22.2097049,4.87504245 C20.9262077,4.87504245 19.8853333,3.83098585 19.8853333,2.54302358 C19.8853333,1.25506132 20.9262077,0.211004717 22.2097049,0.211004717 C23.4932022,0.211004717 24.5336393,1.25506132 24.5336393,2.54302358" id="Fill-13"></path>
                    <path d="M4.99812022,13.8527009 C4.99812022,15.1406632 3.9572459,16.1847198 2.67418579,16.1847198 C1.39025137,16.1847198 0.349814208,15.1406632 0.349814208,13.8527009 C0.349814208,12.5643 1.39025137,11.5206821 2.67418579,11.5206821 C3.9572459,11.5206821 4.99812022,12.5643 4.99812022,13.8527009" id="Fill-15"></path>
                    <path d="M14.7517814,19.7856184 C14.7517814,21.0735807 13.7113443,22.1176373 12.427847,22.1176373 C11.1443497,22.1176373 10.1034754,21.0735807 10.1034754,19.7856184 C10.1034754,18.4972175 11.1443497,17.4535995 12.427847,17.4535995 C13.7113443,17.4535995 14.7517814,18.4972175 14.7517814,19.7856184" id="Fill-17"></path>
                    <path d="M24.5336393,14.1131887 C24.5336393,15.4011509 23.4932022,16.4452075 22.2097049,16.4452075 C20.9262077,16.4452075 19.8853333,15.4011509 19.8853333,14.1131887 C19.8853333,12.8252264 20.9262077,11.7811698 22.2097049,11.7811698 C23.4932022,11.7811698 24.5336393,12.8252264 24.5336393,14.1131887" id="Fill-19"></path>
                    <path d="M4.99812022,25.422866 C4.99812022,26.7108283 3.9572459,27.7548849 2.67418579,27.7548849 C1.39025137,27.7548849 0.349814208,26.7108283 0.349814208,25.422866 C0.349814208,24.1344651 1.39025137,23.0908472 2.67418579,23.0908472 C3.9572459,23.0908472 4.99812022,24.1344651 4.99812022,25.422866" id="Fill-21"></path>
                    <path d="M14.7517814,31.3557835 C14.7517814,32.6437458 13.7113443,33.6878024 12.427847,33.6878024 C11.1443497,33.6878024 10.1034754,32.6437458 10.1034754,31.3557835 C10.1034754,30.0673825 11.1443497,29.0237646 12.427847,29.0237646 C13.7113443,29.0237646 14.7517814,30.0673825 14.7517814,31.3557835" id="Fill-23"></path>
                    <path d="M24.5336393,25.6833538 C24.5336393,26.971316 23.4932022,28.0153726 22.2097049,28.0153726 C20.9262077,28.0153726 19.8853333,26.971316 19.8853333,25.6833538 C19.8853333,24.3953915 20.9262077,23.3513349 22.2097049,23.3513349 C23.4932022,23.3513349 24.5336393,24.3953915 24.5336393,25.6833538" id="Fill-25"></path>
                    <path d="M4.99812022,36.993075 C4.99812022,38.2810373 3.9572459,39.3250939 2.67418579,39.3250939 C1.39025137,39.3250939 0.349814208,38.2810373 0.349814208,36.993075 C0.349814208,35.7046741 1.39025137,34.6610561 2.67418579,34.6610561 C3.9572459,34.6610561 4.99812022,35.7046741 4.99812022,36.993075" id="Fill-27"></path>
                </g>
                <g id="Group-29-Copy-3" transform="translate(820.500000, 302.000000) scale(-1, 1) translate(-820.500000, -302.000000) translate(808.000000, 282.000000)" fill="#F9F9F9">
                    <path d="M14.7517814,8.2154533 C14.7517814,9.50341557 13.7113443,10.5474722 12.427847,10.5474722 C11.1443497,10.5474722 10.1034754,9.50341557 10.1034754,8.2154533 C10.1034754,6.92705236 11.1443497,5.88343443 12.427847,5.88343443 C13.7113443,5.88343443 14.7517814,6.92705236 14.7517814,8.2154533" id="Fill-11"></path>
                    <path d="M24.5336393,2.54302358 C24.5336393,3.83098585 23.4932022,4.87504245 22.2097049,4.87504245 C20.9262077,4.87504245 19.8853333,3.83098585 19.8853333,2.54302358 C19.8853333,1.25506132 20.9262077,0.211004717 22.2097049,0.211004717 C23.4932022,0.211004717 24.5336393,1.25506132 24.5336393,2.54302358" id="Fill-13"></path>
                    <path d="M4.99812022,13.8527009 C4.99812022,15.1406632 3.9572459,16.1847198 2.67418579,16.1847198 C1.39025137,16.1847198 0.349814208,15.1406632 0.349814208,13.8527009 C0.349814208,12.5643 1.39025137,11.5206821 2.67418579,11.5206821 C3.9572459,11.5206821 4.99812022,12.5643 4.99812022,13.8527009" id="Fill-15"></path>
                    <path d="M14.7517814,19.7856184 C14.7517814,21.0735807 13.7113443,22.1176373 12.427847,22.1176373 C11.1443497,22.1176373 10.1034754,21.0735807 10.1034754,19.7856184 C10.1034754,18.4972175 11.1443497,17.4535995 12.427847,17.4535995 C13.7113443,17.4535995 14.7517814,18.4972175 14.7517814,19.7856184" id="Fill-17"></path>
                    <path d="M24.5336393,14.1131887 C24.5336393,15.4011509 23.4932022,16.4452075 22.2097049,16.4452075 C20.9262077,16.4452075 19.8853333,15.4011509 19.8853333,14.1131887 C19.8853333,12.8252264 20.9262077,11.7811698 22.2097049,11.7811698 C23.4932022,11.7811698 24.5336393,12.8252264 24.5336393,14.1131887" id="Fill-19"></path>
                    <path d="M4.99812022,25.422866 C4.99812022,26.7108283 3.9572459,27.7548849 2.67418579,27.7548849 C1.39025137,27.7548849 0.349814208,26.7108283 0.349814208,25.422866 C0.349814208,24.1344651 1.39025137,23.0908472 2.67418579,23.0908472 C3.9572459,23.0908472 4.99812022,24.1344651 4.99812022,25.422866" id="Fill-21"></path>
                    <path d="M14.7517814,31.3557835 C14.7517814,32.6437458 13.7113443,33.6878024 12.427847,33.6878024 C11.1443497,33.6878024 10.1034754,32.6437458 10.1034754,31.3557835 C10.1034754,30.0673825 11.1443497,29.0237646 12.427847,29.0237646 C13.7113443,29.0237646 14.7517814,30.0673825 14.7517814,31.3557835" id="Fill-23"></path>
                    <path d="M24.5336393,25.6833538 C24.5336393,26.971316 23.4932022,28.0153726 22.2097049,28.0153726 C20.9262077,28.0153726 19.8853333,26.971316 19.8853333,25.6833538 C19.8853333,24.3953915 20.9262077,23.3513349 22.2097049,23.3513349 C23.4932022,23.3513349 24.5336393,24.3953915 24.5336393,25.6833538" id="Fill-25"></path>
                    <path d="M4.99812022,36.993075 C4.99812022,38.2810373 3.9572459,39.3250939 2.67418579,39.3250939 C1.39025137,39.3250939 0.349814208,38.2810373 0.349814208,36.993075 C0.349814208,35.7046741 1.39025137,34.6610561 2.67418579,34.6610561 C3.9572459,34.6610561 4.99812022,35.7046741 4.99812022,36.993075" id="Fill-27"></path>
                </g>
                <g id="Page-1-Copy-13" transform="translate(145.500000, 349.500000) scale(-1, 1) translate(-145.500000, -349.500000) translate(109.000000, 327.000000)">
                    <polygon id="Fill-6" fill="#FFD400" points="0.467278689 5.0265816 0.467278689 31.0858835 23.4810492 44.5993976 23.4373333 18.3712042"></polygon>
                    <g id="Group-29" transform="translate(47.650273, 0.282660)" fill="#242057">
                        <path d="M14.7517814,8.2154533 C14.7517814,9.50341557 13.7113443,10.5474722 12.427847,10.5474722 C11.1443497,10.5474722 10.1034754,9.50341557 10.1034754,8.2154533 C10.1034754,6.92705236 11.1443497,5.88343443 12.427847,5.88343443 C13.7113443,5.88343443 14.7517814,6.92705236 14.7517814,8.2154533" id="Fill-11"></path>
                        <path d="M24.5336393,2.54302358 C24.5336393,3.83098585 23.4932022,4.87504245 22.2097049,4.87504245 C20.9262077,4.87504245 19.8853333,3.83098585 19.8853333,2.54302358 C19.8853333,1.25506132 20.9262077,0.211004717 22.2097049,0.211004717 C23.4932022,0.211004717 24.5336393,1.25506132 24.5336393,2.54302358" id="Fill-13"></path>
                        <path d="M4.99812022,13.8527009 C4.99812022,15.1406632 3.9572459,16.1847198 2.67418579,16.1847198 C1.39025137,16.1847198 0.349814208,15.1406632 0.349814208,13.8527009 C0.349814208,12.5643 1.39025137,11.5206821 2.67418579,11.5206821 C3.9572459,11.5206821 4.99812022,12.5643 4.99812022,13.8527009" id="Fill-15"></path>
                        <path d="M14.7517814,19.7856184 C14.7517814,21.0735807 13.7113443,22.1176373 12.427847,22.1176373 C11.1443497,22.1176373 10.1034754,21.0735807 10.1034754,19.7856184 C10.1034754,18.4972175 11.1443497,17.4535995 12.427847,17.4535995 C13.7113443,17.4535995 14.7517814,18.4972175 14.7517814,19.7856184" id="Fill-17"></path>
                        <path d="M24.5336393,14.1131887 C24.5336393,15.4011509 23.4932022,16.4452075 22.2097049,16.4452075 C20.9262077,16.4452075 19.8853333,15.4011509 19.8853333,14.1131887 C19.8853333,12.8252264 20.9262077,11.7811698 22.2097049,11.7811698 C23.4932022,11.7811698 24.5336393,12.8252264 24.5336393,14.1131887" id="Fill-19"></path>
                        <path d="M4.99812022,25.422866 C4.99812022,26.7108283 3.9572459,27.7548849 2.67418579,27.7548849 C1.39025137,27.7548849 0.349814208,26.7108283 0.349814208,25.422866 C0.349814208,24.1344651 1.39025137,23.0908472 2.67418579,23.0908472 C3.9572459,23.0908472 4.99812022,24.1344651 4.99812022,25.422866" id="Fill-21"></path>
                        <path d="M14.7517814,31.3557835 C14.7517814,32.6437458 13.7113443,33.6878024 12.427847,33.6878024 C11.1443497,33.6878024 10.1034754,32.6437458 10.1034754,31.3557835 C10.1034754,30.0673825 11.1443497,29.0237646 12.427847,29.0237646 C13.7113443,29.0237646 14.7517814,30.0673825 14.7517814,31.3557835" id="Fill-23"></path>
                        <path d="M24.5336393,25.6833538 C24.5336393,26.971316 23.4932022,28.0153726 22.2097049,28.0153726 C20.9262077,28.0153726 19.8853333,26.971316 19.8853333,25.6833538 C19.8853333,24.3953915 20.9262077,23.3513349 22.2097049,23.3513349 C23.4932022,23.3513349 24.5336393,24.3953915 24.5336393,25.6833538" id="Fill-25"></path>
                        <path d="M4.99812022,36.993075 C4.99812022,38.2810373 3.9572459,39.3250939 2.67418579,39.3250939 C1.39025137,39.3250939 0.349814208,38.2810373 0.349814208,36.993075 C0.349814208,35.7046741 1.39025137,34.6610561 2.67418579,34.6610561 C3.9572459,34.6610561 4.99812022,35.7046741 4.99812022,36.993075" id="Fill-27"></path>
                    </g>
                </g>
                <g id="Page-1-Copy-12" transform="translate(273.000000, 243.000000)">
                    <g id="Group-5" transform="translate(0.000000, 0.117566)" stroke-linecap="round" stroke-width="4.3715847" stroke="#FFD400" stroke-linejoin="round">
                        <polygon id="Stroke-1" points="40.0804809 0.321157075 0.436765027 23.2719778 40.0804809 46.2227986 79.9419016 23.4904401"></polygon>
                    </g>
                    <polygon id="Fill-6" fill="#F9F9F9" points="0.467278689 43.0265816 0.467278689 69.0858835 23.4810492 82.5993976 23.4373333 56.3712042"></polygon>
                    <g id="Group-29" transform="translate(47.650273, 38.282660)" fill="#242057">
                        <path d="M14.7517814,8.2154533 C14.7517814,9.50341557 13.7113443,10.5474722 12.427847,10.5474722 C11.1443497,10.5474722 10.1034754,9.50341557 10.1034754,8.2154533 C10.1034754,6.92705236 11.1443497,5.88343443 12.427847,5.88343443 C13.7113443,5.88343443 14.7517814,6.92705236 14.7517814,8.2154533" id="Fill-11"></path>
                        <path d="M24.5336393,2.54302358 C24.5336393,3.83098585 23.4932022,4.87504245 22.2097049,4.87504245 C20.9262077,4.87504245 19.8853333,3.83098585 19.8853333,2.54302358 C19.8853333,1.25506132 20.9262077,0.211004717 22.2097049,0.211004717 C23.4932022,0.211004717 24.5336393,1.25506132 24.5336393,2.54302358" id="Fill-13"></path>
                        <path d="M4.99812022,13.8527009 C4.99812022,15.1406632 3.9572459,16.1847198 2.67418579,16.1847198 C1.39025137,16.1847198 0.349814208,15.1406632 0.349814208,13.8527009 C0.349814208,12.5643 1.39025137,11.5206821 2.67418579,11.5206821 C3.9572459,11.5206821 4.99812022,12.5643 4.99812022,13.8527009" id="Fill-15"></path>
                        <path d="M14.7517814,19.7856184 C14.7517814,21.0735807 13.7113443,22.1176373 12.427847,22.1176373 C11.1443497,22.1176373 10.1034754,21.0735807 10.1034754,19.7856184 C10.1034754,18.4972175 11.1443497,17.4535995 12.427847,17.4535995 C13.7113443,17.4535995 14.7517814,18.4972175 14.7517814,19.7856184" id="Fill-17"></path>
                        <path d="M24.5336393,14.1131887 C24.5336393,15.4011509 23.4932022,16.4452075 22.2097049,16.4452075 C20.9262077,16.4452075 19.8853333,15.4011509 19.8853333,14.1131887 C19.8853333,12.8252264 20.9262077,11.7811698 22.2097049,11.7811698 C23.4932022,11.7811698 24.5336393,12.8252264 24.5336393,14.1131887" id="Fill-19"></path>
                        <path d="M4.99812022,25.422866 C4.99812022,26.7108283 3.9572459,27.7548849 2.67418579,27.7548849 C1.39025137,27.7548849 0.349814208,26.7108283 0.349814208,25.422866 C0.349814208,24.1344651 1.39025137,23.0908472 2.67418579,23.0908472 C3.9572459,23.0908472 4.99812022,24.1344651 4.99812022,25.422866" id="Fill-21"></path>
                        <path d="M14.7517814,31.3557835 C14.7517814,32.6437458 13.7113443,33.6878024 12.427847,33.6878024 C11.1443497,33.6878024 10.1034754,32.6437458 10.1034754,31.3557835 C10.1034754,30.0673825 11.1443497,29.0237646 12.427847,29.0237646 C13.7113443,29.0237646 14.7517814,30.0673825 14.7517814,31.3557835" id="Fill-23"></path>
                        <path d="M24.5336393,25.6833538 C24.5336393,26.971316 23.4932022,28.0153726 22.2097049,28.0153726 C20.9262077,28.0153726 19.8853333,26.971316 19.8853333,25.6833538 C19.8853333,24.3953915 20.9262077,23.3513349 22.2097049,23.3513349 C23.4932022,23.3513349 24.5336393,24.3953915 24.5336393,25.6833538" id="Fill-25"></path>
                        <path d="M4.99812022,36.993075 C4.99812022,38.2810373 3.9572459,39.3250939 2.67418579,39.3250939 C1.39025137,39.3250939 0.349814208,38.2810373 0.349814208,36.993075 C0.349814208,35.7046741 1.39025137,34.6610561 2.67418579,34.6610561 C3.9572459,34.6610561 4.99812022,35.7046741 4.99812022,36.993075" id="Fill-27"></path>
                    </g>
                </g>
                <g id="Page-1-Copy" transform="translate(213.000000, 111.000000)">
                    <polygon id="Fill-6" fill="#242057" points="0.467278689 5.0265816 0.467278689 31.0858835 23.4810492 44.5993976 23.4373333 18.3712042"></polygon>
                    <g id="Group-29" transform="translate(47.650273, 0.282660)" fill="#FFD400">
                        <path d="M14.7517814,8.2154533 C14.7517814,9.50341557 13.7113443,10.5474722 12.427847,10.5474722 C11.1443497,10.5474722 10.1034754,9.50341557 10.1034754,8.2154533 C10.1034754,6.92705236 11.1443497,5.88343443 12.427847,5.88343443 C13.7113443,5.88343443 14.7517814,6.92705236 14.7517814,8.2154533" id="Fill-11"></path>
                        <path d="M24.5336393,2.54302358 C24.5336393,3.83098585 23.4932022,4.87504245 22.2097049,4.87504245 C20.9262077,4.87504245 19.8853333,3.83098585 19.8853333,2.54302358 C19.8853333,1.25506132 20.9262077,0.211004717 22.2097049,0.211004717 C23.4932022,0.211004717 24.5336393,1.25506132 24.5336393,2.54302358" id="Fill-13"></path>
                        <path d="M4.99812022,13.8527009 C4.99812022,15.1406632 3.9572459,16.1847198 2.67418579,16.1847198 C1.39025137,16.1847198 0.349814208,15.1406632 0.349814208,13.8527009 C0.349814208,12.5643 1.39025137,11.5206821 2.67418579,11.5206821 C3.9572459,11.5206821 4.99812022,12.5643 4.99812022,13.8527009" id="Fill-15"></path>
                        <path d="M14.7517814,19.7856184 C14.7517814,21.0735807 13.7113443,22.1176373 12.427847,22.1176373 C11.1443497,22.1176373 10.1034754,21.0735807 10.1034754,19.7856184 C10.1034754,18.4972175 11.1443497,17.4535995 12.427847,17.4535995 C13.7113443,17.4535995 14.7517814,18.4972175 14.7517814,19.7856184" id="Fill-17"></path>
                        <path d="M24.5336393,14.1131887 C24.5336393,15.4011509 23.4932022,16.4452075 22.2097049,16.4452075 C20.9262077,16.4452075 19.8853333,15.4011509 19.8853333,14.1131887 C19.8853333,12.8252264 20.9262077,11.7811698 22.2097049,11.7811698 C23.4932022,11.7811698 24.5336393,12.8252264 24.5336393,14.1131887" id="Fill-19"></path>
                        <path d="M4.99812022,25.422866 C4.99812022,26.7108283 3.9572459,27.7548849 2.67418579,27.7548849 C1.39025137,27.7548849 0.349814208,26.7108283 0.349814208,25.422866 C0.349814208,24.1344651 1.39025137,23.0908472 2.67418579,23.0908472 C3.9572459,23.0908472 4.99812022,24.1344651 4.99812022,25.422866" id="Fill-21"></path>
                        <path d="M14.7517814,31.3557835 C14.7517814,32.6437458 13.7113443,33.6878024 12.427847,33.6878024 C11.1443497,33.6878024 10.1034754,32.6437458 10.1034754,31.3557835 C10.1034754,30.0673825 11.1443497,29.0237646 12.427847,29.0237646 C13.7113443,29.0237646 14.7517814,30.0673825 14.7517814,31.3557835" id="Fill-23"></path>
                        <path d="M24.5336393,25.6833538 C24.5336393,26.971316 23.4932022,28.0153726 22.2097049,28.0153726 C20.9262077,28.0153726 19.8853333,26.971316 19.8853333,25.6833538 C19.8853333,24.3953915 20.9262077,23.3513349 22.2097049,23.3513349 C23.4932022,23.3513349 24.5336393,24.3953915 24.5336393,25.6833538" id="Fill-25"></path>
                        <path d="M4.99812022,36.993075 C4.99812022,38.2810373 3.9572459,39.3250939 2.67418579,39.3250939 C1.39025137,39.3250939 0.349814208,38.2810373 0.349814208,36.993075 C0.349814208,35.7046741 1.39025137,34.6610561 2.67418579,34.6610561 C3.9572459,34.6610561 4.99812022,35.7046741 4.99812022,36.993075" id="Fill-27"></path>
                    </g>
                </g>
            </g>
        </g>
    </g>
</svg>