<?xml version="1.0" encoding="UTF-8"?>
<svg width="867px" height="277px" viewBox="0 0 867 277" version="1.1" xmlns="http://www.w3.org/2000/svg" xmlns:xlink="http://www.w3.org/1999/xlink">
    <!-- Generator: Sketch 46.2 (44496) - http://www.bohemiancoding.com/sketch -->
    <title>Artboard 6</title>
    <desc>Created with Sketch.</desc>
    <defs>
        <polygon id="path-1" points="0 0.390756773 0 70.1359325 115.031195 70.1359325 115.031195 0.390756773 1.35525272e-20 0.390756773"></polygon>
        <polygon id="path-3" points="115.294 70.6344325 115.294 0.889256773 0.263511842 0.889256773 0.263511842 70.6344325 115.294 70.6344325"></polygon>
    </defs>
    <g id="Mobile" stroke="none" stroke-width="1" fill="none" fill-rule="evenodd">
        <g id="Artboard-6">
            <g id="Group-10" transform="translate(0.000000, 56.000000)">
                <g id="Group-3">
                    <mask id="mask-2" fill="white">
                        <use xlink:href="#path-1"></use>
                    </mask>
                    <g id="Clip-2"></g>
                    <path d="M55.1829,70.132 C54.6499,70.105 54.1229,69.936 53.6629,69.627 L1.3289,34.508 C0.4519,33.919 -0.0511,32.912 0.0039,31.857 C0.0609,30.801 0.6689,29.853 1.6049,29.361 L56.0859,0.735 C57.0309,0.239 58.1679,0.281 59.0739,0.848 L113.6219,34.997 C114.5339,35.567 115.0709,36.582 115.0289,37.657 C114.9859,38.731 114.3709,39.702 113.4179,40.199 L56.7229,69.795 C56.2409,70.047 55.7079,70.159 55.1829,70.132 L55.1829,70.132 Z M8.8519,32.331 L55.5279,63.652 L105.9989,37.303 L57.3509,6.848 L8.8519,32.331 Z" id="Fill-1" fill="#FEFEFE" mask="url(#mask-2)"></path>
                </g>
                <path d="M216.9485,151.0748 C216.4515,151.0748 215.9475,150.9518 215.4815,150.6908 L160.0925,119.5998 C158.6465,118.7898 158.1335,116.9618 158.9445,115.5158 C159.7565,114.0708 161.5855,113.5578 163.0295,114.3688 L218.4195,145.4588 C219.8645,146.2688 220.3785,148.0978 219.5675,149.5438 C219.0155,150.5228 217.9975,151.0748 216.9485,151.0748" id="Fill-4" fill="#FAD305"></path>
                <path d="M203.3685,159.2946 C202.8715,159.2946 202.3675,159.1706 201.9025,158.9096 L146.5135,127.8196 C145.0675,127.0096 144.5545,125.1806 145.3645,123.7346 C146.1765,122.2906 148.0055,121.7766 149.4485,122.5876 L204.8405,153.6786 C206.2845,154.4886 206.7995,156.3176 205.9875,157.7636 C205.4365,158.7426 204.4185,159.2946 203.3685,159.2946" id="Fill-6" fill="#FAD305"></path>
                <path d="M230.5276,142.8561 C230.0306,142.8561 229.5266,142.7321 229.0616,142.4721 L173.6726,111.3811 C172.2266,110.5701 171.7136,108.7431 172.5236,107.2971 C173.3356,105.8521 175.1656,105.3391 176.6086,106.1491 L231.9996,137.2391 C233.4436,138.0501 233.9586,139.8791 233.1466,141.3241 C232.5956,142.3041 231.5766,142.8561 230.5276,142.8561" id="Fill-8" fill="#FAD305"></path>
            </g>
            <polygon id="Fill-11" fill="#EF413D" points="162.722 17.7399 162.265 48.3249 188.804 63.6699 189.256 33.4319"></polygon>
            <path d="M244.893899,110.82192 L296.940544,81.3275864 C298.299287,80.558235 298.781331,78.8241112 298.020209,77.4533186 C297.258147,76.0825261 295.538576,75.595871 294.181711,76.3642737 L242.134128,105.857659 C240.776324,106.62701 240.29334,108.362083 241.055402,109.732875 C241.573153,110.662548 242.530663,111.1862 243.516363,111.1862 C243.983372,111.1862 244.456959,111.068568 244.893899,110.82192 Z" id="Fill-12" fill="#FAD305"></path>
            <path d="M270.8499,127.941 C270.3159,127.941 269.7819,127.799 269.3069,127.513 L215.2619,95.087 C214.3559,94.543 213.8019,93.563 213.8059,92.506 C213.8089,91.449 214.3689,90.471 215.2789,89.933 L268.2419,58.587 C269.1599,58.044 270.2979,58.028 271.2309,58.549 L327.4369,89.894 C328.3759,90.418 328.9629,91.405 328.9749,92.48 C328.9889,93.555 328.4229,94.555 327.4959,95.1 L272.3709,127.527 C271.9019,127.803 271.3759,127.941 270.8499,127.941 L270.8499,127.941 Z M222.6659,92.532 L270.8659,121.452 L319.9399,92.584 L269.8139,64.629 L222.6659,92.532 Z" id="Fill-14" fill="#EF413D"></path>
            <path d="M226.7864,33.5465 C225.7514,33.5465 224.7434,33.0095 224.1874,32.0495 C223.3564,30.6155 223.8464,28.7805 225.2794,27.9505 L225.7534,27.6755 C227.1874,26.8465 229.0234,27.3345 229.8524,28.7685 C230.6834,30.2015 230.1944,32.0375 228.7604,32.8675 L228.2874,33.1415 C227.8134,33.4155 227.2964,33.5465 226.7864,33.5465 M240.5144,25.5905 C239.4794,25.5905 238.4714,25.0535 237.9154,24.0935 C237.0844,22.6595 237.5744,20.8245 239.0074,19.9945 L239.4814,19.7205 C240.9164,18.8905 242.7514,19.3785 243.5804,20.8125 C244.4114,22.2465 243.9224,24.0815 242.4884,24.9115 L242.0154,25.1855 C241.5414,25.4595 241.0244,25.5905 240.5144,25.5905 M254.2414,17.6345 C253.2064,17.6345 252.1994,17.0975 251.6434,16.1375 C250.8124,14.7035 251.3014,12.8685 252.7354,12.0375 L253.2084,11.7635 C254.6434,10.9335 256.4784,11.4225 257.3074,12.8555 C258.1384,14.2895 257.6494,16.1245 256.2154,16.9545 L255.7424,17.2295 C255.2684,17.5035 254.7524,17.6345 254.2414,17.6345" id="Fill-16" fill="#FAD305"></path>
            <path d="M226.7864,65.6461 C225.7514,65.6461 224.7434,65.1091 224.1874,64.1491 C223.3564,62.7151 223.8464,60.8801 225.2794,60.0501 L225.7534,59.7761 C227.1874,58.9461 229.0234,59.4341 229.8524,60.8681 C230.6834,62.3021 230.1944,64.1371 228.7604,64.9671 L228.2874,65.2411 C227.8134,65.5151 227.2964,65.6461 226.7864,65.6461 M240.5144,57.6901 C239.4794,57.6901 238.4714,57.1531 237.9154,56.1931 C237.0844,54.7591 237.5744,52.9241 239.0074,52.0941 L239.4814,51.8201 C240.9164,50.9891 242.7514,51.4781 243.5804,52.9121 C244.4114,54.3461 243.9224,56.1811 242.4884,57.0111 L242.0154,57.2851 C241.5414,57.5591 241.0244,57.6901 240.5144,57.6901 M254.2424,49.7341 C253.2074,49.7341 252.1994,49.1981 251.6434,48.2371 C250.8124,46.8031 251.3024,44.9681 252.7354,44.1381 L253.2094,43.8641 C254.6444,43.0331 256.4784,43.5221 257.3074,44.9561 C258.1394,46.3901 257.6504,48.2251 256.2164,49.0551 L255.7424,49.3291 C255.2694,49.6041 254.7524,49.7341 254.2424,49.7341" id="Fill-18" fill="#FAD305"></path>
            <path d="M226.7864,49.5909 C225.7514,49.5909 224.7434,49.0539 224.1874,48.0939 C223.3564,46.6599 223.8464,44.8249 225.2794,43.9949 L225.7534,43.7199 C227.1874,42.8899 229.0234,43.3789 229.8524,44.8129 C230.6834,46.2459 230.1944,48.0809 228.7604,48.9119 L228.2874,49.1859 C227.8134,49.4599 227.2964,49.5909 226.7864,49.5909 M240.5144,41.6349 C239.4794,41.6349 238.4714,41.0979 237.9154,40.1379 C237.0844,38.7039 237.5744,36.8689 239.0074,36.0389 L239.4814,35.7649 C240.9164,34.9339 242.7514,35.4229 243.5804,36.8569 C244.4114,38.2899 243.9224,40.1259 242.4884,40.9559 L242.0154,41.2299 C241.5414,41.5039 241.0244,41.6349 240.5144,41.6349 M254.2414,33.6789 C253.2064,33.6789 252.1994,33.1419 251.6434,32.1819 C250.8124,30.7479 251.3014,28.9129 252.7354,28.0819 L253.2084,27.8079 C254.6434,26.9779 256.4784,27.4669 257.3074,28.8999 C258.1384,30.3339 257.6494,32.1689 256.2154,32.9989 L255.7424,33.2739 C255.2684,33.5479 254.7524,33.6789 254.2414,33.6789" id="Fill-20" fill="#FAD305"></path>
            <path d="M619.3763,53.6696 C618.8793,53.6696 618.3753,53.5456 617.9103,53.2846 L562.5203,22.1946 C561.0753,21.3836 560.5613,19.5556 561.3723,18.1106 C562.1833,16.6656 564.0133,16.1526 565.4573,16.9626 L620.8473,48.0526 C622.2923,48.8636 622.8063,50.6926 621.9953,52.1376 C621.4433,53.1176 620.4253,53.6696 619.3763,53.6696" id="Fill-22" fill="#FEFEFE"></path>
            <path d="M605.7972,61.8888 C605.3002,61.8888 604.7952,61.7648 604.3302,61.5038 L548.9412,30.4138 C547.4952,29.6028 546.9822,27.7738 547.7922,26.3298 C548.6042,24.8848 550.4332,24.3708 551.8762,25.1818 L607.2682,56.2718 C608.7122,57.0828 609.2272,58.9118 608.4152,60.3568 C607.8642,61.3368 606.8462,61.8888 605.7972,61.8888" id="Fill-24" fill="#EF413D"></path>
            <path d="M632.9554,45.4508 C632.4594,45.4508 631.9544,45.3268 631.4894,45.0658 L576.1004,13.9758 C574.6544,13.1648 574.1414,11.3358 574.9514,9.8918 C575.7634,8.4468 577.5924,7.9338 579.0364,8.7438 L634.4274,39.8338 C635.8714,40.6448 636.3864,42.4738 635.5744,43.9188 C635.0234,44.8988 634.0054,45.4508 632.9554,45.4508" id="Fill-26" fill="#EF413D"></path>
            <path d="M591.1439,70.4244 C590.6099,70.4244 590.0759,70.2824 589.6009,69.9964 L535.5559,37.5704 C534.6499,37.0264 534.0969,36.0464 534.0999,34.9894 C534.1029,33.9324 534.6619,32.9544 535.5719,32.4164 L588.5349,1.0704 C589.4529,0.5274 590.5909,0.5114 591.5239,1.0324 L647.7309,32.3774 C648.6689,32.9014 649.2559,33.8884 649.2689,34.9634 C649.2819,36.0384 648.7159,37.0394 647.7899,37.5834 L592.6649,70.0104 C592.1949,70.2864 591.6689,70.4244 591.1439,70.4244 L591.1439,70.4244 Z M542.9589,35.0154 L591.1589,63.9354 L640.2339,35.0674 L590.1079,7.1124 L542.9589,35.0154 Z" id="Fill-28" fill="#FAD305"></path>
            <path d="M605.2054,78.7345 C604.1704,78.7345 603.1624,78.1975 602.6054,77.2375 C601.7744,75.8035 602.2654,73.9685 603.6984,73.1385 L604.1724,72.8645 C605.6054,72.0345 607.4414,72.5235 608.2704,73.9565 C609.1014,75.3905 608.6124,77.2255 607.1794,78.0555 L606.7064,78.3295 C606.2314,78.6035 605.7154,78.7345 605.2054,78.7345 M618.9334,70.7785 C617.8974,70.7785 616.8904,70.2415 616.3344,69.2815 C615.5034,67.8475 615.9924,66.0125 617.4264,65.1825 L617.8994,64.9085 C619.3354,64.0785 621.1704,64.5665 621.9994,66.0005 C622.8304,67.4345 622.3414,69.2695 620.9064,70.0995 L620.4344,70.3735 C619.9604,70.6485 619.4424,70.7785 618.9334,70.7785 M632.6594,62.8225 C631.6254,62.8225 630.6174,62.2855 630.0614,61.3255 C629.2304,59.8915 629.7204,58.0565 631.1534,57.2255 L631.6274,56.9515 C633.0614,56.1225 634.8964,56.6105 635.7264,58.0435 C636.5574,59.4775 636.0674,61.3125 634.6344,62.1435 L634.1614,62.4175 C633.6864,62.6915 633.1714,62.8225 632.6594,62.8225" id="Fill-30" fill="#EF413D"></path>
            <path d="M605.2054,110.8336 C604.1704,110.8336 603.1624,110.2966 602.6054,109.3366 C601.7744,107.9026 602.2654,106.0676 603.6984,105.2376 L604.1724,104.9636 C605.6054,104.1336 607.4414,104.6226 608.2704,106.0556 C609.1014,107.4896 608.6124,109.3246 607.1794,110.1546 L606.7064,110.4286 C606.2314,110.7036 605.7154,110.8336 605.2054,110.8336 M618.9334,102.8776 C617.8974,102.8776 616.8904,102.3416 616.3344,101.3806 C615.5034,99.9466 615.9924,98.1116 617.4264,97.2816 L617.8994,97.0076 C619.3354,96.1776 621.1704,96.6656 621.9994,98.0996 C622.8304,99.5336 622.3414,101.3686 620.9064,102.1986 L620.4344,102.4726 C619.9604,102.7476 619.4424,102.8776 618.9334,102.8776 M632.6614,94.9216 C631.6254,94.9216 630.6174,94.3856 630.0614,93.4246 C629.2304,91.9916 629.7214,90.1556 631.1534,89.3256 L631.6284,89.0516 C633.0624,88.2216 634.8964,88.7096 635.7264,90.1436 C636.5584,91.5776 636.0684,93.4126 634.6354,94.2426 L634.1614,94.5166 C633.6874,94.7916 633.1714,94.9216 632.6614,94.9216" id="Fill-32" fill="#EF413D"></path>
            <path d="M605.2054,94.7784 C604.1704,94.7784 603.1624,94.2414 602.6054,93.2814 C601.7744,91.8474 602.2654,90.0124 603.6984,89.1824 L604.1724,88.9084 C605.6054,88.0774 607.4414,88.5664 608.2704,90.0004 C609.1014,91.4344 608.6124,93.2694 607.1794,94.0994 L606.7064,94.3734 C606.2314,94.6474 605.7154,94.7784 605.2054,94.7784 M618.9334,86.8224 C617.8974,86.8224 616.8904,86.2854 616.3344,85.3254 C615.5034,83.8914 615.9924,82.0564 617.4264,81.2264 L617.8994,80.9524 C619.3354,80.1214 621.1704,80.6104 621.9994,82.0444 C622.8304,83.4784 622.3414,85.3134 620.9064,86.1434 L620.4344,86.4174 C619.9604,86.6914 619.4424,86.8224 618.9334,86.8224 M632.6594,78.8664 C631.6254,78.8664 630.6174,78.3294 630.0614,77.3694 C629.2304,75.9354 629.7204,74.1004 631.1534,73.2694 L631.6274,72.9954 C633.0614,72.1654 634.8964,72.6544 635.7264,74.0874 C636.5574,75.5214 636.0674,77.3564 634.6344,78.1874 L634.1614,78.4614 C633.6864,78.7354 633.1714,78.8664 632.6594,78.8664" id="Fill-34" fill="#EF413D"></path>
            <path d="M564.2513,219.7701 C563.7543,219.7701 563.2493,219.6461 562.7843,219.3861 L507.3953,188.2951 C505.9493,187.4851 505.4363,185.6571 506.2463,184.2111 C507.0593,182.7661 508.8883,182.2531 510.3313,183.0631 L565.7223,214.1541 C567.1663,214.9641 567.6813,216.7931 566.8693,218.2391 C566.3183,219.2181 565.3003,219.7701 564.2513,219.7701" id="Fill-36" fill="#FAD305"></path>
            <path d="M550.6712,227.9899 C550.1742,227.9899 549.6702,227.8659 549.2052,227.6059 L493.8162,196.5149 C492.3702,195.7039 491.8572,193.8749 492.6672,192.4309 C493.4792,190.9859 495.3072,190.4719 496.7512,191.2829 L552.1422,222.3729 C553.5872,223.1839 554.1022,225.0129 553.2902,226.4579 C552.7392,227.4379 551.7202,227.9899 550.6712,227.9899" id="Fill-38" fill="#EF413D"></path>
            <path d="M577.8304,211.5514 C577.3334,211.5514 576.8294,211.4274 576.3644,211.1674 L520.9754,180.0764 C519.5294,179.2654 519.0164,177.4374 519.8264,175.9924 C520.6374,174.5474 522.4674,174.0344 523.9114,174.8444 L579.3014,205.9344 C580.7464,206.7454 581.2604,208.5744 580.4494,210.0194 C579.8984,210.9994 578.8794,211.5514 577.8304,211.5514" id="Fill-40" fill="#EF413D"></path>
            <path d="M512.2776,119.3888 C511.7806,119.3888 511.2766,119.2648 510.8116,119.0048 L455.4216,87.9138 C453.9766,87.1028 453.4626,85.2748 454.2736,83.8298 C455.0856,82.3848 456.9146,81.8718 458.3586,82.6818 L513.7486,113.7718 C515.1936,114.5828 515.7076,116.4118 514.8966,117.8568 C514.3456,118.8368 513.3266,119.3888 512.2776,119.3888" id="Fill-42" fill="#EF413D"></path>
            <path d="M498.6985,127.6085 C498.2015,127.6085 497.6975,127.4845 497.2325,127.2245 L441.8425,96.1335 C440.3975,95.3225 439.8835,93.4935 440.6945,92.0495 C441.5055,90.6045 443.3345,90.0905 444.7785,90.9015 L500.1695,121.9915 C501.6145,122.8025 502.1285,124.6315 501.3175,126.0765 C500.7655,127.0565 499.7475,127.6085 498.6985,127.6085" id="Fill-44" fill="#FAD305"></path>
            <path d="M525.8577,111.17 C525.3607,111.17 524.8567,111.046 524.3907,110.786 L469.0017,79.695 C467.5557,78.884 467.0427,77.055 467.8527,75.611 C468.6647,74.166 470.4947,73.653 471.9387,74.463 L527.3287,105.553 C528.7737,106.364 529.2877,108.193 528.4757,109.638 C527.9247,110.618 526.9067,111.17 525.8577,111.17" id="Fill-46" fill="#FAD305"></path>
            <path d="M498.1068,144.4537 C497.0718,144.4537 496.0638,143.9167 495.5068,142.9567 C494.6758,141.5227 495.1668,139.6877 496.6008,138.8577 L497.0738,138.5827 C498.5068,137.7537 500.3428,138.2417 501.1718,139.6757 C502.0028,141.1097 501.5148,142.9447 500.0808,143.7747 L499.6078,144.0487 C499.1328,144.3227 498.6168,144.4537 498.1068,144.4537 M511.8348,136.4977 C510.7988,136.4977 509.7918,135.9607 509.2358,135.0007 C508.4058,133.5667 508.8948,131.7317 510.3278,130.9017 L510.8008,130.6277 C512.2368,129.7977 514.0718,130.2857 514.9008,131.7197 C515.7318,133.1537 515.2428,134.9887 513.8088,135.8187 L513.3358,136.0927 C512.8618,136.3667 512.3438,136.4977 511.8348,136.4977 M525.5618,128.5417 C524.5268,128.5417 523.5198,128.0047 522.9628,127.0447 C522.1318,125.6107 522.6218,123.7757 524.0548,122.9447 L524.5288,122.6707 C525.9628,121.8407 527.7978,122.3297 528.6278,123.7627 C529.4588,125.1967 528.9688,127.0317 527.5358,127.8627 L527.0628,128.1367 C526.5878,128.4107 526.0728,128.5417 525.5618,128.5417" id="Fill-48" fill="#FAD305"></path>
            <path d="M498.1068,176.5533 C497.0718,176.5533 496.0638,176.0163 495.5068,175.0563 C494.6758,173.6223 495.1668,171.7863 496.6008,170.9573 L497.0738,170.6833 C498.5068,169.8533 500.3428,170.3423 501.1718,171.7753 C502.0028,173.2093 501.5148,175.0443 500.0808,175.8743 L499.6078,176.1483 C499.1328,176.4223 498.6168,176.5533 498.1068,176.5533 M511.8348,168.5973 C510.7988,168.5973 509.7918,168.0603 509.2358,167.1003 C508.4058,165.6663 508.8948,163.8313 510.3278,163.0013 L510.8008,162.7273 C512.2368,161.8963 514.0718,162.3853 514.9008,163.8193 C515.7318,165.2533 515.2428,167.0883 513.8088,167.9183 L513.3358,168.1923 C512.8618,168.4673 512.3438,168.5973 511.8348,168.5973 M525.5628,160.6413 C524.5278,160.6413 523.5198,160.1053 522.9628,159.1443 C522.1318,157.7103 522.6228,155.8753 524.0548,155.0453 L524.5298,154.7713 C525.9638,153.9403 527.7978,154.4293 528.6278,155.8633 C529.4598,157.2973 528.9698,159.1323 527.5368,159.9623 L527.0628,160.2363 C526.5888,160.5113 526.0728,160.6413 525.5628,160.6413" id="Fill-50" fill="#FAD305"></path>
            <path d="M498.1068,160.4977 C497.0718,160.4977 496.0638,159.9607 495.5068,159.0007 C494.6758,157.5667 495.1668,155.7317 496.6008,154.9017 L497.0738,154.6277 C498.5068,153.7967 500.3428,154.2857 501.1718,155.7207 C502.0028,157.1537 501.5148,158.9887 500.0808,159.8187 L499.6078,160.0937 C499.1328,160.3667 498.6168,160.4977 498.1068,160.4977 M511.8348,152.5417 C510.7988,152.5417 509.7918,152.0047 509.2358,151.0447 C508.4058,149.6107 508.8948,147.7757 510.3278,146.9457 L510.8008,146.6717 C512.2368,145.8407 514.0718,146.3297 514.9008,147.7637 C515.7318,149.1977 515.2428,151.0327 513.8088,151.8627 L513.3358,152.1377 C512.8618,152.4107 512.3438,152.5417 511.8348,152.5417 M525.5618,144.5857 C524.5268,144.5857 523.5198,144.0487 522.9628,143.0887 C522.1318,141.6547 522.6218,139.8197 524.0548,138.9897 L524.5288,138.7147 C525.9628,137.8847 527.7978,138.3737 528.6278,139.8067 C529.4588,141.2407 528.9688,143.0757 527.5358,143.9067 L527.0628,144.1807 C526.5878,144.4547 526.0728,144.5857 525.5618,144.5857" id="Fill-52" fill="#FAD305"></path>
            <path d="M748.261,259.3815 C747.764,259.3815 747.259,259.2575 746.794,258.9975 L691.405,227.9065 C689.959,227.0955 689.446,225.2685 690.256,223.8225 C691.069,222.3775 692.898,221.8645 694.341,222.6745 L749.732,253.7655 C751.176,254.5755 751.691,256.4045 750.879,257.8505 C750.328,258.8295 749.31,259.3815 748.261,259.3815" id="Fill-54" fill="#EF413D"></path>
            <path d="M734.681,267.6012 C734.184,267.6012 733.68,267.4772 733.215,267.2172 L677.826,236.1262 C676.38,235.3152 675.867,233.4872 676.677,232.0422 C677.489,230.5972 679.318,230.0832 680.761,230.8942 L736.153,261.9842 C737.597,262.7952 738.112,264.6242 737.3,266.0692 C736.749,267.0492 735.73,267.6012 734.681,267.6012" id="Fill-56" fill="#FEFEFE"></path>
            <path d="M761.8401,251.1627 C761.3431,251.1627 760.8391,251.0387 760.3741,250.7777 L704.9851,219.6877 C703.5391,218.8767 703.0261,217.0487 703.8361,215.6037 C704.6471,214.1587 706.4761,213.6457 707.9211,214.4557 L763.3111,245.5457 C764.7561,246.3567 765.2701,248.1857 764.4591,249.6317 C763.9081,250.6107 762.8891,251.1627 761.8401,251.1627" id="Fill-58" fill="#FEFEFE"></path>
            <path d="M720.0286,276.1363 C719.4946,276.1363 718.9606,275.9943 718.4856,275.7083 L664.4396,243.2823 C663.5346,242.7393 662.9806,241.7583 662.9846,240.7013 C662.9876,239.6453 663.5466,238.6673 664.4566,238.1283 L717.4196,206.7823 C718.3376,206.2403 719.4756,206.2233 720.4096,206.7443 L776.6156,238.0893 C777.5536,238.6143 778.1406,239.6013 778.1536,240.6753 C778.1666,241.7503 777.6006,242.7513 776.6746,243.2953 L721.5496,275.7223 C721.0796,275.9983 720.5536,276.1363 720.0286,276.1363 L720.0286,276.1363 Z M671.8436,240.7283 L720.0436,269.6483 L769.1186,240.7803 L718.9926,212.8243 L671.8436,240.7283 Z" id="Fill-60" fill="#FAD305"></path>
            <polygon id="Fill-63" fill="#EF413D" points="644.2249 138.6525 643.7679 169.2375 670.3069 184.5825 670.7589 154.3445"></polygon>
            <polygon id="Fill-64" fill="#FEFEFE" points="431.1722 133.4498 431.6292 164.0348 405.0902 179.3798 404.6382 149.1418"></polygon>
            <polygon id="Fill-65" fill="#EF413D" points="271.848 225.2994 271.391 255.8844 297.93 271.2294 298.381 240.9914"></polygon>
            <path d="M324.848,227.9899 C324.314,227.9899 323.78,227.8479 323.305,227.5619 L269.26,195.1359 C268.354,194.5929 267.801,193.6119 267.804,192.5549 C267.807,191.4979 268.367,190.5209 269.276,189.9819 L322.24,158.6359 C323.158,158.0939 324.296,158.0769 325.229,158.5979 L381.435,189.9429 C382.374,190.4679 382.961,191.4539 382.973,192.5289 C382.986,193.6039 382.421,194.6049 381.494,195.1489 L326.369,227.5759 C325.9,227.8519 325.374,227.9899 324.848,227.9899 L324.848,227.9899 Z M276.664,192.5809 L324.864,221.5009 L373.938,192.6339 L323.812,164.6779 L276.664,192.5809 Z" id="Fill-66" fill="#FAD305"></path>
            <path d="M338.9095,236.3004 C337.8745,236.3004 336.8675,235.7634 336.3105,234.8034 C335.4805,233.3684 335.9695,231.5334 337.4035,230.7034 L337.8765,230.4304 C339.3105,229.6004 341.1465,230.0894 341.9755,231.5224 C342.8065,232.9554 342.3175,234.7904 340.8835,235.6204 L340.4105,235.8954 C339.9365,236.1684 339.4195,236.3004 338.9095,236.3004 M352.6385,228.3444 C351.6025,228.3444 350.5945,227.8084 350.0385,226.8474 C349.2085,225.4124 349.6975,223.5774 351.1315,222.7474 L351.6045,222.4744 C353.0395,221.6444 354.8745,222.1324 355.7035,223.5664 C356.5345,224.9994 356.0455,226.8344 354.6115,227.6644 L354.1385,227.9394 C353.6645,228.2144 353.1475,228.3444 352.6385,228.3444 M366.3645,220.3884 C365.3295,220.3884 364.3225,219.8514 363.7665,218.8914 C362.9355,217.4564 363.4245,215.6214 364.8585,214.7904 L365.3315,214.5174 C366.7665,213.6874 368.6015,214.1764 369.4315,215.6094 C370.2615,217.0424 369.7725,218.8774 368.3385,219.7084 L367.8655,219.9834 C367.3925,220.2574 366.8755,220.3884 366.3645,220.3884" id="Fill-68" fill="#EF413D"></path>
            <path d="M338.9095,268.399 C337.8745,268.399 336.8675,267.862 336.3105,266.902 C335.4805,265.468 335.9695,263.633 337.4035,262.803 L337.8765,262.529 C339.3105,261.7 341.1465,262.188 341.9755,263.622 C342.8065,265.055 342.3175,266.89 340.8835,267.72 L340.4105,267.995 C339.9365,268.268 339.4195,268.399 338.9095,268.399 M352.6385,260.443 C351.6025,260.443 350.5945,259.908 350.0385,258.947 C349.2085,257.512 349.6975,255.677 351.1315,254.847 L351.6045,254.574 C353.0395,253.744 354.8745,254.231 355.7035,255.666 C356.5345,257.099 356.0455,258.934 354.6115,259.764 L354.1385,260.039 C353.6645,260.313 353.1475,260.443 352.6385,260.443 M366.3655,252.487 C365.3305,252.487 364.3225,251.952 363.7665,250.991 C362.9355,249.556 363.4255,247.721 364.8585,246.891 L365.3325,246.618 C366.7675,245.787 368.6015,246.275 369.4315,247.71 C370.2635,249.143 369.7735,250.978 368.3395,251.808 L367.8665,252.083 C367.3925,252.357 366.8755,252.487 366.3655,252.487" id="Fill-70" fill="#EF413D"></path>
            <path d="M338.9095,252.3443 C337.8745,252.3443 336.8675,251.8073 336.3105,250.8473 C335.4805,249.4123 335.9695,247.5773 337.4035,246.7483 L337.8765,246.4743 C339.3105,245.6433 341.1465,246.1323 341.9755,247.5663 C342.8065,248.9993 342.3175,250.8353 340.8835,251.6653 L340.4105,251.9393 C339.9365,252.2133 339.4195,252.3443 338.9095,252.3443 M352.6385,244.3883 C351.6025,244.3883 350.5945,243.8513 350.0385,242.8913 C349.2085,241.4573 349.6975,239.6223 351.1315,238.7923 L351.6045,238.5183 C353.0395,237.6873 354.8745,238.1763 355.7035,239.6103 C356.5345,241.0443 356.0455,242.8793 354.6115,243.7093 L354.1385,243.9833 C353.6645,244.2573 353.1475,244.3883 352.6385,244.3883 M366.3645,236.4323 C365.3295,236.4323 364.3225,235.8953 363.7665,234.9353 C362.9355,233.5013 363.4245,231.6663 364.8585,230.8353 L365.3315,230.5613 C366.7665,229.7313 368.6015,230.2203 369.4315,231.6533 C370.2615,233.0873 369.7725,234.9223 368.3385,235.7533 L367.8655,236.0273 C367.3925,236.3013 366.8755,236.4323 366.3645,236.4323" id="Fill-72" fill="#EF413D"></path>
            <g id="Group-76" transform="translate(751.000000, 56.000000)">
                <mask id="mask-4" fill="white">
                    <use xlink:href="#path-3"></use>
                </mask>
                <g id="Clip-75"></g>
                <path d="M55.4466,70.6305 C54.9136,70.6035 54.3866,70.4345 53.9266,70.1255 L1.5926,35.0065 C0.7156,34.4175 0.2126,33.4105 0.2676,32.3555 C0.3246,31.2995 0.9326,30.3515 1.8696,29.8595 L56.3496,1.2335 C57.2946,0.7375 58.4316,0.7795 59.3376,1.3465 L113.8856,35.4955 C114.7976,36.0655 115.3346,37.0805 115.2926,38.1555 C115.2496,39.2295 114.6346,40.2005 113.6816,40.6975 L56.9866,70.2935 C56.5046,70.5455 55.9716,70.6575 55.4466,70.6305 L55.4466,70.6305 Z M9.1156,32.8295 L55.7916,64.1505 L106.2626,37.8015 L57.6146,7.3465 L9.1156,32.8295 Z" id="Fill-74" fill="#FEFEFE" mask="url(#mask-4)"></path>
            </g>
        </g>
    </g>
</svg>