<svg id="svg" version="1.1" width="400" height="400" xmlns="http://www.w3.org/2000/svg" xmlns:xlink="http://www.w3.org/1999/xlink" style="display: block;"><g id="svgg"><path id="path0" d="M189.200 49.080 C 98.794 56.349,34.982 139.532,51.231 228.933 C 51.783 231.970,53.589 240.055,53.756 240.237 C 54.130 240.644,60.826 238.491,60.715 238.000 C 60.649 237.707,60.226 235.907,59.776 234.000 C 45.342 172.879,72.362 109.174,126.533 76.606 C 189.878 38.523,271.908 54.504,316.553 113.625 L 318.964 116.819 318.013 118.116 C 307.446 132.511,327.693 149.667,340.092 136.824 C 350.310 126.239,340.275 109.222,325.854 112.679 C 325.232 112.828,324.914 112.498,322.074 108.754 C 298.591 77.793,263.903 56.940,225.429 50.653 C 215.723 49.067,198.608 48.324,189.200 49.080 M193.467 100.033 C 175.284 101.421,157.406 107.840,142.691 118.263 L 140.182 120.040 138.424 119.233 C 123.365 112.322,110.228 131.494,122.175 142.948 C 132.922 153.253,150.835 141.577,145.754 127.578 C 144.967 125.410,144.800 125.729,147.814 123.640 C 197.296 89.341,266.276 110.526,288.350 166.800 C 312.397 228.106,266.869 294.737,200.933 294.737 C 135.904 294.737,90.307 229.541,112.763 168.669 C 113.357 167.056,113.759 165.664,113.655 165.575 C 113.382 165.339,107.150 162.894,107.062 162.988 C 106.411 163.688,103.040 174.706,102.020 179.467 C 89.104 239.751,132.463 297.528,193.867 301.856 C 259.115 306.454,311.747 248.301,300.654 183.867 C 291.814 132.515,245.228 96.079,193.467 100.033 M332.717 120.224 C 337.567 122.699,338.387 128.498,334.393 132.089 C 329.035 136.906,320.766 131.625,322.786 124.676 C 323.980 120.567,328.988 118.322,332.717 120.224 M134.455 125.481 C 137.197 126.415,139.292 129.342,139.285 132.227 C 139.269 138.704,131.536 141.873,126.947 137.284 C 121.653 131.990,127.336 123.056,134.455 125.481 M344.267 162.192 C 342.580 162.645,341.161 163.046,341.112 163.084 C 341.064 163.122,341.450 164.994,341.970 167.243 C 356.359 229.508,329.784 292.524,275.333 325.261 C 212.015 363.328,129.960 347.364,85.360 288.302 L 82.994 285.169 83.796 284.118 C 94.613 269.943,74.208 252.432,61.823 265.260 C 51.809 275.633,61.584 293.092,75.400 289.508 L 76.782 289.149 79.845 293.175 C 114.594 338.848,171.815 360.962,228.603 350.667 C 290.414 339.462,339.910 289.769,350.787 227.996 C 354.503 206.896,353.694 183.195,348.580 163.334 C 348.005 161.100,348.169 161.143,344.267 162.192 M145.333 201.050 L 145.333 229.333 156.207 229.333 C 169.998 229.333,172.613 229.035,176.800 226.985 C 187.165 221.911,187.245 205.586,176.928 200.758 L 175.156 199.929 176.578 199.153 C 185.282 194.400,184.690 179.926,175.595 175.152 C 171.519 173.012,171.242 172.977,157.533 172.865 L 145.333 172.766 145.333 201.050 M190.247 177.126 C 190.876 179.513,194.249 192.237,197.743 205.400 L 204.097 229.333 207.469 229.333 L 210.842 229.333 216.652 208.067 C 219.847 196.370,222.543 186.650,222.642 186.467 C 222.740 186.283,225.205 194.983,228.119 205.800 C 231.032 216.617,233.651 226.337,233.938 227.400 L 234.461 229.333 237.855 229.333 L 241.249 229.333 241.541 228.333 C 241.702 227.783,245.027 215.273,248.931 200.533 C 252.835 185.793,256.092 173.520,256.168 173.259 C 256.298 172.818,256.048 172.790,252.631 172.859 L 248.955 172.933 243.418 194.389 C 240.373 206.190,237.805 216.030,237.712 216.256 C 237.592 216.550,228.512 183.304,226.008 173.400 C 225.862 172.822,225.746 172.800,222.814 172.800 L 219.771 172.800 219.370 174.200 C 219.149 174.970,216.549 184.720,213.591 195.867 C 210.633 207.013,208.135 216.217,208.040 216.320 C 207.945 216.422,205.336 206.702,202.242 194.720 L 196.618 172.933 192.862 172.859 L 189.105 172.786 190.247 177.126 M166.825 179.487 C 172.310 180.250,175.047 182.765,175.394 187.361 C 175.897 194.000,171.921 197.067,162.814 197.067 L 158.933 197.067 158.933 200.267 L 158.933 203.467 163.000 203.469 C 169.466 203.472,172.434 204.247,174.770 206.545 C 178.103 209.822,178.144 216.029,174.854 219.422 C 172.169 222.192,170.050 222.656,160.067 222.662 L 152.533 222.667 152.533 200.933 L 152.533 179.200 158.647 179.200 C 162.010 179.200,165.690 179.329,166.825 179.487 M74.890 268.698 C 78.325 270.091,80.153 273.965,79.046 277.505 C 77.093 283.749,68.579 284.373,65.697 278.483 C 62.835 272.633,68.838 266.244,74.890 268.698 " stroke="none" fill="#ffffff" fill-rule="evenodd"></path><path id="path1" d="M189.200 49.080 C 98.794 56.349,34.982 139.532,51.231 228.933 C 51.783 231.970,53.589 240.055,53.756 240.237 C 54.130 240.644,60.826 238.491,60.715 238.000 C 60.649 237.707,60.226 235.907,59.776 234.000 C 45.342 172.879,72.362 109.174,126.533 76.606 C 189.878 38.523,271.908 54.504,316.553 113.625 L 318.964 116.819 318.013 118.116 C 307.446 132.511,327.693 149.667,340.092 136.824 C 350.310 126.239,340.275 109.222,325.854 112.679 C 325.232 112.828,324.914 112.498,322.074 108.754 C 298.591 77.793,263.903 56.940,225.429 50.653 C 215.723 49.067,198.608 48.324,189.200 49.080 M193.467 100.033 C 175.284 101.421,157.406 107.840,142.691 118.263 L 140.182 120.040 138.424 119.233 C 123.365 112.322,110.228 131.494,122.175 142.948 C 132.922 153.253,150.835 141.577,145.754 127.578 C 144.967 125.410,144.800 125.729,147.814 123.640 C 197.296 89.341,266.276 110.526,288.350 166.800 C 312.397 228.106,266.869 294.737,200.933 294.737 C 135.904 294.737,90.307 229.541,112.763 168.669 C 113.357 167.056,113.759 165.664,113.655 165.575 C 113.382 165.339,107.150 162.894,107.062 162.988 C 106.411 163.688,103.040 174.706,102.020 179.467 C 89.104 239.751,132.463 297.528,193.867 301.856 C 259.115 306.454,311.747 248.301,300.654 183.867 C 291.814 132.515,245.228 96.079,193.467 100.033 M332.717 120.224 C 337.567 122.699,338.387 128.498,334.393 132.089 C 329.035 136.906,320.766 131.625,322.786 124.676 C 323.980 120.567,328.988 118.322,332.717 120.224 M134.455 125.481 C 137.197 126.415,139.292 129.342,139.285 132.227 C 139.269 138.704,131.536 141.873,126.947 137.284 C 121.653 131.990,127.336 123.056,134.455 125.481 M344.267 162.192 C 342.580 162.645,341.161 163.046,341.112 163.084 C 341.064 163.122,341.450 164.994,341.970 167.243 C 356.359 229.508,329.784 292.524,275.333 325.261 C 212.015 363.328,129.960 347.364,85.360 288.302 L 82.994 285.169 83.796 284.118 C 94.613 269.943,74.208 252.432,61.823 265.260 C 51.809 275.633,61.584 293.092,75.400 289.508 L 76.782 289.149 79.845 293.175 C 114.594 338.848,171.815 360.962,228.603 350.667 C 290.414 339.462,339.910 289.769,350.787 227.996 C 354.503 206.896,353.694 183.195,348.580 163.334 C 348.005 161.100,348.169 161.143,344.267 162.192 M145.333 201.050 L 145.333 229.333 156.207 229.333 C 169.998 229.333,172.613 229.035,176.800 226.985 C 187.165 221.911,187.245 205.586,176.928 200.758 L 175.156 199.929 176.578 199.153 C 185.282 194.400,184.690 179.926,175.595 175.152 C 171.519 173.012,171.242 172.977,157.533 172.865 L 145.333 172.766 145.333 201.050 M190.247 177.126 C 190.876 179.513,194.249 192.237,197.743 205.400 L 204.097 229.333 207.469 229.333 L 210.842 229.333 216.652 208.067 C 219.847 196.370,222.543 186.650,222.642 186.467 C 222.740 186.283,225.205 194.983,228.119 205.800 C 231.032 216.617,233.651 226.337,233.938 227.400 L 234.461 229.333 237.855 229.333 L 241.249 229.333 241.541 228.333 C 241.702 227.783,245.027 215.273,248.931 200.533 C 252.835 185.793,256.092 173.520,256.168 173.259 C 256.298 172.818,256.048 172.790,252.631 172.859 L 248.955 172.933 243.418 194.389 C 240.373 206.190,237.805 216.030,237.712 216.256 C 237.592 216.550,228.512 183.304,226.008 173.400 C 225.862 172.822,225.746 172.800,222.814 172.800 L 219.771 172.800 219.370 174.200 C 219.149 174.970,216.549 184.720,213.591 195.867 C 210.633 207.013,208.135 216.217,208.040 216.320 C 207.945 216.422,205.336 206.702,202.242 194.720 L 196.618 172.933 192.862 172.859 L 189.105 172.786 190.247 177.126 M166.825 179.487 C 172.310 180.250,175.047 182.765,175.394 187.361 C 175.897 194.000,171.921 197.067,162.814 197.067 L 158.933 197.067 158.933 200.267 L 158.933 203.467 163.000 203.469 C 169.466 203.472,172.434 204.247,174.770 206.545 C 178.103 209.822,178.144 216.029,174.854 219.422 C 172.169 222.192,170.050 222.656,160.067 222.662 L 152.533 222.667 152.533 200.933 L 152.533 179.200 158.647 179.200 C 162.010 179.200,165.690 179.329,166.825 179.487 M74.890 268.698 C 78.325 270.091,80.153 273.965,79.046 277.505 C 77.093 283.749,68.579 284.373,65.697 278.483 C 62.835 272.633,68.838 266.244,74.890 268.698 " stroke="none" fill="#ffffff" fill-rule="evenodd"></path></g></svg>