<?xml version="1.0" encoding="utf-8"?>
<!-- Generator: Adobe Illustrator 19.2.0, SVG Export Plug-In . SVG Version: 6.00 Build 0)  -->
<svg version="1.1" id="Layer_1" xmlns="http://www.w3.org/2000/svg" xmlns:xlink="http://www.w3.org/1999/xlink" x="0px" y="0px"
	 viewBox="0 0 233.2 209.4" style="enable-background:new 0 0 233.2 209.4;" xml:space="preserve">
<style type="text/css">
	.st0{fill:#FFD400;}
	.st1{fill:#EF413D;}
	.st2{fill:#241F59;}
	.st3{fill:#00B5AD;}
</style>
<g>
	<path class="st0" d="M174.2,209.4c-32.5,0-59-26.5-59-59h5.5c0,29.5,24,53.5,53.5,53.5s53.5-24,53.5-53.5
		c0-20.4-11.3-38.7-29.5-47.8l2.5-4.9c20.1,10.1,32.5,30.3,32.5,52.7C233.2,182.9,206.7,209.4,174.2,209.4z"/>
	<path class="st1" d="M120.7,57.1h-5.5c0-28.4-23.1-51.6-51.6-51.6C40.9,5.5,21.1,20,14.4,41.6L9.2,40C16.7,16.1,38.6,0,63.7,0
		C95.1,0,120.7,25.6,120.7,57.1z"/>
	<path class="st2" d="M9.4,57C4.2,57,0,52.8,0,47.6s4.2-9.4,9.4-9.4s9.4,4.2,9.4,9.4S14.5,57,9.4,57z M9.4,43.3
		c-2.4,0-4.4,2-4.4,4.4s2,4.4,4.4,4.4s4.4-2,4.4-4.4S11.8,43.3,9.4,43.3z"/>
	<path class="st3" d="M193,107.1c-5.2,0-9.4-4.2-9.4-9.4s4.2-9.4,9.4-9.4s9.4,4.2,9.4,9.4S198.2,107.1,193,107.1z M193,93.3
		c-2.4,0-4.4,2-4.4,4.4s2,4.4,4.4,4.4s4.4-2,4.4-4.4S195.4,93.3,193,93.3z"/>
	<rect x="115.3" y="99.9" class="st2" width="5.6" height="45.1"/>
	<rect x="6.7" y="62.6" class="st3" width="5.6" height="31.7"/>
	<path class="st3" d="M37.4,61.9c-4.2,0-7.8,2.2-9.7,4.8v-4.1h-5.6v31.7h5.6V73.2c1.2-3.6,4.5-6.1,8.4-6.1c5,0,7.3,3.2,7.3,7.8v19.5
		H49V74C49,66.8,44.9,61.9,37.4,61.9z"/>
	<path class="st3" d="M59.9,86.1c0,6.1,3.7,9,9,9c2,0,3.9-0.4,5.2-1.1v-5.3C73,89.4,71.4,90,69.8,90c-2.8,0-4.4-1.4-4.4-4.6V67.3
		h7.9v-4.7h-7.9v-8.7h-5.5V86.1z"/>
	<path class="st3" d="M120.8,73.4c1.1-3.8,4.1-6.1,7.6-6.1c1.4,0,2.8,0.3,3.7,0.9v-5.7c-0.6-0.3-1.8-0.5-3.2-0.5
		c-3.6,0-6.7,2.1-8.1,5v-4.3h-5.6v31.8h5.6V73.4z"/>
	<path class="st3" d="M93.9,62.7c-8.4,0-14.9,6.8-14.9,16.2c0,9.6,6.2,16.2,15.2,16.2c7.4,0,12.1-4.1,13.3-10h-5.1
		c-0.9,3.5-4.1,5-8.2,5c-4.5,0-7.7-2.7-9.1-6.8c-1-3.1-0.7-7.7,0.3-10.1c1.7-4.2,5.3-5.6,8.7-5.6c4.7,0,8.3,4.1,8.3,8.2H90v4h17.9
		v-1.9C107.9,70.3,103,62.7,93.9,62.7z"/>
	<polygon class="st2" points="167.7,157.6 173.2,157.6 190.7,112.7 184.9,112.7 175.6,138.1 166,112.7 160,112.7 172.7,145.3 	"/>
	<path class="st2" d="M93,112.3c-1.4,0-2.7,0.2-3.9,0.6v5.3c0.9-0.3,1.9-0.5,2.9-0.5c6.3,0,10.1,4.4,10.1,11.3
		c0,6.9-3.6,11.2-9.9,11.2c-3.5,0-6.5-1.9-8.5-4.4v-23h-5.5v45h5.5v-15.5c2,1.7,5.2,3.4,9.3,3.4c9.7,0,14.8-7.6,14.8-16.6
		C107.8,119.9,102.7,112.3,93,112.3z"/>
	<path class="st2" d="M142.1,112.6c-6.3,0-11.2,3.8-12.3,9.2h5.5c1-2.9,3.3-4.3,6.7-4.3c4.7,0,7.3,2.8,7.3,6.8v13
		c-1,2.3-4.3,3.9-7.7,3.9c-4,0-7.8-2.6-7.8-5.9c0-4.6,4.3-6.3,7.7-6.3c0.8,0,1.6,0.1,2.4,0.4v-4.3c-0.9-0.2-1.8-0.3-2.7-0.3
		c-6.2,0-12.4,3.9-12.4,10.6c0,6.3,5.1,10.1,11.7,10.1c3.9,0,7.4-1.4,8.7-2.7v2.3h5.3V124C154.6,117.1,149.9,112.6,142.1,112.6z"/>
</g>
</svg>
