<?xml version="1.0" encoding="UTF-8"?>
<svg width="72px" height="72px" viewBox="0 0 72 72" version="1.1" xmlns="http://www.w3.org/2000/svg" xmlns:xlink="http://www.w3.org/1999/xlink">
    <!-- Generator: Sketch 46.2 (44496) - http://www.bohemiancoding.com/sketch -->
    <title>Artboard Copy</title>
    <desc>Created with Sketch.</desc>
    <defs>
        <polygon id="path-1" points="8.01701653 13.3982414 8.01701653 0.00451171171 0.128105234 0.00451171171 0.128105234 13.3982414 8.01701653 13.3982414"></polygon>
    </defs>
    <g id="Mobile" stroke="none" stroke-width="1" fill="none" fill-rule="evenodd">
        <g id="Artboard-Copy">
            <g id="Group-5-Copy-3" transform="translate(1.000000, 1.000000)">
                <circle id="Oval-2" stroke="#00B5AD" stroke-width="1.5" cx="35" cy="35" r="35"></circle>
                <polygon id="Stroke-1" stroke="#00B5AD" stroke-width="1.44144144" stroke-linecap="round" stroke-linejoin="round" points="21.6333375 21.1441874 8.000073 27.9691243 20.8088444 36.2048 34.5108774 29.4555387"></polygon>
                <polyline id="Stroke-3" stroke="#00B5AD" stroke-width="1.44144144" stroke-linecap="round" stroke-linejoin="round" points="20.8088444 36.2048577 19.9764669 51.4088937 33.6824421 44.5878486 34.5108774 29.4555964"></polyline>
                <path d="M14.814705,24.5923892 L27.6789584,32.8217225" id="Stroke-6" stroke="#00B5AD" stroke-width="1.44144144" stroke-linecap="round" stroke-linejoin="round"></path>
                <path d="M18.1296725,22.9068541 L31.0453198,31.1661694" id="Stroke-7" stroke="#00B5AD" stroke-width="1.44144144" stroke-linecap="round" stroke-linejoin="round"></path>
                <path d="M11.4600386,26.2556685 L24.3202039,34.4717405" id="Stroke-9" stroke="#00B5AD" stroke-width="1.44144144" stroke-linecap="round" stroke-linejoin="round"></path>
                <path d="M28.2502488,36.6537514 C28.2271799,37.076382 27.8612901,37.400418 27.4333479,37.3774991 C27.0052598,37.3547243 26.6770394,36.9936432 26.7001083,36.5710126 C26.7233231,36.148382 27.0890669,35.8243459 27.5171551,35.8471207 C27.9450972,35.8700396 28.2733176,36.2311207 28.2502488,36.6537514" id="Fill-10" fill="#00B5AD"></path>
                <path d="M31.6143909,34.9666739 C31.591322,35.3893045 31.2254322,35.7134847 30.7974901,35.6904216 C30.3694019,35.6676468 30.0411815,35.3065658 30.0642504,34.8840793 C30.0874653,34.4613045 30.4532091,34.1372685 30.8812972,34.1600432 C31.3092394,34.1829622 31.6376058,34.5440432 31.6143909,34.9666739" id="Fill-12" fill="#00B5AD"></path>
                <path d="M24.8960788,38.3298595 C24.8730099,38.7524901 24.5071201,39.0765261 24.079178,39.0536072 C23.6510898,39.0308324 23.3228694,38.6696072 23.3459383,38.2471207 C23.3691532,37.8244901 23.734897,37.5004541 24.1629851,37.5232288 C24.5909273,37.5461477 24.9191477,37.9072288 24.8960788,38.3298595" id="Fill-14" fill="#00B5AD"></path>
                <path d="M28.0424245,40.4500757 C28.0193556,40.8727063 27.6534658,41.1967423 27.2255237,41.1738234 C26.7974355,41.1509045 26.4690691,40.7898234 26.492284,40.3673369 C26.5153529,39.9447063 26.8812427,39.6206703 27.3091848,39.643445 C27.737273,39.666364 28.0654934,40.0273009 28.0424245,40.4500757" id="Fill-16" fill="#00B5AD"></path>
                <path d="M31.4065813,38.7629838 C31.3835124,39.1856144 31.0176226,39.5096505 30.5896804,39.4867315 C30.1615923,39.4639568 29.8333719,39.1027315 29.8564408,38.680245 C29.8796556,38.2576144 30.2453994,37.9335784 30.6734876,37.9563532 C31.1014298,37.9792721 31.4296501,38.3403532 31.4065813,38.7629838" id="Fill-18" fill="#00B5AD"></path>
                <path d="M24.6882545,42.1260252 C24.6651857,42.5488 24.2992959,42.872836 23.8713537,42.8499171 C23.4432656,42.8269982 23.1150452,42.4659171 23.138114,42.0434306 C23.1613289,41.6208 23.5270727,41.2966198 23.9550149,41.3195387 C24.383103,41.3423135 24.7113234,41.7033946 24.6882545,42.1260252" id="Fill-20" fill="#00B5AD"></path>
                <path d="M27.8345711,44.2462414 C27.8115022,44.6688721 27.4456124,44.9930523 27.0176702,44.9699892 C26.5895821,44.9472144 26.2613617,44.5861333 26.2844306,44.1636468 C26.3076455,43.7410162 26.6733893,43.416836 27.1014774,43.439755 C27.5294196,43.4625297 27.8576399,43.8236108 27.8345711,44.2462414" id="Fill-22" fill="#00B5AD"></path>
                <path d="M31.198757,42.559164 C31.1756882,42.9819387 30.8097983,43.3059748 30.3818562,43.2830559 C29.953768,43.2601369 29.6254017,42.8990559 29.6486165,42.4765694 C29.6718314,42.0539387 30.0375752,41.7297586 30.4655174,41.7526775 C30.8936055,41.7754523 31.2218259,42.1365333 31.198757,42.559164" id="Fill-24" fill="#00B5AD"></path>
                <path d="M24.4804011,45.9223351 C24.4573322,46.3449658 24.0914424,46.6690018 23.6635003,46.6460829 C23.2354121,46.6233081 22.9071917,46.262227 22.9302606,45.8395964 C22.9534755,45.4169658 23.3192193,45.0929297 23.7473074,45.1157045 C24.1752496,45.1386234 24.50347,45.4997045 24.4804011,45.9223351" id="Fill-26" fill="#00B5AD"></path>
                <polygon id="Stroke-28" stroke="#00B5AD" stroke-width="1.44144144" stroke-linecap="round" stroke-linejoin="round" points="46.5425636 52.9352937 60.1758281 46.1103568 47.3670567 37.8746811 33.6650237 44.6239423"></polygon>
                <polyline id="Stroke-30" stroke="#00B5AD" stroke-width="1.44144144" stroke-linecap="round" stroke-linejoin="round" points="47.3670567 37.8746234 48.1994342 22.6705874 34.493459 29.4916324 33.6650237 44.6238847"></polyline>
                <g id="Group-34" transform="translate(52.969697, 26.268613)">
                    <mask id="mask-2" fill="white">
                        <use xlink:href="#path-1"></use>
                    </mask>
                    <g id="Clip-33"></g>
                    <polygon id="Fill-32" fill="#00B5AD" mask="url(#mask-2)" points="7.54898127 13.3982414 8.01707493 4.84804324 0.584664463 0.00451171171 0.128105234 8.61092613"></polygon>
                </g>
                <path d="M53.3611961,49.4869477 L40.4969427,41.2576144" id="Stroke-35" stroke="#00B5AD" stroke-width="1.44144144" stroke-linecap="round" stroke-linejoin="round"></path>
                <path d="M50.0461994,51.172627 L37.1305521,42.9133117" id="Stroke-37" stroke="#00B5AD" stroke-width="1.44144144" stroke-linecap="round" stroke-linejoin="round"></path>
                <path d="M56.7158625,47.8237982 L43.8556972,39.6077261" id="Stroke-39" stroke="#00B5AD" stroke-width="1.44144144" stroke-linecap="round" stroke-linejoin="round"></path>
                <path d="M39.9256523,37.4257153 C39.9487212,37.0030847 40.314611,36.6789045 40.7425532,36.7019676 C41.1706413,36.7247423 41.4988617,37.0858234 41.4757928,37.5083099 C41.452578,37.9309405 41.0868342,38.2551207 40.658746,38.2322018 C40.2308039,38.209427 39.9025835,37.8483459 39.9256523,37.4257153" id="Fill-41" fill="#00B5AD"></path>
                <path d="M36.5615102,39.1127928 C36.5845791,38.690018 36.9504689,38.365982 37.378411,38.3889009 C37.8064992,38.4118198 38.1347196,38.7729009 38.1116507,39.1953874 C38.0884358,39.618018 37.722692,39.9421982 37.2946039,39.9192793 C36.8666617,39.8965045 36.5382953,39.5354234 36.5615102,39.1127928" id="Fill-43" fill="#00B5AD"></path>
                <path d="M43.2798223,35.7496216 C43.3028912,35.326991 43.668781,35.002955 44.0967231,35.0258739 C44.5248113,35.0486486 44.8530317,35.4097297 44.8299628,35.8323604 C44.8067479,36.254991 44.4410041,36.579027 44.012916,36.5562523 C43.5849738,36.5333333 43.2567534,36.1722523 43.2798223,35.7496216" id="Fill-45" fill="#00B5AD"></path>
                <path d="M40.1334766,33.6294054 C40.1565455,33.2067748 40.5224353,32.8827387 40.9503774,32.9056577 C41.3784656,32.9284324 41.706832,33.2895135 41.6836171,33.7121441 C41.6604022,34.1347748 41.2946584,34.4588108 40.8667163,34.436036 C40.4386281,34.4131171 40.1104077,34.052036 40.1334766,33.6294054" id="Fill-47" fill="#00B5AD"></path>
                <path d="M36.7693198,35.3164829 C36.7923887,34.8938523 37.1582785,34.5698162 37.5862207,34.5927351 C38.0143088,34.6155099 38.3425292,34.976591 38.3194603,35.3992216 C38.2962455,35.8218523 37.9305017,36.1458883 37.5024135,36.1231135 C37.0744713,36.1001946 36.746251,35.7391135 36.7693198,35.3164829" id="Fill-49" fill="#00B5AD"></path>
                <path d="M43.4876466,31.9533117 C43.5107154,31.5306811 43.8766052,31.206645 44.3045474,31.229564 C44.7326355,31.2523387 45.0608559,31.613564 45.0377871,32.0360505 C45.0145722,32.4586811 44.6488284,32.7827171 44.2208862,32.7599423 C43.7927981,32.7370234 43.4645777,32.3759423 43.4876466,31.9533117" id="Fill-51" fill="#00B5AD"></path>
                <path d="M40.34133,29.8330955 C40.3643989,29.4104649 40.7302887,29.0864288 41.1582309,29.1093477 C41.586319,29.1322667 41.9145394,29.4933477 41.8914705,29.9158342 C41.8682556,30.3384649 41.5025118,30.6625009 41.0744237,30.6397261 C40.6464815,30.6168072 40.3182612,30.2558703 40.34133,29.8330955" id="Fill-53" fill="#00B5AD"></path>
                <path d="M36.9771441,31.520173 C37.0002129,31.0975423 37.3661028,30.7735063 37.7940449,30.7964252 C38.2221331,30.8192 38.5504994,31.1804252 38.5272846,31.6029117 C38.5040697,32.0255423 38.1383259,32.3495784 37.7103837,32.3268036 C37.2822956,32.3038847 36.9540752,31.9428036 36.9771441,31.520173" id="Fill-55" fill="#00B5AD"></path>
                <path d="M43.6955,28.1571315 C43.7185689,27.7343568 44.0844587,27.4103207 44.5124008,27.4333838 C44.940489,27.4561586 45.2687094,27.8172396 45.2456405,28.2397261 C45.2224256,28.6623568 44.8566818,28.9865369 44.4285937,28.963618 C44.0006515,28.9408432 43.6722851,28.5797622 43.6955,28.1571315" id="Fill-57" fill="#00B5AD"></path>
            </g>
        </g>
    </g>
</svg>