<?xml version="1.0" encoding="utf-8"?>
<!-- Generator: Adobe Illustrator 19.2.0, SVG Export Plug-In . SVG Version: 6.00 Build 0)  -->
<svg version="1.1" id="Layer_1" xmlns="http://www.w3.org/2000/svg" xmlns:xlink="http://www.w3.org/1999/xlink" x="0px" y="0px"
	 viewBox="0 0 248.2 248" style="enable-background:new 0 0 248.2 248;" xml:space="preserve">
<style type="text/css">
	.st0{fill:#00B5AD;}
</style>
<title>040816_COLOR_LOGOS</title>
<polygon class="st0" points="154,137.6 144.3,101.1 139.6,101.1 129.9,137.6 120.4,101.1 114.6,101.1 126.8,147.1 132.1,147.1 
	141.9,111.2 151.6,147.1 157,147.1 169.2,101.1 163.5,101.1 "/>
<path class="st0" d="M102.4,123.3c3.6-1.1,6.7-4.5,6.7-9.9c0-7.9-5.7-12.2-15.2-12.2H78.9v45.9h16.7c9.4,0,15.3-4.6,15.3-12.9
	C110.8,129,107.4,124.5,102.4,123.3z M95.4,141.9H84.6V126l0,0v-4.9l0,0v-14.8H94c6.1,0,9.5,2.3,9.5,7.3s-3.4,7.5-9.5,7.5h-4v4.9
	h5.5c6.2,0,9.5,3.1,9.5,7.9S101.7,141.9,95.4,141.9L95.4,141.9z"/>
<path class="st0" d="M47.7,93.2c-17.3,42.4,3.1,90.7,45.4,108s90.7-3.1,108-45.4s-3.1-90.7-45.4-108c-27-11-57.8-7-81.1,10.5
	c-5.5-3.8-13.1-2.5-16.9,3c-3.8,5.5-2.5,13.1,3,16.9c5.5,3.8,13.1,2.5,16.9-3c2.6-3.7,2.9-8.6,0.8-12.6
	c13.2-9.9,29.3-15.3,45.8-15.3c42.3,0,76.6,34.4,76.6,76.7s-34.4,76.6-76.7,76.6c-42.3,0-76.6-34.4-76.6-76.7
	c0-9.8,1.9-19.5,5.6-28.6L47.7,93.2z M68,74.1c-3.3,0-6-2.7-6-6s2.7-6,6-6s6,2.7,6,6C73.9,71.4,71.3,74.1,68,74.1z"/>
<path class="st0" d="M5.7,124.1c0-65.4,53-118.4,118.3-118.4c38.4,0,74.4,18.6,96.6,49.9c-4.7,4.9-4.5,12.6,0.3,17.3
	c4.9,4.7,12.6,4.5,17.3-0.3c4.7-4.9,4.5-12.6-0.3-17.3c-3.3-3.2-8.1-4.3-12.4-2.8c-39.6-56-117-69.2-173-29.7
	c-42.4,30-61.6,83.1-48.3,133.3l5.5-1.5C7.1,144.6,5.7,134.4,5.7,124.1z M235.2,63.5c0,3.3-2.7,6-6,6s-6-2.7-6-6c0-3.3,2.7-6,6-6
	C232.5,57.6,235.2,60.2,235.2,63.5z"/>
<path class="st0" d="M244,91.8l-5.5,1.5c17,63.1-20.4,128.1-83.5,145.1c-47.8,12.9-98.6-5.4-127.3-45.7c4.6-4.9,4.3-12.5-0.6-17.1
	s-12.5-4.3-17.1,0.6s-4.3,12.5,0.6,17.1c3.3,3.1,8.1,4.1,12.3,2.6c39.7,55.9,117.2,69,173.1,29.3C238.3,195.1,257.4,141.9,244,91.8z
	 M13,184.8c0-3.3,2.7-6,6-6s6,2.7,6,6s-2.7,6-6,6C15.7,190.8,13,188.1,13,184.8L13,184.8z"/>
</svg>
