<?xml version="1.0" encoding="UTF-8"?>
<svg width="72px" height="72px" viewBox="0 0 72 72" version="1.1" xmlns="http://www.w3.org/2000/svg" xmlns:xlink="http://www.w3.org/1999/xlink">
    <!-- Generator: Sketch 46.2 (44496) - http://www.bohemiancoding.com/sketch -->
    <title>Artboard</title>
    <desc>Created with Sketch.</desc>
    <defs></defs>
    <g id="Mobile" stroke="none" stroke-width="1" fill="none" fill-rule="evenodd">
        <g id="Artboard">
            <g id="Group" transform="translate(1.000000, 1.000000)">
                <g id="Group-2">
                    <circle id="Oval-2" stroke="#242157" stroke-width="1.5" cx="35" cy="35" r="35"></circle>
                    <g id="Page-1" transform="translate(14.000000, 13.000000)">
                        <polygon id="Stroke-1" stroke="#242157" stroke-width="1.40988044" stroke-linecap="round" stroke-linejoin="round" points="40.5563353 31.1289348 33.1136704 18.3416092 25.6710055 31.1289348 33.0428258 43.9864825"></polygon>
                        <polyline id="Stroke-3" stroke="#242157" stroke-width="1.40988044" stroke-linecap="round" stroke-linejoin="round" points="25.671034 31.1289348 10.6440151 31.1289348 18.08668 43.9864825 33.0428543 43.9864825"></polyline>
                        <polygon id="Fill-6" fill="#242157" points="26.7456098 18.3513105 18.2949033 18.3513105 13.9126392 25.7745445 22.4181152 25.7604437"></polygon>
                        <path d="M36.7995521,24.7352297 L29.3662763,37.5757154" id="Stroke-7" stroke="#242157" stroke-width="1.40988044" stroke-linecap="round" stroke-linejoin="round"></path>
                        <path d="M38.6350528,27.8432048 L31.1747479,40.7347355" id="Stroke-8" stroke="#242157" stroke-width="1.40988044" stroke-linecap="round" stroke-linejoin="round"></path>
                        <path d="M34.984124,21.5878851 L27.5635091,34.4235765" id="Stroke-10" stroke="#242157" stroke-width="1.40988044" stroke-linecap="round" stroke-linejoin="round"></path>
                        <path d="M25.6198779,38.3288964 C25.2022078,38.3288964 24.8636333,37.993156 24.8636333,37.579297 C24.8636333,37.165156 25.2022078,36.8295566 25.6198779,36.8295566 C26.037548,36.8295566 26.3761226,37.165156 26.3761226,37.579297 C26.3761226,37.993156 26.037548,38.3288964 25.6198779,38.3288964" id="Fill-11" fill="#242157"></path>
                        <path d="M27.4593335,41.4840811 C27.0416634,41.4840811 26.7030888,41.1483406 26.7030888,40.7344817 C26.7030888,40.3203407 27.0416634,39.9847412 27.4593335,39.9847412 C27.8770036,39.9847412 28.2155781,40.3203407 28.2155781,40.7344817 C28.2155781,41.1483406 27.8770036,41.4840811 27.4593335,41.4840811" id="Fill-13" fill="#242157"></path>
                        <path d="M23.7917746,35.1826517 C23.3741045,35.1826517 23.03553,34.8470523 23.03553,34.4330523 C23.03553,34.0190523 23.3741045,33.6834529 23.7917746,33.6834529 C24.2094447,33.6834529 24.5480193,34.0190523 24.5480193,34.4330523 C24.5480193,34.8470523 24.2094447,35.1826517 23.7917746,35.1826517" id="Fill-15" fill="#242157"></path>
                        <path d="M21.8678177,38.3288964 C21.4501476,38.3288964 21.1115731,37.993156 21.1115731,37.579297 C21.1115731,37.165156 21.4501476,36.8295566 21.8678177,36.8295566 C22.2854878,36.8295566 22.6240624,37.165156 22.6240624,37.579297 C22.6240624,37.993156 22.2854878,38.3288964 21.8678177,38.3288964" id="Fill-17" fill="#242157"></path>
                        <path d="M23.7072733,41.4840811 C23.2896032,41.4840811 22.9510286,41.1483406 22.9510286,40.7344817 C22.9510286,40.3203407 23.2896032,39.9847412 23.7072733,39.9847412 C24.1249434,39.9847412 24.4635179,40.3203407 24.4635179,40.7344817 C24.4635179,41.1483406 24.1249434,41.4840811 23.7072733,41.4840811" id="Fill-19" fill="#242157"></path>
                        <path d="M20.0397144,35.1826517 C19.6220443,35.1826517 19.2834698,34.8470523 19.2834698,34.4330523 C19.2834698,34.0190523 19.6220443,33.6834529 20.0397144,33.6834529 C20.4573845,33.6834529 20.7959591,34.0190523 20.7959591,34.4330523 C20.7959591,34.8470523 20.4573845,35.1826517 20.0397144,35.1826517" id="Fill-21" fill="#242157"></path>
                        <path d="M18.1157575,38.3288964 C17.6980874,38.3288964 17.3595129,37.993156 17.3595129,37.579297 C17.3595129,37.165156 17.6980874,36.8295566 18.1157575,36.8295566 C18.5334276,36.8295566 18.8720022,37.165156 18.8720022,37.579297 C18.8720022,37.993156 18.5334276,38.3288964 18.1157575,38.3288964" id="Fill-23" fill="#242157"></path>
                        <path d="M19.9552131,41.4840811 C19.537543,41.4840811 19.1989684,41.1483406 19.1989684,40.7344817 C19.1989684,40.3203407 19.537543,39.9847412 19.9552131,39.9847412 C20.3728831,39.9847412 20.7114577,40.3203407 20.7114577,40.7344817 C20.7114577,41.1483406 20.3728831,41.4840811 19.9552131,41.4840811" id="Fill-25" fill="#242157"></path>
                        <path d="M16.2876542,35.1826517 C15.8699841,35.1826517 15.5314096,34.8470523 15.5314096,34.4330523 C15.5314096,34.0190523 15.8699841,33.6834529 16.2876542,33.6834529 C16.7053243,33.6834529 17.0438989,34.0190523 17.0438989,34.4330523 C17.0438989,34.8470523 16.7053243,35.1826517 16.2876542,35.1826517" id="Fill-27" fill="#242157"></path>
                        <polygon id="Stroke-29" stroke="#242157" stroke-width="1.40988044" stroke-linecap="round" stroke-linejoin="round" points="0 12.9985136 7.44266486 25.7858392 14.8853297 12.9985136 7.51350945 0.140965865"></polygon>
                        <polyline id="Stroke-31" stroke="#242157" stroke-width="1.40988044" stroke-linecap="round" stroke-linejoin="round" points="14.885287 12.9985136 29.9123059 12.9985136 22.4696411 0.140965865 7.51346677 0.140965865"></polyline>
                        <polygon id="Fill-33" fill="#242157" points="13.8106686 25.7761379 22.2613751 25.7761379 26.6436391 18.3529039 18.1381632 18.3670047"></polygon>
                        <path d="M3.75678318,19.3922046 L11.190059,6.55171888" id="Stroke-35" stroke="#242157" stroke-width="1.40988044" stroke-linecap="round" stroke-linejoin="round"></path>
                        <path d="M1.92128244,16.2842436 L9.38158732,3.39271291" id="Stroke-37" stroke="#242157" stroke-width="1.40988044" stroke-linecap="round" stroke-linejoin="round"></path>
                        <path d="M5.57219706,22.5394223 L12.9928119,9.70387185" id="Stroke-39" stroke="#242157" stroke-width="1.40988044" stroke-linecap="round" stroke-linejoin="round"></path>
                        <path d="M14.9364431,5.79855196 C15.3541132,5.79855196 15.6926877,6.1342924 15.6926877,6.54815137 C15.6926877,6.96229236 15.3541132,7.2978918 14.9364431,7.2978918 C14.518773,7.2978918 14.1801985,6.96229236 14.1801985,6.54815137 C14.1801985,6.1342924 14.518773,5.79855196 14.9364431,5.79855196" id="Fill-41" fill="#242157"></path>
                        <path d="M13.0969876,2.6433532 C13.5146577,2.6433532 13.8532322,2.97909365 13.8532322,3.39295262 C13.8532322,3.80709361 13.5146577,4.14269305 13.0969876,4.14269305 C12.6793175,4.14269305 12.340743,3.80709361 12.340743,3.39295262 C12.340743,2.97909365 12.6793175,2.6433532 13.0969876,2.6433532" id="Fill-43" fill="#242157"></path>
                        <path d="M16.7645464,8.94479669 C17.1822165,8.94479669 17.520791,9.28039613 17.520791,9.69439611 C17.520791,10.1083961 17.1822165,10.4439955 16.7645464,10.4439955 C16.3468763,10.4439955 16.0083018,10.1083961 16.0083018,9.69439611 C16.0083018,9.28039613 16.3468763,8.94479669 16.7645464,8.94479669" id="Fill-45" fill="#242157"></path>
                        <path d="M18.6885033,5.79855196 C19.1061734,5.79855196 19.4447479,6.1342924 19.4447479,6.54815137 C19.4447479,6.96229236 19.1061734,7.2978918 18.6885033,7.2978918 C18.2708332,7.2978918 17.9322587,6.96229236 17.9322587,6.54815137 C17.9322587,6.1342924 18.2708332,5.79855196 18.6885033,5.79855196" id="Fill-47" fill="#242157"></path>
                        <path d="M16.8490478,2.6433532 C17.2667179,2.6433532 17.6052924,2.97909365 17.6052924,3.39295262 C17.6052924,3.80709361 17.2667179,4.14269305 16.8490478,4.14269305 C16.4313777,4.14269305 16.0928032,3.80709361 16.0928032,3.39295262 C16.0928032,2.97909365 16.4313777,2.6433532 16.8490478,2.6433532" id="Fill-49" fill="#242157"></path>
                        <path d="M20.5166066,8.94479669 C20.9342767,8.94479669 21.2728512,9.28039613 21.2728512,9.69439611 C21.2728512,10.1083961 20.9342767,10.4439955 20.5166066,10.4439955 C20.0989365,10.4439955 19.760362,10.1083961 19.760362,9.69439611 C19.760362,9.28039613 20.0989365,8.94479669 20.5166066,8.94479669" id="Fill-51" fill="#242157"></path>
                        <path d="M22.4405635,5.79855196 C22.8582336,5.79855196 23.1968081,6.1342924 23.1968081,6.54815137 C23.1968081,6.96229236 22.8582336,7.2978918 22.4405635,7.2978918 C22.0228934,7.2978918 21.6843189,6.96229236 21.6843189,6.54815137 C21.6843189,6.1342924 22.0228934,5.79855196 22.4405635,5.79855196" id="Fill-53" fill="#242157"></path>
                        <path d="M20.601108,2.6433532 C21.0187781,2.6433532 21.3573526,2.97909365 21.3573526,3.39295262 C21.3573526,3.80709361 21.0187781,4.14269305 20.601108,4.14269305 C20.1834379,4.14269305 19.8448634,3.80709361 19.8448634,3.39295262 C19.8448634,2.97909365 20.1834379,2.6433532 20.601108,2.6433532" id="Fill-55" fill="#242157"></path>
                        <path d="M24.2686668,8.94479669 C24.6863369,8.94479669 25.0249114,9.28039613 25.0249114,9.69439611 C25.0249114,10.1083961 24.6863369,10.4439955 24.2686668,10.4439955 C23.8509967,10.4439955 23.5124222,10.1083961 23.5124222,9.69439611 C23.5124222,9.28039613 23.8509967,8.94479669 24.2686668,8.94479669" id="Fill-57" fill="#242157"></path>
                    </g>
                </g>
            </g>
        </g>
    </g>
</svg>