<?xml version="1.0" encoding="UTF-8"?>
<svg width="24px" height="24px" viewBox="0 0 24 24" version="1.1" xmlns="http://www.w3.org/2000/svg" xmlns:xlink="http://www.w3.org/1999/xlink">
    <!-- Generator: Sketch 46.2 (44496) - http://www.bohemiancoding.com/sketch -->
    <title>Artboard 3</title>
    <desc>Created with Sketch.</desc>
    <defs></defs>
    <g id="Mobile" stroke="none" stroke-width="1" fill="none" fill-rule="evenodd">
        <g id="Artboard-3" fill-rule="nonzero" fill="#F9F9F9">
            <g id="facebook-copy">
                <path d="M11.9701863,0 C5.3515528,0 0,5.3515528 0,11.9701863 C0,18.5888199 5.3515528,23.9403727 11.9701863,23.9403727 C18.5888199,23.9403727 23.9403727,18.5888199 23.9403727,11.9701863 L23.9403727,11.9701863 C23.9254658,5.36645963 18.573913,0 11.9701863,0 Z M14.9515528,12.3875776 L12.9987578,12.3875776 L12.9987578,19.3192547 L10.1068323,19.3192547 L10.1068323,12.3875776 L8.73540373,12.3875776 L8.73540373,9.92795031 L10.1068323,9.92795031 L10.1068323,8.34782609 C10.1068323,7.21490683 10.6434783,5.44099379 13.0136646,5.44099379 L15.1453416,5.45590062 L15.1453416,7.84099379 L13.6099379,7.84099379 C13.3565217,7.84099379 12.9987578,7.97515528 12.9987578,8.51180124 L12.9987578,9.95776398 L15.1900621,9.95776398 L14.9515528,12.3875776 Z" id="Shape"></path>
            </g>
        </g>
    </g>
</svg>