<?xml version="1.0" encoding="utf-8"?>
<!-- Generator: Adobe Illustrator 21.0.2, SVG Export Plug-In . SVG Version: 6.00 Build 0)  -->
<svg version="1.1" id="Layer_1" xmlns="http://www.w3.org/2000/svg" xmlns:xlink="http://www.w3.org/1999/xlink" x="0px" y="0px"
	 viewBox="0 0 400 400" style="enable-background:new 0 0 400 400;" xml:space="preserve">
<style type="text/css">
	.st0{fill:#00B5AD;}
	.st1{fill:#EF413D;}
	.st2{fill:#FFD400;}
	.st3{fill:#FFFFFF;}
</style>
<g id="XMLID_781_">
	<g id="XMLID_816_">
		<path id="XMLID_820_" class="st0" d="M44.9,200.3c0-85.7,69.7-155.4,155.4-155.4c50.4,0,97.5,24.4,126.6,65.4
			c-2.6,2.8-4.2,6.4-4.2,10.5c0,8.5,6.9,15.4,15.4,15.4s15.4-6.9,15.4-15.4s-6.9-15.4-15.4-15.4c-1.7,0-3.3,0.3-4.9,0.9
			c-30.6-43.2-80-68.9-133-68.9c-89.8,0-162.9,73.1-162.9,162.9c0,14.2,1.8,28.4,5.5,42l7.2-1.9C46.7,227.4,44.9,213.9,44.9,200.3z
			 M346.1,120.9c0,4.4-3.6,7.9-7.9,7.9s-7.9-3.6-7.9-7.9s3.6-7.9,7.9-7.9S346.1,116.5,346.1,120.9z"/>
		<path id="XMLID_817_" class="st1" d="M357.6,158l-7.2,1.9c3.5,13.1,5.3,26.7,5.3,40.4c0,85.7-69.7,155.4-155.4,155.4
			c-50.4,0-97.3-24.4-126.5-65.3c2.5-2.7,4.1-6.4,4.1-10.4c0-8.5-6.9-15.4-15.4-15.4s-15.4,6.9-15.4,15.4s6.9,15.4,15.4,15.4
			c1.8,0,3.5-0.4,5.1-0.9c30.6,43,79.9,68.7,132.8,68.7c89.8,0,162.9-73.1,162.9-162.9C363.2,186,361.3,171.7,357.6,158z M54.5,280
			c0-4.4,3.6-7.9,7.9-7.9s7.9,3.6,7.9,7.9s-3.6,7.9-7.9,7.9S54.5,284.4,54.5,280z"/>
	</g>
	<g id="XMLID_811_">
		<path id="XMLID_813_" class="st2" d="M275.4,134.7c6.6,7.7,12,16.3,16,25.5h8c-4.4-11-10.5-21.2-18.4-30.3
			c-20.6-23.9-50.4-37.6-81.9-37.6c-23.7,0-46,7.5-64.8,21.7c-2.5-1.7-5.5-2.8-8.8-2.8c-8.5,0-15.4,6.9-15.4,15.4S117,142,125.5,142
			s15.5-7,15.5-15.4c0-2.5-0.7-4.9-1.7-7c17.4-13,38.1-19.9,59.9-19.9C228.5,99.7,256.3,112.4,275.4,134.7z M125.6,134.5
			c-4.4,0-8-3.6-8-8c0-4.4,3.6-8,8-8s8,3.6,8,8C133.6,131,130,134.5,125.6,134.5z"/>
		<path id="XMLID_812_" class="st2" d="M204.9,308.3c42.6,0,79.5-24.8,97-60.7h-8.3c-17,31.7-50.4,53.3-88.7,53.3
			c-38.4,0-71.9-21.5-88.8-53.3h-8.3C125.3,283.7,162.3,308.3,204.9,308.3z"/>
	</g>
	<polygon id="XMLID_810_" class="st3" points="178.4,220.5 165.6,172.6 159.4,172.6 146.7,220.5 134.3,172.6 126.7,172.6 
		142.7,232.8 149.6,232.8 162.5,185.8 175.2,232.8 182.2,232.8 198.2,172.6 190.8,172.6 	"/>
	<path id="XMLID_807_" class="st3" d="M114.7,201.6c4.7-1.5,8.8-5.9,8.8-13.1c0-10.4-7.5-16-19.9-16H83.8v60.3h21.8
		c12.4,0,20-6,20-17C125.6,209.1,121.2,203.3,114.7,201.6z M105.6,226.1H91.3v-20.8l0,0v-6.5l0,0v-19.4h12.3c8.1,0,12.5,3,12.5,9.6
		s-4.4,9.8-12.5,9.8h-5.2v6.5h7.2c8.1,0,12.5,4,12.5,10.4C118,221.9,113.7,226.1,105.6,226.1z"/>
	<path id="XMLID_805_" class="st3" d="M264.4,232.6H257v-49.9l-14.6,7.5v-7.7l17.5-8.9h4.5V232.6z"/>
	<path id="XMLID_786_" class="st3" d="M300.3,180.2c0.5,0.2,1,0.5,1.4,0.8s0.9,0.6,1.3,0.9c0.4,0.3,0.8,0.7,1.2,1.1
		c0.4,0.4,0.7,0.8,1.1,1.3c0.3,0.5,0.7,1,1,1.5s0.6,1.1,0.9,1.6c0.3,0.6,0.5,1.2,0.8,1.8s0.4,1.3,0.6,1.9s0.4,1.4,0.5,2.1
		s0.3,1.4,0.4,2.2s0.2,1.5,0.3,2.3c0.1,0.8,0.1,1.6,0.2,2.4c0,0.8,0.1,1.7,0.1,2.5c0,0.9,0,1.7-0.1,2.5c0,0.8-0.1,1.6-0.2,2.4
		c-0.1,0.8-0.2,1.6-0.3,2.3c-0.1,0.8-0.3,1.5-0.4,2.2s-0.3,1.4-0.5,2.1c-0.2,0.7-0.4,1.3-0.6,1.9s-0.5,1.2-0.8,1.8s-0.6,1.1-0.9,1.6
		s-0.6,1-1,1.5c-0.3,0.5-0.7,0.9-1.1,1.3c-0.4,0.4-0.8,0.8-1.2,1.1c-0.4,0.3-0.9,0.7-1.3,0.9c-0.5,0.3-0.9,0.5-1.4,0.8
		c-0.5,0.2-1,0.4-1.5,0.5s-1.1,0.3-1.6,0.3c-0.6,0.1-1.1,0.1-1.7,0.1s-1.2,0-1.7-0.1c-0.6-0.1-1.1-0.2-1.6-0.3s-1-0.3-1.5-0.5
		s-1-0.5-1.4-0.8c-0.5-0.3-0.9-0.6-1.3-0.9c-0.4-0.3-0.8-0.7-1.2-1.1c-0.4-0.4-0.7-0.8-1.1-1.3c-0.3-0.5-0.7-1-1-1.5
		s-0.6-1.1-0.9-1.6c-0.3-0.6-0.5-1.2-0.7-1.8s-0.4-1.3-0.6-1.9c-0.2-0.7-0.4-1.4-0.5-2.1c-0.2-0.7-0.3-1.4-0.4-2.2s-0.2-1.5-0.3-2.3
		c-0.1-0.8-0.1-1.6-0.2-2.4c0-0.8-0.1-1.7-0.1-2.5c0-0.9,0-1.7,0.1-2.5s0.1-1.6,0.2-2.4c0.1-0.8,0.2-1.6,0.3-2.3s0.3-1.5,0.4-2.2
		c0.2-0.7,0.3-1.4,0.5-2.1c0.2-0.7,0.4-1.3,0.6-1.9s0.5-1.2,0.7-1.8c0.3-0.6,0.6-1.1,0.9-1.6s0.6-1,1-1.5c0.3-0.5,0.7-0.9,1.1-1.3
		c0.4-0.4,0.8-0.8,1.2-1.1c0.4-0.3,0.9-0.7,1.3-0.9c0.5-0.3,0.9-0.5,1.4-0.8c0.3-0.1-0.2,0,0.1-0.1c-0.4-2.4-0.8-4.6-1-6.8
		c-0.3,0.1,0.1,0.1-0.2,0.1c-0.8,0.2-0.3,0-1,0.3s-1.4,0.6-2.1,1s-1.3,0.8-1.9,1.2s-1.2,0.9-1.8,1.4c-0.6,0.5-1.1,1.1-1.7,1.7
		c-0.5,0.6-1,1.2-1.5,1.9s-0.9,1.4-1.4,2.1c-0.4,0.7-0.8,1.5-1.2,2.3c-0.4,0.8-0.7,1.6-1,2.5s-0.6,1.8-0.9,2.7s-0.5,1.9-0.7,2.8
		c-0.2,1-0.4,2-0.5,3s-0.2,2.1-0.3,3.2c-0.1,1.1-0.1,2.2-0.1,3.3s0,2.2,0.1,3.3s0.2,2.1,0.3,3.2s0.3,2,0.5,3s0.4,1.9,0.7,2.8
		c0.3,0.9,0.5,1.8,0.9,2.7c0.3,0.9,0.7,1.7,1,2.5c0.4,0.8,0.8,1.6,1.2,2.3c0.4,0.7,0.9,1.4,1.4,2.1s1,1.3,1.5,1.9
		c0.5,0.6,1.1,1.2,1.7,1.7s1.2,1,1.8,1.4s1.3,0.8,1.9,1.2c0.7,0.4,1.4,0.7,2.1,1s1.4,0.5,2.2,0.7c0.8,0.2,1.5,0.3,2.3,0.4
		c0.8,0.1,1.6,0.1,2.4,0.1s1.6,0,2.4-0.1s1.6-0.2,2.3-0.4c0.8-0.2,1.5-0.4,2.2-0.7s1.4-0.6,2.1-1s1.3-0.8,1.9-1.2s1.2-0.9,1.8-1.4
		c0.6-0.5,1.1-1.1,1.7-1.7s1-1.2,1.5-1.9s0.9-1.4,1.4-2.1c0.4-0.7,0.8-1.5,1.2-2.3c0.4-0.8,0.7-1.6,1-2.5s0.6-1.8,0.9-2.7
		s0.5-1.9,0.7-2.8c0.2-1,0.4-2,0.5-3s0.2-2.1,0.3-3.2c0.1-1.1,0.1-2.2,0.1-3.3s0-2.2-0.1-3.3s-0.2-2.1-0.3-3.2c-0.1-1-0.3-2-0.5-3
		s-0.4-1.9-0.7-2.8c-0.3-0.9-0.5-1.8-0.9-2.7c-0.3-0.9-0.7-1.7-1-2.5c-0.4-0.8-0.8-1.6-1.2-2.3c-0.4-0.7-0.9-1.4-1.4-2.1
		s-1-1.3-1.5-1.9s-1.1-1.2-1.7-1.7s-1.2-1-1.8-1.4c-0.6-0.4-1.3-0.8-1.9-1.2c-0.7-0.4-1.4-0.7-2.1-1"/>
	<path id="XMLID_782_" class="st3" d="M221.7,210.7l15.8,22.1h-8.2l-11.8-16.6l-11.9,16.6h-7.8l15.7-21.8l-14.9-20.8h8.3l10.8,15.3
		l11-15.3h7.9L221.7,210.7z"/>
</g>
</svg>
