<?xml version="1.0" encoding="utf-8"?>
<!-- Generator: Adobe Illustrator 19.0.0, SVG Export Plug-In . SVG Version: 6.00 Build 0)  -->
<svg version="1.1" id="Layer_1" xmlns="http://www.w3.org/2000/svg" xmlns:xlink="http://www.w3.org/1999/xlink" x="0px" y="0px"
	 viewBox="0 0 711.1 503.2" style="enable-background:new 0 0 711.1 503.2;" xml:space="preserve">
<style type="text/css">
	.st0{clip-path:url(#XMLID_101_);fill:none;stroke:#241F59;stroke-width:4.25;stroke-miterlimit:8.5;}
	.st1{fill:#FFFFFF;}
	.st2{font-family:'Calibre-Semibold';}
	.st3{font-size:195.5px;}
	.st4{fill:none;stroke:#241F59;stroke-width:4.25;stroke-miterlimit:8.5;}
	.st5{clip-path:url(#XMLID_102_);fill:none;stroke:#241F59;stroke-width:4.25;stroke-miterlimit:8.5;}
	.st6{letter-spacing:-5;}
	.st7{clip-path:url(#XMLID_103_);fill:none;stroke:#241F59;stroke-width:4.25;stroke-miterlimit:8.5;}
	.st8{fill:none;stroke:#241F59;stroke-width:5;stroke-miterlimit:10;}
	.st9{font-size:375px;}
</style>
<g id="XMLID_34_">
	<defs>
		<rect id="XMLID_35_" x="-36.7" y="-44.1" width="927.3" height="550.1"/>
	</defs>
	<clipPath id="XMLID_101_">
		<use xlink:href="#XMLID_35_"  style="overflow:visible;"/>
	</clipPath>
	<path id="XMLID_45_" class="st0" d="M187.4,91.3h23.7c11.7,0,18,5.7,18,15.1c0,9.2-6.3,15.1-18,15.1h-23.7V91.3z M187.4,71.7V43.6
		h20.3c11.9,0,18.2,4.3,18.2,13.9c0,9.6-6.3,14.3-18.2,14.3H187.4z M234,80.5c8.8-3.1,15.8-12.5,15.8-25.4
		c0-21.5-15.4-32.6-40.5-32.6h-45.9v120h49.9c25,0,40.3-11.9,40.3-34C253.5,95.4,245.3,84.3,234,80.5z"/>
	<path id="XMLID_42_" class="st0" d="M307.3,72.9c10,0,15.4,7.2,15.6,16.4h-33.8C291.2,78.6,297.9,72.9,307.3,72.9z M323.7,114
		c-2,7.4-8,10.9-16.2,10.9c-10.8,0-18.2-7.8-19-20.9h58.3v-7.4c0-25.6-14.1-43.4-39.7-43.4c-24.4,0-42,19.4-42,45.7
		c0,27,17,45.6,42.4,45.6c21.9,0,35.6-11.9,38.7-30.5H323.7z"/>
	<path id="XMLID_41_" class="st0" d="M367.5,116.1c0,19.4,11.1,28.2,28.9,28.2c6.5,0,12.3-1,15.6-2.7V120c-2.7,1.8-6.8,2.9-10.6,2.9
		c-6.3,0-10-3.1-10-10V74.7h19.2V55.1h-19.2V31.5h-24v23.7h-13.3v19.5h13.3V116.1z"/>
	<path id="XMLID_40_" class="st0" d="M434.9,116.1c0,19.4,11.1,28.2,28.9,28.2c6.5,0,12.3-1,15.6-2.7V120c-2.7,1.8-6.8,2.9-10.6,2.9
		c-6.3,0-10-3.1-10-10V74.7h19.2V55.1H459V31.5h-24v23.7h-13.3v19.5h13.3V116.1z"/>
	<path id="XMLID_37_" class="st0" d="M533.1,72.9c10,0,15.4,7.2,15.6,16.4h-33.8C517,78.6,523.7,72.9,533.1,72.9z M549.5,114
		c-2,7.4-8,10.9-16.2,10.9c-10.8,0-18.2-7.8-19-20.9h58.3v-7.4c0-25.6-14.1-43.4-39.7-43.4c-24.4,0-42,19.4-42,45.7
		c0,27,17,45.6,42.4,45.6c21.9,0,35.6-11.9,38.7-30.5H549.5z"/>
	<path id="XMLID_36_" class="st0" d="M641,54.7c-1.4-0.8-5.1-1.6-9.2-1.6c-8.6,0-15.8,4.3-19.5,10.6v-8.6H588v87.4h24.2V88.4
		c1.8-8,8.4-12.3,16.6-12.3c4.5,0,8.8,1,12.1,2.9V54.7z"/>
</g>
<text id="XMLID_33_" transform="matrix(1 0 0 1 151.8438 142.5117)"><tspan x="0" y="0" class="st1 st2 st3">Bet</tspan><tspan x="267.2" y="0" class="st1 st2 st3">t</tspan><tspan x="334.1" y="0" class="st1 st2 st3">er</tspan></text>
<polygon id="XMLID_32_" class="st4" points="220.1,177.5 199,258.2 179.4,177.5 154.2,177.5 185.5,297.5 208.3,297.5 229.5,218.3 
	250.6,297.5 273.4,297.5 304.7,177.5 280.1,177.5 260.3,258.2 239.6,177.5 "/>
<g id="XMLID_22_">
	<defs>
		<rect id="XMLID_23_" x="-36.7" y="-44.1" width="927.3" height="550.1"/>
	</defs>
	<clipPath id="XMLID_102_">
		<use xlink:href="#XMLID_23_"  style="overflow:visible;"/>
	</clipPath>
	<path id="XMLID_29_" class="st5" d="M368.3,253.9c0,14.5-6.6,25-18.8,25c-12.1,0-18.8-10.6-18.8-25c0-14.7,6.6-25.2,18.8-25.2
		C361.6,228.7,368.3,239.3,368.3,253.9z M392.3,253.9c0-27-17.4-45.7-42.8-45.7c-25.4,0-42.8,18.8-42.8,45.7
		c0,26.8,17.4,45.6,42.8,45.6C374.9,299.5,392.3,280.7,392.3,253.9z"/>
	<path id="XMLID_28_" class="st5" d="M460.7,209.7c-1.4-0.8-5.1-1.6-9.2-1.6c-8.6,0-15.8,4.3-19.5,10.6v-8.6h-24.2v87.4H432v-54.2
		c1.8-8,8.4-12.3,16.6-12.3c4.5,0,8.8,1,12.1,2.9V209.7z"/>
	<rect id="XMLID_27_" x="476.4" y="170.4" class="st5" width="24.2" height="127.1"/>
	<path id="XMLID_24_" class="st5" d="M577.8,268.2c-2.7,6.1-9.2,10.2-16.4,10.2c-13.1,0-20.9-10.6-20.9-24.4
		c0-14.1,7.8-24.6,20.9-24.6c7,0,13.7,4.3,16.4,10.2V268.2z M577.8,297.5h24.4V170.4h-24.4v46.9c-3.9-4.7-12.5-9.2-21.9-9.2
		c-25.4,0-39.7,20.7-39.7,45.7c0,25,14.3,45.6,39.7,45.6c9.4,0,18-4.5,21.9-9.2V297.5z"/>
</g>
<text id="XMLID_21_" transform="matrix(1 0 0 1 151.8438 297.5117)"><tspan x="0" y="0" class="st1 st2 st3 st6">W</tspan><tspan x="149.9" y="0" class="st1 st2 st3">orld </tspan></text>
<g id="XMLID_5_">
	<defs>
		<rect id="XMLID_6_" x="-36.7" y="-44.1" width="927.3" height="550.1"/>
	</defs>
	<clipPath id="XMLID_103_">
		<use xlink:href="#XMLID_6_"  style="overflow:visible;"/>
	</clipPath>
	<path id="XMLID_18_" class="st7" d="M163.4,452.5h42.4c36.4,0,59.2-23.5,59.2-60s-22.9-60-59.2-60h-42.4V452.5z M188.2,430.4v-76
		h16.6c22.9,0,35.4,14.7,35.4,38.1c0,23.3-12.5,37.9-35.4,37.9H188.2z"/>
	<path id="XMLID_15_" class="st7" d="M319,382.9c10,0,15.4,7.2,15.6,16.4h-33.8C303,388.6,309.6,382.9,319,382.9z M335.4,424
		c-2,7.4-8,10.9-16.2,10.9c-10.8,0-18.2-7.8-19-20.9h58.3v-7.4c0-25.6-14.1-43.4-39.7-43.4c-24.4,0-42,19.4-42,45.7
		c0,27,17,45.6,42.4,45.6c21.9,0,35.6-11.9,38.7-30.5H335.4z"/>
	<path id="XMLID_14_" class="st7" d="M368.5,426.5c2.5,17.8,17.6,28,38.9,28c20.3,0,35.8-10.6,35.8-28.3c0-13.3-8-21.7-23.3-25.4
		l-18-4.1c-5.5-1.4-7.8-3.3-7.8-6.8c0-5.5,5.7-8.2,11.5-8.2c8,0,12.1,3.7,13.7,8.6h23.1c-2.9-16.4-15.1-27-37.1-27
		c-19.6,0-34.8,11.3-34.8,28.3c0,14.7,9.4,21.5,22.7,24.6l17.6,3.9c6.1,1.6,8.8,3.5,8.8,7.4c0,5.7-4.9,8.6-12.3,8.6
		c-7.2,0-12.7-3.3-14.7-9.6H368.5z"/>
	<path id="XMLID_11_" class="st7" d="M485.9,339.9c0-8-6.6-13.9-14.3-13.9c-7.8,0-14.5,5.9-14.5,13.9c0,8.2,6.6,13.9,14.5,13.9
		C479.3,353.8,485.9,348.1,485.9,339.9z M483.8,365.1h-24.2v87.4h24.2V365.1z"/>
	<path id="XMLID_8_" class="st7" d="M560.6,421c-2.9,5.1-9.2,9.2-16.4,9.2c-12.9,0-20.5-9.8-20.5-23.5c0-13.5,7.6-23.3,20.5-23.3
		c7.2,0,13.5,4.1,16.4,9V421z M560.6,446.6c0,14.1-6.5,21.3-18.8,21.3c-9.4,0-15.2-4.1-17.2-12.3h-23.5c2.5,19.5,18,31.1,40.7,31.1
		c24.6,0,42.8-13.9,42.8-43.8v-77.8h-24v6.8c-3.9-4.5-11.9-8.8-21.5-8.8c-25.2,0-39.7,20.3-39.7,43.6c0,23.5,14.5,43.8,39.7,43.8
		c9.6,0,17.6-4.3,21.5-9V446.6z"/>
	<path id="XMLID_7_" class="st7" d="M605.8,452.5H630v-55.3c2-7.6,8.4-12.1,15.8-12.1c9.6,0,14.3,6.3,14.3,15.4v52h24.2v-57.1
		c0-19.4-11.1-32.3-30.9-32.3c-10.2,0-18.8,4.5-23.5,10v-8h-24.2V452.5z"/>
</g>
<text id="XMLID_4_" transform="matrix(1 0 0 1 151.8438 452.5117)"><tspan x="0" y="0" class="st1 st2 st3">D</tspan><tspan x="119.8" y="0" class="st1 st2 st3">esign</tspan></text>
<polygon id="XMLID_3_" class="st8" points="191.4,241.5 142.7,241.5 109.7,289.1 77.4,241.5 26,241.5 83,323.6 22.7,409.1 
	71.4,409.1 107.8,356.6 143.8,409.1 195.2,409.1 134,322.5 "/>
<text id="XMLID_2_" transform="matrix(1 0 0 1 19.2838 409.0996)" class="st1 st2 st9">x</text>
</svg>
