<?xml version="1.0" encoding="utf-8"?>
<!-- Generator: Adobe Illustrator 19.0.0, SVG Export Plug-In . SVG Version: 6.00 Build 0)  -->
<svg version="1.1" id="Layer_1" xmlns="http://www.w3.org/2000/svg" xmlns:xlink="http://www.w3.org/1999/xlink" x="0px" y="0px"
	 viewBox="-43 149.8 711.1 503.2" style="enable-background:new -43 149.8 711.1 503.2;" xml:space="preserve">
<style type="text/css">
	.st0{clip-path:url(#SVGID_2_);fill:none;stroke:#241F59;stroke-width:4.25;stroke-miterlimit:8.5;}
	.st1{clip-path:url(#SVGID_4_);fill:none;stroke:#241F59;stroke-width:4.25;stroke-miterlimit:8.5;}
	.st2{clip-path:url(#SVGID_6_);fill:none;stroke:#241F59;stroke-width:4.25;stroke-miterlimit:8.5;}
	.st3{clip-path:url(#SVGID_8_);fill:none;stroke:#241F59;stroke-width:4.25;stroke-miterlimit:8.5;}
	.st4{clip-path:url(#SVGID_10_);fill:none;stroke:#241F59;stroke-width:4.25;stroke-miterlimit:8.5;}
	.st5{clip-path:url(#SVGID_12_);fill:none;stroke:#241F59;stroke-width:4.25;stroke-miterlimit:8.5;}
	.st6{enable-background:new    ;}
	.st7{fill:#FFFFFF;}
	.st8{fill:none;stroke:#241F59;stroke-width:4.25;stroke-miterlimit:8.5;}
	.st9{clip-path:url(#SVGID_14_);fill:none;stroke:#241F59;stroke-width:4.25;stroke-miterlimit:8.5;}
	.st10{clip-path:url(#SVGID_16_);fill:none;stroke:#241F59;stroke-width:4.25;stroke-miterlimit:8.5;}
	.st11{clip-path:url(#SVGID_18_);fill:none;stroke:#241F59;stroke-width:4.25;stroke-miterlimit:8.5;}
	.st12{clip-path:url(#SVGID_20_);fill:none;stroke:#241F59;stroke-width:4.25;stroke-miterlimit:8.5;}
	.st13{clip-path:url(#SVGID_22_);fill:none;stroke:#241F59;stroke-width:4.25;stroke-miterlimit:8.5;}
	.st14{clip-path:url(#SVGID_24_);fill:none;stroke:#241F59;stroke-width:4.25;stroke-miterlimit:8.5;}
	.st15{clip-path:url(#SVGID_26_);fill:none;stroke:#241F59;stroke-width:4.25;stroke-miterlimit:8.5;}
	.st16{clip-path:url(#SVGID_28_);fill:none;stroke:#241F59;stroke-width:4.25;stroke-miterlimit:8.5;}
	.st17{clip-path:url(#SVGID_30_);fill:none;stroke:#241F59;stroke-width:4.25;stroke-miterlimit:8.5;}
	.st18{clip-path:url(#SVGID_32_);fill:none;stroke:#241F59;stroke-width:4.25;stroke-miterlimit:8.5;}
	.st19{fill:none;stroke:#241F59;stroke-width:5;stroke-miterlimit:10;}
</style>
<g id="XMLID_34_">
	<g>
		<defs>
			<rect id="SVGID_1_" x="-79.7" y="105.7" width="927.3" height="550.1"/>
		</defs>
		<clipPath id="SVGID_2_">
			<use xlink:href="#SVGID_1_"  style="overflow:visible;"/>
		</clipPath>
		<path id="XMLID_45_" class="st0" d="M144.4,241.1h23.7c11.7,0,18,5.7,18,15.1c0,9.2-6.3,15.1-18,15.1h-23.7V241.1z M144.4,221.5
			v-28.1h20.3c11.9,0,18.2,4.3,18.2,13.9s-6.3,14.3-18.2,14.3h-20.3V221.5z M191,230.3c8.8-3.1,15.8-12.5,15.8-25.4
			c0-21.5-15.4-32.6-40.5-32.6h-45.9v120h49.9c25,0,40.3-11.9,40.3-34C210.5,245.2,202.3,234.1,191,230.3z"/>
	</g>
	<g>
		<defs>
			<rect id="SVGID_3_" x="-79.7" y="105.7" width="927.3" height="550.1"/>
		</defs>
		<clipPath id="SVGID_4_">
			<use xlink:href="#SVGID_3_"  style="overflow:visible;"/>
		</clipPath>
		<path id="XMLID_42_" class="st1" d="M264.3,222.7c10,0,15.4,7.2,15.6,16.4h-33.8C248.2,228.4,254.9,222.7,264.3,222.7z
			 M280.7,263.8c-2,7.4-8,10.9-16.2,10.9c-10.8,0-18.2-7.8-19-20.9h58.3v-7.4c0-25.6-14.1-43.4-39.7-43.4c-24.4,0-42,19.4-42,45.7
			c0,27,17,45.6,42.4,45.6c21.9,0,35.6-11.9,38.7-30.5H280.7z"/>
	</g>
	<g>
		<defs>
			<rect id="SVGID_5_" x="-79.7" y="105.7" width="927.3" height="550.1"/>
		</defs>
		<clipPath id="SVGID_6_">
			<use xlink:href="#SVGID_5_"  style="overflow:visible;"/>
		</clipPath>
		<path id="XMLID_41_" class="st2" d="M324.5,265.9c0,19.4,11.1,28.2,28.9,28.2c6.5,0,12.3-1,15.6-2.7v-21.6
			c-2.7,1.8-6.8,2.9-10.6,2.9c-6.3,0-10-3.1-10-10v-38.2h19.2v-19.6h-19.2v-23.6h-24V205h-13.3v19.5h13.3v41.4H324.5z"/>
	</g>
	<g>
		<defs>
			<rect id="SVGID_7_" x="-79.7" y="105.7" width="927.3" height="550.1"/>
		</defs>
		<clipPath id="SVGID_8_">
			<use xlink:href="#SVGID_7_"  style="overflow:visible;"/>
		</clipPath>
		<path id="XMLID_40_" class="st3" d="M391.9,265.9c0,19.4,11.1,28.2,28.9,28.2c6.5,0,12.3-1,15.6-2.7v-21.6
			c-2.7,1.8-6.8,2.9-10.6,2.9c-6.3,0-10-3.1-10-10v-38.2H435v-19.6h-19v-23.6h-24V205h-13.3v19.5H392v41.4H391.9z"/>
	</g>
	<g>
		<defs>
			<rect id="SVGID_9_" x="-79.7" y="105.7" width="927.3" height="550.1"/>
		</defs>
		<clipPath id="SVGID_10_">
			<use xlink:href="#SVGID_9_"  style="overflow:visible;"/>
		</clipPath>
		<path id="XMLID_37_" class="st4" d="M490.1,222.7c10,0,15.4,7.2,15.6,16.4h-33.8C474,228.4,480.7,222.7,490.1,222.7z M506.5,263.8
			c-2,7.4-8,10.9-16.2,10.9c-10.8,0-18.2-7.8-19-20.9h58.3v-7.4c0-25.6-14.1-43.4-39.7-43.4c-24.4,0-42,19.4-42,45.7
			c0,27,17,45.6,42.4,45.6c21.9,0,35.6-11.9,38.7-30.5H506.5z"/>
	</g>
	<g>
		<defs>
			<rect id="SVGID_11_" x="-79.7" y="105.7" width="927.3" height="550.1"/>
		</defs>
		<clipPath id="SVGID_12_">
			<use xlink:href="#SVGID_11_"  style="overflow:visible;"/>
		</clipPath>
		<path id="XMLID_36_" class="st5" d="M598,204.5c-1.4-0.8-5.1-1.6-9.2-1.6c-8.6,0-15.8,4.3-19.5,10.6v-8.6H545v87.4h24.2v-54.1
			c1.8-8,8.4-12.3,16.6-12.3c4.5,0,8.8,1,12.1,2.9v-24.3H598z"/>
	</g>
</g>
<g class="st6">
	<path class="st7" d="M210.5,258.3c0,22.1-15.2,34-40.3,34h-49.9v-120h45.9c25,0,40.5,11.1,40.5,32.6c0,12.9-7,22.3-15.8,25.4
		C202.3,234.1,210.5,245.2,210.5,258.3z M164.8,221.5c11.9,0,18.2-4.7,18.2-14.3c0-9.6-6.3-13.9-18.2-13.9h-20.3v28.2H164.8z
		 M144.4,271.2h23.7c11.7,0,18-5.9,18-15.1c0-9.4-6.3-15.1-18-15.1h-23.7V271.2z"/>
	<path class="st7" d="M303.2,263.8c-3.1,18.6-16.8,30.5-38.7,30.5c-25.4,0-42.4-18.6-42.4-45.6c0-26.4,17.6-45.7,42-45.7
		c25.6,0,39.7,17.8,39.7,43.4v7.4h-58.3c0.8,13.1,8.2,20.9,19,20.9c8.2,0,14.3-3.5,16.2-10.9H303.2z M246.1,239.1h33.8
		c-0.2-9.2-5.7-16.4-15.6-16.4C254.9,222.7,248.2,228.4,246.1,239.1z"/>
	<path class="st7" d="M324.5,224.5h-13.3v-19.5h13.3v-23.7h24v23.7h19.2v19.5h-19.2v38.3c0,6.8,3.7,10,10,10c3.7,0,7.8-1.2,10.6-2.9
		v21.5c-3.3,1.8-9.2,2.7-15.6,2.7c-17.8,0-28.9-8.8-28.9-28.2V224.5z"/>
</g>
<g class="st6">
	<path class="st7" d="M391.9,224.5h-13.3v-19.5h13.3v-23.7h24v23.7h19.2v19.5h-19.2v38.3c0,6.8,3.7,10,10,10c3.7,0,7.8-1.2,10.6-2.9
		v21.5c-3.3,1.8-9.2,2.7-15.6,2.7c-17.8,0-28.9-8.8-28.9-28.2V224.5z"/>
</g>
<g class="st6">
	<path class="st7" d="M529.2,263.8c-3.1,18.6-16.8,30.5-38.7,30.5c-25.4,0-42.4-18.6-42.4-45.6c0-26.4,17.6-45.7,42-45.7
		c25.6,0,39.7,17.8,39.7,43.4v7.4h-58.3c0.8,13.1,8.2,20.9,19,20.9c8.2,0,14.3-3.5,16.2-10.9H529.2z M472.1,239.1h33.8
		c-0.2-9.2-5.7-16.4-15.6-16.4C480.9,222.7,474.2,228.4,472.1,239.1z"/>
	<path class="st7" d="M598.2,228.8c-3.3-2-7.6-2.9-12.1-2.9c-8.2,0-14.9,4.3-16.6,12.3v54.2h-24.2v-87.4h24.2v8.6
		c3.7-6.3,10.9-10.6,19.5-10.6c4.1,0,7.8,0.8,9.2,1.6V228.8z"/>
</g>
<polygon id="XMLID_32_" class="st8" points="177.1,327.3 156,408 136.4,327.3 111.2,327.3 142.5,447.3 165.3,447.3 186.5,368.1 
	207.6,447.3 230.4,447.3 261.7,327.3 237.1,327.3 217.3,408 196.6,327.3 "/>
<g id="XMLID_22_">
	<g>
		<defs>
			<rect id="SVGID_13_" x="-79.7" y="105.7" width="927.3" height="550.1"/>
		</defs>
		<clipPath id="SVGID_14_">
			<use xlink:href="#SVGID_13_"  style="overflow:visible;"/>
		</clipPath>
		<path id="XMLID_29_" class="st9" d="M325.3,403.7c0,14.5-6.6,25-18.8,25c-12.1,0-18.8-10.6-18.8-25c0-14.7,6.6-25.2,18.8-25.2
			C318.6,378.5,325.3,389.1,325.3,403.7z M349.3,403.7c0-27-17.4-45.7-42.8-45.7s-42.8,18.8-42.8,45.7c0,26.8,17.4,45.6,42.8,45.6
			S349.3,430.5,349.3,403.7z"/>
	</g>
	<g>
		<defs>
			<rect id="SVGID_15_" x="-79.7" y="105.7" width="927.3" height="550.1"/>
		</defs>
		<clipPath id="SVGID_16_">
			<use xlink:href="#SVGID_15_"  style="overflow:visible;"/>
		</clipPath>
		<path id="XMLID_28_" class="st10" d="M417.7,359.5c-1.4-0.8-5.1-1.6-9.2-1.6c-8.6,0-15.8,4.3-19.5,10.6v-8.6h-24.2v87.4H389v-54.2
			c1.8-8,8.4-12.3,16.6-12.3c4.5,0,8.8,1,12.1,2.9V359.5z"/>
	</g>
	<g>
		<defs>
			<rect id="SVGID_17_" x="-79.7" y="105.7" width="927.3" height="550.1"/>
		</defs>
		<clipPath id="SVGID_18_">
			<use xlink:href="#SVGID_17_"  style="overflow:visible;"/>
		</clipPath>
		<rect id="XMLID_27_" x="433.4" y="320.2" class="st11" width="24.2" height="127.1"/>
	</g>
	<g>
		<defs>
			<rect id="SVGID_19_" x="-79.7" y="105.7" width="927.3" height="550.1"/>
		</defs>
		<clipPath id="SVGID_20_">
			<use xlink:href="#SVGID_19_"  style="overflow:visible;"/>
		</clipPath>
		<path id="XMLID_24_" class="st12" d="M534.8,418c-2.7,6.1-9.2,10.2-16.4,10.2c-13.1,0-20.9-10.6-20.9-24.4
			c0-14.1,7.8-24.6,20.9-24.6c7,0,13.7,4.3,16.4,10.2V418z M534.8,447.3h24.4V320.2h-24.4v46.9c-3.9-4.7-12.5-9.2-21.9-9.2
			c-25.4,0-39.7,20.7-39.7,45.7s14.3,45.6,39.7,45.6c9.4,0,18-4.5,21.9-9.2V447.3z"/>
	</g>
</g>
<g class="st6">
	<path class="st7" d="M196.6,327.3l20.7,80.7l19.7-80.7h24.6l-31.3,120h-22.9l-21.1-79.2l-21.1,79.2h-22.9l-31.3-120h25.2L156,408
		l21.1-80.7H196.6z"/>
</g>
<g class="st6">
	<path class="st7" d="M306.6,449.3c-25.4,0-42.8-18.8-42.8-45.6c0-27,17.4-45.7,42.8-45.7s42.8,18.8,42.8,45.7
		C349.5,430.5,332.1,449.3,306.6,449.3z M306.6,378.5c-12.1,0-18.8,10.6-18.8,25.2c0,14.5,6.6,25,18.8,25s18.8-10.6,18.8-25
		C325.4,389.1,318.8,378.5,306.6,378.5z"/>
	<path class="st7" d="M417.9,383.8c-3.3-2-7.6-2.9-12.1-2.9c-8.2,0-14.9,4.3-16.6,12.3v54.2h-24.2v-87.4h24.2v8.6
		c3.7-6.3,10.9-10.6,19.5-10.6c4.1,0,7.8,0.8,9.2,1.6V383.8z"/>
	<path class="st7" d="M457.8,447.3h-24.2V320.2h24.2V447.3z"/>
	<path class="st7" d="M535,440.1c-3.9,4.7-12.5,9.2-21.9,9.2c-25.4,0-39.7-20.5-39.7-45.6s14.3-45.7,39.7-45.7
		c9.4,0,18,4.5,21.9,9.2v-46.9h24.4v127.1H535V440.1z M535,389.2c-2.7-5.9-9.4-10.2-16.4-10.2c-13.1,0-20.9,10.6-20.9,24.6
		c0,13.9,7.8,24.4,20.9,24.4c7.2,0,13.7-4.1,16.4-10.2V389.2z"/>
</g>
<g id="XMLID_5_">
	<g>
		<defs>
			<rect id="SVGID_21_" x="-79.7" y="105.7" width="927.3" height="550.1"/>
		</defs>
		<clipPath id="SVGID_22_">
			<use xlink:href="#SVGID_21_"  style="overflow:visible;"/>
		</clipPath>
		<path id="XMLID_18_" class="st13" d="M120.4,602.3h42.4c36.4,0,59.2-23.5,59.2-60s-22.9-60-59.2-60h-42.4V602.3z M145.2,580.2v-76
			h16.6c22.9,0,35.4,14.7,35.4,38.1c0,23.3-12.5,37.9-35.4,37.9H145.2z"/>
	</g>
	<g>
		<defs>
			<rect id="SVGID_23_" x="-79.7" y="105.7" width="927.3" height="550.1"/>
		</defs>
		<clipPath id="SVGID_24_">
			<use xlink:href="#SVGID_23_"  style="overflow:visible;"/>
		</clipPath>
		<path id="XMLID_15_" class="st14" d="M276,532.7c10,0,15.4,7.2,15.6,16.4h-33.8C260,538.4,266.6,532.7,276,532.7z M292.4,573.8
			c-2,7.4-8,10.9-16.2,10.9c-10.8,0-18.2-7.8-19-20.9h58.3v-7.4c0-25.6-14.1-43.4-39.7-43.4c-24.4,0-42,19.4-42,45.7
			c0,27,17,45.6,42.4,45.6c21.9,0,35.6-11.9,38.7-30.5L292.4,573.8L292.4,573.8z"/>
	</g>
	<g>
		<defs>
			<rect id="SVGID_25_" x="-79.7" y="105.7" width="927.3" height="550.1"/>
		</defs>
		<clipPath id="SVGID_26_">
			<use xlink:href="#SVGID_25_"  style="overflow:visible;"/>
		</clipPath>
		<path id="XMLID_14_" class="st15" d="M325.5,576.3c2.5,17.8,17.6,28,38.9,28c20.3,0,35.8-10.6,35.8-28.3c0-13.3-8-21.7-23.3-25.4
			l-18-4.1c-5.5-1.4-7.8-3.3-7.8-6.8c0-5.5,5.7-8.2,11.5-8.2c8,0,12.1,3.7,13.7,8.6h23.1c-2.9-16.4-15.1-27-37.1-27
			c-19.6,0-34.8,11.3-34.8,28.3c0,14.7,9.4,21.5,22.7,24.6l17.6,3.9c6.1,1.6,8.8,3.5,8.8,7.4c0,5.7-4.9,8.6-12.3,8.6
			c-7.2,0-12.7-3.3-14.7-9.6H325.5z"/>
	</g>
	<g>
		<defs>
			<rect id="SVGID_27_" x="-79.7" y="105.7" width="927.3" height="550.1"/>
		</defs>
		<clipPath id="SVGID_28_">
			<use xlink:href="#SVGID_27_"  style="overflow:visible;"/>
		</clipPath>
		<path id="XMLID_11_" class="st16" d="M442.9,489.7c0-8-6.6-13.9-14.3-13.9c-7.8,0-14.5,5.9-14.5,13.9c0,8.2,6.6,13.9,14.5,13.9
			C436.3,503.6,442.9,497.9,442.9,489.7z M440.8,514.9h-24.2v87.4h24.2V514.9z"/>
	</g>
	<g>
		<defs>
			<rect id="SVGID_29_" x="-79.7" y="105.7" width="927.3" height="550.1"/>
		</defs>
		<clipPath id="SVGID_30_">
			<use xlink:href="#SVGID_29_"  style="overflow:visible;"/>
		</clipPath>
		<path id="XMLID_8_" class="st17" d="M517.6,570.8c-2.9,5.1-9.2,9.2-16.4,9.2c-12.9,0-20.5-9.8-20.5-23.5
			c0-13.5,7.6-23.3,20.5-23.3c7.2,0,13.5,4.1,16.4,9V570.8z M517.6,596.4c0,14.1-6.5,21.3-18.8,21.3c-9.4,0-15.2-4.1-17.2-12.3
			h-23.5c2.5,19.5,18,31.1,40.7,31.1c24.6,0,42.8-13.9,42.8-43.8v-77.8h-24v6.8c-3.9-4.5-11.9-8.8-21.5-8.8
			c-25.2,0-39.7,20.3-39.7,43.6c0,23.5,14.5,43.8,39.7,43.8c9.6,0,17.6-4.3,21.5-9V596.4z"/>
	</g>
	<g>
		<defs>
			<rect id="SVGID_31_" x="-79.7" y="105.7" width="927.3" height="550.1"/>
		</defs>
		<clipPath id="SVGID_32_">
			<use xlink:href="#SVGID_31_"  style="overflow:visible;"/>
		</clipPath>
		<path id="XMLID_7_" class="st18" d="M562.8,602.3H587V547c2-7.6,8.4-12.1,15.8-12.1c9.6,0,14.3,6.3,14.3,15.4v52h24.2v-57.1
			c0-19.4-11.1-32.3-30.9-32.3c-10.2,0-18.8,4.5-23.5,10v-8h-24.2v87.4H562.8z"/>
	</g>
</g>
<g class="st6">
	<path class="st7" d="M120.4,482.3h42.4c36.4,0,59.2,23.5,59.2,60c0,36.6-22.9,60-59.2,60h-42.4V482.3z M161.8,580.2
		c22.9,0,35.4-14.7,35.4-37.9c0-23.5-12.5-38.1-35.4-38.1h-16.6v76H161.8z"/>
</g>
<g class="st6">
	<path class="st7" d="M314.9,573.8c-3.1,18.6-16.8,30.5-38.7,30.5c-25.4,0-42.4-18.6-42.4-45.6c0-26.4,17.6-45.7,42-45.7
		c25.6,0,39.7,17.8,39.7,43.4v7.4h-58.3c0.8,13.1,8.2,20.9,19,20.9c8.2,0,14.3-3.5,16.2-10.9H314.9z M257.8,549.1h33.8
		c-0.2-9.2-5.7-16.4-15.6-16.4C266.6,532.7,259.9,538.4,257.8,549.1z"/>
	<path class="st7" d="M349.5,576.3c2,6.3,7.4,9.6,14.7,9.6c7.4,0,12.3-2.9,12.3-8.6c0-3.9-2.7-5.9-8.8-7.4l-17.6-3.9
		c-13.3-3.1-22.7-10-22.7-24.6c0-17,15.2-28.3,34.8-28.3c22.1,0,34.2,10.6,37.1,27h-23.1c-1.6-4.9-5.7-8.6-13.7-8.6
		c-5.9,0-11.5,2.7-11.5,8.2c0,3.5,2.3,5.5,7.8,6.8l18,4.1c15.2,3.7,23.3,12.1,23.3,25.4c0,17.8-15.4,28.3-35.8,28.3
		c-21.3,0-36.4-10.2-38.9-28H349.5z"/>
	<path class="st7" d="M428.6,503.6c-7.8,0-14.5-5.7-14.5-13.9c0-8,6.6-13.9,14.5-13.9c7.6,0,14.3,5.9,14.3,13.9
		C442.9,497.9,436.3,503.6,428.6,503.6z M440.8,602.3h-24.2v-87.4h24.2V602.3z"/>
	<path class="st7" d="M517.6,591.4c-3.9,4.7-11.9,9-21.5,9c-25.2,0-39.7-20.3-39.7-43.8c0-23.3,14.5-43.6,39.7-43.6
		c9.6,0,17.6,4.3,21.5,8.8v-6.8h24v77.8c0,29.9-18.2,43.8-42.8,43.8c-22.7,0-38.1-11.5-40.7-31.1h23.5c2,8.2,7.8,12.3,17.2,12.3
		c12.3,0,18.8-7.2,18.8-21.3V591.4z M517.6,542.3c-2.9-4.9-9.2-9-16.4-9c-12.9,0-20.5,9.8-20.5,23.3c0,13.7,7.6,23.5,20.5,23.5
		c7.2,0,13.5-4.1,16.4-9.2V542.3z"/>
	<path class="st7" d="M562.7,514.9H587v8c4.7-5.5,13.3-10,23.5-10c19.7,0,30.9,12.9,30.9,32.3v57.1h-24.2v-52
		c0-9.2-4.7-15.4-14.3-15.4c-7.4,0-13.9,4.5-15.8,12.1v55.3h-24.2V514.9z"/>
</g>
<polygon id="XMLID_3_" class="st19" points="148.4,391.3 99.7,391.3 66.7,438.9 34.4,391.3 -17,391.3 40,473.4 -20.3,558.9 
	28.4,558.9 64.8,506.4 100.8,558.9 152.2,558.9 91,472.3 "/>
<g class="st6">
	<path class="st7" d="M91,472.3l61.1,86.6h-51.4l-36-52.5l-36.4,52.5h-48.8L40,473.4l-57-82.1h51.4l32.2,47.6l33-47.6h48.8L91,472.3
		z"/>
</g>
</svg>
