<?xml version="1.0" encoding="utf-8"?>
<!-- Generator: Adobe Illustrator 19.2.0, SVG Export Plug-In . SVG Version: 6.00 Build 0)  -->
<svg version="1.1" id="Layer_1" xmlns="http://www.w3.org/2000/svg" xmlns:xlink="http://www.w3.org/1999/xlink" x="0px" y="0px"
	 viewBox="0 0 246.4 246.4" style="enable-background:new 0 0 246.4 246.4;" xml:space="preserve">
<style type="text/css">
	.st0{fill:#FFFFFF;}
	.st1{fill:none;stroke:#00B5AD;stroke-width:4;}
	.st2{fill:#FFFFFF;stroke:#00B5AD;stroke-width:3.99;}
</style>
<g>
	<path class="st0" d="M123.2,246.4h123.2V123.2C246.4,191.3,191.2,246.4,123.2,246.4z"/>
	<path class="st0" d="M123.2,0c68,0,123.2,55.2,123.2,123.2V0H123.2z"/>
	<path class="st0" d="M0,123.2v123.2h123.2C55.2,246.4,0,191.3,0,123.2z"/>
	<path class="st0" d="M123.2,0H0v123.2C0,55.2,55.2,0,123.2,0z"/>
</g>
<title>icons</title>
<path class="st1" d="M37.5,37.5c-47.3,47.3-47.3,124.1,0,171.4c40,40,102.2,47,150.1,17"/>
<path class="st1" d="M211,206.8c46.1-48.5,44.2-125.2-4.3-171.4C166.6-2.8,105.8-8.9,58.8,20.5"/>
<circle class="st2" cx="209.1" cy="209" r="8.5"/>
<circle class="st2" cx="37.3" cy="37.2" r="8.5"/>
</svg>
