<?xml version="1.0" encoding="UTF-8"?>
<svg width="72px" height="72px" viewBox="0 0 72 72" version="1.1" xmlns="http://www.w3.org/2000/svg" xmlns:xlink="http://www.w3.org/1999/xlink">
    <!-- Generator: Sketch 46.2 (44496) - http://www.bohemiancoding.com/sketch -->
    <title>Artboard Copy 3</title>
    <desc>Created with Sketch.</desc>
    <defs></defs>
    <g id="Mobile" stroke="none" stroke-width="1" fill="none" fill-rule="evenodd">
        <g id="Artboard-Copy-3">
            <g id="Group-13-Copy" transform="translate(1.000000, 1.000000)">
                <circle id="Oval-2" stroke="#EF403D" stroke-width="1.5" cx="35" cy="35" r="35"></circle>
                <g id="Group-12" transform="translate(14.000000, 11.000000)">
                    <g id="Group-5" transform="translate(0.000000, 18.071006)" stroke-linecap="round" stroke-width="1.39865234" stroke="#EF403D" stroke-linejoin="round">
                        <polygon id="Stroke-1" points="12.2878142 29.8224852 25.2967152 23.0985089 13.074548 14.9846627 2.78637771e-05 21.6340828"></polygon>
                        <polyline id="Stroke-3" points="13.074548 14.9846059 13.868805 0.0054816568 0.79052322 6.72562367 2.78637771e-05 21.634026"></polyline>
                    </g>
                    <polygon id="Fill-6" fill="#EF403D" points="25.6238638 34.8213302 26.0705201 26.3976142 18.9786316 21.6257325 18.5428421 30.1048331"></polygon>
                    <path d="M18.7941734,44.4961562 L6.51906502,36.3885586" id="Stroke-7" stroke="#EF403D" stroke-width="1.39865234" stroke-linecap="round" stroke-linejoin="round"></path>
                    <path d="M15.6310356,46.1568994 L3.306887,38.0197633" id="Stroke-8" stroke="#EF403D" stroke-width="1.39865234" stroke-linecap="round" stroke-linejoin="round"></path>
                    <path d="M21.9952059,42.8576095 L9.72399845,34.7630769" id="Stroke-10" stroke="#EF403D" stroke-width="1.39865234" stroke-linecap="round" stroke-linejoin="round"></path>
                    <path d="M5.97395201,32.6133444 C5.9959644,32.1969657 6.34509752,31.8775811 6.75344118,31.900303 C7.16192415,31.9227408 7.475113,32.2784805 7.45310062,32.6947172 C7.43094892,33.1112379 7.08195511,33.4304805 6.67347214,33.4079006 C6.26512848,33.3854627 5.95193963,33.0297231 5.97395201,32.6133444" id="Fill-11" fill="#EF403D"></path>
                    <path d="M2.76386378,34.2754651 C2.78587616,33.8589444 3.13500929,33.5397018 3.54335294,33.5624237 C3.95183591,33.5848615 4.26502477,33.9406012 4.24301238,34.3568379 C4.22086068,34.7732166 3.87186687,35.0926012 3.4633839,35.0700213 C3.05504025,35.0475834 2.74185139,34.6918438 2.76386378,34.2754651" id="Fill-13" fill="#EF403D"></path>
                    <path d="M9.17451084,30.962045 C9.19652322,30.5456663 9.54565635,30.2264237 9.954,30.2490036 C10.362483,30.2714414 10.6756718,30.6271811 10.6536594,31.0435598 C10.6315077,31.4599385 10.2825139,31.7791811 9.87403096,31.7567432 C9.46568731,31.7341633 9.15249845,31.3784237 9.17451084,30.962045" id="Fill-15" fill="#EF403D"></path>
                    <path d="M6.17224458,28.8731929 C6.19425697,28.4568142 6.54339009,28.1375716 6.95173375,28.1601515 C7.36021672,28.1825893 7.67354489,28.538471 7.65139319,28.9547077 C7.6293808,29.3710864 7.28024768,29.690329 6.87190402,29.6678911 C6.46342105,29.6453112 6.1502322,29.2895716 6.17224458,28.8731929" id="Fill-17" fill="#EF403D"></path>
                    <path d="M2.96215635,30.5353136 C2.98416873,30.1189349 3.33330186,29.7996923 3.74164551,29.8222722 C4.15012848,29.8447101 4.46331734,30.2004497 4.44130495,30.6168284 C4.41915325,31.0332071 4.07015944,31.3524497 3.66167647,31.3300118 C3.25333282,31.307432 2.94014396,30.9516923 2.96215635,30.5353136" id="Fill-19" fill="#EF403D"></path>
                    <path d="M9.37280341,27.2218935 C9.39481579,26.8055148 9.74394892,26.4862722 10.1522926,26.5088521 C10.5607755,26.531432 10.8739644,26.8871716 10.851952,27.3034083 C10.8298003,27.719787 10.4808065,28.0390296 10.0724628,28.0165917 C9.66397988,27.9940118 9.35079102,27.6384142 9.37280341,27.2218935" id="Fill-21" fill="#EF403D"></path>
                    <path d="M6.37057895,25.1331834 C6.39259133,24.7166627 6.74172446,24.3974201 7.15006811,24.42 C7.55855108,24.4425799 7.87173994,24.7983195 7.84972755,25.2145562 C7.82757585,25.6309349 7.47858204,25.9501775 7.07009907,25.9277396 C6.66175542,25.9053018 6.34856656,25.5495621 6.37057895,25.1331834" id="Fill-23" fill="#EF403D"></path>
                    <path d="M3.16046285,26.7951621 C3.18247523,26.3787834 3.53160836,26.0595408 3.93995201,26.0821207 C4.34843498,26.1047006 4.66176316,26.4604402 4.63961146,26.8766769 C4.61759907,27.2930556 4.26846594,27.6122982 3.86012229,27.5898604 C3.45163932,27.5672805 3.13845046,27.2116828 3.16046285,26.7951621" id="Fill-25" fill="#EF403D"></path>
                    <path d="M9.57113777,23.4818698 C9.59315015,23.0654911 9.94228328,22.7461065 10.3506269,22.7688284 C10.7591099,22.7912663 11.0722988,23.1470059 11.0502864,23.5632426 C11.0281347,23.9797633 10.6791409,24.2990059 10.2706579,24.276426 C9.86231424,24.2539882 9.54912539,23.8982485 9.57113777,23.4818698" id="Fill-27" fill="#EF403D"></path>
                    <polygon id="Stroke-29" stroke="#EF403D" stroke-width="1.39865234" stroke-linecap="round" stroke-linejoin="round" points="31.9484814 29.9589444 44.9575217 23.234968 32.7352152 15.1211219 19.660695 21.770542"></polygon>
                    <polyline id="Stroke-31" stroke="#EF403D" stroke-width="1.39865234" stroke-linecap="round" stroke-linejoin="round" points="32.735243 15.1210651 33.5295 0.141940828 20.4512183 6.86208284 19.6607229 21.7704852"></polyline>
                    <path d="M38.4548684,26.5616237 L26.1797601,18.454026" id="Stroke-33" stroke="#EF403D" stroke-width="1.39865234" stroke-linecap="round" stroke-linejoin="round"></path>
                    <path d="M35.2916889,28.2223527 L22.9675402,20.0852166" id="Stroke-35" stroke="#EF403D" stroke-width="1.39865234" stroke-linecap="round" stroke-linejoin="round"></path>
                    <path d="M41.6559009,24.9230769 L29.3846935,16.8285444" id="Stroke-37" stroke="#EF403D" stroke-width="1.39865234" stroke-linecap="round" stroke-linejoin="round"></path>
                    <path d="M25.6346471,14.6788118 C25.6566594,14.2624331 26.0057926,13.9430485 26.4141362,13.9657704 C26.8226192,13.9882083 27.135808,14.3439479 27.1137957,14.7601846 C27.091644,15.1767053 26.7426502,15.4959479 26.3341672,15.4735101 C25.9258235,15.4509302 25.6126347,15.0951905 25.6346471,14.6788118" id="Fill-39" fill="#EF403D"></path>
                    <path d="M22.424531,16.3409325 C22.4465433,15.9245538 22.7956765,15.6051692 23.2040201,15.6278911 C23.6125031,15.650329 23.9258313,16.0060686 23.9036796,16.4223053 C23.8816672,16.838684 23.5325341,17.1580686 23.1241904,17.1354888 C22.7157074,17.1130509 22.4025186,16.7573112 22.424531,16.3409325" id="Fill-41" fill="#EF403D"></path>
                    <path d="M28.8352059,13.0274982 C28.8572183,12.6111195 29.2063514,12.2918769 29.614695,12.3144568 C30.023178,12.3368947 30.3363669,12.6926343 30.3143545,13.109013 C30.2922028,13.5253917 29.943209,13.8446343 29.534726,13.8221964 C29.1263824,13.7996166 28.8131935,13.4438769 28.8352059,13.0274982" id="Fill-43" fill="#EF403D"></path>
                    <path d="M25.8329396,10.9386462 C25.854952,10.5222675 26.2040851,10.2030249 26.6124288,10.2256047 C27.0209118,10.2480426 27.3341006,10.6039243 27.3120882,11.0201609 C27.2899365,11.4365396 26.9409427,11.7557822 26.5325991,11.7333444 C26.1241161,11.7107645 25.8109272,11.3550249 25.8329396,10.9386462" id="Fill-45" fill="#EF403D"></path>
                    <path d="M22.6228653,12.6007669 C22.6448777,12.1843882 22.9940108,11.8651456 23.4023545,11.8877254 C23.8108375,11.9101633 24.1240263,12.265903 24.1020139,12.6822817 C24.0798622,13.0986604 23.7308684,13.417903 23.3223854,13.3954651 C22.9140418,13.3728852 22.6008529,13.0171456 22.6228653,12.6007669" id="Fill-47" fill="#EF403D"></path>
                    <path d="M29.0334985,9.28734675 C29.0555108,8.87096805 29.404644,8.55172544 29.8129876,8.57430533 C30.2214706,8.59688521 30.5346594,8.95262485 30.5126471,9.36886154 C30.4904954,9.78524024 30.1415015,10.1044828 29.7330186,10.082045 C29.3246749,10.0594651 29.0114861,9.70386746 29.0334985,9.28734675" id="Fill-49" fill="#EF403D"></path>
                    <path d="M26.031274,7.19863669 C26.0532864,6.78211598 26.4024195,6.46287337 26.8107632,6.48545325 C27.2192461,6.50803314 27.532435,6.86377278 27.5104226,7.28000947 C27.4882709,7.69638817 27.1392771,8.01577278 26.7307941,7.9931929 C26.3224505,7.97075503 26.0092616,7.61501538 26.031274,7.19863669" id="Fill-51" fill="#EF403D"></path>
                    <path d="M22.8211579,8.86061538 C22.8431703,8.44423669 23.1923034,8.12499408 23.6006471,8.14757396 C24.00913,8.17015385 24.3223189,8.52589349 24.3003065,8.94213018 C24.2781548,9.35850888 23.929161,9.67775148 23.5208173,9.65531361 C23.1123344,9.63273373 22.7991455,9.27713609 22.8211579,8.86061538" id="Fill-53" fill="#EF403D"></path>
                    <path d="M29.231805,5.54733728 C29.2538173,5.13095858 29.6029505,4.81157396 30.0112941,4.83429586 C30.4197771,4.85673373 30.7331053,5.21247337 30.7109536,5.62871006 C30.6889412,6.04523077 30.339808,6.36447337 29.9314644,6.34189349 C29.5229814,6.31945562 29.2097926,5.96371598 29.231805,5.54733728" id="Fill-55" fill="#EF403D"></path>
                </g>
            </g>
        </g>
    </g>
</svg>