<?xml version="1.0" encoding="utf-8"?>
<!-- Generator: Adobe Illustrator 19.2.0, SVG Export Plug-In . SVG Version: 6.00 Build 0)  -->
<svg version="1.1" id="Layer_1" xmlns="http://www.w3.org/2000/svg" xmlns:xlink="http://www.w3.org/1999/xlink" x="0px" y="0px"
	 viewBox="0 0 478 243.3" style="enable-background:new 0 0 478 243.3;" xml:space="preserve">
<style type="text/css">
	.st0{fill:#FFD400;}
</style>
<g>
	<g>
		<path class="st0" d="M147.5,105.8v31.5c0,6,3.7,8.9,9,8.9c2,0,3.9-0.4,5.1-1.1V140c-1.1,0.7-2.7,1.3-4.3,1.3
			c-2.8,0-4.3-1.4-4.3-4.6v-17.6h7.9v-4.7H153v-8.6H147.5z"/>
		<path class="st0" d="M170.7,105.8v31.5c0,6,3.7,8.9,9,8.9c2,0,3.9-0.4,5.1-1.1V140c-1.1,0.7-2.7,1.3-4.3,1.3
			c-2.8,0-4.3-1.4-4.3-4.6v-17.6h7.9v-4.7h-7.9v-8.6H170.7z"/>
		<path class="st0" d="M225.7,114.9v30.6h5.5v-19.9c1.1-3.8,4.1-6.1,7.6-6.1c1.4,0,2.8,0.3,3.7,0.9v-5.7c-0.6-0.3-1.8-0.5-3.2-0.5
			c-3.6,0-6.7,2.1-8.1,4.9v-4.3h-5.5V114.9z"/>
		<path class="st0" d="M338.9,114.9v30.6h5.5v-19.9c1.1-3.8,4.1-6.1,7.6-6.1c1.4,0,2.8,0.3,3.7,0.9v-5.7c-0.6-0.3-1.8-0.5-3.2-0.5
			c-3.6,0-6.7,2.1-8.1,4.9v-4.3h-5.5V114.9z"/>
	</g>
	<polygon class="st0" points="284.4,136.2 274.9,100.4 270.2,100.4 260.7,136.2 251.4,100.4 245.7,100.4 257.7,145.5 262.9,145.5 
		272.5,110.3 282,145.5 287.3,145.5 299.2,100.4 293.7,100.4 	"/>
	<rect x="362.4" y="97.8" class="st0" width="5.5" height="47.7"/>
	<g>
		<path class="st0" d="M89.4,140.4H78.8v-15.6V120v-14.5H88c6,0,9.3,2.3,9.3,7.2c0,4.9-3.3,7.3-9.3,7.3h-3.9v4.8h5.4
			c6.1,0,9.3,3,9.3,7.8C98.7,137.3,95.5,140.4,89.4,140.4 M96.2,122.1c3.5-1.1,6.6-4.4,6.6-9.8c0-7.8-5.6-12-14.9-12H73.1v45.1h16.3
			c9.3,0,15-4.5,15-12.7C104.4,127.7,101.1,123.4,96.2,122.1"/>
		<path class="st0" d="M399.1,135.2c-1.7,3.4-4.8,5.8-8.2,5.8c-6.2,0-9.8-4.4-9.8-11c0-7.4,5.1-10.5,9.8-10.5c1.1,0,2.1,0,3.1,0.4
			V115c-1.2-0.4-2.5-0.7-3.9-0.7c-8.6,0-14.8,6.4-14.8,16c0,9.3,5.2,16,14.8,16c4,0,7.6-2.1,9.2-4.5v3.8h5.6V97.9h-5.6L399.1,135.2z
			"/>
		<path class="st0" d="M345.1,68.2c-3.3,0-6-2.7-6-6s2.7-6,6-6s6,2.7,6,6C351.1,65.6,348.4,68.2,345.1,68.2 M345.1,50.8
			c-1.3,0-2.5,0.3-3.7,0.7C318.6,19.2,281.6,0,242.1,0c-56.8,0-104.7,39.2-118,91.9h5.7C143,42.2,188.3,5.5,242.1,5.5
			c37.7,0,72.9,18.3,94.7,48.9c-1.9,2.1-3.2,4.8-3.2,7.9c0,6.3,5.2,11.5,11.5,11.5s11.5-5.2,11.5-11.5S351.4,50.8,345.1,50.8"/>
		<path class="st0" d="M187,72.7c-3.3,0-6-2.7-6-6c0-3.3,2.7-6,6-6c3.3,0,6,2.7,6,6C193,70,190.3,72.7,187,72.7 M299.1,72.8
			c5,5.8,9,12.2,11.9,19.1h6c-3.3-8.2-7.9-15.9-13.7-22.7c-15.4-17.9-37.7-28.1-61.2-28.1c-17.7,0-34.4,5.6-48.5,16.2
			c-1.9-1.3-4.1-2.1-6.6-2.1c-6.3,0-11.5,5.2-11.5,11.5s5.2,11.5,11.5,11.5c6.3,0,11.5-5.2,11.5-11.5c0-1.9-0.5-3.6-1.3-5.2
			c13-9.7,28.5-14.9,44.8-14.9C264,46.6,284.8,56.2,299.1,72.8"/>
		<path class="st0" d="M139.1,187.1c-3.3,0-6-2.7-6-6s2.7-6,6-6c3.3,0,6,2.7,6,6C145.1,184.5,142.4,187.1,139.1,187.1 M242.1,237.8
			c-37.6,0-72.8-18.2-94.6-48.8c1.9-2,3.1-4.8,3.1-7.8c0-6.3-5.2-11.5-11.5-11.5c-6.3,0-11.5,5.2-11.5,11.5s5.2,11.5,11.5,11.5
			c1.3,0,2.6-0.3,3.8-0.7c22.8,32.2,59.7,51.3,99.2,51.3c38.1,0,72.4-17.4,94.8-45.3h-7.2C308.4,222.6,276.9,237.8,242.1,237.8"/>
		<path class="st0" d="M242.1,202.7c31.8,0,59.4-18.5,72.6-45.4h-6.2c-12.7,23.7-37.7,39.9-66.4,39.9s-53.8-16.1-66.4-39.9h-6.2
			C182.6,184.3,210.2,202.7,242.1,202.7"/>
		<path class="st0" d="M138.2,136.3h-5c-0.9,3.5-4.1,4.9-8.1,4.9c-4.5,0-7.7-2.6-9-6.7c-1-3.1-0.7-7.6,0.3-10
			c1.7-4.1,5.2-5.5,8.6-5.5c4.6,0,8.2,4,8.2,8.1h-12.3v4h17.7v-1.9c0-7.5-4.9-15-13.9-15c-8.3,0-14.7,6.7-14.7,16
			c0,9.5,6.1,16,15,16C132.4,146.2,137,142.1,138.2,136.3"/>
		<path class="st0" d="M218.1,136.3h-5c-0.9,3.5-4.1,4.9-8.1,4.9c-4.5,0-7.7-2.6-9-6.7c-1-3.1-0.7-7.6,0.3-10
			c1.7-4.1,5.2-5.5,8.6-5.5c4.6,0,8.2,4,8.2,8.1h-12.3v4h17.7v-1.9c0-7.5-4.9-15-13.9-15c-8.3,0-14.7,6.7-14.7,16
			c0,9.5,6.1,16,15,16C212.3,146.2,216.9,142.1,218.1,136.3"/>
		<path class="st0" d="M319.1,114.2v5.6c4.2,1.3,7.2,5.4,7.2,10.4c0,6-4.5,10.8-10,10.8s-10-4.9-10-10.8c0-5,3.1-9.1,7.3-10.4v-5.6
			c-7.2,1.3-12.7,8-12.7,16c0,8.9,6.9,16.2,15.4,16.2s15.4-7.3,15.4-16.2C331.8,122.2,326.3,115.6,319.1,114.2"/>
		<path class="st0" d="M417.4,179.7c0.6,1.8,2.2,2.6,4.4,2.6c2.2,0,3.8-0.7,3.8-2.5c0-1.2-1-1.9-2.9-2.4l-3.7-0.9
			c-2.6-0.6-4.4-2-4.4-4.8c0-3.1,2.9-5.2,6.7-5.2c4.1,0,6.5,1.9,7.2,5h-3.1c-0.5-1.6-2-2.4-4.2-2.4c-1.8,0-3.4,0.7-3.4,2.4
			c0,1.2,0.8,1.8,2.6,2.2l3.6,0.8c3.2,0.8,4.7,2.5,4.7,4.9c0,3.3-2.9,5.3-6.9,5.3c-4.1,0-7.1-2-7.6-5.2h3.2V179.7z"/>
		<path class="st0" d="M436.3,184.5h-3.1v-18h3.1V184.5z M434.7,162.3c-1.1,0-2-0.9-2-2s0.9-2,2-2s2.1,0.9,2.1,2
			C436.7,161.3,435.8,162.3,434.7,162.3"/>
		<path class="st0" d="M462.9,166.5h3.1v2.4c1.1-1.5,3.1-2.7,5.5-2.7c4.2,0,6.5,2.7,6.5,6.8v11.6h-3.2v-11c0-2.6-1.3-4.4-4.1-4.4
			c-2.2,0-4.1,1.5-4.7,3.5v12h-3.1L462.9,166.5L462.9,166.5z"/>
		<path class="st0" d="M454.1,166.5v6.3l0,0v5.8c-1,1.8-2.7,2.9-4.7,2.9c-3.5,0-6-2.8-6-6.6c0-3.9,2.4-6,6-6c0.6,0,1.2,0.1,1.7,0.3
			v-2.7c-0.7-0.2-1.4-0.4-2.2-0.4c-5.5,0-8.7,3.9-8.7,8.8s3.3,9.4,8.7,9.4c2.3,0,4.3-1.2,5.2-2.5v1.4c0,4-1.8,6.1-5.1,6.1
			c-2.6,0-4.3-1.1-4.9-3.5H441c0.6,3.8,3.4,6.2,8,6.2c4.8,0,8.3-2.9,8.3-9v-16.6h-3.2V166.5z"/>
		<path class="st0" d="M411.4,175.2c0-5.1-2.7-8.7-7.8-8.7c-5.1,0-8.5,3.9-8.5,9.2c0,5.5,3.5,9.2,8.6,9.2c4.2,0,6.8-2.3,7.5-5.7h-3
			c-0.5,2-2.2,3-4.5,3c-2.1,0-3.7-0.9-4.7-2.7l0,0c0,0-0.3-0.6-0.6-1.8c0-0.1,0-0.2,0-0.2c-0.1-0.6-0.2-1.4-0.2-2.3
			c0-1.4,0.4-2.4,0.8-3.2c0,0,0-0.1,0.1-0.1c0.5-0.9,1-1.3,1-1.3l0,0c0.9-0.9,2.1-1.4,3.6-1.4c3.1,0,4.7,2,4.7,4.6h-6.9v2.5h10.1
			v-1.1H411.4z"/>
		<path class="st0" d="M387.7,157.2V168l0,0v3.4l0,0v7.6c-1,1.9-2.8,3.1-4.8,3.1c-3.6,0-5.9-2.7-5.9-6.4c0-3.7,2.2-6.1,5.6-6.3
			c0.6,0,1.5,0.1,2,0.3v-2.8c-0.7-0.2-1.7-0.5-2.5-0.4c-5.2,0.3-8.4,3.9-8.4,9.1c0,5.3,3.2,9.3,8.7,9.3c2.3,0,4.3-1.2,5.2-2.6v2.2
			h3.2v-27.3L387.7,157.2L387.7,157.2z"/>
	</g>
	<polygon class="st0" points="359,166.5 353.8,180.6 348.5,166.5 345.1,166.5 352.2,184.6 349.4,191.6 352.5,191.6 362.3,166.5 	"/>
	<g>
		<path class="st0" d="M329.4,157.2V168l0,0v3.4l0,0v7.6c1,1.9,2.8,3.1,4.8,3.1c3.6,0,5.9-2.7,5.9-6.4c0-3.7-2.2-6.1-5.6-6.3
			c-0.6,0-1.5,0.1-2,0.3v-2.8c0.7-0.2,1.7-0.5,2.5-0.4c5.2,0.3,8.4,3.9,8.4,9.1c0,5.3-3.2,9.3-8.7,9.3c-2.3,0-4.3-1.2-5.2-2.6v2.2
			h-3.2v-27.3L329.4,157.2L329.4,157.2z"/>
	</g>
</g>
</svg>
