<?xml version="1.0" encoding="UTF-8"?>
<svg width="72px" height="72px" viewBox="0 0 72 72" version="1.1" xmlns="http://www.w3.org/2000/svg" xmlns:xlink="http://www.w3.org/1999/xlink">
    <!-- Generator: Sketch 46.2 (44496) - http://www.bohemiancoding.com/sketch -->
    <title>Artboard Copy 2</title>
    <desc>Created with Sketch.</desc>
    <defs></defs>
    <g id="Mobile" stroke="none" stroke-width="1" fill="none" fill-rule="evenodd">
        <g id="Artboard-Copy-2">
            <g id="Group" transform="translate(1.000000, 1.000000)">
                <circle id="Oval-2" stroke="#EF403D" stroke-width="1.5" cx="35" cy="35" r="35"></circle>
                <g id="Group-14" transform="translate(11.000000, 22.000000)">
                    <polyline id="Stroke-3" stroke="#EF403D" stroke-width="1.56378601" stroke-linecap="round" stroke-linejoin="round" points="16.4077356 14.3132492 4.66666665e-05 13.4384926 7.36093556 27.8422862 23.6913133 28.7129"></polyline>
                    <polygon id="Fill-6" fill="#EF403D" points="9.11462222 6.13756611e-05 3.8878 7.81088148 13.1754 8.29068571 18.3417111 0.492140741"></polygon>
                    <path d="M15.9232267,22.1334138 C15.4671378,22.1091704 15.1174489,21.7248053 15.1420267,21.2749217 C15.16676,20.8250381 15.5564267,20.4801069 16.0125156,20.5045037 C16.4686044,20.5287471 16.8182933,20.9131122 16.79356,21.3629958 C16.7689822,21.8127259 16.3793156,22.1578106 15.9232267,22.1334138" id="Fill-10" fill="#EF403D"></path>
                    <path d="M17.7438178,25.6689587 C17.2877289,25.6445619 16.93804,25.2601968 16.9627733,24.8103132 C16.9873511,24.3605831 17.3770178,24.0156519 17.8331067,24.0398952 C18.2891956,24.0641386 18.6388844,24.4485037 18.6141511,24.8985407 C18.5895733,25.3482709 18.1999067,25.6932021 17.7438178,25.6689587" id="Fill-12" fill="#EF403D"></path>
                    <path d="M14.1144267,18.6085021 C13.6583378,18.5842587 13.3086489,18.1998937 13.3333822,17.7498566 C13.35796,17.3001265 13.7476267,16.9551952 14.2037156,16.9794386 C14.6598044,17.0038354 15.0094933,17.3882005 14.98476,17.8380841 C14.9601822,18.2878143 14.5705156,18.6327455 14.1144267,18.6085021" id="Fill-14" fill="#EF403D"></path>
                    <path d="M11.8264067,21.9150852 C11.3703178,21.8906884 11.0206289,21.5063233 11.0453622,21.0564397 C11.06994,20.6067095 11.4596067,20.2617783 11.9156956,20.2860217 C12.3717844,20.3102651 12.7214733,20.6946302 12.69674,21.1446672 C12.6721622,21.5943974 12.2824956,21.9393286 11.8264067,21.9150852" id="Fill-16" fill="#EF403D"></path>
                    <path d="M13.6470133,25.4504767 C13.1909244,25.4262333 12.8412356,25.0418683 12.8659689,24.5918312 C12.8905467,24.1421011 13.2802133,23.7971698 13.7363022,23.8214132 C14.1923911,23.8458101 14.54208,24.2301751 14.5173467,24.6800587 C14.4927689,25.1297889 14.1031022,25.4747201 13.6470133,25.4504767" id="Fill-18" fill="#EF403D"></path>
                    <path d="M10.0176533,18.3901735 C9.56156444,18.3657767 9.21187556,17.9814116 9.23645333,17.531528 C9.26118667,17.0817979 9.65085333,16.7367132 10.1069422,16.7611101 C10.5630311,16.7853534 10.91272,17.1697185 10.8879867,17.6196021 C10.8634089,18.0694857 10.4737422,18.4144169 10.0176533,18.3901735" id="Fill-20" fill="#EF403D"></path>
                    <path d="M7.72958667,21.6966185 C7.27349778,21.6723751 6.92380889,21.2880101 6.94854222,20.837973 C6.97312,20.3882429 7.36278667,20.0433116 7.81887556,20.067555 C8.27496444,20.0919519 8.62465333,20.4763169 8.59992,20.9262005 C8.57534222,21.3759307 8.18567556,21.7208619 7.72958667,21.6966185" id="Fill-22" fill="#EF403D"></path>
                    <path d="M9.55022444,25.2320101 C9.09413556,25.2077667 8.74444667,24.8234016 8.76902444,24.373518 C8.79375778,23.9237878 9.18342444,23.5787032 9.63951333,23.6031 C10.0956022,23.6273434 10.4452911,24.0117085 10.4205578,24.4615921 C10.39598,24.9114757 10.0063133,25.2564069 9.55022444,25.2320101" id="Fill-24" fill="#EF403D"></path>
                    <path d="M5.92083333,18.1717069 C5.46474444,18.1474635 5.11505556,17.762945 5.13978889,17.3130614 C5.16436667,16.8633312 5.55403333,16.5184 6.01012222,16.5426434 C6.46621111,16.5668868 6.8159,16.9514053 6.79116667,17.4012889 C6.76658889,17.851019 6.37692222,18.1959503 5.92083333,18.1717069" id="Fill-26" fill="#EF403D"></path>
                    <polygon id="Stroke-28" stroke="#EF403D" stroke-width="1.56378601" stroke-linecap="round" stroke-linejoin="round" points="16.3069822 14.4389772 23.6720711 28.7665116 32.5598933 15.3054481 25.2763156 0.905797354"></polygon>
                    <polyline id="Stroke-30" stroke="#EF403D" stroke-width="1.56378601" stroke-linecap="round" stroke-linejoin="round" points="32.5599244 15.3055095 48.9676133 16.1801127 41.6067244 1.77631905 25.2763467 0.905705291"></polyline>
                    <path d="M20.0282444,21.6047698 L28.9090667,8.08555291" id="Stroke-32" stroke="#EF403D" stroke-width="1.56378601" stroke-linecap="round" stroke-linejoin="round"></path>
                    <path d="M18.2091622,18.1210566 L27.12234,4.54767566" id="Stroke-34" stroke="#EF403D" stroke-width="1.56378601" stroke-linecap="round" stroke-linejoin="round"></path>
                    <path d="M21.8231222,25.1302646 L30.6896333,11.6154974" id="Stroke-36" stroke="#EF403D" stroke-width="1.56378601" stroke-linecap="round" stroke-linejoin="round"></path>
                    <path d="M33.0444333,7.48520688 C33.5005222,7.50945026 33.8502111,7.89396878 33.8254778,8.34385238 C33.8009,8.79358254 33.4112333,9.13851376 32.9551444,9.11427037 C32.4990556,9.09002698 32.1493667,8.70550847 32.1741,8.25562487 C32.1986778,7.80589471 32.5883444,7.46096349 33.0444333,7.48520688" id="Fill-38" fill="#EF403D"></path>
                    <path d="M31.2237956,3.94981534 C31.6798844,3.97405873 32.0295733,4.35842381 32.0049956,4.80830741 C31.9802622,5.25803757 31.5905956,5.60312222 31.1345067,5.5787254 C30.6784178,5.55448201 30.3287289,5.17011693 30.3534622,4.72023333 C30.37804,4.27050317 30.7677067,3.92541852 31.2237956,3.94981534" id="Fill-40" fill="#EF403D"></path>
                    <path d="M34.8531867,11.0101185 C35.3092756,11.0343619 35.6589644,11.4188804 35.6342311,11.868764 C35.6096533,12.3184942 35.2199867,12.6634254 34.7638978,12.639182 C34.3078089,12.6149386 33.95812,12.2304201 33.9828533,11.7805365 C34.0074311,11.3308063 34.3970978,10.9858751 34.8531867,11.0101185" id="Fill-42" fill="#EF403D"></path>
                    <path d="M37.1412067,7.70368889 C37.5972956,7.72793228 37.9469844,8.11229735 37.9224067,8.56218095 C37.8976733,9.01191111 37.5080067,9.35699577 37.0519178,9.33259894 C36.5958289,9.30835556 36.24614,8.92399048 36.2708733,8.47410688 C36.2954511,8.02437672 36.6851178,7.67929206 37.1412067,7.70368889" id="Fill-44" fill="#EF403D"></path>
                    <path d="M35.3206156,4.16814392 C35.7767044,4.1923873 36.1263933,4.57690582 36.10166,5.02678942 C36.0770822,5.47651958 35.6874156,5.82145079 35.2313267,5.79720741 C34.7752378,5.77296402 34.4255489,5.3884455 34.4502822,4.9385619 C34.47486,4.48883175 34.8645267,4.14390053 35.3206156,4.16814392" id="Fill-46" fill="#EF403D"></path>
                    <path d="M38.94996,11.2285852 C39.4060489,11.2528286 39.7557378,11.6371937 39.73116,12.0870772 C39.7064267,12.5369608 39.31676,12.8818921 38.8606711,12.8576487 C38.4045822,12.8332519 38.0548933,12.4488868 38.0796267,11.9990032 C38.1042044,11.549273 38.4938711,11.2043418 38.94996,11.2285852" id="Fill-48" fill="#EF403D"></path>
                    <path d="M41.2380267,7.92200212 C41.6941156,7.9462455 42.0438044,8.33076402 42.0190711,8.78064762 C41.9944933,9.23037778 41.6048267,9.57530899 41.1487378,9.55106561 C40.6926489,9.52682222 40.34296,9.1423037 40.3676933,8.69242011 C40.3922711,8.24268995 40.7819378,7.89775873 41.2380267,7.92200212" id="Fill-50" fill="#EF403D"></path>
                    <path d="M39.4174356,4.38661058 C39.8735244,4.41085397 40.2232133,4.79521905 40.19848,5.24525608 C40.1739022,5.69498624 39.7842356,6.03991746 39.3281467,6.01567407 C38.8720578,5.99127725 38.5223689,5.60691217 38.5471022,5.15702857 C38.57168,4.70729841 38.9613467,4.3623672 39.4174356,4.38661058" id="Fill-52" fill="#EF403D"></path>
                    <path d="M43.04678,11.4469138 C43.5028689,11.4713106 43.8525578,11.8556757 43.8278244,12.3055593 C43.8032467,12.7552894 43.41358,13.1002206 42.9574911,13.0759772 C42.5014022,13.0517339 42.1517133,12.6673688 42.1764467,12.2173317 C42.2010244,11.7676016 42.5906911,11.4226704 43.04678,11.4469138" id="Fill-54" fill="#EF403D"></path>
                </g>
            </g>
        </g>
    </g>
</svg>