<?xml version="1.0" encoding="utf-8"?>
<!-- Generator: Adobe Illustrator 19.2.0, SVG Export Plug-In . SVG Version: 6.00 Build 0)  -->
<svg version="1.1" id="Layer_1" xmlns="http://www.w3.org/2000/svg" xmlns:xlink="http://www.w3.org/1999/xlink" x="0px" y="0px"
	 viewBox="0 0 160.5 160.5" style="enable-background:new 0 0 160.5 160.5;" xml:space="preserve">
<style type="text/css">
	.st0{fill:#EF413D;}
</style>
<title>icons</title>
<g>
	<path class="st0" d="M80.3,96.3c8.8,0,16-7.2,15.9-16.1s-7.2-16-16.1-15.9c-8.8,0-15.9,7.1-15.9,15.9
		C64.2,89.1,71.4,96.3,80.3,96.3z"/>
	<path class="st0" d="M113.4,60.6c1.1,0,2-0.9,2-2V47.1v0c0-1.1-0.9-2-2-2h-0.1l-11.4,0.1c-1.1,0-2,0.9-2,2v11.4c0,1.1,0.9,2,2,2
		H113.4z"/>
	<path class="st0" d="M80.3,0C35.9,0,0,35.9,0,80.3s35.9,80.3,80.3,80.3s80.3-35.9,80.3-80.3l0,0C160.5,36,124.6,0,80.3,0z
		 M125.9,70.9v37.4c0,9.7-7.9,17.6-17.6,17.6H52.2c-9.7,0-17.6-7.9-17.6-17.6v-56c0-9.7,7.9-17.6,17.6-17.7h56
		c9.7,0,17.6,7.9,17.6,17.6L125.9,70.9z"/>
	<path class="st0" d="M105.2,80.3c0.1,13.8-11,25.1-24.8,25.2s-25.1-11-25.2-24.8c0-3.3,0.6-6.7,1.9-9.7H43.5v37.4
		c0,4.8,3.9,8.7,8.8,8.7h56c4.8,0,8.7-3.9,8.8-8.7V70.9h-13.6C104.6,73.9,105.2,77,105.2,80.3z"/>
</g>
</svg>
