<?xml version="1.0" encoding="utf-8"?>
<!-- Generator: Adobe Illustrator 19.2.0, SVG Export Plug-In . SVG Version: 6.00 Build 0)  -->
<svg version="1.1" id="Layer_1" xmlns="http://www.w3.org/2000/svg" xmlns:xlink="http://www.w3.org/1999/xlink" x="0px" y="0px"
	 viewBox="0 0 160.5 160.5" style="enable-background:new 0 0 160.5 160.5;" xml:space="preserve">
<style type="text/css">
	.st0{fill:#241F59;}
</style>
<title>icons</title>
<g>
	<path class="st0" d="M80.2,96.8c8.8,0,16-7.2,15.9-16.1s-7.2-16-16.1-15.9c-8.8,0-15.9,7.1-15.9,15.9
		C64.1,89.6,71.3,96.8,80.2,96.8z"/>
	<path class="st0" d="M113.3,61.1c1.1,0,2-0.9,2-2V47.6l0,0c0-1.1-0.9-2-2-2h-0.1l-11.4,0.1c-1.1,0-2,0.9-2,2v11.4c0,1.1,0.9,2,2,2
		H113.3z"/>
	<path class="st0" d="M80.2,0.5C35.8,0.5-0.1,36.4-0.1,80.8s35.9,80.3,80.3,80.3s80.3-35.9,80.3-80.3l0,0
		C160.4,36.5,124.5,0.5,80.2,0.5z M125.8,71.4v37.4c0,9.7-7.9,17.6-17.6,17.6H52.1c-9.7,0-17.6-7.9-17.6-17.6v-56
		c0-9.7,7.9-17.6,17.6-17.7h56c9.7,0,17.6,7.9,17.6,17.6L125.8,71.4z"/>
	<path class="st0" d="M105.1,80.8c0.1,13.8-11,25.1-24.8,25.2S55.2,95,55.1,81.2c0-3.3,0.6-6.7,1.9-9.7H43.4v37.4
		c0,4.8,3.9,8.7,8.8,8.7h56c4.8,0,8.7-3.9,8.8-8.7V71.4h-13.6C104.5,74.4,105.1,77.5,105.1,80.8z"/>
</g>
</svg>
