<?xml version="1.0" encoding="utf-8"?>
<!-- Generator: Adobe Illustrator 19.2.0, SVG Export Plug-In . SVG Version: 6.00 Build 0)  -->
<svg version="1.1" id="Layer_1" xmlns="http://www.w3.org/2000/svg" xmlns:xlink="http://www.w3.org/1999/xlink" x="0px" y="0px"
	 viewBox="0 0 160.6 160.6" style="enable-background:new 0 0 160.6 160.6;" xml:space="preserve">
<style type="text/css">
	.st0{clip-path:url(#SVGID_2_);fill:#241F59;}
</style>
<g>
	<g>
		<g>
			<defs>
				<rect id="SVGID_1_" width="160.5" height="160.5"/>
			</defs>
			<clipPath id="SVGID_2_">
				<use xlink:href="#SVGID_1_"  style="overflow:visible;"/>
			</clipPath>
			<path class="st0" d="M107.4,118.5c-3.7,1.8-7.1,3-10.1,3.7s-6.3,1.1-9.8,1.1c-4,0-6.3-0.5-9.4-1.5s-5.7-2.5-7.8-4.3
				c-2.2-1.9-3.7-3.8-4.5-5.9s-1.3-5.2-1.3-9.1V71.9H52.6V59.4c3.4-1.1,7.4-2.7,9.8-4.8c2.5-2.1,4.4-4.6,5.9-7.5s2.5-6.6,3.1-11.1
				h12.4v20.2H104v15.6H83.8v22.4c0,5.1-0.1,8,0.5,9.4c0.5,1.4,1.9,2.9,3.3,3.8c1.9,1.2,4.1,1.7,6.6,1.7c4.4,0,8.8-1.4,13.2-4.3
				V118.5L107.4,118.5z M80.3,0C36,0,0,36,0,80.3s36,80.3,80.3,80.3s80.3-36,80.3-80.3S124.6,0,80.3,0"/>
		</g>
	</g>
</g>
</svg>
