<?xml version="1.0" encoding="utf-8"?>
<!-- Generator: Adobe Illustrator 19.2.0, SVG Export Plug-In . SVG Version: 6.00 Build 0)  -->
<svg version="1.1" id="Layer_1" xmlns="http://www.w3.org/2000/svg" xmlns:xlink="http://www.w3.org/1999/xlink" x="0px" y="0px"
	 viewBox="0 0 160.6 160.6" style="enable-background:new 0 0 160.6 160.6;" xml:space="preserve">
<style type="text/css">
	.st0{fill:#EF413D;}
</style>
<title>icons</title>
<path class="st0" d="M80.3,0C35.9,0,0,35.9,0,80.3s35.9,80.3,80.3,80.3s80.3-35.9,80.3-80.3C160.5,36,124.6,0,80.3,0z M116.1,61.9
	c0,0.8,0.1,1.6,0.1,2.4c0,24.4-18.6,52.6-52.6,52.6c-10,0-19.9-2.9-28.3-8.3c9.8,1.2,19.6-1.6,27.4-7.6c-7.9-0.1-14.8-5.3-17.3-12.8
	c2.8,0.5,5.6,0.4,8.3-0.3c-8.6-1.7-14.8-9.3-14.8-18.1c0-0.1,0-0.2,0-0.2c2.6,1.4,5.4,2.2,8.4,2.3c-8.1-5.4-10.6-16.2-5.7-24.7
	C51,58.7,64.8,65.8,79.7,66.5c-2.3-9.9,3.9-19.9,13.8-22.2c6.4-1.5,13.1,0.5,17.7,5.3c4.1-0.8,8.1-2.3,11.7-4.5
	c-1.4,4.3-4.3,7.9-8.1,10.2c3.7-0.4,7.2-1.4,10.6-2.9C122.8,56.1,119.7,59.3,116.1,61.9L116.1,61.9z"/>
</svg>
