<?xml version="1.0" encoding="UTF-8"?>
<svg width="921px" height="382px" viewBox="0 0 921 382" version="1.1" xmlns="http://www.w3.org/2000/svg" xmlns:xlink="http://www.w3.org/1999/xlink">
    <!-- Generator: Sketch 46.2 (44496) - http://www.bohemiancoding.com/sketch -->
    <title>Artboard</title>
    <desc>Created with Sketch.</desc>
    <defs></defs>
    <g id="Desktop" stroke="none" stroke-width="1" fill="none" fill-rule="evenodd">
        <g id="Artboard">
            <g id="Group-9" transform="translate(2.000000, 2.000000)">
                <g id="Page-1" transform="translate(232.480655, 168.409091) scale(-1, 1) translate(-232.480655, -168.409091) translate(212.814484, 156.414141)" stroke-linecap="round" stroke="#FFD400" stroke-width="4.19495501" stroke-linejoin="round">
                    <g id="Group-5" transform="translate(0.000000, 0.112816)">
                        <path d="M0.248397129,0.869284853 L38.4373064,22.8650167" id="Stroke-7"></path>
                    </g>
                </g>
                <g id="Page-1-Copy-18" transform="translate(289.080853, 135.782828) scale(-1, 1) translate(-289.080853, -135.782828) translate(269.414683, 123.787879)" stroke-linecap="round" stroke="#F9F9F9" stroke-width="4.19495501" stroke-linejoin="round">
                    <g id="Group-5" transform="translate(0.000000, 0.112816)">
                        <path d="M0.248397129,0.869284853 L38.4373064,22.8650167" id="Stroke-7"></path>
                    </g>
                </g>
                <g id="Page-1-Copy-2" transform="translate(48.769841, 173.686869)" stroke-linecap="round" stroke-width="4.19495501" stroke="#F9F9F9" stroke-linejoin="round">
                    <g id="Group-5" transform="translate(0.000000, 0.112816)">
                        <polygon id="Stroke-1" points="38.4502232 0.308181032 0.418999783 22.3316959 38.4502232 44.3552108 76.6902965 22.5413314"></polygon>
                    </g>
                </g>
                <g id="Page-1-Copy-4" transform="translate(757.711310, 133.383838)" stroke-linecap="round" stroke-width="4.19495501" stroke="#FFD400" stroke-linejoin="round">
                    <g id="Group-5" transform="translate(0.000000, 0.112816)">
                        <polygon id="Stroke-1" points="38.4502232 0.308181032 0.418999783 22.3316959 38.4502232 44.3552108 76.6902965 22.5413314"></polygon>
                    </g>
                </g>
                <g id="Page-1-Copy-7" transform="translate(839.253968, 13.434343)" stroke-linecap="round" stroke-width="4.19495501" stroke="#F9F9F9" stroke-linejoin="round">
                    <g id="Group-5" transform="translate(0.000000, 0.112816)">
                        <polygon id="Stroke-1" points="38.4502232 0.308181032 0.418999783 22.3316959 38.4502232 44.3552108 76.6902965 22.5413314"></polygon>
                    </g>
                </g>
                <g id="Page-1-Copy-3" transform="translate(0.000000, 214.949495)">
                    <path d="M9.8416511,5.78008055 L48.0305604,27.7758124" id="Stroke-7" stroke="#FFD400" stroke-width="4.19495501" stroke-linecap="round" stroke-linejoin="round"></path>
                    <path d="M19.084767,0.34875293 L57.4259102,22.4240452" id="Stroke-8" stroke="#F9F9F9" stroke-width="4.19495501" stroke-linecap="round" stroke-linejoin="round"></path>
                    <path d="M0.481025674,11.1521798 L38.6556761,33.1104467" id="Stroke-10" stroke="#F9F9F9" stroke-width="4.19495501" stroke-linecap="round" stroke-linejoin="round"></path>
                    <g id="Group-29" transform="translate(36.118863, 30.978310)" fill="#FFD400">
                        <path d="M14.1517586,7.88351579 C14.1517586,9.11943918 13.1536408,10.1213117 11.9223492,10.1213117 C10.6910577,10.1213117 9.69252056,9.11943918 9.69252056,7.88351579 C9.69252056,6.64717146 10.6910577,5.64571991 11.9223492,5.64571991 C13.1536408,5.64571991 14.1517586,6.64717146 14.1517586,7.88351579" id="Fill-11"></path>
                        <path d="M23.5357433,2.44027516 C23.5357433,3.67619854 22.5376255,4.67807104 21.306334,4.67807104 C20.0750425,4.67807104 19.0765053,3.67619854 19.0765053,2.44027516 C19.0765053,1.20435177 20.0750425,0.202479274 21.306334,0.202479274 C22.5376255,0.202479274 23.5357433,1.20435177 23.5357433,2.44027516" id="Fill-13"></path>
                        <path d="M4.79482366,13.2929959 C4.79482366,14.5289192 3.79628649,15.5307917 2.56541435,15.5307917 C1.33370344,15.5307917 0.335585654,14.5289192 0.335585654,13.2929959 C0.335585654,12.0566515 1.33370344,11.0552 2.56541435,11.0552 C3.79628649,11.0552 4.79482366,12.0566515 4.79482366,13.2929959" id="Fill-15"></path>
                        <path d="M14.1517586,18.9861995 C14.1517586,20.2221229 13.1536408,21.2239954 11.9223492,21.2239954 C10.6910577,21.2239954 9.69252056,20.2221229 9.69252056,18.9861995 C9.69252056,17.7498551 10.6910577,16.7484036 11.9223492,16.7484036 C13.1536408,16.7484036 14.1517586,17.7498551 14.1517586,18.9861995" id="Fill-17"></path>
                        <path d="M23.5357433,13.5429588 C23.5357433,14.7788822 22.5376255,15.7807547 21.306334,15.7807547 C20.0750425,15.7807547 19.0765053,14.7788822 19.0765053,13.5429588 C19.0765053,12.3070354 20.0750425,11.305163 21.306334,11.305163 C22.5376255,11.305163 23.5357433,12.3070354 23.5357433,13.5429588" id="Fill-19"></path>
                        <path d="M4.79482366,24.3956795 C4.79482366,25.6316029 3.79628649,26.6334754 2.56541435,26.6334754 C1.33370344,26.6334754 0.335585654,25.6316029 0.335585654,24.3956795 C0.335585654,23.1593352 1.33370344,22.1578836 2.56541435,22.1578836 C3.79628649,22.1578836 4.79482366,23.1593352 4.79482366,24.3956795" id="Fill-21"></path>
                        <path d="M14.1517586,30.0888831 C14.1517586,31.3248065 13.1536408,32.326679 11.9223492,32.326679 C10.6910577,32.326679 9.69252056,31.3248065 9.69252056,30.0888831 C9.69252056,28.8525388 10.6910577,27.8510873 11.9223492,27.8510873 C13.1536408,27.8510873 14.1517586,28.8525388 14.1517586,30.0888831" id="Fill-23"></path>
                        <path d="M23.5357433,24.6456425 C23.5357433,25.8815659 22.5376255,26.8834384 21.306334,26.8834384 C20.0750425,26.8834384 19.0765053,25.8815659 19.0765053,24.6456425 C19.0765053,23.4097191 20.0750425,22.4078466 21.306334,22.4078466 C22.5376255,22.4078466 23.5357433,23.4097191 23.5357433,24.6456425" id="Fill-25"></path>
                        <path d="M4.79482366,35.4984053 C4.79482366,36.7343287 3.79628649,37.7362012 2.56541435,37.7362012 C1.33370344,37.7362012 0.335585654,36.7343287 0.335585654,35.4984053 C0.335585654,34.262061 1.33370344,33.2606094 2.56541435,33.2606094 C3.79628649,33.2606094 4.79482366,34.262061 4.79482366,35.4984053" id="Fill-27"></path>
                    </g>
                </g>
                <g id="Page-1-Copy-5" transform="translate(131.271825, 215.909091)" stroke="#EF403D" stroke-width="4.19495501" stroke-linecap="round" stroke-linejoin="round">
                    <path d="M9.8416511,5.78008055 L48.0305604,27.7758124" id="Stroke-7"></path>
                    <path d="M19.084767,0.34875293 L57.4259102,22.4240452" id="Stroke-8"></path>
                    <path d="M0.481025674,11.1521798 L38.6556761,33.1104467" id="Stroke-10"></path>
                </g>
                <g id="Page-1-Copy-15" transform="translate(104.410714, 233.181818)" stroke="#00B5AD" stroke-width="4.19495501" stroke-linecap="round" stroke-linejoin="round">
                    <path d="M9.8416511,5.78008055 L48.0305604,27.7758124" id="Stroke-7"></path>
                    <path d="M19.084767,0.34875293 L57.4259102,22.4240452" id="Stroke-8"></path>
                    <path d="M0.481025674,11.1521798 L38.6556761,33.1104467" id="Stroke-10"></path>
                </g>
                <g id="Page-1-Copy-17" transform="translate(433.459325, 324.823232) scale(-1, 1) translate(-433.459325, -324.823232) translate(404.679563, 308.030303)" stroke="#F9F9F9" stroke-width="4.19495501" stroke-linecap="round" stroke-linejoin="round">
                    <path d="M19.084767,0.34875293 L57.4259102,22.4240452" id="Stroke-8"></path>
                    <path d="M0.481025674,11.1521798 L38.6556761,33.1104467" id="Stroke-10"></path>
                </g>
                <g id="Page-1-Copy-8" transform="translate(658.900794, 237.500000) scale(-1, 1) translate(-658.900794, -237.500000) translate(630.121032, 220.707071)" stroke-width="4.19495501" stroke-linecap="round" stroke-linejoin="round">
                    <path d="M9.8416511,5.78008055 L48.0305604,27.7758124" id="Stroke-7" stroke="#F9F9F9"></path>
                    <path d="M19.084767,0.34875293 L57.4259102,22.4240452" id="Stroke-8" stroke="#FFD400"></path>
                    <path d="M0.481025674,11.1521798 L38.6556761,33.1104467" id="Stroke-10" stroke="#FFD400"></path>
                </g>
                <g id="Page-1-Copy-14" transform="translate(685.282242, 253.813131) scale(-1, 1) translate(-685.282242, -253.813131) translate(656.982143, 237.020202)" stroke-width="4.19495501" stroke-linecap="round" stroke-linejoin="round">
                    <path d="M8.63392857,5.75757576 L47.0069444,27.8282828" id="Stroke-7" stroke="#F9F9F9"></path>
                    <path d="M18.2271825,0 L56.6001984,22.0707071" id="Stroke-8" stroke="#FFD400"></path>
                    <path d="M0,11.5151515 L38.3730159,33.5858586" id="Stroke-10" stroke="#FFD400"></path>
                </g>
                <g id="Page-1-Copy-10" transform="translate(726.053571, 20.631313) scale(-1, 1) translate(-726.053571, -20.631313) translate(697.273810, 3.838384)" stroke-width="4.19495501" stroke-linecap="round" stroke-linejoin="round">
                    <path d="M9.8416511,5.78008055 L48.0305604,27.7758124" id="Stroke-7" stroke="#242157"></path>
                    <path d="M19.084767,0.34875293 L57.4259102,22.4240452" id="Stroke-8" stroke="#00B5AD"></path>
                    <path d="M0.481025674,11.1521798 L38.6556761,33.1104467" id="Stroke-10" stroke="#00B5AD"></path>
                </g>
                <g id="Page-1-Copy-6" transform="translate(348.079365, 232.222222)">
                    <g id="Group-5" transform="translate(0.000000, 0.112816)"></g>
                    <path d="M19.4349051,11.5376563 L57.6238143,33.5333882" id="Stroke-7" stroke="#FFD400" stroke-width="4.19495501" stroke-linecap="round" stroke-linejoin="round"></path>
                    <path d="M28.678021,6.10632869 L67.0191642,28.181621" id="Stroke-8" stroke="#242157" stroke-width="4.19495501" stroke-linecap="round" stroke-linejoin="round"></path>
                    <path d="M10.0742796,16.9097556 L48.2489301,38.8680224" id="Stroke-10" stroke="#242157" stroke-width="4.19495501" stroke-linecap="round" stroke-linejoin="round"></path>
                    <polygon id="Stroke-1" stroke="#F9F9F9" stroke-width="4.19495501" stroke-linecap="round" stroke-linejoin="round" points="38.4502232 0.420996927 0.418999783 22.4445118 38.4502232 44.4680267 76.6902965 22.6541473"></polygon>
                </g>
                <g id="Page-1-Copy-16" transform="translate(258.862103, 323.383838)">
                    <g id="Group-5" transform="translate(0.000000, 0.112816)"></g>
                    <path d="M28.678021,6.10632869 L67.0191642,28.181621" id="Stroke-8" stroke="#242157" stroke-width="4.19495501" stroke-linecap="round" stroke-linejoin="round"></path>
                    <path d="M10.0742796,16.9097556 L48.2489301,38.8680224" id="Stroke-10" stroke="#242157" stroke-width="4.19495501" stroke-linecap="round" stroke-linejoin="round"></path>
                    <polygon id="Stroke-1" stroke="#EF403D" stroke-width="4.19495501" stroke-linecap="round" stroke-linejoin="round" points="38.4502232 0.420996927 0.418999783 22.4445118 38.4502232 44.4680267 76.6902965 22.6541473"></polygon>
                </g>
                <g id="Page-1-Copy-9" transform="translate(566.805556, 303.232323)">
                    <g id="Group-5" transform="translate(0.000000, 0.112816)"></g>
                    <path d="M19.4349051,11.5376563 L57.6238143,33.5333882" id="Stroke-7" stroke="#FFD400" stroke-width="4.19495501" stroke-linecap="round" stroke-linejoin="round"></path>
                    <path d="M28.678021,6.10632869 L67.0191642,28.181621" id="Stroke-8" stroke="#242157" stroke-width="4.19495501" stroke-linecap="round" stroke-linejoin="round"></path>
                    <path d="M10.0742796,16.9097556 L48.2489301,38.8680224" id="Stroke-10" stroke="#242157" stroke-width="4.19495501" stroke-linecap="round" stroke-linejoin="round"></path>
                </g>
                <g id="Group-4" transform="translate(587.910714, 139.141414)">
                    <path d="M9.8416511,5.78008055 L48.0305604,27.7758124" id="Stroke-7" stroke="#242057" stroke-width="4.19495501" stroke-linecap="round" stroke-linejoin="round"></path>
                    <path d="M19.084767,0.34875293 L57.4259102,22.4240452" id="Stroke-8" stroke="#00B5AD" stroke-width="4.19495501" stroke-linecap="round" stroke-linejoin="round"></path>
                    <path d="M0.481025674,11.1521798 L38.6556761,33.1104467" id="Stroke-10" stroke="#00B5AD" stroke-width="4.19495501" stroke-linecap="round" stroke-linejoin="round"></path>
                    <g id="Group-29" transform="translate(36.454365, 30.707071)" fill="#FFD400">
                        <path d="M14.1517586,7.88351579 C14.1517586,9.11943918 13.1536408,10.1213117 11.9223492,10.1213117 C10.6910577,10.1213117 9.69252056,9.11943918 9.69252056,7.88351579 C9.69252056,6.64717146 10.6910577,5.64571991 11.9223492,5.64571991 C13.1536408,5.64571991 14.1517586,6.64717146 14.1517586,7.88351579" id="Fill-11"></path>
                        <path d="M23.5357433,2.44027516 C23.5357433,3.67619854 22.5376255,4.67807104 21.306334,4.67807104 C20.0750425,4.67807104 19.0765053,3.67619854 19.0765053,2.44027516 C19.0765053,1.20435177 20.0750425,0.202479274 21.306334,0.202479274 C22.5376255,0.202479274 23.5357433,1.20435177 23.5357433,2.44027516" id="Fill-13"></path>
                        <path d="M4.79482366,13.2929959 C4.79482366,14.5289192 3.79628649,15.5307917 2.56541435,15.5307917 C1.33370344,15.5307917 0.335585654,14.5289192 0.335585654,13.2929959 C0.335585654,12.0566515 1.33370344,11.0552 2.56541435,11.0552 C3.79628649,11.0552 4.79482366,12.0566515 4.79482366,13.2929959" id="Fill-15"></path>
                        <path d="M14.1517586,18.9861995 C14.1517586,20.2221229 13.1536408,21.2239954 11.9223492,21.2239954 C10.6910577,21.2239954 9.69252056,20.2221229 9.69252056,18.9861995 C9.69252056,17.7498551 10.6910577,16.7484036 11.9223492,16.7484036 C13.1536408,16.7484036 14.1517586,17.7498551 14.1517586,18.9861995" id="Fill-17"></path>
                        <path d="M23.5357433,13.5429588 C23.5357433,14.7788822 22.5376255,15.7807547 21.306334,15.7807547 C20.0750425,15.7807547 19.0765053,14.7788822 19.0765053,13.5429588 C19.0765053,12.3070354 20.0750425,11.305163 21.306334,11.305163 C22.5376255,11.305163 23.5357433,12.3070354 23.5357433,13.5429588" id="Fill-19"></path>
                        <path d="M4.79482366,24.3956795 C4.79482366,25.6316029 3.79628649,26.6334754 2.56541435,26.6334754 C1.33370344,26.6334754 0.335585654,25.6316029 0.335585654,24.3956795 C0.335585654,23.1593352 1.33370344,22.1578836 2.56541435,22.1578836 C3.79628649,22.1578836 4.79482366,23.1593352 4.79482366,24.3956795" id="Fill-21"></path>
                        <path d="M14.1517586,30.0888831 C14.1517586,31.3248065 13.1536408,32.326679 11.9223492,32.326679 C10.6910577,32.326679 9.69252056,31.3248065 9.69252056,30.0888831 C9.69252056,28.8525388 10.6910577,27.8510873 11.9223492,27.8510873 C13.1536408,27.8510873 14.1517586,28.8525388 14.1517586,30.0888831" id="Fill-23"></path>
                        <path d="M23.5357433,24.6456425 C23.5357433,25.8815659 22.5376255,26.8834384 21.306334,26.8834384 C20.0750425,26.8834384 19.0765053,25.8815659 19.0765053,24.6456425 C19.0765053,23.4097191 20.0750425,22.4078466 21.306334,22.4078466 C22.5376255,22.4078466 23.5357433,23.4097191 23.5357433,24.6456425" id="Fill-25"></path>
                        <path d="M4.79482366,35.4984053 C4.79482366,36.7343287 3.79628649,37.7362012 2.56541435,37.7362012 C1.33370344,37.7362012 0.335585654,36.7343287 0.335585654,35.4984053 C0.335585654,34.262061 1.33370344,33.2606094 2.56541435,33.2606094 C3.79628649,33.2606094 4.79482366,34.262061 4.79482366,35.4984053" id="Fill-27"></path>
                    </g>
                </g>
                <polygon id="Fill-6-Copy-3" fill="#F9F9F9" transform="translate(831.106308, 238.734432) scale(-1, 1) translate(-831.106308, -238.734432) " points="820.06746 219.747475 820.06746 244.753876 842.145155 257.721389 842.103217 232.552921"></polygon>
                <path d="M542.111492,249.517454 L580.300402,271.513186" id="Stroke-7" stroke="#242057" stroke-width="4.19495501" stroke-linecap="round" stroke-linejoin="round"></path>
                <path d="M551.354608,244.086127 L589.695751,266.161419" id="Stroke-8" stroke="#F9F9F9" stroke-width="4.19495501" stroke-linecap="round" stroke-linejoin="round"></path>
                <path d="M532.750867,254.889554 L570.925517,276.84782" id="Stroke-10" stroke="#F9F9F9" stroke-width="4.19495501" stroke-linecap="round" stroke-linejoin="round"></path>
                <polygon id="Stroke-1" stroke="#00B5AD" stroke-width="4.19495501" stroke-linecap="round" stroke-linejoin="round" points="560.463552 237.979798 521.717262 260.417401 560.463552 282.855004 599.422619 260.630978"></polygon>
                <g id="Group-29" transform="translate(568.388705, 274.715684)" fill="#242057">
                    <path d="M14.1517586,7.88351579 C14.1517586,9.11943918 13.1536408,10.1213117 11.9223492,10.1213117 C10.6910577,10.1213117 9.69252056,9.11943918 9.69252056,7.88351579 C9.69252056,6.64717146 10.6910577,5.64571991 11.9223492,5.64571991 C13.1536408,5.64571991 14.1517586,6.64717146 14.1517586,7.88351579" id="Fill-11"></path>
                    <path d="M23.5357433,2.44027516 C23.5357433,3.67619854 22.5376255,4.67807104 21.306334,4.67807104 C20.0750425,4.67807104 19.0765053,3.67619854 19.0765053,2.44027516 C19.0765053,1.20435177 20.0750425,0.202479274 21.306334,0.202479274 C22.5376255,0.202479274 23.5357433,1.20435177 23.5357433,2.44027516" id="Fill-13"></path>
                    <path d="M4.79482366,13.2929959 C4.79482366,14.5289192 3.79628649,15.5307917 2.56541435,15.5307917 C1.33370344,15.5307917 0.335585654,14.5289192 0.335585654,13.2929959 C0.335585654,12.0566515 1.33370344,11.0552 2.56541435,11.0552 C3.79628649,11.0552 4.79482366,12.0566515 4.79482366,13.2929959" id="Fill-15"></path>
                    <path d="M14.1517586,18.9861995 C14.1517586,20.2221229 13.1536408,21.2239954 11.9223492,21.2239954 C10.6910577,21.2239954 9.69252056,20.2221229 9.69252056,18.9861995 C9.69252056,17.7498551 10.6910577,16.7484036 11.9223492,16.7484036 C13.1536408,16.7484036 14.1517586,17.7498551 14.1517586,18.9861995" id="Fill-17"></path>
                    <path d="M23.5357433,13.5429588 C23.5357433,14.7788822 22.5376255,15.7807547 21.306334,15.7807547 C20.0750425,15.7807547 19.0765053,14.7788822 19.0765053,13.5429588 C19.0765053,12.3070354 20.0750425,11.305163 21.306334,11.305163 C22.5376255,11.305163 23.5357433,12.3070354 23.5357433,13.5429588" id="Fill-19"></path>
                    <path d="M4.79482366,24.3956795 C4.79482366,25.6316029 3.79628649,26.6334754 2.56541435,26.6334754 C1.33370344,26.6334754 0.335585654,25.6316029 0.335585654,24.3956795 C0.335585654,23.1593352 1.33370344,22.1578836 2.56541435,22.1578836 C3.79628649,22.1578836 4.79482366,23.1593352 4.79482366,24.3956795" id="Fill-21"></path>
                    <path d="M14.1517586,30.0888831 C14.1517586,31.3248065 13.1536408,32.326679 11.9223492,32.326679 C10.6910577,32.326679 9.69252056,31.3248065 9.69252056,30.0888831 C9.69252056,28.8525388 10.6910577,27.8510873 11.9223492,27.8510873 C13.1536408,27.8510873 14.1517586,28.8525388 14.1517586,30.0888831" id="Fill-23"></path>
                    <path d="M23.5357433,24.6456425 C23.5357433,25.8815659 22.5376255,26.8834384 21.306334,26.8834384 C20.0750425,26.8834384 19.0765053,25.8815659 19.0765053,24.6456425 C19.0765053,23.4097191 20.0750425,22.4078466 21.306334,22.4078466 C22.5376255,22.4078466 23.5357433,23.4097191 23.5357433,24.6456425" id="Fill-25"></path>
                    <path d="M4.79482366,35.4984053 C4.79482366,36.7343287 3.79628649,37.7362012 2.56541435,37.7362012 C1.33370344,37.7362012 0.335585654,36.7343287 0.335585654,35.4984053 C0.335585654,34.262061 1.33370344,33.2606094 2.56541435,33.2606094 C3.79628649,33.2606094 4.79482366,34.262061 4.79482366,35.4984053" id="Fill-27"></path>
                </g>
                <g id="Group-5-Copy-2" transform="translate(114.003968, 37.424242)" stroke-linecap="round" stroke-width="4.19495501" stroke="#00B5AD" stroke-linejoin="round">
                    <polygon id="Stroke-1" points="38.4502232 0.308181032 0.418999783 22.3316959 38.4502232 44.3552108 76.6902965 22.5413314"></polygon>
                </g>
                <polygon id="Fill-6" fill="#242057" points="561.497875 9.6214672 561.497875 34.627868 583.57557 47.5953816 583.533632 22.4269132"></polygon>
                <g id="Group-8" transform="translate(459.361111, 63.813131) scale(-1, 1) translate(-459.361111, -63.813131) translate(430.581349, 47.020202)" stroke-width="4.19495501" stroke-linecap="round" stroke-linejoin="round">
                    <path d="M9.8416511,5.78008055 L48.0305604,27.7758124" id="Stroke-7" stroke="#F9F9F9"></path>
                    <path d="M19.084767,0.34875293 L57.4259102,22.4240452" id="Stroke-8" stroke="#EF403D"></path>
                    <path d="M0.481025674,11.1521798 L38.6556761,33.1104467" id="Stroke-10" stroke="#EF403D"></path>
                </g>
                <g id="Group-8-Copy" transform="translate(487.181548, 80.126263) scale(-1, 1) translate(-487.181548, -80.126263) translate(458.401786, 63.333333)" stroke-width="4.19495501" stroke-linecap="round" stroke-linejoin="round">
                    <path d="M9.8416511,5.78008055 L48.0305604,27.7758124" id="Stroke-7" stroke="#F9F9F9"></path>
                    <path d="M19.084767,0.34875293 L57.4259102,22.4240452" id="Stroke-8" stroke="#EF403D"></path>
                    <path d="M0.481025674,11.1521798 L38.6556761,33.1104467" id="Stroke-10" stroke="#EF403D"></path>
                </g>
                <g id="Group-8-Copy-2" transform="translate(534.188492, 338.737374)" stroke-width="4.19495501" stroke-linecap="round" stroke-linejoin="round">
                    <path d="M9.8416511,5.78008055 L48.0305604,27.7758124" id="Stroke-7" stroke="#F9F9F9"></path>
                    <path d="M19.084767,0.34875293 L57.4259102,22.4240452" id="Stroke-8" stroke="#00B5AD"></path>
                    <path d="M0.481025674,11.1521798 L38.6556761,33.1104467" id="Stroke-10" stroke="#00B5AD"></path>
                </g>
                <polygon id="Fill-6" fill="#EF403D" transform="translate(550.023966, 126.461705) scale(-1, 1) translate(-550.023966, -126.461705) " points="538.985119 107.474747 538.985119 132.481148 561.062814 145.448662 561.020876 120.280193"></polygon>
                <polygon id="Fill-6-Copy-4" fill="#00B5AD" transform="translate(580.722379, 107.269785) scale(-1, 1) translate(-580.722379, -107.269785) " points="569.683532 88.2828283 569.683532 113.289229 591.761226 126.256743 591.719289 101.088274"></polygon>
                <path d="M658.836503,102.699272 L697.025412,124.695004" id="Stroke-7" stroke="#FFD400" stroke-width="4.19495501" stroke-linecap="round" stroke-linejoin="round" transform="translate(677.930958, 113.697138) scale(-1, 1) translate(-677.930958, -113.697138) "></path>
                <g id="Group-5" transform="translate(297.235119, 6.829988)"></g>
                <polygon id="Fill-6" fill="#242157" points="363.428571 41.2626263 363.428571 66.2690271 385.506266 79.2365406 385.464328 54.0680722"></polygon>
                <polygon id="Stroke-1" stroke="#EF403D" stroke-width="4.19495501" stroke-linecap="round" stroke-linejoin="round" transform="translate(677.905669, 113.606128) scale(-1, 1) translate(-677.905669, -113.606128) " points="677.801244 91.5826131 639.770021 113.606128 677.801244 135.629643 716.041318 113.815763"></polygon>
                <polygon id="Fill-6-Copy" fill="#FFD400" points="347.12004 123.787879 347.12004 148.79428 369.197734 161.761793 369.155796 136.593325"></polygon>
                <g id="Group-10" transform="translate(363.428571, 0.000000)" stroke-width="4.19495501" stroke-linecap="round" stroke-linejoin="round">
                    <path d="M28.678021,6.10632869 L67.0191642,28.181621" id="Stroke-8" stroke="#F9F9F9"></path>
                    <polygon id="Stroke-1" stroke="#FFD400" points="38.4502232 0.420996927 0.418999783 22.4445118 38.4502232 44.4680267 76.6902965 22.6541473"></polygon>
                </g>
                <polygon id="Fill-6" fill="#242157" transform="translate(481.450380, 199.416505) scale(-1, 1) translate(-481.450380, -199.416505) " points="470.411533 180.429548 470.411533 205.435949 492.489228 218.403462 492.44729 193.234994"></polygon>
                <g id="Group-29" transform="translate(439.694940, 194.797980) scale(-1, 1) translate(-439.694940, -194.797980) translate(427.703373, 175.606061)" fill="#FFD400">
                    <path d="M14.1517586,7.88351579 C14.1517586,9.11943918 13.1536408,10.1213117 11.9223492,10.1213117 C10.6910577,10.1213117 9.69252056,9.11943918 9.69252056,7.88351579 C9.69252056,6.64717146 10.6910577,5.64571991 11.9223492,5.64571991 C13.1536408,5.64571991 14.1517586,6.64717146 14.1517586,7.88351579" id="Fill-11"></path>
                    <path d="M23.5357433,2.44027516 C23.5357433,3.67619854 22.5376255,4.67807104 21.306334,4.67807104 C20.0750425,4.67807104 19.0765053,3.67619854 19.0765053,2.44027516 C19.0765053,1.20435177 20.0750425,0.202479274 21.306334,0.202479274 C22.5376255,0.202479274 23.5357433,1.20435177 23.5357433,2.44027516" id="Fill-13"></path>
                    <path d="M4.79482366,13.2929959 C4.79482366,14.5289192 3.79628649,15.5307917 2.56541435,15.5307917 C1.33370344,15.5307917 0.335585654,14.5289192 0.335585654,13.2929959 C0.335585654,12.0566515 1.33370344,11.0552 2.56541435,11.0552 C3.79628649,11.0552 4.79482366,12.0566515 4.79482366,13.2929959" id="Fill-15"></path>
                    <path d="M14.1517586,18.9861995 C14.1517586,20.2221229 13.1536408,21.2239954 11.9223492,21.2239954 C10.6910577,21.2239954 9.69252056,20.2221229 9.69252056,18.9861995 C9.69252056,17.7498551 10.6910577,16.7484036 11.9223492,16.7484036 C13.1536408,16.7484036 14.1517586,17.7498551 14.1517586,18.9861995" id="Fill-17"></path>
                    <path d="M23.5357433,13.5429588 C23.5357433,14.7788822 22.5376255,15.7807547 21.306334,15.7807547 C20.0750425,15.7807547 19.0765053,14.7788822 19.0765053,13.5429588 C19.0765053,12.3070354 20.0750425,11.305163 21.306334,11.305163 C22.5376255,11.305163 23.5357433,12.3070354 23.5357433,13.5429588" id="Fill-19"></path>
                    <path d="M4.79482366,24.3956795 C4.79482366,25.6316029 3.79628649,26.6334754 2.56541435,26.6334754 C1.33370344,26.6334754 0.335585654,25.6316029 0.335585654,24.3956795 C0.335585654,23.1593352 1.33370344,22.1578836 2.56541435,22.1578836 C3.79628649,22.1578836 4.79482366,23.1593352 4.79482366,24.3956795" id="Fill-21"></path>
                    <path d="M14.1517586,30.0888831 C14.1517586,31.3248065 13.1536408,32.326679 11.9223492,32.326679 C10.6910577,32.326679 9.69252056,31.3248065 9.69252056,30.0888831 C9.69252056,28.8525388 10.6910577,27.8510873 11.9223492,27.8510873 C13.1536408,27.8510873 14.1517586,28.8525388 14.1517586,30.0888831" id="Fill-23"></path>
                    <path d="M23.5357433,24.6456425 C23.5357433,25.8815659 22.5376255,26.8834384 21.306334,26.8834384 C20.0750425,26.8834384 19.0765053,25.8815659 19.0765053,24.6456425 C19.0765053,23.4097191 20.0750425,22.4078466 21.306334,22.4078466 C22.5376255,22.4078466 23.5357433,23.4097191 23.5357433,24.6456425" id="Fill-25"></path>
                    <path d="M4.79482366,35.4984053 C4.79482366,36.7343287 3.79628649,37.7362012 2.56541435,37.7362012 C1.33370344,37.7362012 0.335585654,36.7343287 0.335585654,35.4984053 C0.335585654,34.262061 1.33370344,33.2606094 2.56541435,33.2606094 C3.79628649,33.2606094 4.79482366,34.262061 4.79482366,35.4984053" id="Fill-27"></path>
                </g>
                <g id="Group-29-Copy-10" transform="translate(467.515377, 211.111111) scale(-1, 1) translate(-467.515377, -211.111111) translate(455.523810, 191.919192)" fill="#FFD400">
                    <path d="M14.1517586,7.88351579 C14.1517586,9.11943918 13.1536408,10.1213117 11.9223492,10.1213117 C10.6910577,10.1213117 9.69252056,9.11943918 9.69252056,7.88351579 C9.69252056,6.64717146 10.6910577,5.64571991 11.9223492,5.64571991 C13.1536408,5.64571991 14.1517586,6.64717146 14.1517586,7.88351579" id="Fill-11"></path>
                    <path d="M23.5357433,2.44027516 C23.5357433,3.67619854 22.5376255,4.67807104 21.306334,4.67807104 C20.0750425,4.67807104 19.0765053,3.67619854 19.0765053,2.44027516 C19.0765053,1.20435177 20.0750425,0.202479274 21.306334,0.202479274 C22.5376255,0.202479274 23.5357433,1.20435177 23.5357433,2.44027516" id="Fill-13"></path>
                    <path d="M4.79482366,13.2929959 C4.79482366,14.5289192 3.79628649,15.5307917 2.56541435,15.5307917 C1.33370344,15.5307917 0.335585654,14.5289192 0.335585654,13.2929959 C0.335585654,12.0566515 1.33370344,11.0552 2.56541435,11.0552 C3.79628649,11.0552 4.79482366,12.0566515 4.79482366,13.2929959" id="Fill-15"></path>
                    <path d="M14.1517586,18.9861995 C14.1517586,20.2221229 13.1536408,21.2239954 11.9223492,21.2239954 C10.6910577,21.2239954 9.69252056,20.2221229 9.69252056,18.9861995 C9.69252056,17.7498551 10.6910577,16.7484036 11.9223492,16.7484036 C13.1536408,16.7484036 14.1517586,17.7498551 14.1517586,18.9861995" id="Fill-17"></path>
                    <path d="M23.5357433,13.5429588 C23.5357433,14.7788822 22.5376255,15.7807547 21.306334,15.7807547 C20.0750425,15.7807547 19.0765053,14.7788822 19.0765053,13.5429588 C19.0765053,12.3070354 20.0750425,11.305163 21.306334,11.305163 C22.5376255,11.305163 23.5357433,12.3070354 23.5357433,13.5429588" id="Fill-19"></path>
                    <path d="M4.79482366,24.3956795 C4.79482366,25.6316029 3.79628649,26.6334754 2.56541435,26.6334754 C1.33370344,26.6334754 0.335585654,25.6316029 0.335585654,24.3956795 C0.335585654,23.1593352 1.33370344,22.1578836 2.56541435,22.1578836 C3.79628649,22.1578836 4.79482366,23.1593352 4.79482366,24.3956795" id="Fill-21"></path>
                    <path d="M14.1517586,30.0888831 C14.1517586,31.3248065 13.1536408,32.326679 11.9223492,32.326679 C10.6910577,32.326679 9.69252056,31.3248065 9.69252056,30.0888831 C9.69252056,28.8525388 10.6910577,27.8510873 11.9223492,27.8510873 C13.1536408,27.8510873 14.1517586,28.8525388 14.1517586,30.0888831" id="Fill-23"></path>
                    <path d="M23.5357433,24.6456425 C23.5357433,25.8815659 22.5376255,26.8834384 21.306334,26.8834384 C20.0750425,26.8834384 19.0765053,25.8815659 19.0765053,24.6456425 C19.0765053,23.4097191 20.0750425,22.4078466 21.306334,22.4078466 C22.5376255,22.4078466 23.5357433,23.4097191 23.5357433,24.6456425" id="Fill-25"></path>
                    <path d="M4.79482366,35.4984053 C4.79482366,36.7343287 3.79628649,37.7362012 2.56541435,37.7362012 C1.33370344,37.7362012 0.335585654,36.7343287 0.335585654,35.4984053 C0.335585654,34.262061 1.33370344,33.2606094 2.56541435,33.2606094 C3.79628649,33.2606094 4.79482366,34.262061 4.79482366,35.4984053" id="Fill-27"></path>
                </g>
                <g id="Group-29-Copy-18" transform="translate(537.546131, 297.474747) scale(-1, 1) translate(-537.546131, -297.474747) translate(525.554563, 278.282828)" fill="#00B5AD">
                    <path d="M14.052492,7.99537164 C14.052492,9.23129503 13.0543742,10.2331675 11.8230827,10.2331675 C10.5917911,10.2331675 9.59325397,9.23129503 9.59325397,7.99537164 C9.59325397,6.7590273 10.5917911,5.75757576 11.8230827,5.75757576 C13.0543742,5.75757576 14.052492,6.7590273 14.052492,7.99537164" id="Fill-11"></path>
                    <path d="M23.6457459,2.23779588 C23.6457459,3.47371927 22.6476282,4.47559177 21.4163366,4.47559177 C20.1850451,4.47559177 19.1865079,3.47371927 19.1865079,2.23779588 C19.1865079,1.0018725 20.1850451,0 21.4163366,0 C22.6476282,0 23.6457459,1.0018725 23.6457459,2.23779588" id="Fill-13"></path>
                    <path d="M4.45923801,12.7933514 C4.45923801,14.0292748 3.46070084,15.0311473 2.22982869,15.0311473 C0.99811779,15.0311473 0,14.0292748 0,12.7933514 C0,11.5570071 0.99811779,10.5555556 2.22982869,10.5555556 C3.46070084,10.5555556 4.45923801,11.5570071 4.45923801,12.7933514" id="Fill-15"></path>
                    <path d="M14.052492,18.5509272 C14.052492,19.7868506 13.0543742,20.7887231 11.8230827,20.7887231 C10.5917911,20.7887231 9.59325397,19.7868506 9.59325397,18.5509272 C9.59325397,17.3145829 10.5917911,16.3131313 11.8230827,16.3131313 C13.0543742,16.3131313 14.052492,17.3145829 14.052492,18.5509272" id="Fill-17"></path>
                    <path d="M23.6457459,13.7529474 C23.6457459,14.9888708 22.6476282,15.9907433 21.4163366,15.9907433 C20.1850451,15.9907433 19.1865079,14.9888708 19.1865079,13.7529474 C19.1865079,12.517024 20.1850451,11.5151515 21.4163366,11.5151515 C22.6476282,11.5151515 23.6457459,12.517024 23.6457459,13.7529474" id="Fill-19"></path>
                    <path d="M4.45923801,24.308503 C4.45923801,25.5444263 3.46070084,26.5462988 2.22982869,26.5462988 C0.99811779,26.5462988 0,25.5444263 0,24.308503 C0,23.0721586 0.99811779,22.0707071 2.22982869,22.0707071 C3.46070084,22.0707071 4.45923801,23.0721586 4.45923801,24.308503" id="Fill-21"></path>
                    <path d="M14.052492,30.0660787 C14.052492,31.3020021 13.0543742,32.3038746 11.8230827,32.3038746 C10.5917911,32.3038746 9.59325397,31.3020021 9.59325397,30.0660787 C9.59325397,28.8297344 10.5917911,27.8282828 11.8230827,27.8282828 C13.0543742,27.8282828 14.052492,28.8297344 14.052492,30.0660787" id="Fill-23"></path>
                    <path d="M23.6457459,24.308503 C23.6457459,25.5444263 22.6476282,26.5462988 21.4163366,26.5462988 C20.1850451,26.5462988 19.1865079,25.5444263 19.1865079,24.308503 C19.1865079,23.0725796 20.1850451,22.0707071 21.4163366,22.0707071 C22.6476282,22.0707071 23.6457459,23.0725796 23.6457459,24.308503" id="Fill-25"></path>
                    <path d="M4.45923801,35.8236545 C4.45923801,37.0595779 3.46070084,38.0614504 2.22982869,38.0614504 C0.99811779,38.0614504 0,37.0595779 0,35.8236545 C0,34.5873101 0.99811779,33.5858586 2.22982869,33.5858586 C3.46070084,33.5858586 4.45923801,34.5873101 4.45923801,35.8236545" id="Fill-27"></path>
                </g>
                <g id="Group-29-Copy-5" transform="translate(374.460813, 57.575758) scale(-1, 1) translate(-374.460813, -57.575758) translate(362.469246, 38.383838)" fill="#FFD400">
                    <path d="M14.1517586,7.88351579 C14.1517586,9.11943918 13.1536408,10.1213117 11.9223492,10.1213117 C10.6910577,10.1213117 9.69252056,9.11943918 9.69252056,7.88351579 C9.69252056,6.64717146 10.6910577,5.64571991 11.9223492,5.64571991 C13.1536408,5.64571991 14.1517586,6.64717146 14.1517586,7.88351579" id="Fill-11"></path>
                    <path d="M23.5357433,2.44027516 C23.5357433,3.67619854 22.5376255,4.67807104 21.306334,4.67807104 C20.0750425,4.67807104 19.0765053,3.67619854 19.0765053,2.44027516 C19.0765053,1.20435177 20.0750425,0.202479274 21.306334,0.202479274 C22.5376255,0.202479274 23.5357433,1.20435177 23.5357433,2.44027516" id="Fill-13"></path>
                    <path d="M4.79482366,13.2929959 C4.79482366,14.5289192 3.79628649,15.5307917 2.56541435,15.5307917 C1.33370344,15.5307917 0.335585654,14.5289192 0.335585654,13.2929959 C0.335585654,12.0566515 1.33370344,11.0552 2.56541435,11.0552 C3.79628649,11.0552 4.79482366,12.0566515 4.79482366,13.2929959" id="Fill-15"></path>
                    <path d="M14.1517586,18.9861995 C14.1517586,20.2221229 13.1536408,21.2239954 11.9223492,21.2239954 C10.6910577,21.2239954 9.69252056,20.2221229 9.69252056,18.9861995 C9.69252056,17.7498551 10.6910577,16.7484036 11.9223492,16.7484036 C13.1536408,16.7484036 14.1517586,17.7498551 14.1517586,18.9861995" id="Fill-17"></path>
                    <path d="M23.5357433,13.5429588 C23.5357433,14.7788822 22.5376255,15.7807547 21.306334,15.7807547 C20.0750425,15.7807547 19.0765053,14.7788822 19.0765053,13.5429588 C19.0765053,12.3070354 20.0750425,11.305163 21.306334,11.305163 C22.5376255,11.305163 23.5357433,12.3070354 23.5357433,13.5429588" id="Fill-19"></path>
                    <path d="M4.79482366,24.3956795 C4.79482366,25.6316029 3.79628649,26.6334754 2.56541435,26.6334754 C1.33370344,26.6334754 0.335585654,25.6316029 0.335585654,24.3956795 C0.335585654,23.1593352 1.33370344,22.1578836 2.56541435,22.1578836 C3.79628649,22.1578836 4.79482366,23.1593352 4.79482366,24.3956795" id="Fill-21"></path>
                    <path d="M14.1517586,30.0888831 C14.1517586,31.3248065 13.1536408,32.326679 11.9223492,32.326679 C10.6910577,32.326679 9.69252056,31.3248065 9.69252056,30.0888831 C9.69252056,28.8525388 10.6910577,27.8510873 11.9223492,27.8510873 C13.1536408,27.8510873 14.1517586,28.8525388 14.1517586,30.0888831" id="Fill-23"></path>
                    <path d="M23.5357433,24.6456425 C23.5357433,25.8815659 22.5376255,26.8834384 21.306334,26.8834384 C20.0750425,26.8834384 19.0765053,25.8815659 19.0765053,24.6456425 C19.0765053,23.4097191 20.0750425,22.4078466 21.306334,22.4078466 C22.5376255,22.4078466 23.5357433,23.4097191 23.5357433,24.6456425" id="Fill-25"></path>
                    <path d="M4.79482366,35.4984053 C4.79482366,36.7343287 3.79628649,37.7362012 2.56541435,37.7362012 C1.33370344,37.7362012 0.335585654,36.7343287 0.335585654,35.4984053 C0.335585654,34.262061 1.33370344,33.2606094 2.56541435,33.2606094 C3.79628649,33.2606094 4.79482366,34.262061 4.79482366,35.4984053" id="Fill-27"></path>
                </g>
                <g id="Group-29-Copy-6" transform="translate(374.460813, 91.161616) scale(-1, 1) translate(-374.460813, -91.161616) translate(362.469246, 71.969697)" fill="#FFD400">
                    <path d="M14.1517586,7.88351579 C14.1517586,9.11943918 13.1536408,10.1213117 11.9223492,10.1213117 C10.6910577,10.1213117 9.69252056,9.11943918 9.69252056,7.88351579 C9.69252056,6.64717146 10.6910577,5.64571991 11.9223492,5.64571991 C13.1536408,5.64571991 14.1517586,6.64717146 14.1517586,7.88351579" id="Fill-11"></path>
                    <path d="M23.5357433,2.44027516 C23.5357433,3.67619854 22.5376255,4.67807104 21.306334,4.67807104 C20.0750425,4.67807104 19.0765053,3.67619854 19.0765053,2.44027516 C19.0765053,1.20435177 20.0750425,0.202479274 21.306334,0.202479274 C22.5376255,0.202479274 23.5357433,1.20435177 23.5357433,2.44027516" id="Fill-13"></path>
                    <path d="M4.79482366,13.2929959 C4.79482366,14.5289192 3.79628649,15.5307917 2.56541435,15.5307917 C1.33370344,15.5307917 0.335585654,14.5289192 0.335585654,13.2929959 C0.335585654,12.0566515 1.33370344,11.0552 2.56541435,11.0552 C3.79628649,11.0552 4.79482366,12.0566515 4.79482366,13.2929959" id="Fill-15"></path>
                    <path d="M14.1517586,18.9861995 C14.1517586,20.2221229 13.1536408,21.2239954 11.9223492,21.2239954 C10.6910577,21.2239954 9.69252056,20.2221229 9.69252056,18.9861995 C9.69252056,17.7498551 10.6910577,16.7484036 11.9223492,16.7484036 C13.1536408,16.7484036 14.1517586,17.7498551 14.1517586,18.9861995" id="Fill-17"></path>
                    <path d="M23.5357433,13.5429588 C23.5357433,14.7788822 22.5376255,15.7807547 21.306334,15.7807547 C20.0750425,15.7807547 19.0765053,14.7788822 19.0765053,13.5429588 C19.0765053,12.3070354 20.0750425,11.305163 21.306334,11.305163 C22.5376255,11.305163 23.5357433,12.3070354 23.5357433,13.5429588" id="Fill-19"></path>
                    <path d="M4.79482366,24.3956795 C4.79482366,25.6316029 3.79628649,26.6334754 2.56541435,26.6334754 C1.33370344,26.6334754 0.335585654,25.6316029 0.335585654,24.3956795 C0.335585654,23.1593352 1.33370344,22.1578836 2.56541435,22.1578836 C3.79628649,22.1578836 4.79482366,23.1593352 4.79482366,24.3956795" id="Fill-21"></path>
                    <path d="M14.1517586,30.0888831 C14.1517586,31.3248065 13.1536408,32.326679 11.9223492,32.326679 C10.6910577,32.326679 9.69252056,31.3248065 9.69252056,30.0888831 C9.69252056,28.8525388 10.6910577,27.8510873 11.9223492,27.8510873 C13.1536408,27.8510873 14.1517586,28.8525388 14.1517586,30.0888831" id="Fill-23"></path>
                    <path d="M23.5357433,24.6456425 C23.5357433,25.8815659 22.5376255,26.8834384 21.306334,26.8834384 C20.0750425,26.8834384 19.0765053,25.8815659 19.0765053,24.6456425 C19.0765053,23.4097191 20.0750425,22.4078466 21.306334,22.4078466 C22.5376255,22.4078466 23.5357433,23.4097191 23.5357433,24.6456425" id="Fill-25"></path>
                    <path d="M4.79482366,35.4984053 C4.79482366,36.7343287 3.79628649,37.7362012 2.56541435,37.7362012 C1.33370344,37.7362012 0.335585654,36.7343287 0.335585654,35.4984053 C0.335585654,34.262061 1.33370344,33.2606094 2.56541435,33.2606094 C3.79628649,33.2606094 4.79482366,34.262061 4.79482366,35.4984053" id="Fill-27"></path>
                </g>
                <g id="Group-29-Copy-4" transform="translate(401.801587, 272.525253)" fill="#FFD400">
                    <path d="M14.1517586,7.88351579 C14.1517586,9.11943918 13.1536408,10.1213117 11.9223492,10.1213117 C10.6910577,10.1213117 9.69252056,9.11943918 9.69252056,7.88351579 C9.69252056,6.64717146 10.6910577,5.64571991 11.9223492,5.64571991 C13.1536408,5.64571991 14.1517586,6.64717146 14.1517586,7.88351579" id="Fill-11"></path>
                    <path d="M23.5357433,2.44027516 C23.5357433,3.67619854 22.5376255,4.67807104 21.306334,4.67807104 C20.0750425,4.67807104 19.0765053,3.67619854 19.0765053,2.44027516 C19.0765053,1.20435177 20.0750425,0.202479274 21.306334,0.202479274 C22.5376255,0.202479274 23.5357433,1.20435177 23.5357433,2.44027516" id="Fill-13"></path>
                    <path d="M4.79482366,13.2929959 C4.79482366,14.5289192 3.79628649,15.5307917 2.56541435,15.5307917 C1.33370344,15.5307917 0.335585654,14.5289192 0.335585654,13.2929959 C0.335585654,12.0566515 1.33370344,11.0552 2.56541435,11.0552 C3.79628649,11.0552 4.79482366,12.0566515 4.79482366,13.2929959" id="Fill-15"></path>
                    <path d="M14.1517586,18.9861995 C14.1517586,20.2221229 13.1536408,21.2239954 11.9223492,21.2239954 C10.6910577,21.2239954 9.69252056,20.2221229 9.69252056,18.9861995 C9.69252056,17.7498551 10.6910577,16.7484036 11.9223492,16.7484036 C13.1536408,16.7484036 14.1517586,17.7498551 14.1517586,18.9861995" id="Fill-17"></path>
                    <path d="M23.5357433,13.5429588 C23.5357433,14.7788822 22.5376255,15.7807547 21.306334,15.7807547 C20.0750425,15.7807547 19.0765053,14.7788822 19.0765053,13.5429588 C19.0765053,12.3070354 20.0750425,11.305163 21.306334,11.305163 C22.5376255,11.305163 23.5357433,12.3070354 23.5357433,13.5429588" id="Fill-19"></path>
                    <path d="M4.79482366,24.3956795 C4.79482366,25.6316029 3.79628649,26.6334754 2.56541435,26.6334754 C1.33370344,26.6334754 0.335585654,25.6316029 0.335585654,24.3956795 C0.335585654,23.1593352 1.33370344,22.1578836 2.56541435,22.1578836 C3.79628649,22.1578836 4.79482366,23.1593352 4.79482366,24.3956795" id="Fill-21"></path>
                    <path d="M14.1517586,30.0888831 C14.1517586,31.3248065 13.1536408,32.326679 11.9223492,32.326679 C10.6910577,32.326679 9.69252056,31.3248065 9.69252056,30.0888831 C9.69252056,28.8525388 10.6910577,27.8510873 11.9223492,27.8510873 C13.1536408,27.8510873 14.1517586,28.8525388 14.1517586,30.0888831" id="Fill-23"></path>
                    <path d="M23.5357433,24.6456425 C23.5357433,25.8815659 22.5376255,26.8834384 21.306334,26.8834384 C20.0750425,26.8834384 19.0765053,25.8815659 19.0765053,24.6456425 C19.0765053,23.4097191 20.0750425,22.4078466 21.306334,22.4078466 C22.5376255,22.4078466 23.5357433,23.4097191 23.5357433,24.6456425" id="Fill-25"></path>
                    <path d="M4.79482366,35.4984053 C4.79482366,36.7343287 3.79628649,37.7362012 2.56541435,37.7362012 C1.33370344,37.7362012 0.335585654,36.7343287 0.335585654,35.4984053 C0.335585654,34.262061 1.33370344,33.2606094 2.56541435,33.2606094 C3.79628649,33.2606094 4.79482366,34.262061 4.79482366,35.4984053" id="Fill-27"></path>
                </g>
                <g id="Group-29-Copy" transform="translate(349.998016, 199.595960)" fill="#F9F9F9">
                    <path d="M14.1517586,7.88351579 C14.1517586,9.11943918 13.1536408,10.1213117 11.9223492,10.1213117 C10.6910577,10.1213117 9.69252056,9.11943918 9.69252056,7.88351579 C9.69252056,6.64717146 10.6910577,5.64571991 11.9223492,5.64571991 C13.1536408,5.64571991 14.1517586,6.64717146 14.1517586,7.88351579" id="Fill-11"></path>
                    <path d="M23.5357433,2.44027516 C23.5357433,3.67619854 22.5376255,4.67807104 21.306334,4.67807104 C20.0750425,4.67807104 19.0765053,3.67619854 19.0765053,2.44027516 C19.0765053,1.20435177 20.0750425,0.202479274 21.306334,0.202479274 C22.5376255,0.202479274 23.5357433,1.20435177 23.5357433,2.44027516" id="Fill-13"></path>
                    <path d="M4.79482366,13.2929959 C4.79482366,14.5289192 3.79628649,15.5307917 2.56541435,15.5307917 C1.33370344,15.5307917 0.335585654,14.5289192 0.335585654,13.2929959 C0.335585654,12.0566515 1.33370344,11.0552 2.56541435,11.0552 C3.79628649,11.0552 4.79482366,12.0566515 4.79482366,13.2929959" id="Fill-15"></path>
                    <path d="M14.1517586,18.9861995 C14.1517586,20.2221229 13.1536408,21.2239954 11.9223492,21.2239954 C10.6910577,21.2239954 9.69252056,20.2221229 9.69252056,18.9861995 C9.69252056,17.7498551 10.6910577,16.7484036 11.9223492,16.7484036 C13.1536408,16.7484036 14.1517586,17.7498551 14.1517586,18.9861995" id="Fill-17"></path>
                    <path d="M23.5357433,13.5429588 C23.5357433,14.7788822 22.5376255,15.7807547 21.306334,15.7807547 C20.0750425,15.7807547 19.0765053,14.7788822 19.0765053,13.5429588 C19.0765053,12.3070354 20.0750425,11.305163 21.306334,11.305163 C22.5376255,11.305163 23.5357433,12.3070354 23.5357433,13.5429588" id="Fill-19"></path>
                    <path d="M4.79482366,24.3956795 C4.79482366,25.6316029 3.79628649,26.6334754 2.56541435,26.6334754 C1.33370344,26.6334754 0.335585654,25.6316029 0.335585654,24.3956795 C0.335585654,23.1593352 1.33370344,22.1578836 2.56541435,22.1578836 C3.79628649,22.1578836 4.79482366,23.1593352 4.79482366,24.3956795" id="Fill-21"></path>
                    <path d="M14.1517586,30.0888831 C14.1517586,31.3248065 13.1536408,32.326679 11.9223492,32.326679 C10.6910577,32.326679 9.69252056,31.3248065 9.69252056,30.0888831 C9.69252056,28.8525388 10.6910577,27.8510873 11.9223492,27.8510873 C13.1536408,27.8510873 14.1517586,28.8525388 14.1517586,30.0888831" id="Fill-23"></path>
                    <path d="M23.5357433,24.6456425 C23.5357433,25.8815659 22.5376255,26.8834384 21.306334,26.8834384 C20.0750425,26.8834384 19.0765053,25.8815659 19.0765053,24.6456425 C19.0765053,23.4097191 20.0750425,22.4078466 21.306334,22.4078466 C22.5376255,22.4078466 23.5357433,23.4097191 23.5357433,24.6456425" id="Fill-25"></path>
                    <path d="M4.79482366,35.4984053 C4.79482366,36.7343287 3.79628649,37.7362012 2.56541435,37.7362012 C1.33370344,37.7362012 0.335585654,36.7343287 0.335585654,35.4984053 C0.335585654,34.262061 1.33370344,33.2606094 2.56541435,33.2606094 C3.79628649,33.2606094 4.79482366,34.262061 4.79482366,35.4984053" id="Fill-27"></path>
                </g>
                <g id="Group-7" transform="translate(749.077381, 201.515152)" fill="#F9F9F9">
                    <g id="Group-29-Copy-12" transform="translate(11.991567, 86.363636) scale(-1, 1) translate(-11.991567, -86.363636) translate(0.000000, 67.171717)">
                        <path d="M14.1517586,7.88351579 C14.1517586,9.11943918 13.1536408,10.1213117 11.9223492,10.1213117 C10.6910577,10.1213117 9.69252056,9.11943918 9.69252056,7.88351579 C9.69252056,6.64717146 10.6910577,5.64571991 11.9223492,5.64571991 C13.1536408,5.64571991 14.1517586,6.64717146 14.1517586,7.88351579" id="Fill-11"></path>
                        <path d="M23.5357433,2.44027516 C23.5357433,3.67619854 22.5376255,4.67807104 21.306334,4.67807104 C20.0750425,4.67807104 19.0765053,3.67619854 19.0765053,2.44027516 C19.0765053,1.20435177 20.0750425,0.202479274 21.306334,0.202479274 C22.5376255,0.202479274 23.5357433,1.20435177 23.5357433,2.44027516" id="Fill-13"></path>
                        <path d="M4.79482366,13.2929959 C4.79482366,14.5289192 3.79628649,15.5307917 2.56541435,15.5307917 C1.33370344,15.5307917 0.335585654,14.5289192 0.335585654,13.2929959 C0.335585654,12.0566515 1.33370344,11.0552 2.56541435,11.0552 C3.79628649,11.0552 4.79482366,12.0566515 4.79482366,13.2929959" id="Fill-15"></path>
                        <path d="M14.1517586,18.9861995 C14.1517586,20.2221229 13.1536408,21.2239954 11.9223492,21.2239954 C10.6910577,21.2239954 9.69252056,20.2221229 9.69252056,18.9861995 C9.69252056,17.7498551 10.6910577,16.7484036 11.9223492,16.7484036 C13.1536408,16.7484036 14.1517586,17.7498551 14.1517586,18.9861995" id="Fill-17"></path>
                        <path d="M23.5357433,13.5429588 C23.5357433,14.7788822 22.5376255,15.7807547 21.306334,15.7807547 C20.0750425,15.7807547 19.0765053,14.7788822 19.0765053,13.5429588 C19.0765053,12.3070354 20.0750425,11.305163 21.306334,11.305163 C22.5376255,11.305163 23.5357433,12.3070354 23.5357433,13.5429588" id="Fill-19"></path>
                        <path d="M4.79482366,24.3956795 C4.79482366,25.6316029 3.79628649,26.6334754 2.56541435,26.6334754 C1.33370344,26.6334754 0.335585654,25.6316029 0.335585654,24.3956795 C0.335585654,23.1593352 1.33370344,22.1578836 2.56541435,22.1578836 C3.79628649,22.1578836 4.79482366,23.1593352 4.79482366,24.3956795" id="Fill-21"></path>
                        <path d="M14.1517586,30.0888831 C14.1517586,31.3248065 13.1536408,32.326679 11.9223492,32.326679 C10.6910577,32.326679 9.69252056,31.3248065 9.69252056,30.0888831 C9.69252056,28.8525388 10.6910577,27.8510873 11.9223492,27.8510873 C13.1536408,27.8510873 14.1517586,28.8525388 14.1517586,30.0888831" id="Fill-23"></path>
                        <path d="M23.5357433,24.6456425 C23.5357433,25.8815659 22.5376255,26.8834384 21.306334,26.8834384 C20.0750425,26.8834384 19.0765053,25.8815659 19.0765053,24.6456425 C19.0765053,23.4097191 20.0750425,22.4078466 21.306334,22.4078466 C22.5376255,22.4078466 23.5357433,23.4097191 23.5357433,24.6456425" id="Fill-25"></path>
                        <path d="M4.79482366,35.4984053 C4.79482366,36.7343287 3.79628649,37.7362012 2.56541435,37.7362012 C1.33370344,37.7362012 0.335585654,36.7343287 0.335585654,35.4984053 C0.335585654,34.262061 1.33370344,33.2606094 2.56541435,33.2606094 C3.79628649,33.2606094 4.79482366,34.262061 4.79482366,35.4984053" id="Fill-27"></path>
                    </g>
                    <g id="Group-6">
                        <g id="Group-29-Copy-3" transform="translate(11.991567, 19.191919) scale(-1, 1) translate(-11.991567, -19.191919) ">
                            <path d="M14.1517586,7.88351579 C14.1517586,9.11943918 13.1536408,10.1213117 11.9223492,10.1213117 C10.6910577,10.1213117 9.69252056,9.11943918 9.69252056,7.88351579 C9.69252056,6.64717146 10.6910577,5.64571991 11.9223492,5.64571991 C13.1536408,5.64571991 14.1517586,6.64717146 14.1517586,7.88351579" id="Fill-11"></path>
                            <path d="M23.5357433,2.44027516 C23.5357433,3.67619854 22.5376255,4.67807104 21.306334,4.67807104 C20.0750425,4.67807104 19.0765053,3.67619854 19.0765053,2.44027516 C19.0765053,1.20435177 20.0750425,0.202479274 21.306334,0.202479274 C22.5376255,0.202479274 23.5357433,1.20435177 23.5357433,2.44027516" id="Fill-13"></path>
                            <path d="M4.79482366,13.2929959 C4.79482366,14.5289192 3.79628649,15.5307917 2.56541435,15.5307917 C1.33370344,15.5307917 0.335585654,14.5289192 0.335585654,13.2929959 C0.335585654,12.0566515 1.33370344,11.0552 2.56541435,11.0552 C3.79628649,11.0552 4.79482366,12.0566515 4.79482366,13.2929959" id="Fill-15"></path>
                            <path d="M14.1517586,18.9861995 C14.1517586,20.2221229 13.1536408,21.2239954 11.9223492,21.2239954 C10.6910577,21.2239954 9.69252056,20.2221229 9.69252056,18.9861995 C9.69252056,17.7498551 10.6910577,16.7484036 11.9223492,16.7484036 C13.1536408,16.7484036 14.1517586,17.7498551 14.1517586,18.9861995" id="Fill-17"></path>
                            <path d="M23.5357433,13.5429588 C23.5357433,14.7788822 22.5376255,15.7807547 21.306334,15.7807547 C20.0750425,15.7807547 19.0765053,14.7788822 19.0765053,13.5429588 C19.0765053,12.3070354 20.0750425,11.305163 21.306334,11.305163 C22.5376255,11.305163 23.5357433,12.3070354 23.5357433,13.5429588" id="Fill-19"></path>
                            <path d="M4.79482366,24.3956795 C4.79482366,25.6316029 3.79628649,26.6334754 2.56541435,26.6334754 C1.33370344,26.6334754 0.335585654,25.6316029 0.335585654,24.3956795 C0.335585654,23.1593352 1.33370344,22.1578836 2.56541435,22.1578836 C3.79628649,22.1578836 4.79482366,23.1593352 4.79482366,24.3956795" id="Fill-21"></path>
                            <path d="M14.1517586,30.0888831 C14.1517586,31.3248065 13.1536408,32.326679 11.9223492,32.326679 C10.6910577,32.326679 9.69252056,31.3248065 9.69252056,30.0888831 C9.69252056,28.8525388 10.6910577,27.8510873 11.9223492,27.8510873 C13.1536408,27.8510873 14.1517586,28.8525388 14.1517586,30.0888831" id="Fill-23"></path>
                            <path d="M23.5357433,24.6456425 C23.5357433,25.8815659 22.5376255,26.8834384 21.306334,26.8834384 C20.0750425,26.8834384 19.0765053,25.8815659 19.0765053,24.6456425 C19.0765053,23.4097191 20.0750425,22.4078466 21.306334,22.4078466 C22.5376255,22.4078466 23.5357433,23.4097191 23.5357433,24.6456425" id="Fill-25"></path>
                            <path d="M4.79482366,35.4984053 C4.79482366,36.7343287 3.79628649,37.7362012 2.56541435,37.7362012 C1.33370344,37.7362012 0.335585654,36.7343287 0.335585654,35.4984053 C0.335585654,34.262061 1.33370344,33.2606094 2.56541435,33.2606094 C3.79628649,33.2606094 4.79482366,34.262061 4.79482366,35.4984053" id="Fill-27"></path>
                        </g>
                        <g id="Group-29-Copy-14" transform="translate(39.812004, 35.505051) scale(-1, 1) translate(-39.812004, -35.505051) translate(27.820437, 16.313131)">
                            <path d="M14.1517586,7.88351579 C14.1517586,9.11943918 13.1536408,10.1213117 11.9223492,10.1213117 C10.6910577,10.1213117 9.69252056,9.11943918 9.69252056,7.88351579 C9.69252056,6.64717146 10.6910577,5.64571991 11.9223492,5.64571991 C13.1536408,5.64571991 14.1517586,6.64717146 14.1517586,7.88351579" id="Fill-11"></path>
                            <path d="M23.5357433,2.44027516 C23.5357433,3.67619854 22.5376255,4.67807104 21.306334,4.67807104 C20.0750425,4.67807104 19.0765053,3.67619854 19.0765053,2.44027516 C19.0765053,1.20435177 20.0750425,0.202479274 21.306334,0.202479274 C22.5376255,0.202479274 23.5357433,1.20435177 23.5357433,2.44027516" id="Fill-13"></path>
                            <path d="M4.79482366,13.2929959 C4.79482366,14.5289192 3.79628649,15.5307917 2.56541435,15.5307917 C1.33370344,15.5307917 0.335585654,14.5289192 0.335585654,13.2929959 C0.335585654,12.0566515 1.33370344,11.0552 2.56541435,11.0552 C3.79628649,11.0552 4.79482366,12.0566515 4.79482366,13.2929959" id="Fill-15"></path>
                            <path d="M14.1517586,18.9861995 C14.1517586,20.2221229 13.1536408,21.2239954 11.9223492,21.2239954 C10.6910577,21.2239954 9.69252056,20.2221229 9.69252056,18.9861995 C9.69252056,17.7498551 10.6910577,16.7484036 11.9223492,16.7484036 C13.1536408,16.7484036 14.1517586,17.7498551 14.1517586,18.9861995" id="Fill-17"></path>
                            <path d="M23.5357433,13.5429588 C23.5357433,14.7788822 22.5376255,15.7807547 21.306334,15.7807547 C20.0750425,15.7807547 19.0765053,14.7788822 19.0765053,13.5429588 C19.0765053,12.3070354 20.0750425,11.305163 21.306334,11.305163 C22.5376255,11.305163 23.5357433,12.3070354 23.5357433,13.5429588" id="Fill-19"></path>
                            <path d="M4.79482366,24.3956795 C4.79482366,25.6316029 3.79628649,26.6334754 2.56541435,26.6334754 C1.33370344,26.6334754 0.335585654,25.6316029 0.335585654,24.3956795 C0.335585654,23.1593352 1.33370344,22.1578836 2.56541435,22.1578836 C3.79628649,22.1578836 4.79482366,23.1593352 4.79482366,24.3956795" id="Fill-21"></path>
                            <path d="M14.1517586,30.0888831 C14.1517586,31.3248065 13.1536408,32.326679 11.9223492,32.326679 C10.6910577,32.326679 9.69252056,31.3248065 9.69252056,30.0888831 C9.69252056,28.8525388 10.6910577,27.8510873 11.9223492,27.8510873 C13.1536408,27.8510873 14.1517586,28.8525388 14.1517586,30.0888831" id="Fill-23"></path>
                            <path d="M23.5357433,24.6456425 C23.5357433,25.8815659 22.5376255,26.8834384 21.306334,26.8834384 C20.0750425,26.8834384 19.0765053,25.8815659 19.0765053,24.6456425 C19.0765053,23.4097191 20.0750425,22.4078466 21.306334,22.4078466 C22.5376255,22.4078466 23.5357433,23.4097191 23.5357433,24.6456425" id="Fill-25"></path>
                            <path d="M4.79482366,35.4984053 C4.79482366,36.7343287 3.79628649,37.7362012 2.56541435,37.7362012 C1.33370344,37.7362012 0.335585654,36.7343287 0.335585654,35.4984053 C0.335585654,34.262061 1.33370344,33.2606094 2.56541435,33.2606094 C3.79628649,33.2606094 4.79482366,34.262061 4.79482366,35.4984053" id="Fill-27"></path>
                        </g>
                        <g id="Group-29-Copy-15" transform="translate(39.812004, 102.676768) scale(-1, 1) translate(-39.812004, -102.676768) translate(27.820437, 83.484848)">
                            <path d="M14.1517586,7.88351579 C14.1517586,9.11943918 13.1536408,10.1213117 11.9223492,10.1213117 C10.6910577,10.1213117 9.69252056,9.11943918 9.69252056,7.88351579 C9.69252056,6.64717146 10.6910577,5.64571991 11.9223492,5.64571991 C13.1536408,5.64571991 14.1517586,6.64717146 14.1517586,7.88351579" id="Fill-11"></path>
                            <path d="M23.5357433,2.44027516 C23.5357433,3.67619854 22.5376255,4.67807104 21.306334,4.67807104 C20.0750425,4.67807104 19.0765053,3.67619854 19.0765053,2.44027516 C19.0765053,1.20435177 20.0750425,0.202479274 21.306334,0.202479274 C22.5376255,0.202479274 23.5357433,1.20435177 23.5357433,2.44027516" id="Fill-13"></path>
                            <path d="M4.79482366,13.2929959 C4.79482366,14.5289192 3.79628649,15.5307917 2.56541435,15.5307917 C1.33370344,15.5307917 0.335585654,14.5289192 0.335585654,13.2929959 C0.335585654,12.0566515 1.33370344,11.0552 2.56541435,11.0552 C3.79628649,11.0552 4.79482366,12.0566515 4.79482366,13.2929959" id="Fill-15"></path>
                            <path d="M14.1517586,18.9861995 C14.1517586,20.2221229 13.1536408,21.2239954 11.9223492,21.2239954 C10.6910577,21.2239954 9.69252056,20.2221229 9.69252056,18.9861995 C9.69252056,17.7498551 10.6910577,16.7484036 11.9223492,16.7484036 C13.1536408,16.7484036 14.1517586,17.7498551 14.1517586,18.9861995" id="Fill-17"></path>
                            <path d="M23.5357433,13.5429588 C23.5357433,14.7788822 22.5376255,15.7807547 21.306334,15.7807547 C20.0750425,15.7807547 19.0765053,14.7788822 19.0765053,13.5429588 C19.0765053,12.3070354 20.0750425,11.305163 21.306334,11.305163 C22.5376255,11.305163 23.5357433,12.3070354 23.5357433,13.5429588" id="Fill-19"></path>
                            <path d="M4.79482366,24.3956795 C4.79482366,25.6316029 3.79628649,26.6334754 2.56541435,26.6334754 C1.33370344,26.6334754 0.335585654,25.6316029 0.335585654,24.3956795 C0.335585654,23.1593352 1.33370344,22.1578836 2.56541435,22.1578836 C3.79628649,22.1578836 4.79482366,23.1593352 4.79482366,24.3956795" id="Fill-21"></path>
                            <path d="M14.1517586,30.0888831 C14.1517586,31.3248065 13.1536408,32.326679 11.9223492,32.326679 C10.6910577,32.326679 9.69252056,31.3248065 9.69252056,30.0888831 C9.69252056,28.8525388 10.6910577,27.8510873 11.9223492,27.8510873 C13.1536408,27.8510873 14.1517586,28.8525388 14.1517586,30.0888831" id="Fill-23"></path>
                            <path d="M23.5357433,24.6456425 C23.5357433,25.8815659 22.5376255,26.8834384 21.306334,26.8834384 C20.0750425,26.8834384 19.0765053,25.8815659 19.0765053,24.6456425 C19.0765053,23.4097191 20.0750425,22.4078466 21.306334,22.4078466 C22.5376255,22.4078466 23.5357433,23.4097191 23.5357433,24.6456425" id="Fill-25"></path>
                            <path d="M4.79482366,35.4984053 C4.79482366,36.7343287 3.79628649,37.7362012 2.56541435,37.7362012 C1.33370344,37.7362012 0.335585654,36.7343287 0.335585654,35.4984053 C0.335585654,34.262061 1.33370344,33.2606094 2.56541435,33.2606094 C3.79628649,33.2606094 4.79482366,34.262061 4.79482366,35.4984053" id="Fill-27"></path>
                        </g>
                        <g id="Group-29-Copy-11" transform="translate(11.991567, 52.777778) scale(-1, 1) translate(-11.991567, -52.777778) translate(0.000000, 33.585859)">
                            <path d="M14.1517586,7.88351579 C14.1517586,9.11943918 13.1536408,10.1213117 11.9223492,10.1213117 C10.6910577,10.1213117 9.69252056,9.11943918 9.69252056,7.88351579 C9.69252056,6.64717146 10.6910577,5.64571991 11.9223492,5.64571991 C13.1536408,5.64571991 14.1517586,6.64717146 14.1517586,7.88351579" id="Fill-11"></path>
                            <path d="M23.5357433,2.44027516 C23.5357433,3.67619854 22.5376255,4.67807104 21.306334,4.67807104 C20.0750425,4.67807104 19.0765053,3.67619854 19.0765053,2.44027516 C19.0765053,1.20435177 20.0750425,0.202479274 21.306334,0.202479274 C22.5376255,0.202479274 23.5357433,1.20435177 23.5357433,2.44027516" id="Fill-13"></path>
                            <path d="M4.79482366,13.2929959 C4.79482366,14.5289192 3.79628649,15.5307917 2.56541435,15.5307917 C1.33370344,15.5307917 0.335585654,14.5289192 0.335585654,13.2929959 C0.335585654,12.0566515 1.33370344,11.0552 2.56541435,11.0552 C3.79628649,11.0552 4.79482366,12.0566515 4.79482366,13.2929959" id="Fill-15"></path>
                            <path d="M14.1517586,18.9861995 C14.1517586,20.2221229 13.1536408,21.2239954 11.9223492,21.2239954 C10.6910577,21.2239954 9.69252056,20.2221229 9.69252056,18.9861995 C9.69252056,17.7498551 10.6910577,16.7484036 11.9223492,16.7484036 C13.1536408,16.7484036 14.1517586,17.7498551 14.1517586,18.9861995" id="Fill-17"></path>
                            <path d="M23.5357433,13.5429588 C23.5357433,14.7788822 22.5376255,15.7807547 21.306334,15.7807547 C20.0750425,15.7807547 19.0765053,14.7788822 19.0765053,13.5429588 C19.0765053,12.3070354 20.0750425,11.305163 21.306334,11.305163 C22.5376255,11.305163 23.5357433,12.3070354 23.5357433,13.5429588" id="Fill-19"></path>
                            <path d="M4.79482366,24.3956795 C4.79482366,25.6316029 3.79628649,26.6334754 2.56541435,26.6334754 C1.33370344,26.6334754 0.335585654,25.6316029 0.335585654,24.3956795 C0.335585654,23.1593352 1.33370344,22.1578836 2.56541435,22.1578836 C3.79628649,22.1578836 4.79482366,23.1593352 4.79482366,24.3956795" id="Fill-21"></path>
                            <path d="M14.1517586,30.0888831 C14.1517586,31.3248065 13.1536408,32.326679 11.9223492,32.326679 C10.6910577,32.326679 9.69252056,31.3248065 9.69252056,30.0888831 C9.69252056,28.8525388 10.6910577,27.8510873 11.9223492,27.8510873 C13.1536408,27.8510873 14.1517586,28.8525388 14.1517586,30.0888831" id="Fill-23"></path>
                            <path d="M23.5357433,24.6456425 C23.5357433,25.8815659 22.5376255,26.8834384 21.306334,26.8834384 C20.0750425,26.8834384 19.0765053,25.8815659 19.0765053,24.6456425 C19.0765053,23.4097191 20.0750425,22.4078466 21.306334,22.4078466 C22.5376255,22.4078466 23.5357433,23.4097191 23.5357433,24.6456425" id="Fill-25"></path>
                            <path d="M4.79482366,35.4984053 C4.79482366,36.7343287 3.79628649,37.7362012 2.56541435,37.7362012 C1.33370344,37.7362012 0.335585654,36.7343287 0.335585654,35.4984053 C0.335585654,34.262061 1.33370344,33.2606094 2.56541435,33.2606094 C3.79628649,33.2606094 4.79482366,34.262061 4.79482366,35.4984053" id="Fill-27"></path>
                        </g>
                        <g id="Group-29-Copy-16" transform="translate(39.812004, 69.090909) scale(-1, 1) translate(-39.812004, -69.090909) translate(27.820437, 49.898990)">
                            <path d="M14.1517586,7.88351579 C14.1517586,9.11943918 13.1536408,10.1213117 11.9223492,10.1213117 C10.6910577,10.1213117 9.69252056,9.11943918 9.69252056,7.88351579 C9.69252056,6.64717146 10.6910577,5.64571991 11.9223492,5.64571991 C13.1536408,5.64571991 14.1517586,6.64717146 14.1517586,7.88351579" id="Fill-11"></path>
                            <path d="M23.5357433,2.44027516 C23.5357433,3.67619854 22.5376255,4.67807104 21.306334,4.67807104 C20.0750425,4.67807104 19.0765053,3.67619854 19.0765053,2.44027516 C19.0765053,1.20435177 20.0750425,0.202479274 21.306334,0.202479274 C22.5376255,0.202479274 23.5357433,1.20435177 23.5357433,2.44027516" id="Fill-13"></path>
                            <path d="M4.79482366,13.2929959 C4.79482366,14.5289192 3.79628649,15.5307917 2.56541435,15.5307917 C1.33370344,15.5307917 0.335585654,14.5289192 0.335585654,13.2929959 C0.335585654,12.0566515 1.33370344,11.0552 2.56541435,11.0552 C3.79628649,11.0552 4.79482366,12.0566515 4.79482366,13.2929959" id="Fill-15"></path>
                            <path d="M14.1517586,18.9861995 C14.1517586,20.2221229 13.1536408,21.2239954 11.9223492,21.2239954 C10.6910577,21.2239954 9.69252056,20.2221229 9.69252056,18.9861995 C9.69252056,17.7498551 10.6910577,16.7484036 11.9223492,16.7484036 C13.1536408,16.7484036 14.1517586,17.7498551 14.1517586,18.9861995" id="Fill-17"></path>
                            <path d="M23.5357433,13.5429588 C23.5357433,14.7788822 22.5376255,15.7807547 21.306334,15.7807547 C20.0750425,15.7807547 19.0765053,14.7788822 19.0765053,13.5429588 C19.0765053,12.3070354 20.0750425,11.305163 21.306334,11.305163 C22.5376255,11.305163 23.5357433,12.3070354 23.5357433,13.5429588" id="Fill-19"></path>
                            <path d="M4.79482366,24.3956795 C4.79482366,25.6316029 3.79628649,26.6334754 2.56541435,26.6334754 C1.33370344,26.6334754 0.335585654,25.6316029 0.335585654,24.3956795 C0.335585654,23.1593352 1.33370344,22.1578836 2.56541435,22.1578836 C3.79628649,22.1578836 4.79482366,23.1593352 4.79482366,24.3956795" id="Fill-21"></path>
                            <path d="M14.1517586,30.0888831 C14.1517586,31.3248065 13.1536408,32.326679 11.9223492,32.326679 C10.6910577,32.326679 9.69252056,31.3248065 9.69252056,30.0888831 C9.69252056,28.8525388 10.6910577,27.8510873 11.9223492,27.8510873 C13.1536408,27.8510873 14.1517586,28.8525388 14.1517586,30.0888831" id="Fill-23"></path>
                            <path d="M23.5357433,24.6456425 C23.5357433,25.8815659 22.5376255,26.8834384 21.306334,26.8834384 C20.0750425,26.8834384 19.0765053,25.8815659 19.0765053,24.6456425 C19.0765053,23.4097191 20.0750425,22.4078466 21.306334,22.4078466 C22.5376255,22.4078466 23.5357433,23.4097191 23.5357433,24.6456425" id="Fill-25"></path>
                            <path d="M4.79482366,35.4984053 C4.79482366,36.7343287 3.79628649,37.7362012 2.56541435,37.7362012 C1.33370344,37.7362012 0.335585654,36.7343287 0.335585654,35.4984053 C0.335585654,34.262061 1.33370344,33.2606094 2.56541435,33.2606094 C3.79628649,33.2606094 4.79482366,34.262061 4.79482366,35.4984053" id="Fill-27"></path>
                        </g>
                        <g id="Group-29-Copy-13" transform="translate(11.991567, 119.949495) scale(-1, 1) translate(-11.991567, -119.949495) translate(0.000000, 100.757576)">
                            <path d="M14.1517586,7.88351579 C14.1517586,9.11943918 13.1536408,10.1213117 11.9223492,10.1213117 C10.6910577,10.1213117 9.69252056,9.11943918 9.69252056,7.88351579 C9.69252056,6.64717146 10.6910577,5.64571991 11.9223492,5.64571991 C13.1536408,5.64571991 14.1517586,6.64717146 14.1517586,7.88351579" id="Fill-11"></path>
                            <path d="M23.5357433,2.44027516 C23.5357433,3.67619854 22.5376255,4.67807104 21.306334,4.67807104 C20.0750425,4.67807104 19.0765053,3.67619854 19.0765053,2.44027516 C19.0765053,1.20435177 20.0750425,0.202479274 21.306334,0.202479274 C22.5376255,0.202479274 23.5357433,1.20435177 23.5357433,2.44027516" id="Fill-13"></path>
                            <path d="M4.79482366,13.2929959 C4.79482366,14.5289192 3.79628649,15.5307917 2.56541435,15.5307917 C1.33370344,15.5307917 0.335585654,14.5289192 0.335585654,13.2929959 C0.335585654,12.0566515 1.33370344,11.0552 2.56541435,11.0552 C3.79628649,11.0552 4.79482366,12.0566515 4.79482366,13.2929959" id="Fill-15"></path>
                            <path d="M14.1517586,18.9861995 C14.1517586,20.2221229 13.1536408,21.2239954 11.9223492,21.2239954 C10.6910577,21.2239954 9.69252056,20.2221229 9.69252056,18.9861995 C9.69252056,17.7498551 10.6910577,16.7484036 11.9223492,16.7484036 C13.1536408,16.7484036 14.1517586,17.7498551 14.1517586,18.9861995" id="Fill-17"></path>
                            <path d="M23.5357433,13.5429588 C23.5357433,14.7788822 22.5376255,15.7807547 21.306334,15.7807547 C20.0750425,15.7807547 19.0765053,14.7788822 19.0765053,13.5429588 C19.0765053,12.3070354 20.0750425,11.305163 21.306334,11.305163 C22.5376255,11.305163 23.5357433,12.3070354 23.5357433,13.5429588" id="Fill-19"></path>
                            <path d="M4.79482366,24.3956795 C4.79482366,25.6316029 3.79628649,26.6334754 2.56541435,26.6334754 C1.33370344,26.6334754 0.335585654,25.6316029 0.335585654,24.3956795 C0.335585654,23.1593352 1.33370344,22.1578836 2.56541435,22.1578836 C3.79628649,22.1578836 4.79482366,23.1593352 4.79482366,24.3956795" id="Fill-21"></path>
                            <path d="M14.1517586,30.0888831 C14.1517586,31.3248065 13.1536408,32.326679 11.9223492,32.326679 C10.6910577,32.326679 9.69252056,31.3248065 9.69252056,30.0888831 C9.69252056,28.8525388 10.6910577,27.8510873 11.9223492,27.8510873 C13.1536408,27.8510873 14.1517586,28.8525388 14.1517586,30.0888831" id="Fill-23"></path>
                            <path d="M23.5357433,24.6456425 C23.5357433,25.8815659 22.5376255,26.8834384 21.306334,26.8834384 C20.0750425,26.8834384 19.0765053,25.8815659 19.0765053,24.6456425 C19.0765053,23.4097191 20.0750425,22.4078466 21.306334,22.4078466 C22.5376255,22.4078466 23.5357433,23.4097191 23.5357433,24.6456425" id="Fill-25"></path>
                            <path d="M4.79482366,35.4984053 C4.79482366,36.7343287 3.79628649,37.7362012 2.56541435,37.7362012 C1.33370344,37.7362012 0.335585654,36.7343287 0.335585654,35.4984053 C0.335585654,34.262061 1.33370344,33.2606094 2.56541435,33.2606094 C3.79628649,33.2606094 4.79482366,34.262061 4.79482366,35.4984053" id="Fill-27"></path>
                        </g>
                        <g id="Group-29-Copy-17" transform="translate(39.812004, 136.262626) scale(-1, 1) translate(-39.812004, -136.262626) translate(27.820437, 117.070707)">
                            <path d="M14.1517586,7.88351579 C14.1517586,9.11943918 13.1536408,10.1213117 11.9223492,10.1213117 C10.6910577,10.1213117 9.69252056,9.11943918 9.69252056,7.88351579 C9.69252056,6.64717146 10.6910577,5.64571991 11.9223492,5.64571991 C13.1536408,5.64571991 14.1517586,6.64717146 14.1517586,7.88351579" id="Fill-11"></path>
                            <path d="M23.5357433,2.44027516 C23.5357433,3.67619854 22.5376255,4.67807104 21.306334,4.67807104 C20.0750425,4.67807104 19.0765053,3.67619854 19.0765053,2.44027516 C19.0765053,1.20435177 20.0750425,0.202479274 21.306334,0.202479274 C22.5376255,0.202479274 23.5357433,1.20435177 23.5357433,2.44027516" id="Fill-13"></path>
                            <path d="M4.79482366,13.2929959 C4.79482366,14.5289192 3.79628649,15.5307917 2.56541435,15.5307917 C1.33370344,15.5307917 0.335585654,14.5289192 0.335585654,13.2929959 C0.335585654,12.0566515 1.33370344,11.0552 2.56541435,11.0552 C3.79628649,11.0552 4.79482366,12.0566515 4.79482366,13.2929959" id="Fill-15"></path>
                            <path d="M14.1517586,18.9861995 C14.1517586,20.2221229 13.1536408,21.2239954 11.9223492,21.2239954 C10.6910577,21.2239954 9.69252056,20.2221229 9.69252056,18.9861995 C9.69252056,17.7498551 10.6910577,16.7484036 11.9223492,16.7484036 C13.1536408,16.7484036 14.1517586,17.7498551 14.1517586,18.9861995" id="Fill-17"></path>
                            <path d="M23.5357433,13.5429588 C23.5357433,14.7788822 22.5376255,15.7807547 21.306334,15.7807547 C20.0750425,15.7807547 19.0765053,14.7788822 19.0765053,13.5429588 C19.0765053,12.3070354 20.0750425,11.305163 21.306334,11.305163 C22.5376255,11.305163 23.5357433,12.3070354 23.5357433,13.5429588" id="Fill-19"></path>
                            <path d="M4.79482366,24.3956795 C4.79482366,25.6316029 3.79628649,26.6334754 2.56541435,26.6334754 C1.33370344,26.6334754 0.335585654,25.6316029 0.335585654,24.3956795 C0.335585654,23.1593352 1.33370344,22.1578836 2.56541435,22.1578836 C3.79628649,22.1578836 4.79482366,23.1593352 4.79482366,24.3956795" id="Fill-21"></path>
                            <path d="M14.1517586,30.0888831 C14.1517586,31.3248065 13.1536408,32.326679 11.9223492,32.326679 C10.6910577,32.326679 9.69252056,31.3248065 9.69252056,30.0888831 C9.69252056,28.8525388 10.6910577,27.8510873 11.9223492,27.8510873 C13.1536408,27.8510873 14.1517586,28.8525388 14.1517586,30.0888831" id="Fill-23"></path>
                            <path d="M23.5357433,24.6456425 C23.5357433,25.8815659 22.5376255,26.8834384 21.306334,26.8834384 C20.0750425,26.8834384 19.0765053,25.8815659 19.0765053,24.6456425 C19.0765053,23.4097191 20.0750425,22.4078466 21.306334,22.4078466 C22.5376255,22.4078466 23.5357433,23.4097191 23.5357433,24.6456425" id="Fill-25"></path>
                            <path d="M4.79482366,35.4984053 C4.79482366,36.7343287 3.79628649,37.7362012 2.56541435,37.7362012 C1.33370344,37.7362012 0.335585654,36.7343287 0.335585654,35.4984053 C0.335585654,34.262061 1.33370344,33.2606094 2.56541435,33.2606094 C3.79628649,33.2606094 4.79482366,34.262061 4.79482366,35.4984053" id="Fill-27"></path>
                        </g>
                    </g>
                </g>
                <g id="Page-1-Copy-13" transform="translate(88.581845, 342.095960) scale(-1, 1) translate(-88.581845, -342.095960) translate(53.566468, 304.191919)">
                    <polygon id="Fill-6" fill="#EF403D" points="0 4.7979798 0 29.8043806 22.0776945 42.7718942 22.0357568 17.6034258"></polygon>
                    <polygon id="Fill-6-Copy-5" fill="#00B5AD" points="0 37.4242424 0 62.4306432 22.0776945 75.3981568 22.0357568 50.2296884"></polygon>
                    <g id="Group-29" transform="translate(45.712117, 0.271240)" fill="#242057">
                        <path d="M14.1517586,7.88351579 C14.1517586,9.11943918 13.1536408,10.1213117 11.9223492,10.1213117 C10.6910577,10.1213117 9.69252056,9.11943918 9.69252056,7.88351579 C9.69252056,6.64717146 10.6910577,5.64571991 11.9223492,5.64571991 C13.1536408,5.64571991 14.1517586,6.64717146 14.1517586,7.88351579" id="Fill-11"></path>
                        <path d="M23.5357433,2.44027516 C23.5357433,3.67619854 22.5376255,4.67807104 21.306334,4.67807104 C20.0750425,4.67807104 19.0765053,3.67619854 19.0765053,2.44027516 C19.0765053,1.20435177 20.0750425,0.202479274 21.306334,0.202479274 C22.5376255,0.202479274 23.5357433,1.20435177 23.5357433,2.44027516" id="Fill-13"></path>
                        <path d="M4.79482366,13.2929959 C4.79482366,14.5289192 3.79628649,15.5307917 2.56541435,15.5307917 C1.33370344,15.5307917 0.335585654,14.5289192 0.335585654,13.2929959 C0.335585654,12.0566515 1.33370344,11.0552 2.56541435,11.0552 C3.79628649,11.0552 4.79482366,12.0566515 4.79482366,13.2929959" id="Fill-15"></path>
                        <path d="M14.1517586,18.9861995 C14.1517586,20.2221229 13.1536408,21.2239954 11.9223492,21.2239954 C10.6910577,21.2239954 9.69252056,20.2221229 9.69252056,18.9861995 C9.69252056,17.7498551 10.6910577,16.7484036 11.9223492,16.7484036 C13.1536408,16.7484036 14.1517586,17.7498551 14.1517586,18.9861995" id="Fill-17"></path>
                        <path d="M23.5357433,13.5429588 C23.5357433,14.7788822 22.5376255,15.7807547 21.306334,15.7807547 C20.0750425,15.7807547 19.0765053,14.7788822 19.0765053,13.5429588 C19.0765053,12.3070354 20.0750425,11.305163 21.306334,11.305163 C22.5376255,11.305163 23.5357433,12.3070354 23.5357433,13.5429588" id="Fill-19"></path>
                        <path d="M4.79482366,24.3956795 C4.79482366,25.6316029 3.79628649,26.6334754 2.56541435,26.6334754 C1.33370344,26.6334754 0.335585654,25.6316029 0.335585654,24.3956795 C0.335585654,23.1593352 1.33370344,22.1578836 2.56541435,22.1578836 C3.79628649,22.1578836 4.79482366,23.1593352 4.79482366,24.3956795" id="Fill-21"></path>
                        <path d="M14.1517586,30.0888831 C14.1517586,31.3248065 13.1536408,32.326679 11.9223492,32.326679 C10.6910577,32.326679 9.69252056,31.3248065 9.69252056,30.0888831 C9.69252056,28.8525388 10.6910577,27.8510873 11.9223492,27.8510873 C13.1536408,27.8510873 14.1517586,28.8525388 14.1517586,30.0888831" id="Fill-23"></path>
                        <path d="M23.5357433,24.6456425 C23.5357433,25.8815659 22.5376255,26.8834384 21.306334,26.8834384 C20.0750425,26.8834384 19.0765053,25.8815659 19.0765053,24.6456425 C19.0765053,23.4097191 20.0750425,22.4078466 21.306334,22.4078466 C22.5376255,22.4078466 23.5357433,23.4097191 23.5357433,24.6456425" id="Fill-25"></path>
                        <path d="M4.79482366,35.4984053 C4.79482366,36.7343287 3.79628649,37.7362012 2.56541435,37.7362012 C1.33370344,37.7362012 0.335585654,36.7343287 0.335585654,35.4984053 C0.335585654,34.262061 1.33370344,33.2606094 2.56541435,33.2606094 C3.79628649,33.2606094 4.79482366,34.262061 4.79482366,35.4984053" id="Fill-27"></path>
                    </g>
                </g>
                <g id="Page-1-Copy-12" transform="translate(210.895833, 233.181818)">
                    <g id="Group-5" transform="translate(0.000000, 0.112816)" stroke-linecap="round" stroke-width="4.19495501" stroke="#FFD400" stroke-linejoin="round">
                        <polygon id="Stroke-1" points="38.4502232 0.308181032 0.418999783 22.3316959 38.4502232 44.3552108 76.6902965 22.5413314"></polygon>
                    </g>
                    <polygon id="Fill-6" fill="#F9F9F9" points="0.448272313 41.2881339 0.448272313 66.2945347 22.5259668 79.2620482 22.4840291 54.0935798"></polygon>
                    <g id="Group-29" transform="translate(45.712117, 36.735886)" fill="#242057">
                        <path d="M14.1517586,7.88351579 C14.1517586,9.11943918 13.1536408,10.1213117 11.9223492,10.1213117 C10.6910577,10.1213117 9.69252056,9.11943918 9.69252056,7.88351579 C9.69252056,6.64717146 10.6910577,5.64571991 11.9223492,5.64571991 C13.1536408,5.64571991 14.1517586,6.64717146 14.1517586,7.88351579" id="Fill-11"></path>
                        <path d="M23.5357433,2.44027516 C23.5357433,3.67619854 22.5376255,4.67807104 21.306334,4.67807104 C20.0750425,4.67807104 19.0765053,3.67619854 19.0765053,2.44027516 C19.0765053,1.20435177 20.0750425,0.202479274 21.306334,0.202479274 C22.5376255,0.202479274 23.5357433,1.20435177 23.5357433,2.44027516" id="Fill-13"></path>
                        <path d="M4.79482366,13.2929959 C4.79482366,14.5289192 3.79628649,15.5307917 2.56541435,15.5307917 C1.33370344,15.5307917 0.335585654,14.5289192 0.335585654,13.2929959 C0.335585654,12.0566515 1.33370344,11.0552 2.56541435,11.0552 C3.79628649,11.0552 4.79482366,12.0566515 4.79482366,13.2929959" id="Fill-15"></path>
                        <path d="M14.1517586,18.9861995 C14.1517586,20.2221229 13.1536408,21.2239954 11.9223492,21.2239954 C10.6910577,21.2239954 9.69252056,20.2221229 9.69252056,18.9861995 C9.69252056,17.7498551 10.6910577,16.7484036 11.9223492,16.7484036 C13.1536408,16.7484036 14.1517586,17.7498551 14.1517586,18.9861995" id="Fill-17"></path>
                        <path d="M23.5357433,13.5429588 C23.5357433,14.7788822 22.5376255,15.7807547 21.306334,15.7807547 C20.0750425,15.7807547 19.0765053,14.7788822 19.0765053,13.5429588 C19.0765053,12.3070354 20.0750425,11.305163 21.306334,11.305163 C22.5376255,11.305163 23.5357433,12.3070354 23.5357433,13.5429588" id="Fill-19"></path>
                        <path d="M4.79482366,24.3956795 C4.79482366,25.6316029 3.79628649,26.6334754 2.56541435,26.6334754 C1.33370344,26.6334754 0.335585654,25.6316029 0.335585654,24.3956795 C0.335585654,23.1593352 1.33370344,22.1578836 2.56541435,22.1578836 C3.79628649,22.1578836 4.79482366,23.1593352 4.79482366,24.3956795" id="Fill-21"></path>
                        <path d="M14.1517586,30.0888831 C14.1517586,31.3248065 13.1536408,32.326679 11.9223492,32.326679 C10.6910577,32.326679 9.69252056,31.3248065 9.69252056,30.0888831 C9.69252056,28.8525388 10.6910577,27.8510873 11.9223492,27.8510873 C13.1536408,27.8510873 14.1517586,28.8525388 14.1517586,30.0888831" id="Fill-23"></path>
                        <path d="M23.5357433,24.6456425 C23.5357433,25.8815659 22.5376255,26.8834384 21.306334,26.8834384 C20.0750425,26.8834384 19.0765053,25.8815659 19.0765053,24.6456425 C19.0765053,23.4097191 20.0750425,22.4078466 21.306334,22.4078466 C22.5376255,22.4078466 23.5357433,23.4097191 23.5357433,24.6456425" id="Fill-25"></path>
                        <path d="M4.79482366,35.4984053 C4.79482366,36.7343287 3.79628649,37.7362012 2.56541435,37.7362012 C1.33370344,37.7362012 0.335585654,36.7343287 0.335585654,35.4984053 C0.335585654,34.262061 1.33370344,33.2606094 2.56541435,33.2606094 C3.79628649,33.2606094 4.79482366,34.262061 4.79482366,35.4984053" id="Fill-27"></path>
                    </g>
                </g>
                <polygon id="Fill-6" fill="#242057" points="153.784582 111.338639 153.784582 136.34504 175.862276 149.312553 175.820339 124.144085"></polygon>
                <g id="Group-29" transform="translate(199.383929, 106.515152)" fill="#EF403D">
                    <path d="M14.1517586,7.88351579 C14.1517586,9.11943918 13.1536408,10.1213117 11.9223492,10.1213117 C10.6910577,10.1213117 9.69252056,9.11943918 9.69252056,7.88351579 C9.69252056,6.64717146 10.6910577,5.64571991 11.9223492,5.64571991 C13.1536408,5.64571991 14.1517586,6.64717146 14.1517586,7.88351579" id="Fill-11"></path>
                    <path d="M23.5357433,2.44027516 C23.5357433,3.67619854 22.5376255,4.67807104 21.306334,4.67807104 C20.0750425,4.67807104 19.0765053,3.67619854 19.0765053,2.44027516 C19.0765053,1.20435177 20.0750425,0.202479274 21.306334,0.202479274 C22.5376255,0.202479274 23.5357433,1.20435177 23.5357433,2.44027516" id="Fill-13"></path>
                    <path d="M4.79482366,13.2929959 C4.79482366,14.5289192 3.79628649,15.5307917 2.56541435,15.5307917 C1.33370344,15.5307917 0.335585654,14.5289192 0.335585654,13.2929959 C0.335585654,12.0566515 1.33370344,11.0552 2.56541435,11.0552 C3.79628649,11.0552 4.79482366,12.0566515 4.79482366,13.2929959" id="Fill-15"></path>
                    <path d="M14.1517586,18.9861995 C14.1517586,20.2221229 13.1536408,21.2239954 11.9223492,21.2239954 C10.6910577,21.2239954 9.69252056,20.2221229 9.69252056,18.9861995 C9.69252056,17.7498551 10.6910577,16.7484036 11.9223492,16.7484036 C13.1536408,16.7484036 14.1517586,17.7498551 14.1517586,18.9861995" id="Fill-17"></path>
                    <path d="M23.5357433,13.5429588 C23.5357433,14.7788822 22.5376255,15.7807547 21.306334,15.7807547 C20.0750425,15.7807547 19.0765053,14.7788822 19.0765053,13.5429588 C19.0765053,12.3070354 20.0750425,11.305163 21.306334,11.305163 C22.5376255,11.305163 23.5357433,12.3070354 23.5357433,13.5429588" id="Fill-19"></path>
                    <path d="M4.79482366,24.3956795 C4.79482366,25.6316029 3.79628649,26.6334754 2.56541435,26.6334754 C1.33370344,26.6334754 0.335585654,25.6316029 0.335585654,24.3956795 C0.335585654,23.1593352 1.33370344,22.1578836 2.56541435,22.1578836 C3.79628649,22.1578836 4.79482366,23.1593352 4.79482366,24.3956795" id="Fill-21"></path>
                    <path d="M14.1517586,30.0888831 C14.1517586,31.3248065 13.1536408,32.326679 11.9223492,32.326679 C10.6910577,32.326679 9.69252056,31.3248065 9.69252056,30.0888831 C9.69252056,28.8525388 10.6910577,27.8510873 11.9223492,27.8510873 C13.1536408,27.8510873 14.1517586,28.8525388 14.1517586,30.0888831" id="Fill-23"></path>
                    <path d="M23.5357433,24.6456425 C23.5357433,25.8815659 22.5376255,26.8834384 21.306334,26.8834384 C20.0750425,26.8834384 19.0765053,25.8815659 19.0765053,24.6456425 C19.0765053,23.4097191 20.0750425,22.4078466 21.306334,22.4078466 C22.5376255,22.4078466 23.5357433,23.4097191 23.5357433,24.6456425" id="Fill-25"></path>
                    <path d="M4.79482366,35.4984053 C4.79482366,36.7343287 3.79628649,37.7362012 2.56541435,37.7362012 C1.33370344,37.7362012 0.335585654,36.7343287 0.335585654,35.4984053 C0.335585654,34.262061 1.33370344,33.2606094 2.56541435,33.2606094 C3.79628649,33.2606094 4.79482366,34.262061 4.79482366,35.4984053" id="Fill-27"></path>
                </g>
                <g id="Group-29-Copy-8" transform="translate(255.984127, 73.888889)" fill="#EF403D">
                    <path d="M14.1517586,7.88351579 C14.1517586,9.11943918 13.1536408,10.1213117 11.9223492,10.1213117 C10.6910577,10.1213117 9.69252056,9.11943918 9.69252056,7.88351579 C9.69252056,6.64717146 10.6910577,5.64571991 11.9223492,5.64571991 C13.1536408,5.64571991 14.1517586,6.64717146 14.1517586,7.88351579" id="Fill-11"></path>
                    <path d="M23.5357433,2.44027516 C23.5357433,3.67619854 22.5376255,4.67807104 21.306334,4.67807104 C20.0750425,4.67807104 19.0765053,3.67619854 19.0765053,2.44027516 C19.0765053,1.20435177 20.0750425,0.202479274 21.306334,0.202479274 C22.5376255,0.202479274 23.5357433,1.20435177 23.5357433,2.44027516" id="Fill-13"></path>
                    <path d="M4.79482366,13.2929959 C4.79482366,14.5289192 3.79628649,15.5307917 2.56541435,15.5307917 C1.33370344,15.5307917 0.335585654,14.5289192 0.335585654,13.2929959 C0.335585654,12.0566515 1.33370344,11.0552 2.56541435,11.0552 C3.79628649,11.0552 4.79482366,12.0566515 4.79482366,13.2929959" id="Fill-15"></path>
                    <path d="M14.1517586,18.9861995 C14.1517586,20.2221229 13.1536408,21.2239954 11.9223492,21.2239954 C10.6910577,21.2239954 9.69252056,20.2221229 9.69252056,18.9861995 C9.69252056,17.7498551 10.6910577,16.7484036 11.9223492,16.7484036 C13.1536408,16.7484036 14.1517586,17.7498551 14.1517586,18.9861995" id="Fill-17"></path>
                    <path d="M23.5357433,13.5429588 C23.5357433,14.7788822 22.5376255,15.7807547 21.306334,15.7807547 C20.0750425,15.7807547 19.0765053,14.7788822 19.0765053,13.5429588 C19.0765053,12.3070354 20.0750425,11.305163 21.306334,11.305163 C22.5376255,11.305163 23.5357433,12.3070354 23.5357433,13.5429588" id="Fill-19"></path>
                    <path d="M4.79482366,24.3956795 C4.79482366,25.6316029 3.79628649,26.6334754 2.56541435,26.6334754 C1.33370344,26.6334754 0.335585654,25.6316029 0.335585654,24.3956795 C0.335585654,23.1593352 1.33370344,22.1578836 2.56541435,22.1578836 C3.79628649,22.1578836 4.79482366,23.1593352 4.79482366,24.3956795" id="Fill-21"></path>
                    <path d="M14.1517586,30.0888831 C14.1517586,31.3248065 13.1536408,32.326679 11.9223492,32.326679 C10.6910577,32.326679 9.69252056,31.3248065 9.69252056,30.0888831 C9.69252056,28.8525388 10.6910577,27.8510873 11.9223492,27.8510873 C13.1536408,27.8510873 14.1517586,28.8525388 14.1517586,30.0888831" id="Fill-23"></path>
                    <path d="M23.5357433,24.6456425 C23.5357433,25.8815659 22.5376255,26.8834384 21.306334,26.8834384 C20.0750425,26.8834384 19.0765053,25.8815659 19.0765053,24.6456425 C19.0765053,23.4097191 20.0750425,22.4078466 21.306334,22.4078466 C22.5376255,22.4078466 23.5357433,23.4097191 23.5357433,24.6456425" id="Fill-25"></path>
                    <path d="M4.79482366,35.4984053 C4.79482366,36.7343287 3.79628649,37.7362012 2.56541435,37.7362012 C1.33370344,37.7362012 0.335585654,36.7343287 0.335585654,35.4984053 C0.335585654,34.262061 1.33370344,33.2606094 2.56541435,33.2606094 C3.79628649,33.2606094 4.79482366,34.262061 4.79482366,35.4984053" id="Fill-27"></path>
                </g>
                <g id="Group-29-Copy-7" transform="translate(227.204365, 90.202020)" fill="#EF403D">
                    <path d="M14.1517586,7.88351579 C14.1517586,9.11943918 13.1536408,10.1213117 11.9223492,10.1213117 C10.6910577,10.1213117 9.69252056,9.11943918 9.69252056,7.88351579 C9.69252056,6.64717146 10.6910577,5.64571991 11.9223492,5.64571991 C13.1536408,5.64571991 14.1517586,6.64717146 14.1517586,7.88351579" id="Fill-11"></path>
                    <path d="M23.5357433,2.44027516 C23.5357433,3.67619854 22.5376255,4.67807104 21.306334,4.67807104 C20.0750425,4.67807104 19.0765053,3.67619854 19.0765053,2.44027516 C19.0765053,1.20435177 20.0750425,0.202479274 21.306334,0.202479274 C22.5376255,0.202479274 23.5357433,1.20435177 23.5357433,2.44027516" id="Fill-13"></path>
                    <path d="M4.79482366,13.2929959 C4.79482366,14.5289192 3.79628649,15.5307917 2.56541435,15.5307917 C1.33370344,15.5307917 0.335585654,14.5289192 0.335585654,13.2929959 C0.335585654,12.0566515 1.33370344,11.0552 2.56541435,11.0552 C3.79628649,11.0552 4.79482366,12.0566515 4.79482366,13.2929959" id="Fill-15"></path>
                    <path d="M14.1517586,18.9861995 C14.1517586,20.2221229 13.1536408,21.2239954 11.9223492,21.2239954 C10.6910577,21.2239954 9.69252056,20.2221229 9.69252056,18.9861995 C9.69252056,17.7498551 10.6910577,16.7484036 11.9223492,16.7484036 C13.1536408,16.7484036 14.1517586,17.7498551 14.1517586,18.9861995" id="Fill-17"></path>
                    <path d="M23.5357433,13.5429588 C23.5357433,14.7788822 22.5376255,15.7807547 21.306334,15.7807547 C20.0750425,15.7807547 19.0765053,14.7788822 19.0765053,13.5429588 C19.0765053,12.3070354 20.0750425,11.305163 21.306334,11.305163 C22.5376255,11.305163 23.5357433,12.3070354 23.5357433,13.5429588" id="Fill-19"></path>
                    <path d="M4.79482366,24.3956795 C4.79482366,25.6316029 3.79628649,26.6334754 2.56541435,26.6334754 C1.33370344,26.6334754 0.335585654,25.6316029 0.335585654,24.3956795 C0.335585654,23.1593352 1.33370344,22.1578836 2.56541435,22.1578836 C3.79628649,22.1578836 4.79482366,23.1593352 4.79482366,24.3956795" id="Fill-21"></path>
                    <path d="M14.1517586,30.0888831 C14.1517586,31.3248065 13.1536408,32.326679 11.9223492,32.326679 C10.6910577,32.326679 9.69252056,31.3248065 9.69252056,30.0888831 C9.69252056,28.8525388 10.6910577,27.8510873 11.9223492,27.8510873 C13.1536408,27.8510873 14.1517586,28.8525388 14.1517586,30.0888831" id="Fill-23"></path>
                    <path d="M23.5357433,24.6456425 C23.5357433,25.8815659 22.5376255,26.8834384 21.306334,26.8834384 C20.0750425,26.8834384 19.0765053,25.8815659 19.0765053,24.6456425 C19.0765053,23.4097191 20.0750425,22.4078466 21.306334,22.4078466 C22.5376255,22.4078466 23.5357433,23.4097191 23.5357433,24.6456425" id="Fill-25"></path>
                    <path d="M4.79482366,35.4984053 C4.79482366,36.7343287 3.79628649,37.7362012 2.56541435,37.7362012 C1.33370344,37.7362012 0.335585654,36.7343287 0.335585654,35.4984053 C0.335585654,34.262061 1.33370344,33.2606094 2.56541435,33.2606094 C3.79628649,33.2606094 4.79482366,34.262061 4.79482366,35.4984053" id="Fill-27"></path>
                </g>
                <g id="Group-29-Copy-9" transform="translate(283.804563, 57.575758)" fill="#EF403D">
                    <path d="M14.1517586,7.88351579 C14.1517586,9.11943918 13.1536408,10.1213117 11.9223492,10.1213117 C10.6910577,10.1213117 9.69252056,9.11943918 9.69252056,7.88351579 C9.69252056,6.64717146 10.6910577,5.64571991 11.9223492,5.64571991 C13.1536408,5.64571991 14.1517586,6.64717146 14.1517586,7.88351579" id="Fill-11"></path>
                    <path d="M23.5357433,2.44027516 C23.5357433,3.67619854 22.5376255,4.67807104 21.306334,4.67807104 C20.0750425,4.67807104 19.0765053,3.67619854 19.0765053,2.44027516 C19.0765053,1.20435177 20.0750425,0.202479274 21.306334,0.202479274 C22.5376255,0.202479274 23.5357433,1.20435177 23.5357433,2.44027516" id="Fill-13"></path>
                    <path d="M4.79482366,13.2929959 C4.79482366,14.5289192 3.79628649,15.5307917 2.56541435,15.5307917 C1.33370344,15.5307917 0.335585654,14.5289192 0.335585654,13.2929959 C0.335585654,12.0566515 1.33370344,11.0552 2.56541435,11.0552 C3.79628649,11.0552 4.79482366,12.0566515 4.79482366,13.2929959" id="Fill-15"></path>
                    <path d="M14.1517586,18.9861995 C14.1517586,20.2221229 13.1536408,21.2239954 11.9223492,21.2239954 C10.6910577,21.2239954 9.69252056,20.2221229 9.69252056,18.9861995 C9.69252056,17.7498551 10.6910577,16.7484036 11.9223492,16.7484036 C13.1536408,16.7484036 14.1517586,17.7498551 14.1517586,18.9861995" id="Fill-17"></path>
                    <path d="M23.5357433,13.5429588 C23.5357433,14.7788822 22.5376255,15.7807547 21.306334,15.7807547 C20.0750425,15.7807547 19.0765053,14.7788822 19.0765053,13.5429588 C19.0765053,12.3070354 20.0750425,11.305163 21.306334,11.305163 C22.5376255,11.305163 23.5357433,12.3070354 23.5357433,13.5429588" id="Fill-19"></path>
                    <path d="M4.79482366,24.3956795 C4.79482366,25.6316029 3.79628649,26.6334754 2.56541435,26.6334754 C1.33370344,26.6334754 0.335585654,25.6316029 0.335585654,24.3956795 C0.335585654,23.1593352 1.33370344,22.1578836 2.56541435,22.1578836 C3.79628649,22.1578836 4.79482366,23.1593352 4.79482366,24.3956795" id="Fill-21"></path>
                    <path d="M14.1517586,30.0888831 C14.1517586,31.3248065 13.1536408,32.326679 11.9223492,32.326679 C10.6910577,32.326679 9.69252056,31.3248065 9.69252056,30.0888831 C9.69252056,28.8525388 10.6910577,27.8510873 11.9223492,27.8510873 C13.1536408,27.8510873 14.1517586,28.8525388 14.1517586,30.0888831" id="Fill-23"></path>
                    <path d="M23.5357433,24.6456425 C23.5357433,25.8815659 22.5376255,26.8834384 21.306334,26.8834384 C20.0750425,26.8834384 19.0765053,25.8815659 19.0765053,24.6456425 C19.0765053,23.4097191 20.0750425,22.4078466 21.306334,22.4078466 C22.5376255,22.4078466 23.5357433,23.4097191 23.5357433,24.6456425" id="Fill-25"></path>
                    <path d="M4.79482366,35.4984053 C4.79482366,36.7343287 3.79628649,37.7362012 2.56541435,37.7362012 C1.33370344,37.7362012 0.335585654,36.7343287 0.335585654,35.4984053 C0.335585654,34.262061 1.33370344,33.2606094 2.56541435,33.2606094 C3.79628649,33.2606094 4.79482366,34.262061 4.79482366,35.4984053" id="Fill-27"></path>
                </g>
            </g>
        </g>
    </g>
</svg>