<svg id="Layer_1" data-name="Layer 1" xmlns="http://www.w3.org/2000/svg" xmlns:xlink="http://www.w3.org/1999/xlink" viewBox="0 0 750 764"><defs><style>.cls-1{fill:none;}.cls-2{fill:#ee413d;}.cls-3{clip-path:url(#clip-path);}.cls-4{fill:#fff;}.cls-5{fill:#fbd405;}.cls-6{fill:#242257;}</style><clipPath id="clip-path"><rect class="cls-1" x="-70.33" y="-0.8" width="866.29" height="764"/></clipPath></defs><title>Site Banners</title><rect class="cls-2" x="-0.04" y="-0.06" width="750.3" height="764"/><g class="cls-3"><path class="cls-4" d="M-61.48,373.53l46.67,31.32,50.47-26.35L-13,348.05Zm46.33,37.8a3,3,0,0,1-1.52-.5L-69,375.71a3,3,0,0,1-1.33-2.65,3,3,0,0,1,1.6-2.5l54.48-28.63a3,3,0,0,1,3,.11L43.29,376.2a3,3,0,0,1-.2,5.2L-13.61,411a3,3,0,0,1-1.54.34"/><path class="cls-5" d="M146.62,492.28a3,3,0,0,1-1.47-.38L89.76,460.8a3,3,0,1,1,2.94-5.23l55.39,31.09a3,3,0,0,1-1.47,5.62"/><path class="cls-5" d="M133,500.5a3,3,0,0,1-1.47-.38L76.18,469a3,3,0,1,1,2.94-5.23l55.39,31.09A3,3,0,0,1,133,500.5"/><path class="cls-5" d="M160.2,484.06a3,3,0,0,1-1.47-.38l-55.39-31.09a3,3,0,1,1,2.94-5.23l55.39,31.09a3,3,0,0,1-1.47,5.62"/></g><polygon class="cls-6" points="92.39 302.94 91.93 333.53 118.47 348.87 118.92 318.63 92.39 302.94"/><g class="cls-3"><path class="cls-5" d="M173.37,396.39a3,3,0,0,0,1.47-.38l55.39-31.09a3,3,0,1,0-2.94-5.23l-55.39,31.09a3,3,0,0,0,1.47,5.62"/><path class="cls-6" d="M152.33,377.74l48.2,28.92,49.08-28.87-50.13-28Zm48.18,35.41a3,3,0,0,1-1.54-.43l-54-32.43a3,3,0,0,1,0-5.15l53-31.35a3,3,0,0,1,3,0L257.1,375.1a3,3,0,0,1,.06,5.21L202,412.73a3,3,0,0,1-1.52.41"/><path class="cls-5" d="M183.91,302.84a3,3,0,0,1-1.51-5.6l.47-.27a3,3,0,0,1,3,5.19l-.47.27a3,3,0,0,1-1.5.4m-13.73,8a3,3,0,0,1-1.51-5.6l.47-.27a3,3,0,0,1,3,5.19l-.47.27a3,3,0,0,1-1.5.4m-13.73,8a3,3,0,0,1-1.51-5.6l.47-.27a3,3,0,0,1,3,5.19l-.47.27a3,3,0,0,1-1.5.4"/><path class="cls-5" d="M183.91,334.94a3,3,0,0,1-1.51-5.6l.47-.27a3,3,0,0,1,3,5.19l-.47.27a3,3,0,0,1-1.5.4m-13.73,8a3,3,0,0,1-1.51-5.6l.47-.27a3,3,0,0,1,3,5.19l-.47.27a3,3,0,0,1-1.5.4m-13.73,8a3,3,0,0,1-1.51-5.6l.47-.27a3,3,0,0,1,3,5.19l-.47.27a3,3,0,0,1-1.5.4"/><path class="cls-5" d="M183.91,318.88a3,3,0,0,1-1.51-5.6l.47-.27a3,3,0,1,1,3,5.19l-.47.27a3,3,0,0,1-1.5.4m-13.73,8a3,3,0,0,1-1.51-5.6l.47-.27a3,3,0,0,1,3,5.19l-.47.27a3,3,0,0,1-1.5.4m-13.73,8a3,3,0,0,1-1.51-5.6l.47-.27a3,3,0,0,1,3,5.19l-.47.27a3,3,0,0,1-1.5.4"/><path class="cls-4" d="M549,338.87a3,3,0,0,1-1.47-.38L492.19,307.4a3,3,0,1,1,2.94-5.23l55.39,31.09a3,3,0,0,1-1.47,5.62"/><path class="cls-6" d="M535.46,347.09a3,3,0,0,1-1.47-.38l-55.39-31.09a3,3,0,0,1,2.94-5.23l55.39,31.09a3,3,0,0,1-1.47,5.62"/><path class="cls-6" d="M562.62,330.65a3,3,0,0,1-1.47-.38l-55.39-31.09a3,3,0,1,1,2.94-5.23L564.09,325a3,3,0,0,1-1.47,5.62"/><path class="cls-5" d="M472.63,320.22l48.2,28.92,49.08-28.87-50.13-28Zm48.18,35.41a3,3,0,0,1-1.54-.43l-54-32.43a3,3,0,0,1,0-5.15l53-31.35a3,3,0,0,1,3,0l56.21,31.35a3,3,0,0,1,.06,5.21l-55.12,32.43a3,3,0,0,1-1.52.41"/><path class="cls-6" d="M562.33,348a3,3,0,0,1-1.51-5.6l.47-.27a3,3,0,0,1,3,5.19l-.47.27a3,3,0,0,1-1.5.4m-13.73,8a3,3,0,0,1-1.51-5.6l.47-.27a3,3,0,0,1,3,5.19l-.47.27a3,3,0,0,1-1.5.4m-13.73,8a3,3,0,0,1-1.51-5.6l.47-.27a3,3,0,0,1,3,5.19l-.47.27a3,3,0,0,1-1.5.4"/><path class="cls-6" d="M562.33,380.13a3,3,0,0,1-1.51-5.6l.47-.27a3,3,0,0,1,3,5.19l-.47.27a3,3,0,0,1-1.5.4m-13.73,8a3,3,0,0,1-1.51-5.6l.47-.27a3,3,0,0,1,3,5.19l-.47.27a3,3,0,0,1-1.5.4m-13.73,8a3,3,0,0,1-1.51-5.6l.47-.27a3,3,0,0,1,3,5.19l-.47.27a3,3,0,0,1-1.5.4"/><path class="cls-6" d="M562.33,364.07a3,3,0,0,1-1.51-5.6l.47-.27a3,3,0,0,1,3,5.19l-.47.27a3,3,0,0,1-1.5.4m-13.73,8a3,3,0,0,1-1.51-5.6l.47-.27a3,3,0,0,1,3,5.19l-.47.27a3,3,0,0,1-1.5.4m-13.73,8a3,3,0,0,1-1.51-5.6l.47-.27a3,3,0,0,1,3,5.19l-.47.27a3,3,0,0,1-1.5.4"/><path class="cls-5" d="M493.92,505a3,3,0,0,1-1.47-.38L437.06,473.5a3,3,0,1,1,2.94-5.23l55.39,31.09a3,3,0,0,1-1.47,5.62"/><path class="cls-6" d="M480.34,513.19a3,3,0,0,1-1.47-.38l-55.39-31.09a3,3,0,1,1,2.94-5.23l55.39,31.09a3,3,0,0,1-1.47,5.62"/><path class="cls-6" d="M507.5,496.75a3,3,0,0,1-1.47-.38l-55.39-31.09a3,3,0,1,1,2.94-5.23L509,491.14a3,3,0,0,1-1.47,5.62"/><path class="cls-6" d="M441.95,404.59a3,3,0,0,1-1.47-.38l-55.39-31.09a3,3,0,1,1,2.94-5.23L443.42,399a3,3,0,0,1-1.47,5.62"/><path class="cls-5" d="M428.37,412.81a3,3,0,0,1-1.47-.38l-55.39-31.09a3,3,0,1,1,2.94-5.23l55.39,31.09a3,3,0,0,1-1.47,5.62"/><path class="cls-5" d="M455.52,396.37a3,3,0,0,1-1.47-.38L398.67,364.9a3,3,0,1,1,2.94-5.23L457,390.76a3,3,0,0,1-1.47,5.62"/><path class="cls-5" d="M455.23,413.75a3,3,0,0,1-1.51-5.6l.47-.27a3,3,0,0,1,3,5.19l-.47.27a3,3,0,0,1-1.5.4m-13.73,8a3,3,0,0,1-1.51-5.6l.47-.27a3,3,0,0,1,3,5.19l-.47.27a3,3,0,0,1-1.5.4m-13.73,8a3,3,0,0,1-1.51-5.6l.47-.27a3,3,0,0,1,3,5.19l-.47.27a3,3,0,0,1-1.5.4"/><path class="cls-5" d="M455.23,445.84a3,3,0,0,1-1.51-5.6l.47-.27a3,3,0,0,1,3,5.19l-.47.27a3,3,0,0,1-1.5.4m-13.73,8a3,3,0,0,1-1.51-5.6l.47-.27a3,3,0,0,1,3,5.19l-.47.27a3,3,0,0,1-1.5.4m-13.73,8a3,3,0,0,1-1.51-5.6l.47-.27a3,3,0,0,1,3,5.19l-.47.27a3,3,0,0,1-1.5.4"/><path class="cls-5" d="M455.23,429.79a3,3,0,0,1-1.51-5.6l.47-.27a3,3,0,0,1,3,5.19l-.47.27a3,3,0,0,1-1.5.4m-13.73,8a3,3,0,0,1-1.51-5.6l.47-.27a3,3,0,0,1,3,5.19l-.47.27a3,3,0,0,1-1.5.4m-13.73,8a3,3,0,0,1-1.51-5.6l.47-.27a3,3,0,0,1,3,5.19l-.47.27a3,3,0,0,1-1.5.4"/><path class="cls-6" d="M677.93,544.59a3,3,0,0,1-1.47-.38l-55.39-31.09a3,3,0,1,1,2.94-5.23L679.4,539a3,3,0,0,1-1.47,5.62"/><path class="cls-4" d="M664.35,552.8a3,3,0,0,1-1.47-.38l-55.39-31.09a3,3,0,0,1,2.94-5.23l55.39,31.09a3,3,0,0,1-1.47,5.62"/><path class="cls-4" d="M691.51,536.37A3,3,0,0,1,690,536l-55.39-31.09a3,3,0,1,1,2.94-5.23L693,530.75a3,3,0,0,1-1.47,5.62"/><path class="cls-5" d="M601.51,525.93l48.2,28.92L698.79,526l-50.13-28Zm48.18,35.41a3,3,0,0,1-1.54-.43l-54-32.43a3,3,0,0,1,0-5.15l53-31.35a3,3,0,0,1,3,0l56.21,31.34a3,3,0,0,1,.06,5.21l-55.12,32.43a3,3,0,0,1-1.52.41"/></g><polygon class="cls-6" points="573.89 423.86 573.44 454.44 599.98 469.79 600.43 439.55 573.89 423.86"/><polygon class="cls-4" points="360.84 418.65 361.3 449.24 334.76 464.58 334.31 434.35 360.84 418.65"/><polygon class="cls-6" points="201.51 510.5 201.06 541.09 227.6 556.43 228.05 526.2 201.51 510.5"/><g class="cls-3"><path class="cls-5" d="M206.33,477.78l48.2,28.92,49.08-28.87-50.13-28Zm48.18,35.41a3,3,0,0,1-1.54-.43l-54-32.43a3,3,0,0,1,0-5.15l53-31.35a3,3,0,0,1,3,0l56.21,31.35a3,3,0,0,1,.06,5.21L256,512.78a3,3,0,0,1-1.52.41"/><path class="cls-6" d="M296,505.59a3,3,0,0,1-1.51-5.6l.47-.27a3,3,0,1,1,3,5.19l-.47.27a3,3,0,0,1-1.5.4m-13.73,8a3,3,0,0,1-1.51-5.6l.47-.27a3,3,0,0,1,3,5.19l-.47.27a3,3,0,0,1-1.5.4m-13.73,8a3,3,0,0,1-1.51-5.6l.47-.27a3,3,0,0,1,3,5.19l-.47.27a3,3,0,0,1-1.5.4"/><path class="cls-6" d="M296,537.69a3,3,0,0,1-1.51-5.6l.47-.27a3,3,0,0,1,3,5.19l-.47.27a3,3,0,0,1-1.5.4m-13.73,8a3,3,0,0,1-1.51-5.6l.47-.27a3,3,0,0,1,3,5.19l-.47.27a3,3,0,0,1-1.5.4m-13.73,8a3,3,0,0,1-1.51-5.6l.47-.27a3,3,0,0,1,3,5.19l-.47.27a3,3,0,0,1-1.5.4"/><path class="cls-6" d="M296,521.64a3,3,0,0,1-1.51-5.6l.47-.27a3,3,0,1,1,3,5.19l-.47.27a3,3,0,0,1-1.5.4m-13.73,8a3,3,0,0,1-1.51-5.6l.47-.27a3,3,0,0,1,3,5.19l-.47.27a3,3,0,0,1-1.5.4m-13.73,8a3,3,0,0,1-1.51-5.6l.47-.27a3,3,0,0,1,3,5.19l-.47.27a3,3,0,0,1-1.5.4"/><path class="cls-4" d="M689.78,374l46.68,31.32L786.93,379l-48.65-30.46Zm46.33,37.8a3,3,0,0,1-1.52-.5l-52.33-35.12a3,3,0,0,1,.28-5.15L737,342.44a3,3,0,0,1,3,.11l54.55,34.15a3,3,0,0,1-.2,5.2l-56.7,29.6a3,3,0,0,1-1.54.34"/></g></svg>