<svg id="Layer_1" data-name="Layer 1" xmlns="http://www.w3.org/2000/svg" xmlns:xlink="http://www.w3.org/1999/xlink" viewBox="0 0 750 764"><defs><style>.cls-1,.cls-3{fill:none;}.cls-2{fill:#01b5ab;}.cls-3{stroke:#fff;stroke-width:6px;}.cls-4{clip-path:url(#clip-path);}.cls-5{fill:#fbd405;}.cls-6{fill:#fff;}.cls-7{fill:#242257;}</style><clipPath id="clip-path"><rect class="cls-1" x="-0.42" y="1.75" width="750" height="764"/></clipPath></defs><title>Site Banners</title><rect class="cls-2" x="-0.42" y="-0.04" width="750" height="764.04"/><polygon class="cls-3" points="165.1 300.15 598.1 300.15 611.1 556.03 138.1 556.03 145.66 430.61 165.1 300.15"/><polyline class="cls-3" points="305.42 301.88 340.76 439.63 347.93 556.99"/><line class="cls-3" x1="516.05" y1="301.02" x2="346.41" y2="532.53"/><line class="cls-3" x1="316.33" y1="301.25" x2="508.6" y2="554.56"/><g class="cls-4"><path class="cls-5" d="M251,358.68a3,3,0,0,1-1.47-.38L194.12,327.2a3,3,0,1,1,2.94-5.23l55.39,31.09a3,3,0,0,1-1.47,5.62"/><path class="cls-5" d="M237.4,366.9a3,3,0,0,1-1.47-.38l-55.39-31.09a3,3,0,0,1,2.94-5.23l55.39,31.09a3,3,0,0,1-1.47,5.62"/><path class="cls-5" d="M264.56,350.46a3,3,0,0,1-1.47-.38L207.7,319a3,3,0,1,1,2.94-5.23L266,344.84a3,3,0,0,1-1.47,5.62"/><path class="cls-6" d="M273.09,385.07a3,3,0,0,1-1.51-5.6l.47-.27a3,3,0,0,1,3,5.19l-.47.27a3,3,0,0,1-1.5.4m-13.73,8a3,3,0,0,1-1.51-5.6l.47-.27a3,3,0,0,1,3,5.19l-.47.27a3,3,0,0,1-1.5.4m-13.73,8a3,3,0,0,1-1.51-5.6l.47-.27a3,3,0,0,1,3,5.19l-.47.27a3,3,0,0,1-1.5.4"/><path class="cls-6" d="M273.09,417.17a3,3,0,0,1-1.51-5.6l.47-.27a3,3,0,0,1,3,5.19l-.47.27a3,3,0,0,1-1.5.4m-13.73,8a3,3,0,0,1-1.51-5.6l.47-.27a3,3,0,0,1,3,5.19l-.47.27a3,3,0,0,1-1.5.4m-13.73,8a3,3,0,0,1-1.51-5.6l.47-.27a3,3,0,0,1,3,5.19l-.47.27a3,3,0,0,1-1.5.4"/><path class="cls-6" d="M273.09,401.12a3,3,0,0,1-1.51-5.6l.47-.27a3,3,0,0,1,3,5.19l-.47.27a3,3,0,0,1-1.5.4m-13.73,8a3,3,0,0,1-1.51-5.6l.47-.27a3,3,0,0,1,3,5.19l-.47.27a3,3,0,0,1-1.5.4m-13.73,8a3,3,0,0,1-1.51-5.6l.47-.27a3,3,0,0,1,3,5.19l-.47.27a3,3,0,0,1-1.5.4"/><path class="cls-6" d="M176,481.3a3,3,0,0,1-1.47-.38l-55.39-31.09a3,3,0,1,1,2.94-5.23l55.39,31.09A3,3,0,0,1,176,481.3"/><path class="cls-6" d="M162.42,489.52a3,3,0,0,1-1.47-.38L105.57,458a3,3,0,0,1,2.94-5.23L163.9,483.9a3,3,0,0,1-1.47,5.62"/><path class="cls-6" d="M189.58,473.08a3,3,0,0,1-1.47-.38L132.73,441.6a3,3,0,1,1,2.94-5.23l55.39,31.09a3,3,0,0,1-1.47,5.62"/><path class="cls-7" d="M273.09,492.47a3,3,0,0,1-1.51-5.6l.47-.27a3,3,0,1,1,3,5.19l-.47.27a3,3,0,0,1-1.5.4m-13.73,8a3,3,0,0,1-1.51-5.6l.47-.27a3,3,0,1,1,3,5.19l-.47.27a3,3,0,0,1-1.5.4m-13.73,8a3,3,0,0,1-1.51-5.6l.47-.27a3,3,0,0,1,3,5.19l-.47.27a3,3,0,0,1-1.5.4"/><path class="cls-7" d="M273.09,524.56a3,3,0,0,1-1.51-5.6l.47-.27a3,3,0,0,1,3,5.19l-.47.27a3,3,0,0,1-1.5.4m-13.73,8a3,3,0,0,1-1.51-5.6l.47-.27a3,3,0,1,1,3,5.19l-.47.27a3,3,0,0,1-1.5.4m-13.73,8a3,3,0,0,1-1.51-5.6l.47-.27a3,3,0,0,1,3,5.19l-.47.27a3,3,0,0,1-1.5.4"/><path class="cls-7" d="M273.09,508.51a3,3,0,0,1-1.51-5.6l.47-.27a3,3,0,1,1,3,5.19l-.47.27a3,3,0,0,1-1.5.4m-13.73,8a3,3,0,0,1-1.51-5.6l.47-.27a3,3,0,1,1,3,5.19l-.47.27a3,3,0,0,1-1.5.4m-13.73,8a3,3,0,0,1-1.51-5.6l.47-.27a3,3,0,0,1,3,5.19l-.47.27a3,3,0,0,1-1.5.4"/><path class="cls-5" d="M413.67,318.89a3,3,0,0,1-1.51-5.6l.47-.27a3,3,0,0,1,3,5.19l-.47.27a3,3,0,0,1-1.5.4m-13.73,8a3,3,0,0,1-1.51-5.6l.47-.27a3,3,0,0,1,3,5.19l-.47.27a3,3,0,0,1-1.5.4m-13.73,8a3,3,0,0,1-1.51-5.6l.47-.27a3,3,0,0,1,3,5.19l-.47.27a3,3,0,0,1-1.5.4"/><path class="cls-5" d="M413.67,351a3,3,0,0,1-1.51-5.6l.47-.27a3,3,0,0,1,3,5.19l-.47.27a3,3,0,0,1-1.5.4m-13.73,8a3,3,0,0,1-1.51-5.6l.47-.27a3,3,0,0,1,3,5.19l-.47.27a3,3,0,0,1-1.5.4m-13.73,8a3,3,0,0,1-1.51-5.6l.47-.27a3,3,0,0,1,3,5.19l-.47.27a3,3,0,0,1-1.5.4"/><path class="cls-5" d="M413.67,334.93a3,3,0,0,1-1.51-5.6l.47-.27a3,3,0,0,1,3,5.19l-.47.27a3,3,0,0,1-1.5.4m-13.73,8a3,3,0,0,1-1.51-5.6l.47-.27a3,3,0,0,1,3,5.19l-.47.27a3,3,0,0,1-1.5.4m-13.73,8a3,3,0,0,1-1.51-5.6l.47-.27a3,3,0,0,1,3,5.19l-.47.27a3,3,0,0,1-1.5.4"/><path class="cls-6" d="M630.55,423.11a3,3,0,0,1-1.47-.38l-55.39-31.09a3,3,0,1,1,2.94-5.23L632,417.49a3,3,0,0,1-1.47,5.62"/><path class="cls-6" d="M617,431.33a3,3,0,0,1-1.47-.38l-55.39-31.09a3,3,0,0,1,2.94-5.23l55.39,31.09a3,3,0,0,1-1.47,5.62"/><path class="cls-6" d="M645.13,415.89a3,3,0,0,1-1.47-.38l-55.39-31.09a3,3,0,1,1,2.94-5.23l55.39,31.09a3,3,0,0,1-1.47,5.62"/></g><polygon class="cls-7" points="458.8 458.3 458.34 488.89 484.88 504.23 485.33 473.99 458.8 458.3"/><g class="cls-4"><path class="cls-5" d="M553.32,492.47a3,3,0,0,1-1.51-5.6l.47-.27a3,3,0,0,1,3,5.19l-.47.27a3,3,0,0,1-1.5.4m-13.73,8a3,3,0,0,1-1.51-5.6l.47-.27a3,3,0,0,1,3,5.19l-.47.27a3,3,0,0,1-1.5.4m-13.73,8a3,3,0,0,1-1.51-5.6l.47-.27a3,3,0,0,1,3,5.19l-.47.27a3,3,0,0,1-1.5.4"/><path class="cls-5" d="M553.32,524.57a3,3,0,0,1-1.51-5.6l.47-.27a3,3,0,0,1,3,5.19l-.47.27a3,3,0,0,1-1.5.4m-13.73,8a3,3,0,0,1-1.51-5.6l.47-.27a3,3,0,0,1,3,5.19l-.47.27a3,3,0,0,1-1.5.4m-13.73,8a3,3,0,0,1-1.51-5.6l.47-.27a3,3,0,0,1,3,5.19l-.47.27a3,3,0,0,1-1.5.4"/><path class="cls-5" d="M553.32,508.51a3,3,0,0,1-1.51-5.6l.47-.27a3,3,0,0,1,3,5.19l-.47.27a3,3,0,0,1-1.5.4m-13.73,8a3,3,0,0,1-1.51-5.6l.47-.27a3,3,0,0,1,3,5.19l-.47.27a3,3,0,0,1-1.5.4m-13.73,8a3,3,0,0,1-1.51-5.6l.47-.27a3,3,0,0,1,3,5.19l-.47.27a3,3,0,0,1-1.5.4"/><path class="cls-7" d="M553.32,318.89a3,3,0,0,1-1.51-5.6l.47-.27a3,3,0,0,1,3,5.19l-.47.27a3,3,0,0,1-1.5.4m-13.73,8a3,3,0,0,1-1.51-5.6l.47-.27a3,3,0,0,1,3,5.19l-.47.27a3,3,0,0,1-1.5.4m-13.73,8a3,3,0,0,1-1.51-5.6l.47-.27a3,3,0,0,1,3,5.19l-.47.27a3,3,0,0,1-1.5.4"/><path class="cls-7" d="M553.32,351a3,3,0,0,1-1.51-5.6l.47-.27a3,3,0,0,1,3,5.19l-.47.27a3,3,0,0,1-1.5.4m-13.73,8a3,3,0,0,1-1.51-5.6l.47-.27a3,3,0,0,1,3,5.19l-.47.27a3,3,0,0,1-1.5.4m-13.73,8a3,3,0,0,1-1.51-5.6l.47-.27a3,3,0,0,1,3,5.19l-.47.27a3,3,0,0,1-1.5.4"/><path class="cls-7" d="M553.32,334.93a3,3,0,0,1-1.51-5.6l.47-.27a3,3,0,0,1,3,5.19l-.47.27a3,3,0,0,1-1.5.4m-13.73,8a3,3,0,0,1-1.51-5.6l.47-.27a3,3,0,0,1,3,5.19l-.47.27a3,3,0,0,1-1.5.4m-13.73,8a3,3,0,0,1-1.51-5.6l.47-.27a3,3,0,0,1,3,5.19l-.47.27a3,3,0,0,1-1.5.4"/></g></svg>